<?xml version="1.0" standalone="no"?>
<!DOCTYPE svg PUBLIC "-//W3C//DTD SVG 20010904//EN"
 "http://www.w3.org/TR/2001/REC-SVG-20010904/DTD/svg10.dtd">
<svg version="1.0" xmlns="http://www.w3.org/2000/svg"
 width="760.000000pt" height="760.000000pt" viewBox="0 0 760.000000 760.000000"
 preserveAspectRatio="xMidYMid meet">
<metadata>
Created by potrace 1.14, written by Peter Selinger 2001-2017
</metadata>
<g transform="translate(0.000000,760.000000) scale(0.100000,-0.100000)"
fill="#000000" stroke="none">
<path d="M4119 7596 c-2 -2 -38 -6 -79 -10 -41 -3 -86 -8 -100 -10 -14 -3 -46
-7 -73 -11 -134 -17 -384 -79 -552 -138 -227 -79 -475 -203 -680 -341 -22 -14
-48 -32 -59 -39 -10 -6 -24 -16 -30 -22 -6 -5 -42 -34 -81 -63 -118 -90 -288
-252 -392 -372 -21 -24 -45 -51 -53 -60 -52 -53 -218 -293 -271 -390 -13 -25
-27 -47 -30 -50 -9 -8 -103 -206 -133 -280 -15 -36 -31 -73 -36 -82 -14 -25 4
-31 31 -10 13 10 42 27 64 37 22 11 42 23 45 27 9 12 318 158 335 158 8 0 15
5 15 12 0 6 3 9 6 5 4 -3 18 0 33 7 14 7 69 27 121 45 52 17 109 36 125 42 17
5 37 12 45 14 17 5 139 35 155 39 47 11 79 17 153 31 66 12 78 19 131 71 98
98 232 200 389 298 64 40 214 116 229 116 7 0 13 5 13 12 0 6 2 9 6 6 3 -3 41
9 85 28 43 18 83 34 87 34 6 0 40 10 137 40 17 5 41 11 55 14 14 3 36 7 50 10
122 26 174 34 290 42 151 11 406 5 450 -10 8 -3 38 -7 65 -10 28 -3 64 -8 80
-11 48 -9 268 -67 285 -75 8 -4 53 -22 100 -40 47 -18 128 -54 180 -80 91 -45
277 -157 305 -183 7 -7 25 -21 41 -32 171 -122 372 -343 503 -554 56 -88 151
-272 151 -291 0 -6 7 -22 16 -35 9 -14 13 -25 9 -25 -4 0 -3 -6 3 -12 8 -11
43 -112 57 -168 20 -74 37 -151 41 -180 3 -19 7 -41 9 -47 19 -56 26 -414 11
-548 -6 -59 -43 -247 -57 -293 -2 -8 -20 -62 -39 -122 l-35 -107 27 -104 c16
-57 30 -117 33 -134 4 -25 15 -75 20 -95 1 -3 5 -32 9 -65 5 -33 10 -69 12
-80 5 -27 16 -120 20 -170 5 -66 4 -396 -2 -450 -3 -27 -5 -57 -6 -65 -1 -31
-27 -216 -33 -240 -3 -8 -7 -33 -11 -55 -16 -109 -103 -400 -150 -510 -10 -22
-18 -42 -19 -45 -1 -3 -5 -13 -10 -23 -4 -10 -6 -20 -4 -22 4 -3 109 -54 449
-217 181 -87 226 -90 287 -19 34 39 38 79 13 147 -12 32 -24 68 -27 79 -4 11
-9 22 -12 25 -4 3 -22 46 -40 95 -19 50 -43 110 -54 135 -11 25 -21 47 -22 50
-6 16 -20 50 -36 87 -10 24 -19 49 -19 56 0 7 -4 17 -9 22 -4 6 -20 42 -35 80
-15 39 -34 84 -41 100 -7 17 -36 87 -65 157 -51 126 -52 128 -33 152 32 42
137 171 142 176 19 17 171 248 171 260 0 5 4 10 8 10 5 0 14 16 22 35 8 19 17
35 21 35 5 0 14 18 20 40 7 22 15 40 19 40 4 0 18 24 30 53 13 28 33 75 45
102 43 93 117 298 129 357 3 13 12 48 20 78 8 30 17 66 20 80 6 31 24 127 31
159 2 13 7 49 11 80 3 31 9 83 14 116 8 59 6 502 -3 540 -2 11 -8 43 -11 70
-11 76 -16 103 -32 185 -19 91 -30 139 -34 150 -1 3 -3 10 -4 15 -6 37 -68
225 -91 280 -7 17 -18 46 -26 65 -12 34 -128 274 -152 315 -93 161 -255 388
-352 491 -141 150 -225 231 -335 319 -47 37 -87 71 -90 74 -6 8 -236 162 -264
177 -12 6 -63 34 -114 62 -50 29 -94 52 -96 52 -2 0 -37 15 -78 34 -106 50
-276 115 -282 108 -3 -3 -6 1 -6 8 0 7 -3 11 -6 7 -4 -3 -23 0 -43 8 -35 14
-210 62 -254 70 -12 3 -35 8 -52 11 -16 4 -37 8 -45 9 -8 1 -28 5 -45 8 -30 7
-70 13 -155 23 -25 3 -58 8 -75 10 -36 6 -501 15 -506 10z"/>
<path d="M3078 5975 c-2 -1 -32 -6 -68 -9 -154 -15 -184 -19 -240 -31 -14 -3
-41 -8 -60 -11 -19 -4 -71 -15 -115 -26 -44 -10 -89 -21 -101 -23 -12 -3 -40
-11 -63 -19 -22 -9 -41 -13 -41 -11 0 2 -21 -5 -47 -16 -27 -11 -68 -27 -93
-35 -25 -8 -54 -19 -65 -24 -11 -5 -65 -28 -120 -51 -135 -58 -343 -167 -373
-196 -7 -7 -17 -13 -22 -13 -17 0 -297 -202 -325 -234 -5 -6 -23 -22 -40 -34
-58 -45 -247 -236 -325 -328 -28 -33 -149 -192 -168 -220 -49 -75 -95 -149
-114 -186 -12 -23 -25 -45 -28 -48 -10 -8 -150 -300 -154 -323 -2 -7 -9 -25
-15 -42 -36 -87 -103 -319 -127 -440 -18 -94 -28 -160 -41 -275 -10 -82 -9
-490 0 -550 4 -25 9 -65 12 -90 5 -46 7 -56 25 -145 5 -27 12 -62 14 -76 12
-74 78 -295 121 -405 51 -130 165 -366 193 -398 10 -10 17 -21 16 -25 -2 -12
123 -204 156 -239 11 -12 20 -25 20 -29 0 -4 13 -22 28 -39 15 -17 42 -49 60
-72 19 -23 42 -51 53 -63 10 -12 19 -23 19 -24 0 -2 -49 -123 -65 -160 -7 -16
-22 -55 -34 -85 -12 -30 -26 -64 -31 -75 -4 -11 -15 -36 -23 -55 -8 -19 -38
-93 -66 -165 -29 -71 -58 -143 -66 -160 -52 -117 -145 -360 -145 -380 0 -51
29 -98 77 -124 26 -13 109 -15 118 -2 3 5 19 12 35 16 17 4 30 11 30 16 0 5 5
9 11 9 11 0 54 20 449 213 113 55 261 126 330 159 69 33 156 75 193 94 l68 34
72 -31 c40 -17 86 -37 102 -45 78 -35 360 -129 420 -140 11 -2 47 -10 81 -18
116 -29 311 -59 325 -51 5 4 9 3 9 -2 0 -4 28 -10 63 -12 100 -8 496 -5 567 3
71 8 290 42 330 51 14 3 36 8 50 11 14 3 43 10 65 16 22 6 45 11 50 12 24 5
136 40 200 62 39 14 75 26 80 28 6 2 12 3 15 3 3 0 16 6 30 13 14 8 30 15 35
16 6 1 36 13 67 28 31 14 61 26 66 26 5 0 15 6 21 14 7 8 24 17 38 21 15 3 39
15 54 25 14 11 28 17 31 14 3 -2 11 2 18 11 7 8 17 15 22 15 18 0 291 173 326
207 7 7 17 13 20 13 4 0 18 10 32 23 14 12 34 29 46 37 44 31 152 129 244 221
122 122 150 155 235 264 38 50 73 92 77 93 5 2 8 10 8 18 0 8 5 14 10 14 6 0
10 7 10 15 0 8 5 15 11 15 5 0 7 5 4 10 -3 6 -2 10 2 10 10 0 49 62 45 72 -1
5 3 8 8 8 6 0 15 10 20 23 6 12 18 36 28 52 10 17 34 59 53 95 18 36 38 68 44
72 5 4 7 8 2 8 -4 0 0 11 9 25 9 14 13 25 10 25 -4 0 0 10 9 23 8 13 12 27 8
30 -3 4 -1 7 5 7 10 0 33 54 31 74 0 5 3 12 8 15 8 6 31 61 38 91 2 8 4 16 5
18 2 1 3 5 5 10 1 4 5 15 10 26 4 10 8 31 9 46 1 15 4 26 9 23 6 -4 8 2 11 40
1 6 4 14 7 17 4 3 10 22 13 44 4 21 8 41 11 45 4 7 7 21 20 86 3 14 8 37 11
53 9 44 20 117 30 202 4 30 8 57 10 59 2 2 -1 13 -7 24 -9 15 -8 18 1 12 10
-6 12 -1 8 19 -3 14 -2 26 3 26 9 0 7 20 -4 38 -5 6 -5 12 0 12 4 0 9 18 9 40
1 24 -3 37 -9 33 -6 -4 -7 -1 -1 8 14 22 15 120 1 112 -9 -5 -9 -3 -1 8 13 18
16 57 3 64 -5 4 -5 13 1 25 7 13 7 21 0 25 -8 5 -7 11 1 21 6 8 8 14 3 14 -5
0 -10 26 -12 57 -1 31 -8 64 -15 72 -10 12 -9 13 2 6 11 -6 13 -4 7 10 -4 11
-9 40 -12 65 -3 25 -8 52 -11 60 -4 8 -5 18 -5 23 1 4 -3 28 -9 55 -6 26 -13
61 -16 77 -3 17 -8 32 -11 35 -4 3 -8 18 -10 35 -2 16 -8 35 -13 41 -5 6 -6
13 -4 16 3 3 0 18 -6 34 -7 16 -14 40 -16 54 -2 13 -9 27 -15 31 -5 3 -9 9 -9
13 4 25 0 36 -11 30 -7 -4 -8 -3 -4 5 8 13 -2 53 -12 47 -4 -2 -8 9 -8 26 -1
17 -5 33 -10 37 -5 3 -10 13 -12 21 -3 16 -43 102 -52 110 -3 3 -7 14 -8 25
-2 11 -8 22 -12 25 -4 3 -10 14 -12 25 -2 11 -10 19 -17 17 -7 -1 -10 2 -7 7
8 12 -4 42 -14 36 -5 -3 -6 5 -2 17 3 14 2 19 -6 14 -8 -4 -12 0 -12 11 0 10
-9 29 -20 43 -11 14 -20 31 -20 38 0 6 -4 12 -10 12 -5 0 -10 6 -10 13 0 7 -9
23 -20 34 -11 12 -21 28 -22 35 -2 7 -10 20 -19 28 -8 8 -18 23 -22 33 -4 10
-11 15 -17 12 -5 -3 -7 0 -4 8 2 7 -7 26 -22 40 -15 15 -24 27 -20 27 4 0 1 6
-6 14 -7 8 -17 11 -22 8 -5 -3 -6 0 -3 5 6 9 -5 24 -71 100 -10 13 -23 19 -27
15 -5 -4 -5 -1 -1 6 8 13 -15 42 -33 42 -6 0 -10 4 -9 9 3 8 -58 75 -117 131
-122 116 -162 149 -173 145 -8 -3 -12 2 -10 13 2 11 -3 16 -15 16 -10 -1 -16
0 -13 3 9 10 -24 34 -35 27 -7 -4 -9 -3 -6 3 3 5 -3 16 -15 24 -11 8 -26 20
-34 27 -7 7 -19 11 -26 10 -6 -2 -12 3 -13 10 0 7 -13 21 -30 30 -16 9 -32 19
-35 22 -15 16 -105 70 -117 70 -8 0 -11 5 -8 10 3 6 -1 10 -9 10 -9 0 -16 5
-16 11 0 7 -9 9 -21 6 -12 -3 -18 -3 -15 0 7 7 -110 77 -159 94 -19 7 -35 17
-35 22 0 5 -6 7 -14 4 -8 -3 -17 1 -20 9 -3 8 -12 14 -19 14 -8 0 -28 7 -46
16 -17 9 -38 17 -45 18 -8 1 -21 8 -30 15 -8 7 -27 14 -41 15 -14 0 -25 4 -25
7 0 3 -19 12 -42 19 -65 20 -71 22 -95 24 -11 0 -19 4 -17 8 4 7 -20 16 -57
21 -8 2 -19 6 -26 10 -6 4 -23 8 -37 9 -14 1 -26 6 -26 10 0 4 -9 5 -20 3 -11
-2 -20 1 -20 6 0 6 -4 8 -9 5 -5 -4 -20 -2 -33 3 -14 5 -41 12 -61 15 -20 3
-56 10 -79 15 -24 5 -50 9 -58 9 -8 1 -33 4 -55 8 -22 4 -57 8 -77 8 -21 1
-38 4 -38 8 0 4 -8 7 -17 7 -83 4 -522 8 -525 6z m422 -800 c30 -4 64 -8 75
-10 11 -1 20 -3 20 -5 0 -1 19 -2 43 -3 23 0 42 -5 42 -10 0 -4 4 -6 8 -3 17
10 296 -69 417 -119 103 -42 222 -103 342 -175 99 -59 269 -196 368 -296 221
-225 402 -508 481 -754 8 -25 19 -54 24 -65 13 -28 59 -213 66 -261 2 -21 7
-50 10 -64 19 -96 25 -388 11 -510 -4 -36 -8 -72 -9 -80 -1 -23 -36 -185 -49
-233 -7 -23 -13 -44 -14 -47 -30 -109 -89 -253 -153 -373 -52 -100 -147 -249
-181 -284 -11 -12 -21 -25 -21 -28 0 -19 -236 -265 -292 -303 -13 -9 -27 -21
-33 -28 -15 -17 -150 -114 -230 -164 -81 -51 -237 -129 -315 -160 -30 -11 -64
-25 -75 -30 -47 -21 -275 -84 -345 -95 -19 -3 -46 -7 -60 -10 -162 -31 -510
-37 -645 -11 -42 8 -125 18 -127 15 -2 -1 -12 2 -23 8 -11 6 -36 14 -55 17
-159 25 -480 154 -643 259 -31 20 -60 37 -63 37 -2 0 -10 5 -17 10 -7 6 -54
42 -105 80 -147 111 -322 282 -391 384 -8 12 -18 23 -21 26 -3 3 -31 43 -62
90 -148 225 -244 448 -299 693 -20 93 -23 110 -36 212 -15 118 -6 515 12 545
2 4 7 28 11 55 3 27 12 66 20 87 7 21 11 38 9 38 -4 0 20 90 32 120 3 8 7 20
8 25 8 33 72 184 113 266 55 108 189 319 204 319 5 0 7 4 4 9 -4 5 -3 11 1 13
5 1 33 32 63 68 84 99 261 270 280 270 6 0 10 4 10 8 0 17 207 155 336 223
150 80 386 170 511 195 6 1 35 7 65 14 29 6 62 13 73 15 52 8 115 17 165 22
30 3 56 6 57 7 6 5 336 -2 383 -9z"/>
<path d="M2133 3404 c-110 -23 -203 -98 -249 -200 -84 -189 29 -408 239 -464
88 -24 209 -2 291 52 66 44 131 144 142 220 10 75 10 82 -4 138 -46 184 -228
294 -419 254z"/>
<path d="M3292 3408 c-105 -16 -213 -95 -260 -191 -48 -98 -44 -216 12 -311
119 -203 399 -236 566 -65 63 64 92 138 93 236 1 65 -3 80 -37 148 -22 41 -41
75 -45 75 -3 0 -22 14 -41 31 -78 69 -174 94 -288 77z"/>
<path d="M4470 3412 c-8 -3 -18 -10 -22 -16 -5 -7 -8 -7 -8 3 0 8 -6 11 -17 6
-10 -4 -29 -9 -43 -11 -14 -3 -26 -9 -28 -15 -2 -5 -12 -9 -22 -9 -10 0 -40
-20 -68 -45 -51 -46 -100 -115 -81 -115 6 0 7 -5 4 -10 -4 -6 -11 -7 -17 -4
-7 5 -9 2 -5 -8 3 -9 0 -21 -6 -27 -8 -8 -7 -11 4 -11 11 -1 11 -2 -2 -10 -11
-6 -15 -23 -14 -59 3 -87 4 -93 18 -85 8 5 8 2 -2 -9 -11 -13 -11 -17 -1 -17
8 0 11 -3 7 -6 -21 -21 89 -155 153 -186 87 -43 176 -60 191 -36 7 11 9 11 9
-1 0 -11 3 -11 17 0 11 10 14 10 9 2 -9 -16 -7 -16 43 2 22 8 41 11 41 7 0 -4
10 4 21 18 11 14 18 19 14 12 -6 -11 -3 -12 14 -2 12 6 18 16 15 22 -4 7 -3 8
4 4 15 -9 104 84 97 101 -2 8 -1 12 4 9 5 -3 16 12 25 34 19 49 20 53 4 44 -7
-4 -6 1 3 12 19 24 25 78 6 68 -9 -5 -9 -4 1 7 6 7 12 17 12 22 0 4 -6 5 -12
1 -10 -6 -10 -5 -1 7 10 12 9 20 -3 37 -8 12 -11 22 -5 22 5 0 -1 20 -14 44
-35 67 -101 140 -117 130 -4 -3 -8 0 -8 6 0 10 -51 34 -66 30 -4 -1 -10 3 -14
10 -4 6 -18 12 -31 14 -14 1 -30 5 -36 9 -6 4 -14 3 -18 -3 -4 -6 -13 -7 -23
-1 -9 4 -24 6 -32 3z m80 -32 c0 -5 -5 -10 -11 -10 -5 0 -7 5 -4 10 3 6 8 10
11 10 2 0 4 -4 4 -10z m80 -20 c0 -5 -5 -10 -11 -10 -5 0 -7 5 -4 10 3 6 8 10
11 10 2 0 4 -4 4 -10z m80 -54 c0 -3 -4 -8 -10 -11 -5 -3 -10 -1 -10 4 0 6 5
11 10 11 6 0 10 -2 10 -4z m-80 -22 c0 -8 -19 -13 -24 -6 -3 5 1 9 9 9 8 0 15
-2 15 -3z m117 -53 c0 -11 -5 -18 -9 -15 -4 3 -5 11 -1 19 7 21 12 19 10 -4z
m-507 -47 c0 -8 -19 -13 -24 -6 -3 5 1 9 9 9 8 0 15 -2 15 -3z m94 -2 c3 -5
-1 -9 -9 -9 -8 0 -12 4 -9 9 3 4 7 8 9 8 2 0 6 -4 9 -8z m476 -36 c0 -3 -4 -8
-10 -11 -5 -3 -10 -1 -10 4 0 6 5 11 10 11 6 0 10 -2 10 -4z m-25 -66 c3 -5 1
-10 -4 -10 -6 0 -11 5 -11 10 0 6 2 10 4 10 3 0 8 -4 11 -10z m-600 -20 c3 -5
1 -10 -4 -10 -6 0 -11 5 -11 10 0 6 2 10 4 10 3 0 8 -4 11 -10z m55 -116 c0
-8 -19 -13 -24 -6 -3 5 1 9 9 9 8 0 15 -2 15 -3z m-10 -38 c0 -3 -4 -8 -10
-11 -5 -3 -10 -1 -10 4 0 6 5 11 10 11 6 0 10 -2 10 -4z m35 -5 c3 -5 2 -12
-3 -15 -5 -3 -9 1 -9 9 0 17 3 19 12 6z m426 -58 c13 -16 12 -17 -3 -4 -10 7
-18 15 -18 17 0 8 8 3 21 -13z m-388 -16 c4 3 7 4 7 0 0 -17 -20 -14 -36 6
-19 22 -19 22 2 4 11 -9 24 -14 27 -10z m63 -9 c3 -4 -1 -5 -10 -4 -8 1 -18 5
-22 8 -3 4 1 5 10 4 8 -1 18 -5 22 -8z m18 -40 c-3 -4 -11 -5 -19 -1 -21 7
-19 12 4 10 11 0 18 -5 15 -9z m61 3 c-9 -8 -36 -10 -30 -2 2 4 11 8 20 8 8 0
13 -3 10 -6z m138 -16 c-7 -21 -12 -19 -10 4 0 11 5 18 9 15 4 -3 5 -11 1 -19z
m47 15 c0 -5 -5 -10 -11 -10 -5 0 -7 5 -4 10 3 6 8 10 11 10 2 0 4 -4 4 -10z"/>
</g>
</svg>
