<svg width="167" height="208" viewBox="0 0 167 208" fill="none" xmlns="http://www.w3.org/2000/svg">
<path d="M45.2121 165.779L12.0315 181.837C11.4266 182.133 10.743 182.243 10.0715 182.154C9.4001 182.065 8.77268 181.78 8.27273 181.337C7.77278 180.894 7.42399 180.314 7.27275 179.675C7.12152 179.035 7.175 178.366 7.4261 177.757L20.8739 144.75C21.0715 144.266 21.3867 143.835 21.7929 143.494C22.199 143.153 22.6841 142.911 23.2071 142.79C23.7301 142.668 24.2756 142.671 24.7975 142.797C25.3194 142.922 25.8023 143.168 26.2053 143.513L45.9273 160.483C46.3337 160.833 46.6455 161.274 46.8355 161.768C47.0255 162.261 47.088 162.792 47.0175 163.314C46.947 163.836 46.7456 164.334 46.431 164.764C46.1163 165.193 45.6979 165.542 45.2121 165.779Z" fill="url(#paint0_linear_63_1097)"/>
<path d="M71.5225 176.341C85.5496 176.225 99.2259 172.084 110.821 164.443C122.416 156.802 131.41 146.004 136.664 133.415C141.917 120.826 143.195 107.011 140.336 93.7191C137.477 80.4269 130.609 68.2541 120.601 58.7405C110.593 49.227 97.8942 42.8001 84.1116 40.273C70.3291 37.7458 56.0818 39.2318 43.172 44.5432C30.2622 49.8545 19.27 58.7524 11.5858 70.1113C3.90162 81.4703 -0.129225 94.7799 0.00315925 108.356C0.180552 126.549 7.81334 143.929 21.2241 156.677C34.6348 169.425 52.7263 176.498 71.5225 176.341ZM70.363 57.8974C80.5422 57.7962 90.5237 60.6193 99.045 66.0095C107.566 71.3998 114.244 79.1151 118.235 88.1794C122.225 97.2437 123.348 107.25 121.462 116.932C119.576 126.614 114.765 135.538 107.639 142.573C100.512 149.609 91.3899 154.441 81.4258 156.458C71.4616 158.475 61.1032 157.586 51.661 153.904C42.2187 150.222 34.1168 143.912 28.3801 135.773C22.6434 127.634 19.5296 118.031 19.4326 108.178C19.3055 94.9759 24.598 82.2647 34.1476 72.8369C43.6972 63.4091 56.7228 58.0358 70.363 57.8974Z" fill="url(#paint1_linear_63_1097)"/>
<path d="M45.3308 116.873C50.0228 116.873 53.8265 113.191 53.8265 108.65C53.8265 104.108 50.0228 100.427 45.3308 100.427C40.6388 100.427 36.8352 104.108 36.8352 108.65C36.8352 113.191 40.6388 116.873 45.3308 116.873Z" fill="url(#paint2_linear_63_1097)"/>
<path d="M72.7472 116.873C77.4392 116.873 81.2428 113.191 81.2428 108.65C81.2428 104.108 77.4392 100.427 72.7472 100.427C68.0552 100.427 64.2516 104.108 64.2516 108.65C64.2516 113.191 68.0552 116.873 72.7472 116.873Z" fill="url(#paint3_linear_63_1097)"/>
<path d="M100.174 116.873C104.866 116.873 108.669 113.191 108.669 108.65C108.669 104.108 104.866 100.427 100.174 100.427C95.4817 100.427 91.6781 104.108 91.6781 108.65C91.6781 113.191 95.4817 116.873 100.174 116.873Z" fill="url(#paint4_radial_63_1097)"/>
<path d="M149.414 113.863C156.301 106.259 161.366 97.2767 164.249 87.5574C167.131 77.8382 167.758 67.6226 166.086 57.6413C164.414 47.6599 160.484 38.1596 154.576 29.8198C148.669 21.4799 140.93 14.5068 131.914 9.39896C122.897 4.29117 112.826 1.17501 102.421 0.273368C92.0152 -0.628269 81.5324 0.706901 71.7221 4.18337C61.9118 7.65985 53.0164 13.1917 45.6723 20.3833C38.3282 27.5749 32.7169 36.2484 29.2396 45.7835C29.7489 45.4584 30.3233 45.1228 30.7892 44.8081C39.2092 39.7858 48.557 36.3947 58.3133 34.8233C66.4528 26.3122 77.4052 20.8163 89.2823 19.2831C101.159 17.7498 113.217 20.2753 123.377 26.4241C133.536 32.5729 141.161 41.9598 144.937 52.9665C148.713 63.9732 148.403 75.91 144.061 86.7193V86.8241C148.578 101.686 148.161 117.545 142.869 132.165C142.381 133.507 141.785 134.829 141.254 136.13L154.919 142.737C155.523 143.033 156.207 143.144 156.879 143.054C157.55 142.965 158.177 142.68 158.677 142.237C159.177 141.794 159.526 141.214 159.677 140.575C159.829 139.935 159.775 139.266 159.524 138.657L149.414 113.863Z" fill="url(#paint5_linear_63_1097)"/>
<path d="M142.272 106.819C142.169 95.8853 139.369 85.1332 134.103 75.4589C128.838 65.7846 121.26 57.4682 112.001 51.2026C102.742 44.9369 92.0708 40.9033 80.8753 39.4379C69.6799 37.9725 58.2847 39.1177 47.6391 42.778C49.037 42.7046 87.484 41.0055 112.657 77.725C119.225 86.1551 122.795 96.4181 122.832 106.977C122.832 174.406 52.9597 174.217 39.2952 168.658C50.1565 173.985 62.252 176.514 74.4165 176.003C86.581 175.492 98.4045 171.958 108.748 165.74C119.091 159.522 127.606 150.831 133.472 140.504C139.338 130.177 142.358 118.562 142.24 106.777L142.272 106.819Z" fill="url(#paint6_radial_63_1097)"/>
<path d="M43.9983 194.129H39.5338V190.322H53.2525V194.129H48.7013V207.282H43.9983V194.129Z" fill="#DED914"/>
<path d="M58.4644 204.334L57.7275 207.281H54.0757L57.8901 194.559H62.5821L66.5049 207.281H62.7013L61.867 204.334H58.4644ZM61.3793 201.816L60.7725 199.53C60.5666 198.806 60.3174 197.768 60.1223 197.023C59.9273 197.768 59.7322 198.817 59.5372 199.541L58.9737 201.816H61.3793Z" fill="#DED914"/>
<path d="M68.1848 194.559H71.7066V204.428H76.7671V207.281H68.1848V194.559Z" fill="#DED914"/>
<path d="M78.4898 194.559H81.9682V199.96H82.0224C82.2825 199.488 82.5751 199.016 82.8568 198.565L85.3925 194.559H89.727L85.5442 199.981L89.8787 207.323H85.7935L83.0302 202.163L81.9466 203.474V207.323H78.4681L78.4898 194.559Z" fill="#DED914"/>
<path d="M91.493 190.322H96.1851V203.485H102.936V207.292H91.493V190.322Z" fill="#DED914"/>
<path d="M108.344 194.559V207.281H104.822V194.559H108.344Z" fill="#DED914"/>
<path d="M110.815 207.281V194.559H114.965L117.056 198.46C117.834 199.905 118.522 201.393 119.115 202.918C118.926 201.141 118.839 199.355 118.855 197.569V194.559H122.106V207.281H118.4L116.168 203.086C115.442 201.733 114.586 200.023 114 198.492H113.925C114.011 200.201 114.065 202.121 114.065 204.187V207.333L110.815 207.281Z" fill="#DED914"/>
<path d="M135.911 206.694C134.442 207.146 132.912 207.39 131.371 207.418C129.366 207.576 127.378 206.957 125.844 205.697C125.22 205.099 124.731 204.382 124.408 203.591C124.085 202.8 123.936 201.953 123.969 201.104C123.969 196.678 127.383 194.433 131.652 194.433C132.954 194.391 134.251 194.601 135.467 195.052L134.752 197.779C133.764 197.382 132.699 197.196 131.631 197.233C129.463 197.233 127.665 198.335 127.665 200.925C127.624 201.417 127.692 201.912 127.864 202.376C128.037 202.84 128.31 203.264 128.664 203.618C129.019 203.972 129.448 204.25 129.922 204.431C130.396 204.612 130.905 204.694 131.414 204.67C131.778 204.68 132.143 204.645 132.498 204.565V202.373H130.753V199.73H135.911V206.694Z" fill="#DED914"/>
<defs>
<linearGradient id="paint0_linear_63_1097" x1="3.6009" y1="188.927" x2="34.8201" y2="150.908" gradientUnits="userSpaceOnUse">
<stop offset="0.15" stop-color="#70C5C6"/>
<stop offset="0.88" stop-color="#4F8AF0"/>
</linearGradient>
<linearGradient id="paint1_linear_63_1097" x1="71.5015" y1="179.631" x2="70.2494" y2="42.3759" gradientUnits="userSpaceOnUse">
<stop stop-color="#70C5C6"/>
<stop offset="1" stop-color="#4F8AF0"/>
</linearGradient>
<linearGradient id="paint2_linear_63_1097" x1="45.4067" y1="117.24" x2="45.2646" y2="100.794" gradientUnits="userSpaceOnUse">
<stop stop-color="#70C5C6"/>
<stop offset="1" stop-color="#4F8AF0"/>
</linearGradient>
<linearGradient id="paint3_linear_63_1097" x1="72.8339" y1="117.24" x2="72.6816" y2="100.794" gradientUnits="userSpaceOnUse">
<stop stop-color="#70C5C6"/>
<stop offset="1" stop-color="#4F8AF0"/>
</linearGradient>
<radialGradient id="paint4_radial_63_1097" cx="0" cy="0" r="1" gradientUnits="userSpaceOnUse" gradientTransform="translate(100.174 108.65) scale(8.49563 8.2228)">
<stop offset="0.34" stop-color="#E5E155"/>
<stop offset="0.5" stop-color="#E5E254" stop-opacity="0.92"/>
<stop offset="0.96" stop-color="#DDF246" stop-opacity="0.8"/>
</radialGradient>
<linearGradient id="paint5_linear_63_1097" x1="29.4564" y1="-85.8233" x2="145.219" y2="157.175" gradientUnits="userSpaceOnUse">
<stop stop-color="#70C5C6"/>
<stop offset="1" stop-color="#4F8AF0"/>
</linearGradient>
<radialGradient id="paint6_radial_63_1097" cx="0" cy="0" r="1" gradientUnits="userSpaceOnUse" gradientTransform="translate(90.7782 107.47) scale(61.9725 59.9824)">
<stop offset="0.34" stop-color="#E5E155"/>
<stop offset="0.5" stop-color="#E5E254" stop-opacity="0.92"/>
<stop offset="0.96" stop-color="#DDF246" stop-opacity="0.8"/>
</radialGradient>
</defs>
</svg>
