<svg width="52" height="52" viewBox="0 0 52 52" fill="none" xmlns="http://www.w3.org/2000/svg">
<circle cx="26" cy="27" r="18.75" fill="#DED914" stroke="#8B8E8F" stroke-width="0.5"/>
<path d="M33.2561 27.3035C33.4115 27.1614 33.5 26.9606 33.5 26.75C33.5 26.5394 33.4115 26.3386 33.2561 26.1965L28.8811 22.1965C28.5754 21.917 28.101 21.9382 27.8215 22.2439C27.542 22.5496 27.5632 23.024 27.8689 23.3035L30.8182 26L19.75 26C19.3358 26 19 26.3358 19 26.75C19 27.1642 19.3358 27.5 19.75 27.5L30.8182 27.5L27.8689 30.1965C27.5632 30.476 27.542 30.9504 27.8215 31.2561C28.101 31.5618 28.5754 31.583 28.8811 31.3035L33.2561 27.3035Z" fill="#080A24"/>
</svg>
