<svg width="16" height="16" viewBox="0 0 16 16" fill="none" xmlns="http://www.w3.org/2000/svg">
<path d="M4.18118 10.8964C3.94124 11.1363 3.93634 11.5624 4.18607 11.8121C4.4407 12.0618 4.86672 12.0569 5.10176 11.8219L8.00061 8.92303L10.8946 11.817C11.1394 12.0618 11.5605 12.0618 11.8103 11.8121C12.06 11.5575 12.06 11.1412 11.8151 10.8964L8.92119 8.00245L11.8151 5.1036C12.06 4.85876 12.0649 4.43765 11.8103 4.18792C11.5605 3.93818 11.1394 3.93818 10.8946 4.18302L8.00061 7.07697L5.10176 4.18302C4.86672 3.94308 4.43581 3.93329 4.18607 4.18792C3.93634 4.43765 3.94124 4.86856 4.18118 5.1036L7.07513 8.00245L4.18118 10.8964Z" fill="#F85757"/>
</svg>
