<svg width="693" height="693" viewBox="0 0 693 693" fill="none" xmlns="http://www.w3.org/2000/svg">
<path d="M79.0018 648.219C77.1584 646.639 73.0559 641.635 76.2298 635.828C77.3802 633.693 79.8473 632.64 82.0787 631.67C84.3739 630.892 86.5377 629.771 88.4959 628.343C91.9748 625.377 92.9311 620.471 95.2457 616.521C97.893 611.989 102.841 608.593 108.066 608.828C114.054 609.106 119.043 613.984 121.316 619.57C123.589 625.156 123.659 631.323 123.7 637.352C123.7 640.679 123.576 644.435 121.136 646.68C118.697 648.925 115.481 648.773 112.432 648.69L79.7225 647.678" fill="#F5F5F5"/>
<path d="M141.538 558.253H55.4399L70.9354 650.658C71.2559 652.584 72.1162 654.38 73.4165 655.837C74.7167 657.295 76.4036 658.353 78.2812 658.89L78.5861 658.974C78.8363 659.053 79.0908 659.118 79.3484 659.168C79.9236 659.286 80.5078 659.356 81.0948 659.375V659.459L81.5106 659.389H119.944C120.652 659.39 121.358 659.321 122.051 659.181C124.288 658.834 126.35 657.764 127.922 656.135C129.493 654.505 130.488 652.407 130.755 650.159L138.226 586.486L138.558 583.949L141.524 558.724L141.538 558.253ZM125.308 617.2H116.424L117.366 590.436H127.595L125.308 617.2ZM128.454 590.436H136.909L133.763 617.255H126.126L128.454 590.436ZM103.229 646.985L102.689 623.7H115.398L114.636 646.999L103.229 646.985ZM89.4801 623.7H101.829L102.37 646.999H91.2819L89.4801 623.7ZM90.4364 646.999H80.083C79.099 640.706 77.81 632.529 76.424 623.7H88.6208L90.4364 646.999ZM89.0504 617.269L86.9021 590.436H101.067L101.691 617.255L89.0504 617.269ZM102.606 617.269L101.926 590.436H116.507L115.62 617.255L102.606 617.269ZM101.843 584.005L101.178 559.112H117.547L116.729 583.949L101.843 584.005ZM100.984 584.005H86.3893L84.4628 559.112H100.346L100.984 584.005ZM85.6132 584.005H70.1731C69.6326 580.568 69.1059 577.324 68.6485 574.4C67.0408 564.365 66.4448 560.54 66.1121 559.154H83.6035L85.6132 584.005ZM86.1121 590.436L88.1911 617.255H75.4122C74.9825 614.483 74.5529 611.78 74.1232 609.022C73.1253 602.688 72.1274 596.368 71.1849 590.436H86.1121ZM74.6222 617.255H66.3062L61.7462 590.436H70.3256C71.6423 598.669 73.0837 607.899 74.5529 617.2L74.6222 617.255ZM75.634 623.686C76.8952 631.752 78.1426 639.694 79.2791 646.985H71.2403L67.3318 623.7L75.634 623.686ZM115.551 646.985L116.258 623.7H124.74L122.744 646.999L115.551 646.985ZM117.644 584.005L118.475 559.168H130.284L128.163 584.005H117.644ZM65.2944 559.112C65.627 560.9 67.2071 570.685 69.2999 583.949H60.6652L56.5072 559.112H65.2944ZM130.284 646.929H123.631L125.613 623.7H133.056L130.284 646.929ZM137.671 583.949H128.995L131.116 559.112H140.568L137.671 583.949Z" fill="#E0E0E0"/>
<path d="M209.466 62.2178H70.7275V263.312H209.466V62.2178Z" fill="#E0E0E0"/>
<path d="M202.522 62.2178H63.7837V263.312H202.522V62.2178Z" fill="#F5F5F5"/>
<path d="M185.28 83.9917H81.0117V241.524H185.28V83.9917Z" fill="white"/>
<path d="M185.28 241.524C185.28 241.524 185.28 241.261 185.28 240.748C185.28 240.235 185.28 239.487 185.28 238.517C185.28 236.535 185.28 233.638 185.28 229.882C185.28 222.328 185.28 211.324 185.183 197.436C185.183 169.716 185.086 130.312 185.017 83.9917L185.363 84.3382H81.1085L81.4966 83.964C81.4966 143.396 81.4966 198.184 81.4134 241.497L81.1085 241.192L157.006 241.358L177.976 241.427H183.52C184.754 241.427 185.419 241.427 185.419 241.427C185.419 241.427 184.809 241.427 183.575 241.427H178.129L157.228 241.497L81.1501 241.663H80.859V241.358C80.859 198.046 80.859 143.257 80.7759 83.8254V83.4512H81.164H185.419H185.765V83.7977C185.696 130.215 185.641 169.633 185.599 197.45C185.599 211.31 185.516 222.287 185.502 229.827C185.502 233.555 185.502 236.424 185.502 238.392C185.502 239.348 185.502 240.083 185.502 240.582C185.502 241.081 185.28 241.524 185.28 241.524Z" fill="#E0E0E0"/>
<path d="M202.91 62.2178C202.18 63.4782 201.35 64.6785 200.429 65.8075C198.822 67.9558 196.535 70.8941 193.929 74.1235C191.323 77.3529 188.87 80.0972 187.068 82.093C186.145 83.2157 185.125 84.2547 184.019 85.1977C184.801 83.9738 185.687 82.8191 186.666 81.7465C188.524 79.4873 190.824 76.7015 193.347 73.6384L200.013 65.5303C200.882 64.3445 201.851 63.2362 202.91 62.2178Z" fill="#E0E0E0"/>
<path d="M185.807 241.012C190.991 249.255 197.091 256.885 203.991 263.756L185.807 241.012Z" fill="white"/>
<path d="M203.991 263.756C202.839 262.91 201.779 261.943 200.831 260.873C198.383 258.422 196.07 255.84 193.901 253.139C191.742 250.447 189.725 247.643 187.858 244.74C187.022 243.575 186.312 242.326 185.738 241.012C186.674 242.095 187.531 243.243 188.302 244.449C189.827 246.597 191.975 249.522 194.483 252.668C196.992 255.814 199.39 258.545 201.15 260.513C202.173 261.525 203.122 262.609 203.991 263.756Z" fill="#E0E0E0"/>
<path d="M63.7559 263.146L81.9263 240.721L63.7559 263.146Z" fill="white"/>
<path d="M81.9262 240.721C79.2062 244.693 76.2728 248.515 73.139 252.169C70.2055 255.99 67.0734 259.654 63.7557 263.146C63.6033 263.021 67.5395 257.893 72.5568 251.698C75.4931 247.883 78.6202 244.22 81.9262 240.721Z" fill="#E0E0E0"/>
<path d="M63.7559 62.2178C66.8809 65.5684 69.8235 69.0847 72.5708 72.7514C75.514 76.2714 78.2624 79.9498 80.8037 83.7701C77.7021 80.4168 74.7872 76.8957 72.0719 73.2226C69.1008 69.7091 66.3246 66.0353 63.7559 62.2178Z" fill="#E0E0E0"/>
<path d="M152.793 115.98H117.879V215.107H152.793V115.98Z" fill="#E0E0E0"/>
<path d="M630.45 48.7456H499.487V185.267H630.45V48.7456Z" fill="#E0E0E0"/>
<path d="M621.579 48.7456H490.616V185.267H621.579V48.7456Z" fill="#FAFAFA"/>
<path d="M621.621 185.308H490.644V48.7041H621.621V185.308ZM490.644 185.225H621.524V48.7873H490.644V185.225Z" fill="#E0E0E0"/>
<path d="M603.977 67.0962H508.218V166.916H603.977V67.0962Z" fill="white"/>
<path d="M508.219 167.582C507.542 168.593 506.752 169.523 505.862 170.354C504.324 171.961 502.176 174.151 499.778 176.521C497.38 178.891 495.149 181.012 493.513 182.509C492.683 183.383 491.753 184.155 490.741 184.81C491.421 183.801 492.211 182.871 493.097 182.038C494.622 180.43 496.784 178.24 499.196 175.856C501.607 173.472 503.839 171.351 505.461 169.855C506.285 168.988 507.211 168.225 508.219 167.582Z" fill="#E0E0E0"/>
<path d="M603.977 167.332C604.992 168.004 605.922 168.795 606.749 169.688C608.371 171.227 610.547 173.375 612.917 175.787C615.287 178.198 617.407 180.402 618.918 182.037C619.792 182.867 620.564 183.798 621.219 184.809C620.208 184.133 619.278 183.342 618.447 182.453C616.839 180.929 614.649 178.767 612.265 176.355C609.881 173.943 607.775 171.712 606.264 170.09C605.398 169.262 604.631 168.336 603.977 167.332Z" fill="#E0E0E0"/>
<path d="M603.714 67.3595C604.394 66.3473 605.19 65.4171 606.084 64.5875C607.609 62.9659 609.757 60.7899 612.168 58.4198C614.58 56.0498 616.784 53.9292 618.419 52.4323C619.247 51.5524 620.178 50.7753 621.191 50.1177C620.52 51.1331 619.729 52.0639 618.835 52.8897C617.311 54.4974 615.148 56.6873 612.737 59.0712C610.325 61.4552 608.108 63.5619 606.472 65.0726C605.647 65.9424 604.721 66.7102 603.714 67.3595Z" fill="#E0E0E0"/>
<path d="M507.955 67.6093C506.943 66.9287 506.013 66.1334 505.183 65.2392C503.575 63.7146 501.386 61.5663 499.016 59.1547C496.645 56.7431 494.525 54.5255 493.028 52.9038C492.148 52.076 491.371 51.1453 490.713 50.1318C491.729 50.8028 492.66 51.5939 493.485 52.488C495.093 54.0126 497.283 56.1609 499.667 58.5864C502.051 61.0119 504.158 63.2157 505.668 64.8512C506.543 65.6711 507.312 66.5977 507.955 67.6093Z" fill="#E0E0E0"/>
<path d="M603.714 166.916C603.714 166.916 603.714 166.736 603.714 166.431C603.714 166.126 603.714 165.627 603.714 165.045C603.714 163.797 603.714 161.996 603.714 159.653C603.714 154.927 603.714 148.052 603.617 139.321C603.617 121.829 603.506 96.9229 603.423 67.11L603.797 67.4704H508.315L508.745 67.0546C508.745 103.687 508.745 137.962 508.676 166.847L508.315 166.472L577.463 166.666L596.867 166.763H602.009H603.395C603.547 166.752 603.7 166.752 603.852 166.763H603.437H602.148H597.075L577.74 166.86L508.357 167.041H507.997V166.68C507.997 137.768 507.997 103.493 507.997 66.8883V66.6665H508.426H603.908H604.282V67.0407C604.199 96.9506 604.13 121.94 604.088 139.487C604.088 148.177 604.088 155.038 603.991 159.736C603.991 162.046 603.991 163.82 603.991 165.059C603.991 165.641 603.991 166.084 603.991 166.445C603.914 166.61 603.821 166.768 603.714 166.916Z" fill="#E0E0E0"/>
<path d="M572.071 101.025H540.124V132.973H572.071V101.025Z" fill="#EBEBEB"/>
<path d="M421.857 615.633V657.366H482.883H550.201V615.633H421.857Z" fill="#F5F5F5"/>
<path d="M416.465 603.963V615.633H554.677V603.963H482.882H416.465Z" fill="#E0E0E0"/>
<path d="M485.571 657.366H550.2V615.633H554.677V603.963H482.882V614.552L485.571 657.366Z" fill="#E0E0E0"/>
<path d="M465.835 622.355H439.806V628.634H465.835V622.355Z" fill="#E0E0E0"/>
<path d="M469.868 636.493H436.451V649.757H469.868V636.493Z" fill="white"/>
<path d="M441.593 562.286V604.019H502.633H569.937V562.286H441.593Z" fill="#F5F5F5"/>
<path d="M436.826 550.616V562.286H575.051V550.616H503.243H436.826Z" fill="#EBEBEB"/>
<path d="M505.322 604.019H570.561V562.286H574.428V550.616H502.633V561.205L505.322 604.019Z" fill="#EBEBEB"/>
<path d="M485.571 569.009H459.542V575.287H485.571V569.009Z" fill="#E0E0E0"/>
<path d="M489.618 583.146H456.202V596.41H489.618V583.146Z" fill="white"/>
<path d="M668.343 658.738C668.343 658.932 522.993 659.099 343.742 659.099C164.49 659.099 19.1128 658.932 19.1128 658.738C19.1128 658.544 164.435 658.35 343.728 658.35C523.021 658.35 668.343 658.53 668.343 658.738Z" fill="#263238"/>
<path d="M340.596 311.005V312.391H335.052V311.296L338.24 307.526H335.135V306.14H340.526V307.235L337.339 311.005H340.596Z" fill="#263238"/>
<path d="M330.436 304.92V308.191H317.394V305.626L324.851 296.811H317.588V293.541H330.215V296.105L322.73 304.92H330.436Z" fill="#263238"/>
<path d="M311.753 297.421V304.005H285.419V298.849L300.457 281.067H285.807V274.428H311.254V279.584L296.23 297.366L311.753 297.421Z" fill="#263238"/>
<path d="M304.92 217.797H284.81V243.673H247.526V217.797H176.022V192.849L236.674 108.427H276.286L221.22 187.429H248.663V164.477H284.782V187.471H304.92V217.797Z" fill="#70B8F3"/>
<path d="M312.612 176.022C312.612 131.407 337.727 105.71 372.307 105.71C406.888 105.71 431.808 131.448 431.808 176.022C431.808 220.596 406.694 246.334 372.307 246.334C337.921 246.334 312.612 220.693 312.612 176.022ZM393.361 176.022C393.361 147.623 384.476 137.006 372.307 137.006C360.138 137.006 351.06 147.623 351.06 176.022C351.06 204.421 359.944 215.052 372.307 215.052C384.67 215.052 393.361 204.463 393.361 176.022Z" fill="#70B8F3"/>
<path d="M572.418 217.797H552.321V243.673H515.038V217.797H443.52V192.849L504.185 108.427H543.783L488.731 187.429H516.16V164.477H552.279V187.471H572.418V217.797Z" fill="#70B8F3"/>
<g opacity="0.3">
<path d="M304.92 217.797H284.81V243.673H247.526V217.797H176.022V192.849L236.674 108.427H276.286L221.22 187.429H248.663V164.477H284.782V187.471H304.92V217.797Z" fill="black"/>
<path d="M312.613 176.022C312.613 131.407 337.727 105.71 372.308 105.71C406.889 105.71 431.809 131.448 431.809 176.022C431.809 220.596 406.694 246.334 372.308 246.334C337.921 246.334 312.613 220.693 312.613 176.022ZM393.361 176.022C393.361 147.623 384.477 137.006 372.308 137.006C360.139 137.006 351.06 147.623 351.06 176.022C351.06 204.421 359.945 215.052 372.308 215.052C384.671 215.052 393.361 204.463 393.361 176.022Z" fill="black"/>
<path d="M572.419 217.797H552.322V243.673H515.038V217.797H443.521V192.849L504.186 108.427H543.784L488.732 187.429H516.161V164.477H552.28V187.471H572.419V217.797Z" fill="black"/>
</g>
<path d="M293.708 217.797H273.61V243.673H236.327V217.797H164.851V192.849L225.516 108.427H265.114L210.062 187.429H237.491V164.477H273.61V187.471H293.708V217.797Z" fill="#70B8F3"/>
<path d="M301.414 176.022C301.414 131.407 326.528 105.71 361.109 105.71C395.689 105.71 420.61 131.448 420.61 176.022C420.61 220.596 395.495 246.334 361.109 246.334C326.722 246.334 301.414 220.693 301.414 176.022ZM382.162 176.022C382.162 147.623 373.278 137.006 361.109 137.006C348.94 137.006 339.861 147.623 339.861 176.022C339.861 204.421 348.745 215.052 361.109 215.052C373.472 215.052 382.162 204.463 382.162 176.022Z" fill="#70B8F3"/>
<path d="M561.233 217.797H541.136V243.673H503.853V217.797H432.432V192.849L493.097 108.427H532.64L477.588 187.429H505.017V164.477H541.136V187.471H561.233V217.797Z" fill="#70B8F3"/>
<path d="M317.103 75.0934C317.103 67.0962 323.382 61.2334 331.892 61.2334C340.402 61.2334 346.694 67.0823 346.694 75.0934C346.694 83.1045 340.416 88.9534 331.892 88.9534C323.368 88.9534 317.103 83.0768 317.103 75.0934ZM339.085 75.0934C339.128 74.1231 338.973 73.1542 338.631 72.2452C338.289 71.3362 337.767 70.5058 337.095 69.8041C336.424 69.1025 335.617 68.544 334.724 68.1626C333.831 67.7811 332.87 67.5844 331.899 67.5844C330.927 67.5844 329.966 67.7811 329.073 68.1626C328.18 68.544 327.373 69.1025 326.702 69.8041C326.03 70.5058 325.508 71.3362 325.166 72.2452C324.824 73.1542 324.67 74.1231 324.712 75.0934C324.67 76.0637 324.824 77.0325 325.166 77.9416C325.508 78.8506 326.03 79.681 326.702 80.3827C327.373 81.0843 328.18 81.6427 329.073 82.0242C329.966 82.4057 330.927 82.6024 331.899 82.6024C332.87 82.6024 333.831 82.4057 334.724 82.0242C335.617 81.6427 336.424 81.0843 337.095 80.3827C337.767 79.681 338.289 78.8506 338.631 77.9416C338.973 77.0325 339.128 76.0637 339.085 75.0934Z" fill="#263238"/>
<path d="M349.009 78.0596C349.009 71.8504 353.915 67.4429 360.651 67.4429C367.387 67.4429 372.28 71.8504 372.28 78.0596C372.28 84.2689 367.456 88.7318 360.651 88.7318C353.846 88.7318 349.009 84.2828 349.009 78.0596ZM364.975 78.0596C364.975 74.9411 363.118 73.1809 360.651 73.1809C358.184 73.1809 356.313 74.9411 356.313 78.0596C356.313 81.1781 358.212 82.9938 360.651 82.9938C363.091 82.9938 364.975 81.2059 364.975 78.0596Z" fill="#263238"/>
<path d="M398.711 78.0869C398.711 84.6288 394.192 88.7314 388.593 88.7314C387.539 88.7837 386.486 88.6187 385.499 88.2468C384.512 87.8748 383.612 87.3038 382.855 86.5692V95.7723H375.606V67.7889H382.536V69.8402C383.301 69.0045 384.247 68.3542 385.301 67.9387C386.356 67.5232 387.491 67.3535 388.621 67.4424C394.192 67.4424 398.711 71.545 398.711 78.0869ZM391.406 78.0869C391.406 74.9684 389.508 73.1805 387.082 73.1805C384.657 73.1805 382.744 74.9684 382.744 78.0869C382.744 81.2054 384.643 82.9934 387.082 82.9934C389.521 82.9934 391.406 81.2054 391.406 78.0869Z" fill="#263238"/>
<path d="M400.429 86.611L402.591 81.6629C404.783 82.9114 407.262 83.5659 409.785 83.5618C412.21 83.5618 413.014 83.0351 413.014 82.1758C413.014 79.4038 400.845 82.55 400.845 74.3033C400.845 70.4225 404.421 67.4564 410.88 67.4564C413.69 67.3989 416.476 67.9968 419.015 69.2028L416.853 74.1092C415.039 73.1013 412.997 72.5763 410.921 72.5846C408.482 72.5846 407.609 73.2776 407.609 73.9706C407.609 76.8119 419.736 73.735 419.736 81.9124C419.736 85.7101 416.243 88.6761 409.549 88.6761C406.384 88.7593 403.249 88.0494 400.429 86.611Z" fill="#263238"/>
<path d="M421.954 84.7399C422.059 83.668 422.56 82.6736 423.358 81.9501C424.156 81.2267 425.194 80.826 426.271 80.826C427.349 80.826 428.387 81.2267 429.185 81.9501C429.983 82.6736 430.484 83.668 430.589 84.7399C430.526 85.8427 430.044 86.8797 429.241 87.6383C428.439 88.3969 427.376 88.8195 426.271 88.8195C425.167 88.8195 424.104 88.3969 423.302 87.6383C422.499 86.8797 422.017 85.8427 421.954 84.7399ZM421.954 61.7739H430.547L429.092 78.697H423.354L421.954 61.7739Z" fill="#263238"/>
<path d="M189.189 531.323H172.086V613.471H189.189V531.323Z" fill="#E0E0E0"/>
<path d="M119.459 520.748C119.737 520.748 172.127 537.172 172.127 537.172H189.217L249.217 520.748H119.459Z" fill="#E0E0E0"/>
<path d="M71.6564 245.225C64.075 246.93 57.2974 253.929 58.434 267.9C58.434 267.9 52.391 269.036 52.7652 280C53.1394 290.963 52.0168 359.002 65.6134 396.008C76.7985 426.43 96.1054 491.503 102.675 513.721C103.324 515.919 104.667 517.848 106.504 519.219C108.34 520.591 110.57 521.331 112.862 521.33H260.776C263.382 521.321 265.958 520.787 268.353 519.76C270.748 518.734 272.911 517.235 274.714 515.355C276.517 513.474 277.923 511.249 278.848 508.814C279.773 506.378 280.197 503.781 280.097 501.177C279.871 496.162 277.711 491.43 274.069 487.974C270.427 484.519 265.588 482.609 260.568 482.647L152.71 483.769C152.71 483.769 146.098 448.149 139.293 447.733C139.293 447.733 142.315 425.433 130.977 419.015C130.977 419.015 133.236 391.489 121.15 389.008C121.15 389.008 123.035 365.973 112.834 361.884C112.834 361.884 118.503 341.164 107.928 330.589C107.928 330.589 110.95 306.403 107.928 288.26C104.907 270.117 103.798 238.059 71.6564 245.225Z" fill="#455A64"/>
<path d="M268.357 503.423C268.357 503.423 268.108 503.423 267.609 503.423H265.419L256.923 503.492L225.253 503.589L116.882 503.714H116.632L116.549 503.478L101.303 459.265C92.4463 433.36 84.061 408.662 76.6737 386.125C74.8303 380.484 73.0562 375.037 71.393 369.604C70.5315 366.967 69.8189 364.283 69.2586 361.565C68.9729 360.238 68.7601 358.897 68.621 357.546C68.4685 356.16 68.2329 354.885 68.1498 353.568C67.1934 343.049 66.9717 333.208 66.7638 324.241C66.5281 306.306 66.7638 291.78 67.0132 281.76C67.1518 276.756 67.2627 272.875 67.332 270.214L67.4568 267.207C67.4568 266.527 67.5261 266.195 67.5261 266.195C67.5261 266.195 67.5261 266.541 67.5261 267.207C67.5261 267.872 67.5261 268.911 67.5261 270.214C67.5261 272.875 67.4152 276.77 67.332 281.76C67.1934 291.794 67.0132 306.306 67.332 324.241C67.5261 333.194 67.7755 343.021 68.718 353.513C68.815 354.899 69.0368 356.132 69.1893 357.463C69.332 358.8 69.5495 360.128 69.8407 361.441C70.4296 364.161 71.1746 366.845 72.0721 369.48C73.7353 374.843 75.5233 380.332 77.3805 385.973C84.7956 408.495 93.2086 433.18 102.051 459.084C107.318 474.33 112.419 489.272 117.297 503.312L116.965 503.076L225.336 503.201L257.006 503.298H265.502H267.692C268.108 503.395 268.357 503.423 268.357 503.423Z" fill="#263238"/>
<path d="M136.618 483.936C136.198 484.383 135.734 484.787 135.232 485.141C134.303 485.876 132.987 486.985 131.407 488.371C127.283 492.005 123.446 495.953 119.931 500.179C116.419 504.407 113.222 508.886 110.367 513.582C109.272 515.384 108.413 516.867 107.845 517.906C107.575 518.46 107.25 518.984 106.875 519.473C107.056 518.886 107.297 518.319 107.595 517.782C108.094 516.701 108.884 515.176 109.924 513.333C112.669 508.523 115.832 503.964 119.376 499.708C122.907 495.449 126.823 491.524 131.074 487.983C132.71 486.597 134.082 485.585 135.052 484.92C135.537 484.536 136.062 484.207 136.618 483.936Z" fill="#263238"/>
<path d="M152.71 483.714C152.71 483.714 152.349 483.714 151.643 483.714L148.538 483.797L136.618 483.991H136.466V483.839L136.216 482.37C136.067 481.896 135.886 481.433 135.676 480.984C135.186 480.012 134.336 479.27 133.306 478.918C130.892 478.398 128.371 478.798 126.237 480.041L125.738 480.277L125.918 479.764C127.591 474.874 127.832 469.609 126.611 464.587C125.237 458.662 121.931 453.362 117.214 449.521L117.034 449.383L117.117 449.175C118.606 444.946 118.807 440.37 117.697 436.026C116.587 431.682 114.215 427.764 110.88 424.767L110.7 424.629L110.783 424.407C112.585 418.566 112.481 412.304 110.488 406.526C108.495 400.748 104.715 395.753 99.6952 392.266L99.5289 392.155V391.961C99.6402 388.136 99.5199 384.309 99.1686 380.499C98.8384 376.602 98.1187 372.748 97.0202 368.995C95.8837 365.363 94.1651 361.732 91.1297 359.625L90.908 359.473L90.9911 359.223C92.5989 353.654 93.2319 347.849 92.8622 342.065C92.6436 339.319 92.0562 336.615 91.1159 334.026C90.1495 331.535 88.7409 329.239 86.9579 327.248L86.7916 327.054L86.9163 326.847C89.956 322.02 91.6235 316.457 91.7396 310.755C91.762 305.606 90.0863 300.593 86.9717 296.493V296.41V296.313C87.142 289.469 85.7633 282.674 82.9385 276.438C81.7277 273.912 79.9883 271.676 77.838 269.882C76.0038 268.405 73.8562 267.367 71.5594 266.847C69.7119 266.449 67.8169 266.319 65.9323 266.459L63.6731 266.708L61.8158 267.082C60.707 267.29 59.8893 267.595 59.3349 267.72C58.7805 267.845 58.4756 267.928 58.4756 267.928C59.5572 267.538 60.6582 267.205 61.7743 266.93L63.6315 266.514L65.9184 266.223C67.8233 266.055 69.7424 266.167 71.6149 266.556C73.9748 267.051 76.1865 268.09 78.0736 269.591C80.2845 271.403 82.0766 273.673 83.3266 276.244C86.2182 282.536 87.6401 289.404 87.4846 296.327V296.16C90.6936 300.348 92.4284 305.479 92.4187 310.755C92.3184 316.581 90.6317 322.268 87.54 327.207V326.805C89.3771 328.841 90.8368 331.187 91.8505 333.735C92.8284 336.412 93.4346 339.21 93.6523 342.051C94.0492 347.928 93.416 353.828 91.7812 359.487L91.4762 358.974C94.7611 361.261 96.4936 365.031 97.6578 368.676C98.7875 372.471 99.5214 376.372 99.8477 380.318C100.202 384.161 100.317 388.021 100.194 391.878L100.042 391.559C105.197 395.128 109.08 400.249 111.126 406.176C113.173 412.103 113.276 418.528 111.421 424.518L111.324 424.144C114.758 427.243 117.191 431.295 118.312 435.783C119.433 440.271 119.191 444.991 117.616 449.341L117.519 448.995C122.335 452.919 125.693 458.346 127.055 464.407C128.281 469.527 128.007 474.892 126.265 479.861L125.96 479.584C127.141 479.002 128.395 478.582 129.688 478.336C130.91 478.066 132.18 478.118 133.375 478.489C133.954 478.698 134.484 479.024 134.932 479.446C135.38 479.867 135.737 480.377 135.981 480.942C136.202 481.436 136.387 481.946 136.535 482.467L136.785 483.991L136.618 483.839H148.538H151.643L152.71 483.714Z" fill="#263238"/>
<g opacity="0.3">
<path d="M132.918 418.572L83.4512 424.947C84.1956 426.262 85.2331 427.387 86.483 428.236C87.733 429.084 89.1618 429.633 90.6584 429.84C93.6496 430.216 96.6797 430.156 99.6535 429.66C112.461 428.27 125.352 427.806 138.226 428.274C136.783 424.871 135.005 421.621 132.918 418.572Z" fill="black"/>
</g>
<path d="M108.468 327.914C105.059 328.36 101.622 328.559 98.1842 328.51C94.7523 328.693 91.312 328.647 87.8862 328.371C91.2954 327.925 94.7324 327.726 98.1704 327.775C101.602 327.591 105.043 327.638 108.468 327.914Z" fill="#263238"/>
<path d="M108.011 645.876C108.011 645.876 115.925 621.732 126.833 615.883C144.352 606.5 184.754 602.023 184.754 602.023L189.175 613.444C189.175 613.444 135.302 615.564 126.805 626.43C121.961 632.658 117.446 639.135 113.278 645.834L108.011 645.876Z" fill="#E0E0E0"/>
<path d="M114.914 658.696C121.229 658.696 126.348 653.577 126.348 647.262C126.348 640.947 121.229 635.827 114.914 635.827C108.598 635.827 103.479 640.947 103.479 647.262C103.479 653.577 108.598 658.696 114.914 658.696Z" fill="#263238"/>
<path d="M254.026 645.446C254.026 645.446 246.112 621.302 235.205 615.453C217.686 606.07 177.298 601.593 177.298 601.593L172.862 613.014C172.862 613.014 226.736 615.135 235.232 626.015C240.079 632.241 244.594 638.718 248.76 645.419L254.026 645.446Z" fill="#E0E0E0"/>
<path d="M249.993 658.696C256.308 658.696 261.428 653.577 261.428 647.262C261.428 640.947 256.308 635.827 249.993 635.827C243.678 635.827 238.559 640.947 238.559 647.262C238.559 653.577 243.678 658.696 249.993 658.696Z" fill="#263238"/>
<path d="M174.733 608.177L177.242 639.251L184.311 640.651V608.177" fill="#E0E0E0"/>
<path d="M180.624 658.696C186.939 658.696 192.058 653.577 192.058 647.262C192.058 640.947 186.939 635.827 180.624 635.827C174.309 635.827 169.189 640.947 169.189 647.262C169.189 653.577 174.309 658.696 180.624 658.696Z" fill="#263238"/>
<path d="M95.6343 364.851C98.3811 363.92 101.199 363.215 104.061 362.744C106.878 362.045 109.747 361.582 112.64 361.358C109.894 362.291 107.076 362.996 104.214 363.465C101.397 364.161 98.5272 364.625 95.6343 364.851Z" fill="#263238"/>
<path d="M120.138 389.036C119.235 389.463 118.28 389.77 117.297 389.951C115.509 390.408 113.028 390.935 110.256 391.337C107.484 391.739 104.962 392.03 103.132 392.141C102.143 392.273 101.141 392.273 100.152 392.141C100.152 391.933 104.643 391.503 110.145 390.63C115.648 389.757 120.083 388.842 120.138 389.036Z" fill="#263238"/>
<path d="M140.568 448.939C139.493 449.238 138.385 449.406 137.27 449.438C135.218 449.646 132.377 449.826 129.231 449.923C126.085 450.02 123.243 449.923 121.178 449.923C120.065 449.951 118.953 449.844 117.866 449.604C118.965 449.429 120.08 449.364 121.192 449.41L129.217 449.23L137.228 448.953C138.338 448.837 139.457 448.832 140.568 448.939Z" fill="#263238"/>
<path d="M146.32 470.644C146.32 470.866 141.719 471.864 136.355 474.151C130.991 476.438 127.027 479.043 126.902 478.863C127.635 478.113 128.476 477.478 129.397 476.978C131.524 475.633 133.759 474.464 136.078 473.485C138.391 472.5 140.783 471.712 143.229 471.129C144.234 470.832 145.273 470.669 146.32 470.644Z" fill="#263238"/>
<path d="M238.794 521.593C238.794 521.787 211.532 521.898 177.907 521.815C144.283 521.732 117.006 521.538 117.006 521.33C117.006 521.122 144.269 521.025 177.907 521.094C211.545 521.164 238.794 521.385 238.794 521.593Z" fill="#263238"/>
<path d="M188.33 537.768C185.634 538.132 182.911 538.253 180.194 538.128C177.472 538.253 174.745 538.132 172.044 537.768C174.745 537.411 177.472 537.291 180.194 537.407C182.911 537.291 185.634 537.412 188.33 537.768Z" fill="#263238"/>
<path d="M189.106 603.991C186.604 605.4 183.796 606.175 180.926 606.25C178.056 606.325 175.212 605.697 172.64 604.42C175.36 605.112 178.15 605.485 180.956 605.529C183.723 605.332 186.458 604.815 189.106 603.991Z" fill="#263238"/>
<path d="M357.478 347.234C357.478 347.234 350.963 337.241 347.193 333.832C344.283 331.212 330.16 326.015 323.812 323.756C321.777 323.036 319.636 322.662 317.478 322.647C309.162 322.564 287.18 322.647 275.981 324.643C262.024 327.193 354.622 400.013 354.622 400.013L431.753 400.194L436.798 381.15L385.308 370.519L356.895 347.983" fill="#E0E0E0"/>
<g opacity="0.3">
<path d="M297.297 327.276C297.297 327.276 302.398 327.525 309.508 328.662C316.618 329.798 324.421 330.159 328.33 333.624C330.949 335.938 346.972 336.396 346.972 336.396L324.796 335.578L297.297 327.276Z" fill="black"/>
</g>
<path d="M289.979 325.446C290.446 325.44 290.912 325.496 291.365 325.613C292.266 325.779 293.583 326.042 295.177 326.444C298.378 327.234 302.758 328.454 307.567 329.895L312.876 331.545H312.793C316.408 331.706 320.001 332.211 323.52 333.055C323.813 333.598 324.037 334.175 324.185 334.774C323.815 334.283 323.499 333.753 323.243 333.194L323.326 333.277C319.8 332.684 316.24 332.309 312.668 332.155H312.585L307.262 330.547L294.955 326.902L291.213 325.834C290.787 325.756 290.373 325.626 289.979 325.446Z" fill="#263238"/>
<path d="M491.476 399.473C491.587 398.891 489.951 392.252 489.785 391.587C489.619 390.921 484.546 383.271 484.546 383.271L481.774 382.425C481.774 382.425 468.884 379.362 466.278 379.542L464.463 379.736C464.463 379.736 461.081 379.986 459.75 380.221C458.42 380.457 450.173 383.354 450.173 383.354C448.152 383.782 446.082 383.936 444.019 383.811C441.175 383.35 438.358 382.74 435.578 381.982L432.28 400.138L438.517 399.944C440.464 400.635 442.474 401.131 444.518 401.427C446.763 401.58 453.125 402.273 453.125 402.273C453.125 402.273 462.952 406.431 465.419 400.637C467.886 394.844 458.406 394.248 458.406 394.248L461.344 392.169L468.87 391.393L470.824 392.016L472.973 395.343C472.973 395.343 472.391 402.689 477.131 402.19L478.378 402.051L479.043 394.511L476.798 386.888L481.76 394.414C481.76 394.414 482.19 400.928 484.338 401.774C484.503 401.848 484.684 401.881 484.865 401.871C487.47 401.788 487.983 401.053 487.983 401.053L488.524 399.736C488.524 399.736 491.102 401.455 491.476 399.473Z" fill="#FFBF9D"/>
<path d="M463.298 379.764C464.083 379.65 464.882 379.682 465.654 379.861C467.558 380.118 469.421 380.617 471.198 381.344C473.011 382.041 474.618 383.186 475.869 384.67C476.422 385.266 476.779 386.015 476.895 386.819C476.77 386.819 476.424 386.029 475.509 385.003C474.215 383.691 472.655 382.67 470.935 382.009C466.86 380.388 463.257 380.027 463.298 379.764Z" fill="#FF9A6C"/>
<path d="M468.149 387.692C468.344 387.692 468.482 388.482 468.579 389.424C468.676 390.367 468.704 391.17 468.51 391.226C468.316 391.281 467.969 390.505 467.858 389.507C467.748 388.509 467.942 387.678 468.149 387.692Z" fill="#FF9A6C"/>
<path d="M463.298 387.941C463.451 387.803 464.823 389.327 467.013 390.381C469.203 391.434 471.171 391.767 471.171 391.933C469.609 392.156 468.018 391.833 466.666 391.018C465.217 390.42 464.025 389.33 463.298 387.941Z" fill="#FF9A6C"/>
<path d="M447.581 388.621C448.277 388.68 448.945 388.919 449.521 389.314C450.997 390.125 452.264 391.268 453.222 392.654C453.519 393.098 453.788 393.561 454.026 394.04L453.652 393.846C455.456 393.484 457.326 393.643 459.043 394.303C457.28 394.277 455.517 394.355 453.763 394.539H453.513L453.388 394.317C453.16 393.873 452.906 393.442 452.626 393.028C451.239 391.253 449.527 389.757 447.581 388.621Z" fill="#FF9A6C"/>
<path d="M482.051 382.355C482.787 382.944 483.419 383.651 483.922 384.448C485.247 386.293 486.32 388.307 487.11 390.436C487.906 392.566 488.405 394.795 488.593 397.061C488.752 397.978 488.752 398.916 488.593 399.833C488.166 396.718 487.461 393.647 486.486 390.658C485.257 387.764 483.772 384.986 482.051 382.355Z" fill="#FF9A6C"/>
<path d="M359.279 599.833L357.893 637.338C357.893 637.338 395.495 651.42 395.911 658.35L323.09 658.198L322.938 599.653L359.279 599.833Z" fill="#455A64"/>
<path d="M335.412 634.136C334.713 634.346 334.116 634.808 333.737 635.433C333.358 636.058 333.224 636.801 333.361 637.518C333.542 638.229 333.991 638.842 334.613 639.23C335.236 639.617 335.984 639.749 336.701 639.597C337.444 639.372 338.077 638.878 338.476 638.212C338.876 637.546 339.014 636.756 338.864 635.994C338.591 635.277 338.054 634.693 337.362 634.362C336.67 634.032 335.877 633.981 335.149 634.22" fill="#E0E0E0"/>
<path d="M323.091 658.184L323.313 652.279L393.042 654.636C393.042 654.636 396.272 656.021 395.911 658.336L323.091 658.184Z" fill="#263238"/>
<path d="M359.043 636.964C359.043 637.324 357.242 637.477 355.495 638.613C353.749 639.75 352.806 641.247 352.474 641.108C352.141 640.97 352.682 638.918 354.83 637.574C356.978 636.229 359.113 636.645 359.043 636.964Z" fill="white"/>
<path d="M366.666 640.138C366.75 640.484 365.211 641.08 363.991 642.591C362.772 644.102 362.439 645.682 362.079 645.668C361.718 645.654 361.497 643.631 363.049 641.801C364.601 639.972 366.666 639.805 366.666 640.138Z" fill="white"/>
<path d="M370.991 649.286C370.658 649.369 370.173 647.595 371.088 645.64C372.003 643.686 373.666 642.868 373.86 643.229C374.054 643.589 372.973 644.615 372.252 646.167C371.532 647.719 371.337 649.258 370.991 649.286Z" fill="white"/>
<path d="M358.42 628.385C358.267 628.703 356.632 628.218 354.622 628.385C352.613 628.551 351.046 629.147 350.866 628.842C350.686 628.537 352.183 627.276 354.553 627.151C356.923 627.026 358.586 628.107 358.42 628.385Z" fill="white"/>
<path d="M300.915 595.98L277.353 625.086C277.353 625.086 299.002 658.904 295.218 664.725L237.006 620.928L271.947 573.984L300.915 595.98Z" fill="#455A64"/>
<path d="M261.206 609.036C260.516 608.79 259.76 608.804 259.081 609.078C258.402 609.351 257.846 609.864 257.519 610.519C257.241 611.191 257.229 611.943 257.487 612.623C257.744 613.303 258.252 613.859 258.905 614.178C259.635 614.441 260.436 614.425 261.155 614.134C261.874 613.842 262.46 613.295 262.8 612.598C263.015 611.861 262.936 611.069 262.579 610.39C262.222 609.71 261.616 609.195 260.887 608.953" fill="#E0E0E0"/>
<path d="M237.006 620.928L240.707 616.34L295.107 660.027C295.107 660.027 296.854 663.104 295.191 664.712L237.006 620.928Z" fill="#263238"/>
<path d="M278.462 625.516C278.24 625.793 276.715 624.85 274.636 624.712C272.557 624.573 270.908 625.211 270.728 624.892C270.548 624.573 272.211 623.27 274.733 623.506C277.256 623.741 278.725 625.294 278.462 625.516Z" fill="white"/>
<path d="M282.661 632.626C282.522 632.958 280.929 632.515 279.057 632.986C277.186 633.457 275.953 634.524 275.676 634.303C275.398 634.081 276.438 632.335 278.766 631.78C281.095 631.226 282.869 632.348 282.661 632.626Z" fill="white"/>
<path d="M280.638 642.536C280.333 642.411 280.998 640.692 282.911 639.681C284.823 638.669 286.598 639.057 286.542 639.39C286.487 639.722 285.031 639.916 283.493 640.776C281.954 641.635 280.943 642.73 280.638 642.536Z" fill="white"/>
<path d="M283.105 618.267C282.8 618.433 281.788 617.061 280.097 615.966C278.406 614.871 276.771 614.427 276.812 614.081C276.854 613.734 278.808 613.61 280.79 614.94C282.772 616.271 283.41 618.156 283.105 618.267Z" fill="white"/>
<path d="M355.523 337.172C362.58 335.292 369.786 334.026 377.061 333.388C384.374 332.764 391.727 333.964 398.461 336.881C399.459 337.338 406.14 341.191 405.932 342.273C405.793 343.049 399.487 340.512 398.78 340.887C391.961 344.144 384.061 344.546 376.604 343.326C369.373 342.075 362.302 340.025 355.523 337.214" fill="#263238"/>
<path d="M317.838 334.4L383.34 338.71C401.635 339.611 416.355 350.99 414.955 369.202L414.733 370.879C413.627 379.031 409.495 386.467 403.157 391.711C396.819 396.955 388.741 399.622 380.526 399.182C364.671 398.308 347.165 397.158 338.78 395.911C321.386 393.388 321.053 375.606 321.053 375.606C321.053 375.606 319.501 375.412 314.373 374.94L297.741 362.951L317.838 334.4Z" fill="#FFBF9D"/>
<path d="M321.053 375.606C322.157 367.566 325.549 360.012 330.824 353.846C330.824 353.846 316.964 357.532 316.202 375.107L321.053 375.606Z" fill="#FF9A6C"/>
<path d="M368.191 383.423C368.551 383.7 367.387 385.765 367.734 388.44C368.08 391.115 369.674 392.903 369.383 393.236C369.092 393.569 368.634 393.167 367.9 392.39C366.951 391.331 366.351 390.005 366.181 388.593C365.997 387.197 366.264 385.779 366.944 384.546C367.47 383.645 368.025 383.298 368.191 383.423Z" fill="#263238"/>
<path d="M370.132 359.5C370.45 359.819 369.023 361.704 368.981 364.407C368.94 367.11 370.27 369.105 369.924 369.383C369.785 369.535 369.203 369.202 368.538 368.329C367.75 367.149 367.344 365.756 367.374 364.338C367.407 362.925 367.893 361.56 368.76 360.443C369.397 359.625 370.062 359.348 370.132 359.5Z" fill="#263238"/>
<path d="M354.414 374.982C354.659 376.452 354.724 377.946 354.608 379.431C354.608 380.124 354.608 380.817 355.079 380.969C355.779 381.126 356.51 381.064 357.172 380.789L362.647 379.473C370.436 377.671 376.798 376.465 376.867 376.784C376.937 377.103 370.686 378.807 362.896 380.609L357.352 381.843C356.458 382.171 355.475 382.171 354.58 381.843C354.352 381.711 354.157 381.529 354.011 381.31C353.864 381.092 353.77 380.842 353.735 380.581C353.686 380.19 353.686 379.794 353.735 379.403C353.771 377.906 353.999 376.421 354.414 374.982Z" fill="#263238"/>
<path d="M384.518 370.173C383.895 369.715 384.962 367.221 385.461 364.061C385.96 360.9 385.821 358.212 386.57 357.99C386.916 357.893 387.471 358.516 387.873 359.695C388.335 361.26 388.434 362.91 388.163 364.519C387.891 366.128 387.257 367.654 386.306 368.981C385.544 369.979 384.823 370.381 384.518 370.173Z" fill="#263238"/>
<path d="M381.15 395.675C380.61 395.038 381.511 392.903 381.857 390.311C382.204 387.72 382.023 385.419 382.73 384.989C383.063 384.795 383.631 385.225 384.116 386.264C384.672 387.687 384.835 389.234 384.587 390.741C384.403 392.26 383.804 393.699 382.855 394.899C382.12 395.731 381.455 395.952 381.15 395.675Z" fill="#263238"/>
<path d="M370.256 338.392C370.423 338.115 375.412 326.902 363.465 325.668C351.518 324.435 352.737 336.756 353.07 336.756C353.403 336.756 370.256 338.392 370.256 338.392Z" fill="#FFBF9D"/>
<path d="M357.976 333.568C357.976 333.568 357.852 333.347 357.727 332.972C357.573 332.456 357.623 331.901 357.866 331.42C358.462 330.2 360.568 329.341 362.73 329.507C363.759 329.582 364.758 329.885 365.655 330.394C366.006 330.554 366.314 330.794 366.555 331.095C366.796 331.396 366.962 331.749 367.041 332.127C367.078 332.375 367.028 332.628 366.899 332.843C366.77 333.058 366.57 333.221 366.334 333.305C365.988 333.43 365.752 333.305 365.724 333.388C365.697 333.471 365.904 333.665 366.403 333.624C366.709 333.583 366.991 333.441 367.207 333.222C367.488 332.917 367.637 332.513 367.623 332.099C367.578 331.6 367.406 331.121 367.122 330.708C366.838 330.295 366.452 329.963 366.001 329.743C365.022 329.12 363.902 328.753 362.744 328.676C360.319 328.496 357.935 329.493 357.27 331.17C357.142 331.482 357.085 331.817 357.104 332.153C357.123 332.489 357.218 332.816 357.381 333.111C357.699 333.513 357.963 333.61 357.976 333.568Z" fill="#FF9A6C"/>
<path d="M401.067 393.361C401.954 395.398 408.773 390.173 411.393 385.627C415.329 378.697 418.323 367.942 417.117 361.136C415.606 352.931 412.266 345.89 405.378 341.233C398.333 336.669 390.201 334.062 381.816 333.68C379.281 333.341 376.702 333.686 374.345 334.678C371.573 336.064 369.577 339.154 365.932 338.669C365.275 338.56 364.603 338.584 363.956 338.739C363.309 338.893 362.699 339.176 362.162 339.57C359.626 341.538 361.566 344.421 363.645 345.863C368.08 348.926 373.652 349.757 379.002 350.492C382.775 351.22 386.642 351.328 390.45 350.811C392.502 350.409 394.47 349.646 396.535 349.425C397.561 349.214 398.62 349.228 399.64 349.468C400.659 349.707 401.614 350.165 402.439 350.811C402.765 351.14 403.062 351.497 403.326 351.878C404.624 353.684 405.418 355.802 405.628 358.016C405.837 360.23 405.454 362.459 404.518 364.477C401.497 370.991 396.854 382.162 398.85 385.391C401.732 390.02 403.784 391.254 403.784 391.254L401.067 393.361Z" fill="#263238"/>
<path d="M370.464 332.557C370.24 331.141 369.622 329.817 368.681 328.736C367.74 327.655 366.513 326.861 365.142 326.444C365.142 326.347 365.683 326.292 366.528 326.514C367.603 326.812 368.567 327.419 369.3 328.26C370.036 329.091 370.517 330.115 370.686 331.212C370.686 332.044 370.561 332.557 370.464 332.557Z" fill="white"/>
<path d="M348.551 368.773C348.283 368.144 347.793 367.637 347.174 367.348C346.555 367.059 345.851 367.009 345.197 367.207L345.544 367.054C344.934 366.971 344.314 367.101 343.789 367.422C343.264 367.742 342.866 368.234 342.661 368.814C342.483 369.404 342.484 370.032 342.661 370.621C342.838 371.21 343.185 371.734 343.659 372.127C344.187 372.554 344.835 372.807 345.513 372.849C346.191 372.891 346.865 372.721 347.443 372.363C348.003 371.976 348.418 371.411 348.619 370.76C348.82 370.109 348.796 369.409 348.551 368.773Z" fill="#FF9A6C"/>
<path d="M347.886 371.863C348.286 371.391 348.507 370.792 348.51 370.173C348.563 369.526 348.434 368.878 348.135 368.301C347.592 367.74 346.851 367.412 346.07 367.387C345.29 367.266 344.492 367.434 343.825 367.858C343.556 368.027 343.325 368.249 343.146 368.511C342.967 368.774 342.844 369.07 342.786 369.383C342.732 369.993 342.862 370.606 343.16 371.143C343.16 371.143 342.938 371.143 342.702 370.81C342.393 370.38 342.241 369.856 342.273 369.327C342.31 368.928 342.433 368.541 342.634 368.194C342.835 367.847 343.109 367.548 343.437 367.317C344.241 366.748 345.235 366.514 346.209 366.666C346.696 366.686 347.173 366.81 347.609 367.03C348.044 367.25 348.427 367.561 348.731 367.941C349.097 368.639 349.214 369.441 349.064 370.214C349.019 370.731 348.805 371.218 348.454 371.6C348.08 371.877 347.886 371.905 347.886 371.863Z" fill="#263238"/>
<g opacity="0.1">
<path d="M415.717 357.934C413.815 351.789 410.105 346.36 405.071 342.355C400.037 338.35 393.913 335.954 387.498 335.481L382.675 335.26C381.836 335.147 380.982 335.227 380.18 335.495C379.78 335.639 379.44 335.912 379.214 336.271C378.988 336.63 378.889 337.055 378.932 337.477C379.14 338.42 380.18 338.863 381.108 339.113C386.652 340.596 392.474 340.318 397.837 342.203C402.969 344.009 407.232 347.682 409.775 352.491C412.318 357.3 412.955 362.891 411.559 368.149C411.283 368.932 411.16 369.76 411.198 370.589C411.223 371.005 411.387 371.4 411.663 371.712C411.94 372.024 412.313 372.233 412.723 372.307C413.107 372.277 413.478 372.153 413.803 371.948C414.129 371.743 414.401 371.462 414.594 371.129C417.352 367.456 417.075 362.314 415.717 357.934Z" fill="white"/>
</g>
<path d="M367.207 369.66C367.207 369.743 366.584 369.757 365.71 369.355C364.559 368.811 363.644 367.868 363.134 366.701C362.624 365.534 362.555 364.221 362.938 363.007C363.243 362.092 363.673 361.621 363.742 361.704C363.812 361.787 363.59 362.272 363.437 363.09C363.221 364.196 363.346 365.341 363.797 366.374C364.247 367.406 365.002 368.277 365.96 368.87C366.694 369.383 367.29 369.549 367.207 369.66Z" fill="#FF9A6C"/>
<path d="M363.756 392.432C363.162 391.287 362.962 389.977 363.187 388.707C363.413 387.436 364.051 386.276 365.004 385.405C365.184 385.543 364.227 386.888 363.895 388.842C363.562 390.796 363.964 392.376 363.756 392.432Z" fill="#FF9A6C"/>
<path d="M237.006 438.406C237.838 438.101 296.604 440.97 315.676 442.647C334.747 444.324 367.803 453.319 369.439 475.772C370.825 493.79 370.506 619.362 370.506 619.362H319.224L318.004 486.652L238.351 466.555L237.006 438.406Z" fill="#263238"/>
<g opacity="0.3">
<path d="M279.127 446.86C279.127 446.86 307.679 452.016 330.478 458.489C353.278 464.961 363.34 478.808 366.667 487.054C369.993 495.301 371.573 507.623 364.574 519.182C360.153 526.5 337.99 552.252 337.99 552.252C337.99 552.252 333.417 478.35 333.195 477.228C332.973 476.105 279.127 446.86 279.127 446.86Z" fill="black"/>
</g>
<path d="M364.158 495.454C361.746 481.205 345.613 471.24 325.835 463.825C306.348 456.493 255.357 438.378 255.357 438.378L243.146 435.37H237.685L235.883 429.965C235.883 429.965 201.233 419.944 151.185 438.406L149.48 439.792C149.48 439.792 147.969 476.299 155.024 484.144C155.024 484.144 234.747 483.021 238.933 483.368C243.118 483.714 301.58 510.242 301.58 510.242L251.531 587.013L292.917 615.925C292.917 615.925 317.865 580.36 333.111 559.099C354.885 528.579 367.013 512.28 364.158 495.454Z" fill="#263238"/>
<path d="M364.158 495.453C364.158 495.453 364.283 496.312 364.491 497.99C364.703 500.472 364.61 502.972 364.213 505.432C363.516 509.417 362.29 513.29 360.568 516.95C358.256 521.92 355.593 526.718 352.599 531.309C345.974 541.746 336.992 553.831 327.027 568.08L293.153 616.091L292.987 616.326L292.751 616.16L251.351 587.276L251.102 587.095L251.268 586.832C266.584 563.339 283.479 537.38 301.289 510.048L301.428 510.561C290.34 505.534 278.965 500.452 267.304 495.315C261.483 492.778 255.62 490.228 249.674 487.747C246.694 486.541 243.715 485.266 240.665 484.213C240.298 484.078 239.924 483.967 239.543 483.88C239.173 483.753 238.783 483.697 238.392 483.714C237.602 483.714 236.785 483.714 235.981 483.714H231.088C204.962 483.852 179.487 484.213 155.038 484.531H154.872L154.761 484.421C153.539 482.855 152.636 481.066 152.1 479.154C151.512 477.307 151.049 475.422 150.714 473.513C150.049 469.757 149.587 465.967 149.328 462.161C148.843 454.608 148.801 447.179 149.037 439.861V439.708L149.162 439.611L150.866 438.225C165.006 433.002 179.734 429.538 194.719 427.913C201.734 427.162 208.794 426.93 215.842 427.22C222.616 427.344 229.359 428.162 235.967 429.66H236.119V429.812C236.743 431.711 237.325 433.485 237.907 435.231L237.63 435.037H243.174L255.399 438.059L304.962 456.008L325.336 463.395C331.043 465.5 336.6 467.991 341.968 470.852C351.67 476.008 358.129 482.064 360.998 487.151C361.644 488.249 362.218 489.388 362.716 490.561C363.054 491.422 363.345 492.301 363.59 493.194C363.922 494.649 364.061 495.384 364.061 495.384C364.061 495.384 363.867 494.649 363.52 493.208C363.354 492.487 362.966 491.642 362.606 490.616C362.425 490.089 362.107 489.577 361.843 489.008C361.561 488.393 361.232 487.8 360.859 487.234C357.962 482.203 351.504 476.229 341.816 471.115C336.445 468.287 330.888 465.828 325.184 463.755L304.92 456.493L255.329 438.641L243.119 435.633H237.575V435.439L235.62 430.048L235.828 430.242C229.334 428.725 222.703 427.87 216.036 427.692C209.019 427.41 201.991 427.651 195.01 428.412C180.08 430.045 165.408 433.508 151.324 438.724H151.421L149.716 440.11L149.841 439.861C149.605 447.137 149.661 454.58 150.146 462.037C150.381 465.818 150.816 469.584 151.448 473.319C151.799 475.193 152.262 477.044 152.834 478.863C153.346 480.681 154.203 482.385 155.357 483.88L155.094 483.755C179.557 483.437 204.99 483.062 231.157 482.924H236.05C236.868 482.924 237.685 482.924 238.503 482.924C238.927 482.92 239.348 482.986 239.751 483.118C240.166 483.207 240.573 483.327 240.97 483.478C244.061 484.545 247.027 485.807 250.021 487.026C255.967 489.507 261.843 492.057 267.651 494.608C279.275 499.708 290.654 504.79 301.788 509.854L302.162 510.02L301.94 510.367L251.878 587.123L251.795 586.68L293.153 615.619H292.751L326.722 567.664C336.715 553.443 345.738 541.33 352.391 531.004C355.375 526.475 358.038 521.741 360.36 516.839C362.091 513.207 363.336 509.362 364.061 505.405C364.468 502.955 364.589 500.467 364.421 497.99C364.227 496.326 364.158 495.453 364.158 495.453Z" fill="#455A64"/>
<path d="M326.417 500.886C325.11 501.193 323.786 501.429 322.453 501.593C316.104 502.751 310.046 505.153 304.629 508.662C302.55 510.048 301.331 510.935 301.248 510.852C302.155 509.847 303.194 508.97 304.338 508.246C307.002 506.352 309.888 504.793 312.932 503.603C315.973 502.409 319.146 501.586 322.384 501.15C323.713 500.9 325.067 500.812 326.417 500.886Z" fill="#455A64"/>
<path d="M317.422 374.733V379.126L306.708 380.124L306.098 377.879L308.981 371.185L317.422 374.733Z" fill="#70B8F3"/>
<path d="M309.051 378.198L295.218 405.89L298.281 455.592L291.337 466.43L284.033 453.929L285.294 406.638L306.833 376.16L309.051 378.198Z" fill="#70B8F3"/>
<path d="M313.236 331.988C313.236 331.988 293.721 324.587 274.858 323.354C255.994 322.12 232.668 334.774 221.525 339.722C210.381 344.67 167.776 386.846 158.559 400.873C153.278 408.939 146.237 427.207 146.237 427.207C145.045 433.582 149.494 439.792 149.494 439.792L235.274 440.429H251.365L258.17 425.89C258.17 425.89 271.157 424.961 274.872 417.851C278.586 410.741 292.197 400.221 292.197 400.221L307.692 374.58L317.893 376.742L323.548 333.18L313.236 331.988Z" fill="#E0E0E0"/>
<path d="M249.646 351.489C249.575 352.001 249.445 352.504 249.258 352.986C248.939 354.095 248.538 355.425 248.052 357.006C246.775 361.425 245.73 365.908 244.92 370.436C244.132 374.972 243.591 379.548 243.298 384.143C243.215 385.779 243.132 387.179 243.077 388.301C243.081 388.818 243.03 389.334 242.924 389.84C242.811 389.335 242.765 388.818 242.786 388.301C242.786 387.317 242.786 385.876 242.786 384.143C242.914 379.496 243.377 374.864 244.172 370.283C244.976 365.725 246.097 361.228 247.526 356.825C248.08 355.134 248.579 353.79 248.912 352.875C249.102 352.386 249.349 351.921 249.646 351.489Z" fill="#263238"/>
<path d="M287.249 522.397C287.249 522.397 293.125 529.244 294.941 531.725C296.576 533.943 298.198 542.065 298.822 549.993C298.866 550.464 298.792 550.939 298.607 551.374C298.422 551.81 298.131 552.193 297.762 552.488C297.392 552.784 296.954 552.983 296.489 553.067C296.023 553.152 295.543 553.119 295.093 552.972C294.701 552.822 294.355 552.572 294.09 552.246C293.825 551.92 293.65 551.53 293.583 551.115C292.321 545.377 291.989 542.938 291.989 542.938C291.822 540.166 291.531 540.554 291.448 542.425C291.365 544.296 292.834 554.649 292.834 554.649C292.834 554.649 296.798 568.773 295.731 570.353C295.503 570.667 295.208 570.926 294.866 571.11C294.524 571.295 294.146 571.399 293.758 571.416C293.37 571.434 292.983 571.363 292.627 571.21C292.27 571.057 291.952 570.826 291.698 570.533C291.157 569.798 286.694 558.059 286.694 558.059L285.516 551.628C285.516 551.628 287.817 571.947 286.528 573.541C286.337 573.831 286.08 574.073 285.778 574.245C285.475 574.417 285.137 574.515 284.789 574.531C284.442 574.548 284.096 574.481 283.779 574.338C283.462 574.195 283.183 573.978 282.966 573.707C282.065 572.903 281.15 563.922 281.15 563.922L279.057 551.933L279.432 574.788C279.432 574.788 279.196 576.95 277.491 577.033C275.786 577.116 274.719 574.608 274.719 574.608L272.266 551.046C272.266 551.046 273.056 564.144 272.169 564.837C270.991 565.751 269.924 565.446 269.536 564.435C268.746 562.397 267.595 550.575 267.595 550.575L266.514 528.149L265.724 520.734L285.35 513.707L287.249 522.397Z" fill="#FFBF9D"/>
<g opacity="0.3">
<path d="M244.726 382.342C238.629 401.219 234.331 420.631 231.892 440.318C232.132 447.446 232.947 454.542 234.331 461.538C236.59 472.751 254.982 521.371 254.982 521.371L267.581 522.466L256.964 436.091L267.581 395.717L244.726 382.342Z" fill="black"/>
</g>
<path d="M301.206 345.516C309.84 348.177 311.462 365.682 309.605 370.672C303.659 386.68 284.657 401.718 284.934 400.845L272.585 449.965L290.09 516.493L261.788 526.624C261.788 526.624 235.967 458.322 235.454 447.622C234.941 436.922 242.633 409.036 243.77 392.362C244.504 381.649 249.937 359.916 263.174 347.123" fill="#E0E0E0"/>
<path d="M263.188 347.027C263.188 347.027 262.98 347.276 262.55 347.747C262.121 348.219 261.455 348.898 260.638 349.84C258.307 352.62 256.229 355.603 254.428 358.752C251.613 363.779 249.336 369.089 247.637 374.594C246.543 378.028 245.668 381.528 245.017 385.072C244.685 386.957 244.38 388.898 244.2 390.908C244.02 392.917 243.895 395.065 243.604 397.131C242.606 405.613 240.749 414.802 238.878 424.698C237.963 429.632 236.993 434.761 236.3 440.069C235.904 442.748 235.779 445.459 235.925 448.163L236.216 450.187L236.688 452.21C236.979 453.596 237.367 454.982 237.755 456.368C239.266 461.829 241.067 467.373 242.952 473C244.837 478.627 246.833 484.407 248.898 490.27C253.056 501.982 257.464 514.095 262.121 526.486L261.663 526.278L274.816 521.566L289.965 516.146L289.744 516.576C283.521 492.917 277.63 470.492 272.266 450.048V449.882C276.854 431.753 281.026 415.232 284.671 400.776L285.184 400.914C285.195 400.877 285.198 400.838 285.19 400.799C285.183 400.761 285.166 400.725 285.141 400.695C285.117 400.664 285.085 400.641 285.049 400.626C285.012 400.611 284.973 400.605 284.934 400.61H285.017L285.211 400.499L285.6 400.235L286.376 399.653L287.873 398.447C288.843 397.616 289.785 396.784 290.645 395.939C292.474 394.262 294.193 392.543 295.801 390.824C298.843 387.605 301.624 384.147 304.117 380.485C306.324 377.316 308.117 373.879 309.453 370.256C310.139 367.089 310.223 363.822 309.702 360.623C308.926 354.816 307.013 350.492 304.934 348.149C303.879 346.982 302.57 346.072 301.109 345.488C301.109 345.488 301.497 345.627 302.232 345.932C302.691 346.124 303.12 346.38 303.507 346.694C304.079 347.086 304.596 347.552 305.045 348.08C307.193 350.353 309.203 354.705 309.993 360.554C310.217 362.097 310.337 363.652 310.354 365.211C310.403 366.938 310.216 368.663 309.799 370.339C308.477 374.007 306.684 377.488 304.463 380.693C301.973 384.387 299.192 387.877 296.147 391.129C294.525 392.862 292.807 394.594 290.977 396.285C290.062 397.145 289.12 397.99 288.205 398.822C287.72 399.223 287.221 399.639 286.708 400.041L285.918 400.637L285.503 400.914L285.281 401.053H285.142H285.017C284.969 401.059 284.919 401.053 284.873 401.035C284.827 401.018 284.786 400.99 284.753 400.953C284.721 400.916 284.697 400.872 284.685 400.824C284.674 400.776 284.673 400.727 284.685 400.679L285.211 400.817L272.918 449.951V449.785L290.451 516.313L290.534 516.632L290.229 516.742L275.08 522.162L261.913 526.874L261.58 526.999L261.455 526.666C256.798 514.261 252.391 502.134 248.247 490.422C246.196 484.56 244.186 478.794 242.315 473.139C240.444 467.484 238.656 461.912 237.131 456.424C236.743 455.038 236.369 453.652 236.078 452.266C235.911 451.573 235.759 450.88 235.607 450.214C235.454 449.549 235.399 448.828 235.302 448.108C235.156 445.366 235.29 442.617 235.704 439.903C236.41 434.553 237.381 429.438 238.323 424.49C240.222 414.594 242.107 405.433 243.133 396.964C243.424 394.858 243.534 392.806 243.742 390.769C243.95 388.731 244.255 386.777 244.602 384.892C245.268 381.337 246.162 377.828 247.277 374.386C249.003 368.865 251.327 363.548 254.207 358.531C256.027 355.372 258.148 352.397 260.541 349.646C262.232 347.886 263.188 347.027 263.188 347.027Z" fill="#263238"/>
<path d="M309.078 356.881C308.937 355.656 308.937 354.419 309.078 353.194C309.213 350.234 309.5 347.283 309.938 344.352C310.373 341.421 310.965 338.515 311.712 335.648C311.952 334.437 312.338 333.259 312.862 332.141C312.744 333.363 312.526 334.572 312.211 335.759C311.753 337.976 311.171 341.053 310.658 344.463C310.146 347.872 309.813 350.977 309.591 353.236C309.53 354.464 309.359 355.684 309.078 356.881Z" fill="#263238"/>
<g opacity="0.3">
<path d="M312.211 333.166C311.92 333.042 311.615 333.333 311.421 333.596C309.61 335.698 308.163 338.087 307.138 340.665C305.6 345.266 307.235 350.367 308.635 355.079C309.939 359.576 310.409 364.273 310.021 368.939L309.674 370.561C311.165 367.641 311.586 364.292 310.866 361.094C310.138 357.929 309.574 354.727 309.175 351.503C308.857 345.557 311.254 339.847 312.446 334.026C312.516 333.749 312.53 333.291 312.211 333.166Z" fill="black"/>
</g>
<path d="M215.509 463.395H206.681V526.569H215.509V463.395Z" fill="#E0E0E0"/>
<path d="M80.4576 422.12C81.2462 423.988 82.69 425.503 84.5175 426.381C86.345 427.259 88.4303 427.439 90.3813 426.888C111.073 421.189 132.89 420.965 153.694 426.236C182.897 433.485 193.555 449.216 197.519 459.112C198.492 461.482 200.15 463.506 202.281 464.926C204.412 466.346 206.919 467.097 209.48 467.082H210.672C211.904 467.073 213.118 466.791 214.228 466.255C215.337 465.72 216.314 464.945 217.087 463.986C217.86 463.027 218.411 461.909 218.699 460.711C218.987 459.513 219.005 458.267 218.753 457.061C215.731 443.34 197.478 419.5 164.851 410.685C125.586 400.069 98.3231 407.137 85.6412 411.087C84.5513 411.435 83.5448 412.004 82.6849 412.759C81.8249 413.514 81.1299 414.438 80.6434 415.473C80.1568 416.509 79.8892 417.634 79.8573 418.777C79.8253 419.921 80.0296 421.059 80.4576 422.12Z" fill="#455A64"/>
<path d="M80.4577 422.12C80.4577 422.12 80.333 421.857 80.1389 421.316C79.8047 420.253 79.6877 419.133 79.7949 418.023C79.902 416.914 80.2311 415.837 80.7626 414.857C81.6824 413.183 83.1507 411.876 84.9206 411.157C96.2292 407.416 108.013 405.307 119.917 404.892C128.126 404.599 136.344 405.031 144.477 406.181C146.667 406.527 148.898 406.846 151.144 407.234L157.977 408.62L164.907 410.339C167.207 411.087 169.605 411.725 171.934 412.57C174.262 413.416 176.646 414.303 178.947 415.426C180.097 415.98 181.289 416.451 182.426 417.075L185.863 418.918C190.498 421.553 194.882 424.605 198.961 428.038C203.18 431.606 207.004 435.616 210.367 439.999L211.643 441.676L212.821 443.451C213.195 444.033 213.611 444.615 213.971 445.225L215.024 447.082C216.46 449.576 217.617 452.221 218.476 454.968C218.656 455.675 218.864 456.354 219.044 457.075C219.185 457.805 219.236 458.55 219.196 459.292C219.064 461.522 218.071 463.612 216.426 465.122C214.781 466.633 212.614 467.445 210.381 467.387C207.523 467.545 204.686 466.814 202.259 465.294C199.875 463.782 198.043 461.541 197.034 458.904C196.034 456.44 194.799 454.078 193.347 451.85C192.668 450.713 191.851 449.688 191.088 448.634C190.326 447.581 189.48 446.583 188.58 445.654C185.15 441.927 181.223 438.691 176.909 436.035C172.8 433.518 168.461 431.398 163.95 429.701C159.675 428.136 155.299 426.858 150.853 425.876C142.889 424.042 134.766 422.988 126.598 422.73C114.759 422.328 102.925 423.669 91.4764 426.708C90.5248 427.022 89.5379 427.218 88.5381 427.29C87.4037 427.339 86.2712 427.155 85.2104 426.75C84.1497 426.345 83.1831 425.727 82.3704 424.934C81.5582 424.158 80.9285 423.211 80.527 422.162C81.0126 423.171 81.6744 424.087 82.4813 424.864C83.4616 425.769 84.6453 426.425 85.9324 426.777C86.7652 426.988 87.6243 427.077 88.4827 427.04C89.4633 426.952 90.4305 426.752 91.3655 426.444C102.848 423.294 114.739 421.893 126.639 422.286C134.856 422.488 143.033 423.509 151.047 425.335C155.519 426.314 159.923 427.588 164.228 429.147C168.788 430.848 173.174 432.983 177.325 435.523C181.695 438.196 185.673 441.461 189.148 445.225C190.063 446.153 190.839 447.22 191.698 448.232C192.557 449.244 193.292 450.353 193.985 451.503C195.471 453.762 196.729 456.162 197.741 458.669C198.702 461.168 200.442 463.292 202.703 464.726C205.015 466.167 207.716 466.86 210.437 466.708C212.487 466.765 214.479 466.021 215.99 464.634C217.502 463.248 218.413 461.326 218.531 459.279C218.568 458.596 218.521 457.912 218.392 457.241C218.226 456.562 218.018 455.855 217.838 455.204C216.995 452.506 215.861 449.908 214.456 447.456L213.444 445.599C213.084 445.003 212.682 444.421 212.294 443.839L211.088 442.134L209.827 440.471C206.493 436.131 202.706 432.158 198.531 428.62C194.487 425.214 190.14 422.185 185.544 419.57L182.149 417.726C181.026 417.103 179.834 416.645 178.697 416.091C176.41 414.968 174.054 414.137 171.767 413.25C169.481 412.363 167.083 411.753 164.837 411.018L157.907 409.286L151.102 407.9C148.857 407.498 146.639 407.179 144.463 406.819C136.364 405.651 128.179 405.187 120 405.433C108.144 405.802 96.3969 407.826 85.1008 411.448C83.3741 412.12 81.9373 413.375 81.0398 414.996C80.3675 416.171 80.0006 417.496 79.9726 418.849C79.9394 419.959 80.1037 421.067 80.4577 422.12Z" fill="#263238"/>
<path d="M94.941 418.78C94.941 420.104 94.5484 421.398 93.8128 422.499C93.0772 423.6 92.0317 424.458 90.8085 424.965C89.5852 425.471 88.2392 425.604 86.9406 425.346C85.642 425.087 84.4492 424.45 83.513 423.513C82.5768 422.577 81.9392 421.384 81.6809 420.086C81.4226 418.787 81.5551 417.441 82.0618 416.218C82.5685 414.995 83.4265 413.949 84.5274 413.214C85.6283 412.478 86.9226 412.085 88.2466 412.085C89.1263 412.084 89.9976 412.256 90.8106 412.591C91.6236 412.927 92.3623 413.42 92.9843 414.042C93.6063 414.664 94.0994 415.403 94.4352 416.216C94.7709 417.029 94.9428 417.9 94.941 418.78Z" fill="white"/>
<path d="M492.03 374.012H523.603L521.136 391.379C521.136 391.379 519.085 399.917 514.206 399.917H500.526C498.844 398.885 497.388 397.525 496.245 395.918C495.102 394.31 494.295 392.488 493.873 390.561L492.03 374.012Z" fill="#455A64"/>
<path d="M492.03 374.012C492.076 374.194 492.108 374.38 492.127 374.566C492.127 374.955 492.252 375.467 492.349 376.105C492.529 377.491 492.792 379.445 493.125 381.885C493.457 384.324 493.845 387.345 494.289 390.741C494.719 392.598 495.519 394.348 496.641 395.889C497.762 397.43 499.183 398.729 500.817 399.709H500.692H511.628C512.598 399.709 513.582 399.709 514.538 399.709C515.484 399.655 516.381 399.273 517.075 398.627C518.524 397.237 519.613 395.515 520.249 393.61C520.528 392.88 520.769 392.135 520.969 391.379C521.815 385.239 522.619 379.404 523.353 374.012L523.603 374.303L500.942 374.178L494.414 374.109H492.654H492.03C492.219 374.086 492.409 374.086 492.598 374.109H494.303L500.775 374.04L523.603 373.915H523.88V374.192C523.145 379.584 522.355 385.433 521.538 391.559C521.341 392.34 521.096 393.109 520.803 393.86C520.127 395.849 518.981 397.646 517.463 399.099C516.68 399.819 515.67 400.241 514.608 400.291C513.61 400.291 512.64 400.291 511.669 400.291H500.734H500.665C498.977 399.27 497.515 397.916 496.366 396.313C495.218 394.709 494.407 392.889 493.984 390.963C493.527 387.484 493.222 384.449 492.931 381.954C492.64 379.459 492.446 377.56 492.307 376.174L492.141 374.663C492.078 374.452 492.041 374.233 492.03 374.012Z" fill="#263238"/>
<path d="M521.136 382.965L521.607 382.855C521.316 382.855 521.69 382.855 521.745 382.855C522.087 382.834 522.43 382.834 522.771 382.855C522.438 382.855 522.771 382.855 522.896 382.855L523.436 382.993L523.88 383.132C524.088 383.201 523.88 383.132 523.797 383.132L524.088 383.27C524.389 383.434 524.68 383.615 524.961 383.811C525.141 383.936 524.961 383.811 524.892 383.811L525.072 383.963C525.208 384.086 525.338 384.215 525.46 384.351C525.557 384.462 525.751 384.726 525.571 384.462C525.682 384.615 525.779 384.767 525.876 384.92C525.973 385.072 526.028 385.211 526.098 385.349C526.167 385.488 526.098 385.349 526.098 385.266C526.143 385.365 526.18 385.467 526.208 385.571C526.272 385.747 526.323 385.928 526.361 386.112C526.361 386.181 526.458 386.638 526.43 386.417C526.402 386.195 526.43 386.652 526.43 386.721C526.444 386.911 526.444 387.101 526.43 387.29C526.43 387.401 526.43 387.511 526.43 387.622C526.43 387.733 526.43 387.913 526.43 387.622C526.413 387.725 526.39 387.827 526.361 387.927C526.334 388.088 526.292 388.246 526.236 388.399C526.236 388.523 526.028 388.953 526.236 388.62C526.087 388.941 525.916 389.252 525.723 389.549L525.585 389.743C525.585 389.743 525.779 389.521 525.585 389.674C525.391 389.826 525.294 389.979 525.141 390.131C524.989 390.283 524.739 390.45 524.906 390.339C525.072 390.228 524.698 390.464 524.642 390.491L524.226 390.727L524.019 390.838C524.129 390.838 524.254 390.713 524.019 390.838C523.908 390.838 523.298 391.032 522.937 391.129C522.577 391.226 523.034 391.129 523.062 391.129H522.743H521.662H521.357L520.748 390.935C521.011 391.046 520.54 390.824 520.54 390.824C520.324 390.698 520.086 390.615 519.838 390.58C519.59 390.546 519.338 390.561 519.096 390.624C518.854 390.687 518.627 390.797 518.428 390.948C518.228 391.099 518.06 391.287 517.934 391.503C517.807 391.719 517.725 391.957 517.69 392.205C517.656 392.453 517.671 392.705 517.734 392.947C517.797 393.189 517.907 393.416 518.058 393.615C518.209 393.815 518.397 393.982 518.613 394.109C520.434 395.056 522.545 395.282 524.525 394.743C526.506 394.203 528.21 392.938 529.299 391.198C530.326 389.376 530.642 387.238 530.186 385.197C529.955 384.204 529.53 383.267 528.935 382.439C528.341 381.612 527.588 380.91 526.721 380.374C525.766 379.773 524.696 379.376 523.58 379.206C522.464 379.037 521.326 379.099 520.235 379.39C519.748 379.524 519.334 379.846 519.084 380.285C518.835 380.724 518.77 381.245 518.904 381.732C519.038 382.219 519.36 382.633 519.8 382.882C520.239 383.132 520.759 383.197 521.247 383.062L521.136 382.965Z" fill="#455A64"/>
<path d="M521.136 382.965C520.938 383.061 520.717 383.099 520.498 383.076C520.171 383.06 519.853 382.963 519.572 382.794C519.292 382.624 519.058 382.388 518.891 382.106C518.754 381.877 518.664 381.624 518.626 381.36C518.588 381.096 518.604 380.827 518.671 380.569C518.738 380.311 518.855 380.069 519.017 379.857C519.178 379.645 519.38 379.467 519.611 379.334C520.193 379.069 520.817 378.909 521.455 378.863C522.159 378.774 522.871 378.774 523.575 378.863C525.192 379.106 526.7 379.819 527.914 380.914C529.328 382.171 530.235 383.901 530.464 385.779C530.745 387.855 530.251 389.962 529.078 391.697C528.432 392.603 527.606 393.366 526.652 393.938C525.698 394.51 524.637 394.88 523.534 395.024C522.547 395.163 521.545 395.135 520.568 394.941C520.098 394.831 519.635 394.692 519.182 394.525L518.516 394.22C518.272 394.11 518.055 393.95 517.879 393.749C517.552 393.342 517.373 392.836 517.373 392.314C517.373 391.792 517.552 391.286 517.879 390.88C518.222 390.502 518.683 390.252 519.187 390.171C519.691 390.091 520.207 390.184 520.651 390.436L520.291 390.658C520.293 390.597 520.316 390.539 520.357 390.493C520.397 390.448 520.452 390.418 520.512 390.408C520.651 390.408 520.665 390.408 520.651 390.408H520.748C520.748 390.256 520.942 390.796 520.637 390.852H520.485H520.374V390.783C520.235 390.228 520.762 390.381 520.609 390.367H520.692L520.887 390.436C521.145 390.519 521.409 390.583 521.677 390.63C521.677 390.63 521.677 390.63 521.815 390.699C521.954 390.769 521.898 390.699 521.884 390.935C521.871 391.171 521.69 391.129 521.677 391.129H521.552H521.441H521.344C521.344 391.129 521.205 391.06 521.275 390.824C521.344 390.588 521.455 390.713 521.482 390.699H522.106C522.369 390.713 522.633 390.713 522.896 390.699V391.171H522.813H522.688C522.626 391.17 522.566 391.145 522.522 391.101C522.494 391.063 522.479 391.017 522.479 390.97C522.479 390.922 522.494 390.876 522.522 390.838C522.522 390.741 522.522 390.769 522.522 390.755L522.633 390.685H522.855L523.257 390.575L523.672 390.464H523.853C523.756 390.367 523.853 390.935 523.991 390.866H524.088H524.005L523.783 390.45L524.324 390.159L524.573 390.006C524.623 389.992 524.676 389.992 524.726 390.006C524.772 390.021 524.814 390.044 524.85 390.076C524.888 390.12 524.908 390.177 524.908 390.235C524.908 390.293 524.888 390.35 524.85 390.394H524.767C524.723 390.412 524.673 390.412 524.629 390.394C524.59 390.387 524.553 390.371 524.522 390.347C524.491 390.323 524.465 390.292 524.449 390.256C524.365 390.131 524.532 389.951 524.449 389.992C524.609 389.878 524.757 389.748 524.892 389.604L525.086 389.397C525.086 389.397 525.322 389.396 525.377 389.549C525.433 389.701 525.377 389.66 525.377 389.688L525.294 389.785L524.934 389.521C525.183 389.175 525.363 388.801 525.571 388.454L525.959 388.634V388.704C525.959 388.704 525.959 388.704 525.793 388.704C525.766 388.702 525.739 388.695 525.714 388.682C525.69 388.67 525.668 388.654 525.65 388.633C525.632 388.612 525.618 388.588 525.609 388.562C525.601 388.536 525.597 388.509 525.599 388.482V388.329C525.637 388.244 525.67 388.156 525.696 388.066C525.696 387.886 525.793 387.706 525.835 387.525V387.387C525.835 387.387 525.835 387.387 525.918 387.262C525.947 387.245 525.981 387.236 526.015 387.236C526.049 387.236 526.082 387.245 526.112 387.262H526.195C526.21 387.317 526.21 387.374 526.195 387.428V387.567C526.333 387.719 525.613 387.65 525.807 387.567V387.442C525.8 387.401 525.8 387.359 525.807 387.318C525.807 387.137 525.807 386.957 525.807 386.791C525.821 386.62 525.821 386.449 525.807 386.278V386.126C525.81 386.093 525.821 386.061 525.838 386.032C525.854 386.003 525.877 385.979 525.904 385.959C525.932 385.939 525.966 385.928 526.001 385.928C526.036 385.928 526.07 385.939 526.098 385.959C526.114 385.965 526.129 385.974 526.141 385.986C526.153 385.998 526.162 386.012 526.167 386.029C526.167 386.098 526.167 386.098 526.167 386.098V386.181C526.173 386.208 526.173 386.237 526.167 386.264C526.167 386.264 526.167 386.264 526.056 386.333C526.014 386.345 525.969 386.341 525.928 386.324C525.888 386.306 525.855 386.275 525.835 386.236L525.765 385.932C525.697 385.617 525.609 385.307 525.502 385.003L525.835 384.878V384.947C525.839 384.969 525.838 384.99 525.833 385.011C525.828 385.032 525.819 385.052 525.806 385.069C525.792 385.086 525.776 385.1 525.757 385.11C525.738 385.12 525.717 385.126 525.696 385.128C525.557 385.128 525.557 385.128 525.543 385.128C525.543 385.128 525.543 385.017 525.446 384.961L525.308 384.67L524.975 384.157L525.252 383.977V384.047C525.266 384.07 525.273 384.096 525.273 384.123C525.273 384.15 525.266 384.176 525.252 384.199C525.237 384.222 525.217 384.241 525.192 384.254C525.168 384.267 525.141 384.273 525.114 384.273C525.086 384.273 525.059 384.267 525.035 384.254C525.011 384.241 524.99 384.222 524.975 384.199L524.878 384.074C524.816 383.994 524.747 383.92 524.67 383.853L524.268 383.464L524.462 383.243H524.546C524.213 383.7 524.407 383.354 524.338 383.451L524.157 383.34L523.811 383.118C523.609 382.979 523.396 382.859 523.173 382.758L523.284 382.522H523.395H523.478C523.478 382.522 523.548 382.688 523.478 382.716H523.409H523.908L523.686 382.633L523.27 382.508L522.882 382.411H522.702C522.785 382.411 522.536 382.508 522.702 382.217H522.855V382.411H521.94H521.593C521.593 382.411 521.593 382.411 521.593 382.328H521.801C521.801 382.328 521.801 382.328 521.801 382.397H521.69C521.517 382.437 521.341 382.46 521.164 382.467C521.325 382.386 521.498 382.33 521.677 382.3H521.746H521.593H522.855V382.494H522.702C522.868 382.189 522.605 382.328 522.702 382.3H522.924L523.34 382.383L523.769 382.508L523.991 382.577C523.908 382.91 523.908 382.785 523.894 382.799H523.756L523.866 382.564C524.097 382.667 524.319 382.788 524.532 382.924L524.892 383.132L525.086 383.243L525.017 383.354L524.92 383.27L525.114 383.049C525.264 383.17 525.407 383.3 525.543 383.437C525.543 383.52 525.696 383.575 525.779 383.672L525.876 383.797C525.876 383.797 525.807 383.797 525.779 383.797V383.728L526.056 383.548C526.167 383.714 526.292 383.88 526.403 384.074L526.555 384.365C526.555 384.365 526.652 384.448 526.555 384.518L526.458 384.601C526.422 384.589 526.383 384.589 526.347 384.601H526.278V384.504L526.611 384.379C526.735 384.7 526.837 385.029 526.916 385.363V385.488V385.585C526.916 385.585 526.916 385.585 526.805 385.585C526.694 385.585 526.805 385.585 526.735 385.585C526.72 385.579 526.704 385.575 526.687 385.575C526.67 385.575 526.654 385.579 526.638 385.585H526.555H526.666H526.735C526.735 385.585 526.805 385.585 526.819 385.585H526.68V385.682C526.68 385.848 526.68 386.056 526.68 386.236C526.701 386.421 526.701 386.607 526.68 386.791C526.688 386.841 526.688 386.893 526.68 386.943C526.68 386.943 526.611 386.943 526.514 386.943H526.278V386.819C526.278 386.819 526.417 386.819 526.389 386.819C526.694 386.819 526.569 386.819 526.597 386.819V386.957C526.597 387.137 526.5 387.345 526.444 387.539C526.423 387.64 526.39 387.737 526.347 387.83V387.955C525.807 387.733 526.001 387.789 525.987 387.761V387.692L526.375 387.872C526.153 388.246 525.973 388.648 525.71 389.022L525.349 388.759L525.446 388.648H525.53C525.53 388.648 525.627 388.648 525.654 388.745V388.814C525.654 388.814 525.738 388.925 525.724 388.898L525.516 389.119C525.373 389.268 525.22 389.407 525.058 389.535C524.961 389.452 524.961 389.383 524.934 389.397C524.906 389.41 524.934 389.396 524.934 389.327L524.864 389.202C524.864 389.202 524.934 389.286 524.864 389.299C524.795 389.313 524.864 389.424 524.864 389.424C524.862 389.453 524.869 389.482 524.884 389.507C524.899 389.532 524.921 389.551 524.947 389.563H524.878L524.615 389.729L524.06 390.034L523.839 389.618H523.936H524.102C524.31 389.618 524.351 390.131 524.241 390.02H524.171L523.95 390.103L523.534 390.214L523.104 390.325H522.896C522.896 390.325 522.896 390.436 522.813 390.117C522.813 390.117 522.813 389.84 522.813 389.868H523.007V390.339C522.726 390.36 522.443 390.36 522.162 390.339C522.019 390.353 521.875 390.353 521.732 390.339H521.58V390.103C521.58 390.103 521.58 389.965 521.58 389.895H521.732C521.732 389.895 521.732 390.006 521.732 390.02C521.732 390.034 521.732 390.02 521.732 390.103C521.732 390.103 521.732 390.103 521.732 390.2C521.744 390.241 521.744 390.284 521.732 390.325C521.447 390.271 521.165 390.201 520.887 390.117L520.679 390.048H520.554V389.965C520.557 389.919 520.557 389.872 520.554 389.826C520.734 389.466 520.637 389.632 520.665 389.591H520.748C520.748 389.591 520.748 389.757 520.679 389.785L520.568 389.979H520.471C520.521 389.993 520.573 389.993 520.623 389.979C520.662 389.97 520.698 389.954 520.729 389.93C520.76 389.906 520.786 389.875 520.803 389.84V389.771C520.803 389.771 520.803 389.771 520.609 389.771L520.443 390.006C520.106 389.825 519.718 389.759 519.34 389.819C518.962 389.879 518.614 390.062 518.35 390.339C518.108 390.65 517.977 391.033 517.977 391.427C517.977 391.821 518.108 392.204 518.35 392.515C518.672 392.791 519.043 393.003 519.445 393.139C519.873 393.299 520.313 393.424 520.762 393.513C521.673 393.705 522.611 393.738 523.534 393.61C524.57 393.482 525.569 393.14 526.466 392.606C527.363 392.071 528.139 391.356 528.745 390.505C529.877 388.892 530.37 386.917 530.131 384.961C529.93 383.192 529.093 381.557 527.775 380.36C526.617 379.295 525.171 378.596 523.617 378.35C522.365 378.116 521.073 378.221 519.875 378.655C519.66 378.782 519.472 378.95 519.322 379.15C519.172 379.35 519.063 379.577 519.002 379.819C518.904 380.236 518.974 380.673 519.196 381.039C519.334 381.298 519.532 381.521 519.773 381.69C520.013 381.858 520.291 381.968 520.582 382.009C520.718 382.354 520.905 382.676 521.136 382.965Z" fill="#263238"/>
<path d="M513.332 367.872C513.698 367.528 514.028 367.147 514.317 366.735C514.672 366.162 514.909 365.523 515.014 364.857C515.118 364.19 515.089 363.509 514.926 362.855C514.687 361.958 514.167 361.162 513.443 360.582C512.681 359.916 511.711 359.39 510.81 358.6C510.347 358.186 509.962 357.693 509.673 357.144C509.361 356.553 509.272 355.869 509.424 355.218C509.598 354.556 509.954 353.956 510.45 353.485C510.907 353 511.42 352.584 511.836 352.099C512.305 351.684 512.675 351.167 512.917 350.588C513.097 350.016 513.097 349.401 512.917 348.828C512.544 347.703 511.918 346.679 511.087 345.834C510.303 345.03 509.669 344.091 509.216 343.062C508.875 342.137 508.77 341.142 508.911 340.166C509.112 338.756 509.793 337.459 510.838 336.493C511.122 336.242 511.433 336.023 511.766 335.841L512.127 335.689C511.717 335.976 511.323 336.286 510.949 336.618C509.991 337.59 509.381 338.852 509.216 340.207C509.095 341.145 509.209 342.097 509.549 342.979C510.008 343.952 510.631 344.839 511.392 345.599C512.277 346.481 512.942 347.559 513.332 348.745C513.54 349.399 513.54 350.101 513.332 350.755C513.074 351.401 512.671 351.98 512.154 352.446C511.212 353.388 510.089 354.164 509.812 355.329C509.737 355.893 509.814 356.468 510.033 356.993C510.252 357.519 510.606 357.978 511.059 358.322C511.891 359.071 512.861 359.611 513.651 360.318C514.042 360.652 514.379 361.045 514.649 361.482C514.896 361.886 515.078 362.326 515.19 362.785C515.356 363.475 515.374 364.193 515.243 364.891C515.112 365.588 514.834 366.25 514.427 366.832C514.153 367.263 513.777 367.62 513.332 367.872Z" fill="#263238"/>
<path d="M507.276 367.872C507.634 367.525 507.959 367.144 508.246 366.735C508.608 366.165 508.849 365.526 508.954 364.858C509.059 364.191 509.026 363.509 508.856 362.855C508.63 361.952 508.108 361.152 507.373 360.582C506.611 359.916 505.64 359.39 504.753 358.6C504.287 358.19 503.901 357.696 503.617 357.144C503.299 356.555 503.206 355.871 503.354 355.218C503.539 354.561 503.893 353.964 504.379 353.485C504.85 353 505.349 352.584 505.765 352.099C506.226 351.679 506.59 351.163 506.832 350.588C507.024 350.017 507.024 349.399 506.832 348.828C506.46 347.703 505.834 346.679 505.003 345.834C504.218 345.027 503.581 344.089 503.118 343.062C502.777 342.137 502.672 341.142 502.813 340.166C503.012 338.753 503.699 337.454 504.753 336.493C505.033 336.235 505.345 336.016 505.682 335.841C505.793 335.771 505.915 335.72 506.042 335.689C505.632 335.976 505.239 336.286 504.864 336.618C503.906 337.592 503.293 338.852 503.118 340.207C502.995 341.146 503.114 342.1 503.464 342.979C503.923 343.952 504.547 344.839 505.308 345.599C506.188 346.485 506.852 347.561 507.248 348.745C507.455 349.399 507.455 350.101 507.248 350.755C506.985 351.398 506.583 351.976 506.07 352.446C505.128 353.388 503.991 354.164 503.714 355.329C503.642 355.893 503.72 356.466 503.938 356.992C504.157 357.517 504.51 357.976 504.961 358.322C505.793 359.071 506.777 359.611 507.553 360.318C507.948 360.652 508.29 361.045 508.565 361.482C508.8 361.892 508.981 362.33 509.105 362.785C509.265 363.476 509.28 364.192 509.148 364.889C509.017 365.585 508.743 366.247 508.343 366.832C508.072 367.257 507.707 367.613 507.276 367.872Z" fill="#263238"/>
<path d="M551.776 284.554L548.716 287.117L587.492 333.41L590.552 330.847L551.776 284.554Z" fill="#263238"/>
<path d="M556.296 278.058L553.236 280.622L592.012 326.915L595.072 324.352L556.296 278.058Z" fill="#263238"/>
<path d="M592.649 332.638L589.274 330.507L550.516 391.911L553.892 394.042L592.649 332.638Z" fill="#263238"/>
<path d="M601.391 334.335L598.015 332.205L560.012 392.413L563.387 394.543L601.391 334.335Z" fill="#263238"/>
<path d="M592.847 324.934L586.763 333.167C586.019 334.17 585.668 335.411 585.778 336.655C585.888 337.899 586.45 339.06 587.359 339.917C588.124 340.635 589.091 341.101 590.13 341.252C591.168 341.403 592.228 341.232 593.166 340.762L601.358 336.604C602.073 336.252 602.696 335.738 603.177 335.103C603.658 334.468 603.985 333.729 604.13 332.945L604.213 332.446C604.375 331.535 604.287 330.598 603.957 329.734C603.627 328.869 603.069 328.111 602.342 327.54L598.184 324.227C597.793 323.907 597.342 323.671 596.856 323.533C596.371 323.394 595.863 323.357 595.362 323.424C594.862 323.49 594.381 323.658 593.948 323.918C593.516 324.178 593.141 324.523 592.847 324.934Z" fill="#263238"/>
<path d="M592.847 324.934C592.847 324.934 592.917 324.74 593.166 324.463C593.546 324.041 594.021 323.718 594.552 323.52C595.388 323.209 596.308 323.209 597.144 323.52C597.653 323.704 598.123 323.981 598.53 324.338L599.916 325.419L601.468 326.611C602.062 327.023 602.619 327.487 603.132 327.997C603.69 328.611 604.099 329.346 604.327 330.144C604.555 330.942 604.597 331.782 604.448 332.598C604.357 333.514 604.039 334.392 603.524 335.154C603.009 335.917 602.312 336.539 601.496 336.964L596.534 339.473L594.026 340.748C593.203 341.24 592.288 341.556 591.337 341.677C590.462 341.757 589.581 341.625 588.769 341.29C587.957 340.956 587.238 340.429 586.674 339.756C586.11 339.083 585.718 338.283 585.53 337.425C585.343 336.567 585.366 335.677 585.599 334.83C585.807 334.112 586.156 333.444 586.624 332.862L587.802 331.309L591.406 326.625C591.827 326.041 592.29 325.49 592.792 324.975C592.46 325.615 592.071 326.223 591.628 326.791L588.204 331.614C587.339 332.613 586.65 333.752 586.167 334.982C585.985 335.694 585.966 336.438 586.112 337.158C586.259 337.878 586.567 338.556 587.012 339.14C587.509 339.777 588.158 340.278 588.899 340.597C589.64 340.917 590.45 341.045 591.254 340.97C592.117 340.855 592.948 340.563 593.693 340.11L596.202 338.835L601.15 336.327C601.819 335.948 602.398 335.428 602.846 334.803C603.295 334.178 603.602 333.463 603.747 332.708C603.892 331.953 603.871 331.175 603.686 330.428C603.501 329.682 603.156 328.985 602.674 328.385C602.189 327.883 601.666 327.419 601.108 326.999C600.581 326.569 600.082 326.153 599.583 325.765L598.197 324.643C597.823 324.302 597.391 324.03 596.922 323.839C596.149 323.577 595.311 323.577 594.538 323.839C593.911 324.094 593.337 324.465 592.847 324.934Z" fill="#455A64"/>
<path d="M531.24 400.193C531.24 400.193 535.98 390.131 554.594 390.159H563.159C563.159 390.159 579.888 393.762 581.898 400.221L531.24 400.193Z" fill="#263238"/>
<path d="M542.785 275.481L546.638 290.727C546.679 290.892 546.765 291.042 546.886 291.16C547.007 291.279 547.159 291.361 547.324 291.398C547.489 291.436 547.662 291.427 547.822 291.372C547.982 291.317 548.124 291.218 548.232 291.088L559.722 279.32C559.827 279.197 559.898 279.047 559.926 278.887C559.955 278.727 559.94 278.562 559.883 278.41C559.827 278.257 559.731 278.122 559.605 278.019C559.479 277.916 559.328 277.849 559.167 277.824L543.811 274.428C543.668 274.406 543.523 274.418 543.386 274.463C543.25 274.509 543.126 274.586 543.025 274.689C542.925 274.793 542.851 274.918 542.809 275.056C542.767 275.194 542.759 275.34 542.785 275.481Z" fill="#263238"/>
<path d="M542.785 275.481C542.785 275.481 542.688 275.37 542.702 275.107C542.721 274.905 542.802 274.715 542.934 274.561C543.065 274.407 543.241 274.298 543.437 274.247C543.711 274.192 543.994 274.192 544.268 274.247L545.197 274.428L547.47 274.885L553.499 276.146L557.13 276.922L559.085 277.338C559.307 277.363 559.521 277.442 559.707 277.567C559.893 277.693 560.045 277.861 560.152 278.059C560.262 278.281 560.305 278.531 560.275 278.777C560.246 279.023 560.145 279.255 559.985 279.445L554.871 284.698L548.482 291.212C548.341 291.378 548.16 291.505 547.956 291.581C547.752 291.656 547.531 291.678 547.316 291.643C547.102 291.608 546.899 291.518 546.73 291.382C546.56 291.246 546.428 291.068 546.347 290.866C546.167 290.187 546.042 289.646 545.89 289.064C545.613 287.913 545.349 286.805 545.086 285.765C544.601 283.714 544.157 281.898 543.783 280.332C543.409 278.766 543.201 277.713 542.979 276.77C542.853 276.347 542.783 275.909 542.771 275.467C542.952 275.869 543.096 276.287 543.201 276.715C543.464 277.643 543.797 278.807 544.185 280.221C544.573 281.635 545.1 283.589 545.64 285.627L546.514 288.898L546.971 290.63C547.009 290.723 547.07 290.804 547.149 290.866C547.228 290.928 547.321 290.968 547.42 290.983C547.519 290.999 547.62 290.988 547.714 290.953C547.808 290.918 547.891 290.859 547.955 290.782L554.317 284.241L559.445 279.001C559.518 278.912 559.563 278.803 559.575 278.688C559.587 278.572 559.565 278.456 559.512 278.354C559.459 278.251 559.377 278.166 559.277 278.108C559.176 278.051 559.061 278.024 558.946 278.031L557.006 277.588L553.374 276.756L547.373 275.37L545.114 274.816L544.199 274.594C543.97 274.503 543.724 274.465 543.478 274.483C543.318 274.515 543.171 274.592 543.053 274.705C542.935 274.818 542.852 274.962 542.813 275.121C542.771 275.342 542.813 275.481 542.785 275.481Z" fill="#455A64"/>
<path d="M531.42 318.946C539.029 308.759 543.339 298.392 542.619 287.789L528.329 274.026C514.469 269.411 495.412 283.95 495.412 283.95C495.412 283.95 500.138 309.591 531.42 318.946Z" fill="#263238"/>
<path d="M550.36 263.941L550.804 264.358C552.821 266.249 554.004 268.864 554.092 271.626C554.181 274.389 553.169 277.074 551.278 279.091L538.374 292.85L522.724 278.174L535.637 264.404C536.573 263.406 537.696 262.603 538.943 262.039C540.189 261.476 541.535 261.164 542.902 261.121C544.27 261.078 545.632 261.305 546.912 261.788C548.191 262.272 549.363 263.004 550.36 263.941Z" fill="#263238"/>
<path d="M541.649 287.304C540.619 287.339 539.592 287.169 538.627 286.805C536.256 286.069 534.068 284.836 532.21 283.188C530.34 281.543 528.838 279.521 527.803 277.256C527.329 276.346 527.038 275.352 526.943 274.331C527.452 275.207 527.914 276.11 528.329 277.034C529.447 279.156 530.94 281.058 532.737 282.647C534.541 284.226 536.61 285.474 538.849 286.334C540.54 286.971 541.663 287.179 541.649 287.304Z" fill="#455A64"/>
<path d="M597.795 329.868C597.795 330.123 597.72 330.372 597.578 330.584C597.436 330.796 597.235 330.961 597 331.059C596.764 331.156 596.505 331.182 596.255 331.132C596.005 331.083 595.775 330.96 595.595 330.78C595.415 330.599 595.292 330.37 595.242 330.12C595.192 329.869 595.218 329.61 595.315 329.375C595.413 329.139 595.578 328.938 595.79 328.796C596.002 328.655 596.251 328.579 596.506 328.579C596.676 328.579 596.843 328.612 597 328.677C597.156 328.742 597.298 328.837 597.418 328.957C597.537 329.076 597.632 329.218 597.697 329.375C597.762 329.531 597.795 329.699 597.795 329.868Z" fill="#455A64"/>
<path d="M550.061 285.239C550.061 285.494 549.986 285.743 549.844 285.955C549.702 286.167 549.501 286.332 549.266 286.43C549.03 286.527 548.771 286.553 548.521 286.503C548.271 286.453 548.041 286.33 547.861 286.15C547.681 285.97 547.558 285.74 547.508 285.49C547.458 285.24 547.484 284.981 547.582 284.745C547.679 284.51 547.844 284.309 548.056 284.167C548.268 284.025 548.517 283.95 548.772 283.95C549.114 283.95 549.442 284.086 549.684 284.327C549.926 284.569 550.061 284.897 550.061 285.239Z" fill="#455A64"/>
<path d="M554.954 280.235C554.954 280.49 554.878 280.739 554.737 280.951C554.595 281.163 554.394 281.329 554.158 281.426C553.923 281.524 553.664 281.549 553.414 281.499C553.163 281.45 552.934 281.327 552.754 281.147C552.573 280.966 552.45 280.737 552.401 280.487C552.351 280.237 552.377 279.978 552.474 279.742C552.572 279.506 552.737 279.305 552.949 279.164C553.161 279.022 553.41 278.946 553.665 278.946C553.834 278.946 554.002 278.98 554.158 279.044C554.315 279.109 554.457 279.204 554.576 279.324C554.696 279.444 554.791 279.586 554.856 279.742C554.921 279.898 554.954 280.066 554.954 280.235Z" fill="#455A64"/>
<path d="M592.57 334.553C592.57 334.808 592.495 335.057 592.353 335.269C592.211 335.481 592.01 335.646 591.774 335.744C591.539 335.841 591.28 335.867 591.03 335.817C590.78 335.767 590.55 335.644 590.37 335.464C590.189 335.284 590.067 335.054 590.017 334.804C589.967 334.554 589.993 334.295 590.09 334.059C590.188 333.824 590.353 333.623 590.565 333.481C590.777 333.339 591.026 333.264 591.281 333.264C591.623 333.264 591.951 333.399 592.193 333.641C592.434 333.883 592.57 334.211 592.57 334.553Z" fill="#455A64"/>
<path d="M541.468 422.674L541.08 646.305H332.515V422.064H319.14V646.305V658.738H332.515H541.08H554.455V646.305L554.843 422.674H541.468Z" fill="#E0E0E0"/>
<path d="M541.468 422.73H554.843H554.913C554.913 452.543 554.816 537.907 554.732 658.793V659.071H554.4H319.085H318.78V658.724C318.78 593.194 318.78 521.884 318.78 447.886V421.69H332.875V422.051C332.875 501.164 332.875 576.687 332.875 646.292L332.543 645.959L541.108 646.028L540.845 646.292C541.247 508.302 541.496 424.754 541.496 422.661C541.496 424.754 541.496 508.302 541.385 646.292V646.555H541.108L332.543 646.624H332.21V646.292C332.21 576.687 332.21 501.164 332.21 422.051L332.57 422.411H319.196L319.556 422.051V447.886C319.556 521.884 319.556 593.194 319.556 658.724L319.209 658.378L554.525 658.447L554.247 658.724C554.552 537.837 554.76 452.474 554.843 422.661L554.913 422.73H541.468Z" fill="#263238"/>
<path d="M595.12 400.193H292.917V424.31H595.12V400.193Z" fill="#AE7461"/>
<path d="M368.676 399.75L367.9 399.93C367.401 400.027 366.652 400.138 365.696 400.36C363.783 400.748 361.039 401.413 357.699 402.397C354.358 403.381 350.408 404.712 346.056 406.264C341.704 407.816 336.936 409.563 331.822 411.129C327.022 412.616 322.102 413.683 317.116 414.317C313.069 414.833 308.975 414.866 304.92 414.414C302.166 414.103 299.455 413.485 296.839 412.571C296.128 412.328 295.43 412.051 294.746 411.739C294.275 411.545 294.04 411.42 294.04 411.42C294.04 411.42 294.303 411.489 294.788 411.67C295.273 411.85 295.966 412.155 296.895 412.418C299.517 413.261 302.221 413.828 304.961 414.109C309.02 414.519 313.112 414.464 317.158 413.943C322.114 413.282 327.005 412.206 331.78 410.727C336.881 409.161 341.649 407.428 346.015 405.904C350.38 404.379 354.331 403.063 357.685 402.12C360.34 401.347 363.032 400.708 365.751 400.207C366.708 400.013 367.47 399.93 367.969 399.847C368.468 399.764 368.676 399.75 368.676 399.75Z" fill="#6F4439"/>
<path d="M522.813 422.023C522.703 421.92 522.601 421.808 522.508 421.69C522.234 421.352 521.942 421.028 521.635 420.72C520.457 419.512 519.107 418.484 517.629 417.671C515.288 416.394 512.741 415.54 510.103 415.148C506.606 414.662 503.052 414.751 499.583 415.412C495.366 416.231 491.2 417.3 487.109 418.613C482.418 420.159 477.57 421.182 472.653 421.663C469.975 421.853 467.284 421.672 464.656 421.122C461.926 420.52 459.269 419.628 456.728 418.461C451.531 416.174 446.513 413.069 440.969 410.824C429.812 406.333 418.017 405.987 407.775 407.304C398.65 408.615 389.713 411.001 381.15 414.414C373.804 417.186 368.024 419.958 364.019 421.704L359.403 423.797C358.35 424.282 357.782 424.518 357.782 424.518C357.782 424.518 358.322 424.227 359.362 423.728L363.936 421.552C367.927 419.694 373.707 416.992 381.039 414.137C389.607 410.677 398.56 408.261 407.705 406.943C417.99 405.557 429.881 405.931 441.108 410.45C446.652 412.723 451.711 415.827 456.867 418.101C459.381 419.258 462.01 420.146 464.712 420.748C467.302 421.298 469.957 421.48 472.598 421.288C477.487 420.816 482.31 419.817 486.985 418.308C491.076 417.008 495.241 415.953 499.459 415.148C502.962 414.496 506.549 414.426 510.075 414.94C512.731 415.357 515.293 416.239 517.643 417.546C519.119 418.385 520.46 419.44 521.621 420.678C522.052 421.096 522.45 421.545 522.813 422.023Z" fill="#6F4439"/>
<path d="M593.36 407.65C590.166 408.898 586.881 409.899 583.533 410.644C581.981 411.004 580.276 411.378 578.433 411.642C576.589 411.905 574.594 412.182 572.501 412.418C563.393 413.235 554.212 412.561 545.321 410.422C543.284 409.895 541.343 409.424 539.583 408.814C537.823 408.204 536.16 407.65 534.677 407.082C531.471 405.857 528.366 404.384 525.391 402.674C525.616 402.751 525.834 402.849 526.042 402.965L527.885 403.839C528.675 404.24 529.659 404.712 530.824 405.225C531.988 405.737 533.291 406.319 534.788 406.832C536.285 407.345 537.892 407.983 539.68 408.509C541.468 409.036 543.395 409.563 545.418 410.076C554.259 412.145 563.372 412.8 572.418 412.016C574.497 411.794 576.479 411.628 578.322 411.295C580.165 410.963 581.856 410.685 583.409 410.353C584.961 410.02 586.347 409.646 587.567 409.327C588.786 409.008 589.826 408.717 590.657 408.44L592.612 407.83C592.855 407.746 593.105 407.686 593.36 407.65Z" fill="#6F4439"/>
<path d="M420.29 394.123H327.553C325.823 394.123 324.421 395.525 324.421 397.255V397.436C324.421 399.166 325.823 400.568 327.553 400.568H420.29C422.02 400.568 423.423 399.166 423.423 397.436V397.255C423.423 395.525 422.02 394.123 420.29 394.123Z" fill="#455A64"/>
<path d="M446.68 314.622L423.506 397.921C423.263 398.782 422.69 399.513 421.912 399.954C421.133 400.395 420.212 400.511 419.348 400.277C418.486 400.034 417.756 399.461 417.314 398.682C416.873 397.904 416.757 396.982 416.992 396.119L440.179 312.751C440.419 311.887 440.991 311.154 441.771 310.713C442.551 310.271 443.474 310.156 444.337 310.395C444.77 310.516 445.175 310.722 445.528 311.001C445.88 311.28 446.174 311.626 446.392 312.019C446.61 312.412 446.748 312.845 446.797 313.292C446.846 313.738 446.807 314.191 446.68 314.622Z" fill="#455A64"/>
<path d="M427.816 321.067C427.678 321.219 421.191 315.149 413.332 307.54C405.474 299.93 399.223 293.68 399.362 293.485C399.5 293.291 405.973 299.39 413.831 307.013C421.69 314.636 427.955 320.928 427.816 321.067Z" fill="#263238"/>
<path d="M424.656 331.032C423.863 330.803 423.089 330.511 422.342 330.159L416.174 327.567C410.949 325.377 403.7 322.397 395.703 319.251C387.706 316.105 380.332 313.388 375.024 311.448L368.676 309.078C367.895 308.835 367.135 308.529 366.403 308.163C367.211 308.31 368.004 308.528 368.773 308.815C370.284 309.286 372.46 309.993 375.135 310.907C380.498 312.723 387.858 315.37 395.925 318.53C403.991 321.69 411.171 324.754 416.327 327.054C418.918 328.219 420.997 329.175 422.425 329.826C423.196 330.176 423.942 330.579 424.656 331.032Z" fill="#263238"/>
<path d="M423.381 340.956C421.491 341.247 419.572 341.289 417.671 341.081C415.759 341.121 413.85 340.921 411.988 340.485C415.791 340.161 419.619 340.319 423.381 340.956Z" fill="#263238"/>
<path d="M592.127 619.32C592.127 619.32 586.375 579.695 586.846 556.646C587.318 533.596 586.846 507.65 586.846 507.65H589.507C589.507 507.65 587.706 553.388 589.66 581.011C591.614 608.634 596.77 619.32 596.77 619.32H592.155" fill="#263238"/>
<path d="M609.3 463.063C608.884 461.662 608.041 460.426 606.888 459.528C605.197 458.461 602.993 458.905 601.108 459.528C593.083 462.37 585.973 477.325 582.73 485.197L593.374 521.095C612.612 503.298 615.939 479.889 609.3 463.063Z" fill="#455A64"/>
<path d="M606.264 460.984C606.228 461.143 606.172 461.296 606.098 461.441C605.973 461.788 605.793 462.231 605.585 462.758C605.114 463.881 604.462 465.53 603.672 467.567C602.106 471.642 600.11 477.269 598.322 483.756C596.534 490.242 595.315 496.105 594.566 500.388C594.178 502.536 593.901 504.283 593.721 505.488C593.624 506.057 593.555 506.514 593.485 506.874C593.467 507.035 593.43 507.193 593.374 507.346C593.359 507.184 593.359 507.022 593.374 506.86C593.374 506.486 593.458 506.029 593.513 505.474C593.652 504.255 593.887 502.495 594.234 500.332C595.148 494.729 596.375 489.181 597.907 483.714C599.447 478.218 601.298 472.813 603.451 467.526C604.268 465.488 604.961 463.867 605.488 462.758C605.724 462.245 605.918 461.815 606.084 461.483C606.116 461.308 606.177 461.139 606.264 460.984Z" fill="#263238"/>
<path d="M588.648 529.743C583.796 526.985 579.737 523.024 576.86 518.242C573.984 513.46 572.387 508.017 572.224 502.439C571.836 494.483 574.289 486.666 577.061 479.182C577.229 478.509 577.626 477.916 578.184 477.505C578.643 477.331 579.138 477.278 579.624 477.351C580.109 477.424 580.568 477.62 580.956 477.921C588.204 482.079 592.612 489.937 594.94 497.948C596.626 503.263 597.188 508.87 596.59 514.414C595.675 520.241 592.904 525.617 588.689 529.743" fill="#455A64"/>
<path d="M588.648 529.743C588.63 529.582 588.63 529.419 588.648 529.258V527.872C588.648 526.666 588.648 524.934 588.495 522.799C588.215 517.223 587.595 511.669 586.638 506.167C585.543 499.736 584.199 493.985 583.201 489.827L582.023 484.892L581.718 483.506C581.672 483.353 581.644 483.195 581.635 483.035C581.708 483.176 581.764 483.325 581.801 483.479C581.898 483.839 582.023 484.269 582.189 484.865C582.508 486.015 582.965 487.637 583.506 489.757C584.573 493.915 585.973 499.667 587.082 506.112C588.031 511.611 588.61 517.168 588.814 522.744C588.814 524.878 588.814 526.611 588.814 527.817C588.814 528.371 588.814 528.829 588.814 529.203C588.782 529.389 588.726 529.571 588.648 529.743Z" fill="#263238"/>
<g opacity="0.3">
<path d="M588.648 529.743C583.796 526.985 579.737 523.024 576.86 518.242C573.984 513.46 572.387 508.017 572.224 502.439C571.836 494.483 574.289 486.666 577.061 479.182C577.229 478.509 577.626 477.916 578.184 477.505C578.643 477.331 579.138 477.278 579.624 477.351C580.109 477.424 580.568 477.62 580.956 477.921C588.204 482.079 592.612 489.937 594.94 497.948C596.626 503.263 597.188 508.87 596.59 514.414C595.675 520.241 592.904 525.617 588.689 529.743" fill="black"/>
</g>
<path d="M599.916 590.436C609.743 592.598 617.823 599.528 627.317 602.91C633.582 605.142 640.678 605.932 645.682 610.312C644.49 607.276 641.635 605.253 638.863 603.534C631.053 598.624 622.711 594.616 613.998 591.587C609.549 590.048 604.698 588.815 600.138 590.034" fill="#455A64"/>
<path d="M585.696 599.126C573.388 598.918 560.429 588.44 548.191 587.816C560.998 583.658 579.362 587.054 585.696 599.126Z" fill="#455A64"/>
<path d="M590.505 569.646C596.848 567.552 603.613 567.076 610.187 568.26C616.724 569.457 623.15 571.201 629.397 573.471C628.759 569.202 625.308 566.001 622.051 563.16C619.679 560.939 617.098 558.952 614.345 557.227C611.574 555.497 608.367 554.593 605.1 554.622C603.138 554.744 601.221 555.262 599.466 556.146C597.71 557.03 596.152 558.261 594.885 559.764C592.399 562.478 590.861 565.927 590.505 569.591" fill="#455A64"/>
<path d="M565.252 556.008C557.505 549.396 545.765 550.034 535.578 550.27C551.947 558.067 567.383 567.686 581.593 578.946C582.009 571.739 575.038 564.365 565.252 556.008Z" fill="#455A64"/>
<g opacity="0.3">
<path d="M565.252 556.008C557.505 549.396 545.765 550.034 535.578 550.27C551.947 558.067 567.383 567.686 581.593 578.946C582.009 571.739 575.038 564.365 565.252 556.008Z" fill="black"/>
</g>
<path d="M593.998 546.874C597.778 544.254 601.759 541.937 605.904 539.944C609.992 538.101 613.79 535.149 617.726 533.014C622.84 530.242 627.262 526.403 631.947 522.979C636.631 519.556 641.787 516.451 647.525 515.551C642.8 514.703 637.942 514.983 633.346 516.368C628.773 517.744 624.315 519.477 620.013 521.552C613.97 524.324 607.816 527.096 602.882 531.49C597.948 535.883 593.471 540.263 593.998 546.874Z" fill="#455A64"/>
<path d="M627.082 599.127L626.694 598.946L625.627 598.392C624.698 597.907 623.367 597.172 621.69 596.327C620.859 595.897 619.944 595.44 618.918 594.941C617.893 594.442 616.853 593.971 615.717 593.472C613.271 592.376 610.734 591.495 608.135 590.838C605.563 590.123 602.855 590.052 600.249 590.63C599.107 590.879 597.986 591.212 596.895 591.628C595.959 592.008 595.059 592.472 594.206 593.014C592.959 593.788 591.818 594.72 590.81 595.786C590.09 596.549 589.743 597.006 589.715 596.992C589.77 596.861 589.845 596.74 589.937 596.632C590.165 596.292 590.415 595.968 590.686 595.662C591.659 594.529 592.783 593.536 594.026 592.709C594.904 592.142 595.832 591.655 596.798 591.254C597.901 590.817 599.036 590.465 600.193 590.201C602.863 589.579 605.646 589.637 608.288 590.367C610.91 591.029 613.466 591.929 615.925 593.056C617.061 593.569 618.128 594.068 619.112 594.567C620.096 595.066 621.025 595.523 621.884 595.953C623.548 596.84 624.864 597.616 625.765 598.156L626.791 598.78C626.971 599.03 627.096 599.113 627.082 599.127Z" fill="#263238"/>
<path d="M576.576 593.014C576.845 593.054 577.106 593.134 577.352 593.25C578.036 593.496 578.703 593.788 579.348 594.123C581.508 595.207 583.494 596.608 585.238 598.281C586.982 599.947 588.463 601.868 589.632 603.977C589.99 604.614 590.309 605.271 590.588 605.946C590.708 606.186 590.792 606.443 590.838 606.708C590.769 606.708 590.311 605.696 589.369 604.144C586.892 600.074 583.389 596.728 579.209 594.442C577.546 593.513 576.493 593.097 576.576 593.014Z" fill="#263238"/>
<path d="M549.286 555.384C549.466 555.416 549.643 555.467 549.812 555.537L551.295 556.063L553.624 556.923C554.525 557.269 555.509 557.768 556.631 558.309C562.405 560.982 567.794 564.417 572.654 568.524C575.312 570.8 577.808 573.26 580.124 575.883C582.01 578.025 583.782 580.264 585.433 582.591C586.819 584.587 587.9 586.25 588.634 587.387L589.466 588.773C589.579 588.917 589.672 589.075 589.743 589.244C589.612 589.114 589.496 588.97 589.396 588.815C589.189 588.537 588.87 588.108 588.482 587.539C587.706 586.417 586.611 584.768 585.169 582.827C583.728 580.887 581.94 578.669 579.819 576.202C577.496 573.612 575.005 571.176 572.363 568.912C567.531 564.804 562.199 561.326 556.493 558.558C555.398 558.059 554.428 557.546 553.527 557.172L551.226 556.244L549.84 555.634C549.646 555.572 549.46 555.488 549.286 555.384Z" fill="#263238"/>
<path d="M608.981 562.716C608.649 562.714 608.319 562.672 607.997 562.592L606.86 562.384C606.431 562.3 605.918 562.3 605.349 562.245C602.43 561.984 599.497 562.561 596.895 563.908C595.471 564.656 594.172 565.619 593.042 566.763C592.111 567.692 591.283 568.719 590.575 569.826C589.931 570.859 589.366 571.938 588.884 573.056C588.916 572.726 589 572.403 589.133 572.099C589.439 571.247 589.834 570.43 590.311 569.66C590.989 568.501 591.814 567.434 592.765 566.486C593.896 565.284 595.222 564.281 596.687 563.52C599.359 562.131 602.386 561.576 605.377 561.926C605.945 562.009 606.472 562.037 606.902 562.148L608.038 562.425C608.361 562.493 608.676 562.59 608.981 562.716Z" fill="#263238"/>
<path d="M621.344 524.296C621.207 524.416 621.053 524.514 620.886 524.587L619.5 525.336C618.295 525.973 616.576 526.93 614.497 528.108C612.418 529.286 609.965 530.88 607.359 532.737C604.518 534.728 601.856 536.964 599.403 539.418C598.137 540.652 597.041 542.05 596.146 543.576C595.342 545.114 594.566 546.611 593.859 548.052C592.588 550.588 591.45 553.188 590.45 555.842C589.782 557.632 589.222 559.46 588.773 561.316C588.65 562.008 588.493 562.692 588.302 563.368C588.289 563.188 588.289 563.007 588.302 562.827C588.302 562.467 588.385 561.954 588.551 561.289C588.94 559.409 589.454 557.556 590.09 555.745C591.056 553.063 592.176 550.439 593.444 547.886C594.151 546.5 594.913 544.934 595.717 543.382C596.623 541.803 597.737 540.353 599.029 539.071C601.499 536.599 604.19 534.358 607.068 532.377C609.701 530.52 612.182 529.009 614.289 527.789C616.396 526.569 618.142 525.682 619.362 525.086L620.748 524.407L621.344 524.296Z" fill="#263238"/>
<path d="M586.832 561.566C586.716 561.229 586.637 560.88 586.597 560.526C586.444 559.778 586.264 558.821 586.056 557.685C584.907 551.426 582.941 545.344 580.207 539.598L579.015 536.964C578.841 536.649 578.706 536.314 578.613 535.966C578.828 536.252 579.014 536.558 579.168 536.881C579.486 537.491 579.944 538.364 580.554 539.459C581.981 542.319 583.199 545.279 584.199 548.316C585.17 551.36 585.912 554.474 586.416 557.629C586.611 558.849 586.749 559.819 586.818 560.512C586.857 560.862 586.862 561.215 586.832 561.566Z" fill="#263238"/>
<path d="M585.945 533.61C585.557 528.948 584.192 524.419 581.94 520.319C578.907 514.673 574.673 509.762 569.536 505.931C564.4 502.099 558.485 499.441 552.21 498.143L579.736 539.154L583.298 546.486C585.524 542.584 586.451 538.074 585.945 533.61Z" fill="#455A64"/>
<path d="M632.238 605.072H554.719V618.808H632.238V605.072Z" fill="#70B8F3"/>
<path d="M560.512 616.077L570.907 658.711H618.572L626.444 616.077H560.512Z" fill="#70B8F3"/>
<path d="M632.196 618.822C632.196 618.974 614.705 619.099 593.153 619.099C571.6 619.099 554.095 618.974 554.095 618.822C554.095 618.669 571.573 618.544 593.153 618.544C614.733 618.544 632.196 618.669 632.196 618.822Z" fill="#263238"/>
</svg>
