<svg width="279" height="279" viewBox="0 0 279 279" fill="none" xmlns="http://www.w3.org/2000/svg">
<path d="M31.8061 260.971C31.064 260.335 29.4123 258.32 30.6901 255.982C31.1533 255.123 32.1465 254.699 33.0449 254.308C33.9689 253.995 34.84 253.544 35.6284 252.969C37.029 251.775 37.414 249.8 38.3459 248.209C39.4117 246.385 41.4037 245.018 43.5074 245.113C45.9179 245.224 47.9267 247.188 48.8419 249.437C49.757 251.686 49.7849 254.169 49.8016 256.596C49.8016 257.935 49.7514 259.448 48.7693 260.352C47.7872 261.255 46.4927 261.194 45.2651 261.161L32.0963 260.753" fill="#F5F5F5"/>
<path d="M56.983 224.751H22.3201L28.5585 261.953C28.6876 262.729 29.0339 263.452 29.5574 264.038C30.0808 264.625 30.76 265.051 31.5159 265.268L31.6387 265.301C31.7394 265.333 31.8419 265.359 31.9456 265.379C32.1771 265.427 32.4123 265.455 32.6486 265.463V265.496L32.816 265.468H48.2894C48.5742 265.469 48.8583 265.441 49.1375 265.385C50.0381 265.245 50.8682 264.814 51.501 264.158C52.1337 263.502 52.5344 262.657 52.6418 261.752L55.6494 236.118L55.7833 235.097L56.9774 224.941L56.983 224.751ZM50.4488 248.483H46.8721L47.2515 237.708H51.3695L50.4488 248.483ZM51.7155 237.708H55.1193L53.8526 248.505H50.7781L51.7155 237.708ZM41.5599 260.474L41.3423 251.1H46.4591L46.1522 260.48L41.5599 260.474ZM36.0245 251.1H40.9963L41.2139 260.48H36.7499L36.0245 251.1ZM36.4096 260.48H32.2413C31.8451 257.947 31.3262 254.654 30.7682 251.1H35.6786L36.4096 260.48ZM35.8516 248.511L34.9867 237.708H40.6894L40.9405 248.505L35.8516 248.511ZM41.3088 248.511L41.0354 237.708H46.9055L46.5484 248.505L41.3088 248.511ZM41.0019 235.119L40.7341 225.097H47.324L46.9948 235.097L41.0019 235.119ZM40.6559 235.119H34.7802L34.0046 225.097H40.3993L40.6559 235.119ZM34.4677 235.119H28.2516C28.034 233.735 27.8219 232.429 27.6378 231.252C26.9905 227.212 26.7506 225.672 26.6167 225.114H33.6586L34.4677 235.119ZM34.6686 237.708L35.5056 248.505H30.3608C30.1879 247.389 30.0149 246.301 29.8419 245.191C29.4401 242.641 29.0384 240.096 28.6589 237.708H34.6686ZM30.0428 248.505H26.6948L24.859 237.708H28.313C28.8431 241.023 29.4234 244.739 30.0149 248.483L30.0428 248.505ZM30.4501 251.094C30.9579 254.342 31.4601 257.539 31.9177 260.474H28.6813L27.1077 251.1L30.4501 251.094ZM46.5205 260.474L46.8051 251.1H50.2201L49.4165 260.48L46.5205 260.474ZM47.3631 235.119L47.6979 225.12H52.4521L51.5983 235.119H47.3631ZM26.2874 225.097C26.4214 225.817 27.0575 229.756 27.9001 235.097H24.4237L22.7497 225.097H26.2874ZM52.4521 260.452H49.7737L50.5716 251.1H53.5681L52.4521 260.452ZM55.4262 235.097H51.9331L52.7869 225.097H56.5924L55.4262 235.097Z" fill="#E0E0E0"/>
<path d="M84.3307 25.0486H28.4749V106.009H84.3307V25.0486Z" fill="#E0E0E0"/>
<path d="M81.535 25.0486H25.6792V106.009H81.535V25.0486Z" fill="#F5F5F5"/>
<path d="M74.5936 33.8149H32.6152V97.2372H74.5936V33.8149Z" fill="white"/>
<path d="M74.5935 97.2371C74.5935 97.2371 74.5935 97.1311 74.5935 96.9246C74.5935 96.7181 74.5935 96.4168 74.5935 96.0262C74.5935 95.2283 74.5935 94.0621 74.5935 92.5499C74.5935 89.5088 74.5935 85.0783 74.5544 79.4871C74.5544 68.3271 74.5153 52.4631 74.4874 33.8148L74.6269 33.9543H32.6542L32.8104 33.8036C32.8104 57.7307 32.8104 79.7884 32.7769 97.2259L32.6542 97.1032L63.2103 97.1701L71.6528 97.198H73.8848C74.3814 97.198 74.6493 97.198 74.6493 97.198C74.6493 97.198 74.4037 97.198 73.9071 97.198H71.7142L63.2995 97.2259L32.6709 97.2929H32.5537V97.1701C32.5537 79.7326 32.5537 57.6749 32.5203 33.7478V33.5972H32.6765H74.6493H74.7888V33.7367C74.7609 52.4241 74.7385 68.2936 74.7218 79.4927C74.7218 85.0727 74.6883 89.492 74.6827 92.5276C74.6827 94.0286 74.6827 95.1836 74.6827 95.976C74.6827 96.361 74.6827 96.6568 74.6827 96.8576C74.6827 97.0585 74.5935 97.2371 74.5935 97.2371Z" fill="#E0E0E0"/>
<path d="M81.6912 25.0486C81.3971 25.556 81.0631 26.0393 80.6924 26.4938C80.0451 27.3587 79.1244 28.5417 78.0754 29.8418C77.0264 31.1419 76.0387 32.2468 75.3133 33.0503C74.9417 33.5023 74.5309 33.9206 74.0857 34.3002C74.4006 33.8075 74.7572 33.3426 75.1515 32.9108C75.8992 32.0013 76.8255 30.8797 77.841 29.6465L80.525 26.3822C80.8745 25.9048 81.2647 25.4586 81.6912 25.0486Z" fill="#E0E0E0"/>
<path d="M74.8057 97.0308C76.8927 100.349 79.3487 103.421 82.1266 106.188L74.8057 97.0308Z" fill="white"/>
<path d="M82.1264 106.188C81.6624 105.847 81.2359 105.458 80.8542 105.027C79.8686 104.04 78.9373 103.001 78.0642 101.913C77.1947 100.829 76.3827 99.7007 75.6313 98.5318C75.2948 98.0628 75.0086 97.5597 74.7776 97.0308C75.1544 97.4667 75.4994 97.9292 75.8099 98.4146C76.4237 99.2795 77.2886 100.457 78.2986 101.724C79.3086 102.99 80.2739 104.089 80.9826 104.882C81.3943 105.289 81.7765 105.726 82.1264 106.188Z" fill="#E0E0E0"/>
<path d="M25.668 105.942L32.9833 96.9136L25.668 105.942Z" fill="white"/>
<path d="M32.9834 96.9136C31.8883 98.5127 30.7073 100.051 29.4456 101.523C28.2646 103.061 27.0037 104.536 25.668 105.942C25.6066 105.892 27.1913 103.827 29.2113 101.333C30.3934 99.7972 31.6524 98.3222 32.9834 96.9136Z" fill="#E0E0E0"/>
<path d="M25.668 25.0486C26.9261 26.3975 28.1108 27.8132 29.2168 29.2894C30.4018 30.7065 31.5083 32.1874 32.5314 33.7255C31.2827 32.3755 30.1091 30.9579 29.016 29.4791C27.8198 28.0646 26.7022 26.5855 25.668 25.0486Z" fill="#E0E0E0"/>
<path d="M61.514 46.6934H47.458V86.6015H61.514V46.6934Z" fill="#E0E0E0"/>
<path d="M253.817 19.625H201.092V74.588H253.817V19.625Z" fill="#E0E0E0"/>
<path d="M250.246 19.625H197.521V74.588H250.246V19.625Z" fill="#FAFAFA"/>
<path d="M250.263 74.6046H197.532V19.6082H250.263V74.6046ZM197.532 74.5712H250.224V19.6416H197.532V74.5712Z" fill="#E0E0E0"/>
<path d="M243.16 27.0127H204.607V67.1999H243.16V27.0127Z" fill="white"/>
<path d="M204.607 67.4678C204.335 67.8749 204.017 68.2494 203.659 68.5838C203.039 69.2311 202.175 70.1127 201.209 71.0669C200.244 72.0211 199.345 72.8748 198.687 73.4774C198.353 73.8292 197.978 74.1401 197.571 74.4037C197.845 73.9976 198.163 73.6233 198.52 73.2877C199.133 72.6404 200.004 71.7588 200.975 70.799C201.946 69.8393 202.844 68.9855 203.497 68.3829C203.829 68.0342 204.202 67.7269 204.607 67.4678Z" fill="#E0E0E0"/>
<path d="M243.16 67.3674C243.568 67.638 243.943 67.9564 244.276 68.316C244.929 68.9354 245.805 69.8003 246.759 70.7712C247.713 71.7422 248.567 72.6294 249.175 73.2878C249.527 73.6219 249.838 73.9965 250.101 74.4038C249.694 74.1314 249.32 73.8131 248.985 73.4552C248.338 72.8414 247.456 71.9709 246.497 71C245.537 70.0291 244.689 69.1307 244.08 68.4779C243.732 68.1444 243.423 67.7718 243.16 67.3674Z" fill="#E0E0E0"/>
<path d="M243.054 27.1188C243.328 26.7112 243.648 26.3368 244.008 26.0028C244.622 25.3499 245.487 24.4738 246.458 23.5197C247.428 22.5655 248.316 21.7117 248.974 21.1091C249.307 20.7549 249.682 20.442 250.09 20.1772C249.82 20.5861 249.501 20.9608 249.141 21.2932C248.528 21.9405 247.657 22.8222 246.686 23.7819C245.715 24.7417 244.823 25.5898 244.164 26.1981C243.832 26.5482 243.459 26.8573 243.054 27.1188Z" fill="#E0E0E0"/>
<path d="M204.502 27.2192C204.094 26.9452 203.72 26.6251 203.386 26.2651C202.738 25.6513 201.857 24.7864 200.902 23.8154C199.948 22.8445 199.095 21.9517 198.492 21.2989C198.138 20.9656 197.825 20.5909 197.56 20.1829C197.969 20.453 198.344 20.7715 198.676 21.1315C199.323 21.7453 200.205 22.6102 201.165 23.5867C202.125 24.5632 202.973 25.4504 203.581 26.1088C203.933 26.4389 204.242 26.812 204.502 27.2192Z" fill="#E0E0E0"/>
<path d="M243.054 67.2C243.054 67.2 243.054 67.1274 243.054 67.0047C243.054 66.8819 243.054 66.681 243.054 66.4467C243.054 65.9445 243.054 65.2191 243.054 64.2761C243.054 62.3733 243.054 59.6056 243.015 56.0902C243.015 49.0482 242.97 39.021 242.937 27.0184L243.087 27.1635H204.647L204.82 26.9961C204.82 41.744 204.82 55.5434 204.792 67.1721L204.647 67.0214L232.485 67.0995L240.297 67.1386H242.367H242.925C242.987 67.134 243.048 67.134 243.11 67.1386H242.942H242.423H240.381L232.597 67.1777L204.663 67.2502H204.518V67.1051C204.518 55.4652 204.518 41.6659 204.518 26.9291V26.8398H204.691H243.132H243.283V26.9905C243.249 39.0321 243.221 49.0929 243.204 56.1572C243.204 59.6558 243.204 62.4179 243.165 64.3095C243.165 65.2395 243.165 65.9538 243.165 66.4523C243.165 66.6866 243.165 66.8652 243.165 67.0103C243.135 67.077 243.097 67.1406 243.054 67.2Z" fill="#E0E0E0"/>
<path d="M230.315 40.6726H217.453V53.5345H230.315V40.6726Z" fill="#EBEBEB"/>
<path d="M169.839 247.853V264.654H194.407H221.509V247.853H169.839Z" fill="#F5F5F5"/>
<path d="M167.668 243.154V247.852H223.312V243.154H194.407H167.668Z" fill="#E0E0E0"/>
<path d="M195.49 264.654H221.509V247.852H223.312V243.154H194.407V247.417L195.49 264.654Z" fill="#E0E0E0"/>
<path d="M187.544 250.559H177.065V253.087H187.544V250.559Z" fill="#E0E0E0"/>
<path d="M189.168 256.25H175.714V261.591H189.168V256.25Z" fill="white"/>
<path d="M177.784 226.375V243.176H202.359H229.455V226.375H177.784Z" fill="#F5F5F5"/>
<path d="M175.865 221.677V226.375H231.514V221.677H202.604H175.865Z" fill="#EBEBEB"/>
<path d="M203.441 243.176H229.706V226.375H231.263V221.677H202.359V225.94L203.441 243.176Z" fill="#EBEBEB"/>
<path d="M195.49 229.081H185.01V231.609H195.49V229.081Z" fill="#E0E0E0"/>
<path d="M197.119 234.773H183.666V240.113H197.119V234.773Z" fill="white"/>
<path d="M269.073 265.206C269.073 265.284 210.556 265.351 138.39 265.351C66.2234 265.351 7.69482 265.284 7.69482 265.206C7.69482 265.128 66.2011 265.05 138.384 265.05C210.567 265.05 269.073 265.123 269.073 265.206Z" fill="#263238"/>
<path d="M137.123 125.21V125.768H134.891V125.327L136.174 123.809H134.924V123.251H137.095V123.692L135.812 125.21H137.123Z" fill="#263238"/>
<path d="M133.033 122.76V124.077H127.782V123.044L130.784 119.496H127.86V118.179H132.943V119.211L129.93 122.76H133.033Z" fill="#263238"/>
<path d="M125.511 119.741V122.392H114.909V120.316L120.963 113.157H115.065V110.484H125.31V112.56L119.261 119.719L125.511 119.741Z" fill="#263238"/>
<path d="M122.76 87.6841H114.663V98.102H99.6532V87.6841H70.866V77.6401L95.284 43.6523H111.232L89.0623 75.4583H100.111V66.2179H114.652V75.4751H122.76V87.6841Z" fill="#70B8F3"/>
<path d="M125.857 70.8659C125.857 52.9039 135.968 42.5586 149.89 42.5586C163.812 42.5586 173.845 52.9207 173.845 70.8659C173.845 88.8112 163.734 99.1733 149.89 99.1733C136.046 99.1733 125.857 88.8503 125.857 70.8659ZM158.366 70.8659C158.366 59.4325 154.789 55.1582 149.89 55.1582C144.991 55.1582 141.336 59.4325 141.336 70.8659C141.336 82.2994 144.912 86.5792 149.89 86.5792C154.867 86.5792 158.366 82.3161 158.366 70.8659Z" fill="#70B8F3"/>
<path d="M230.454 87.6841H222.363V98.102H207.353V87.6841H178.56V77.6401L202.983 43.6523H218.926L196.762 75.4583H207.805V66.2179H222.346V75.4751H230.454V87.6841Z" fill="#70B8F3"/>
<g opacity="0.3">
<path d="M122.76 87.6841H114.663V98.102H99.6532V87.6841H70.866V77.6401L95.284 43.6523H111.232L89.0623 75.4583H100.111V66.2179H114.652V75.4751H122.76V87.6841Z" fill="black"/>
<path d="M125.857 70.8659C125.857 52.9039 135.968 42.5586 149.89 42.5586C163.812 42.5586 173.845 52.9207 173.845 70.8659C173.845 88.8112 163.734 99.1733 149.89 99.1733C136.046 99.1733 125.857 88.8503 125.857 70.8659ZM158.366 70.8659C158.366 59.4325 154.789 55.1582 149.89 55.1582C144.991 55.1582 141.336 59.4325 141.336 70.8659C141.336 82.2994 144.913 86.5792 149.89 86.5792C154.867 86.5792 158.366 82.3161 158.366 70.8659Z" fill="black"/>
<path d="M230.454 87.6841H222.363V98.102H207.353V87.6841H178.56V77.6401L202.984 43.6523H218.926L196.762 75.4583H207.805V66.2179H222.346V75.4751H230.454V87.6841Z" fill="black"/>
</g>
<path d="M118.246 87.6841H110.155V98.102H95.1445V87.6841H66.3684V77.6401L90.7921 43.6523H106.734L84.5704 75.4583H95.6132V66.2179H110.155V75.4751H118.246V87.6841Z" fill="#70B8F3"/>
<path d="M121.348 70.8659C121.348 52.9039 131.459 42.5586 145.381 42.5586C159.303 42.5586 169.336 52.9207 169.336 70.8659C169.336 88.8112 159.225 99.1733 145.381 99.1733C131.537 99.1733 121.348 88.8503 121.348 70.8659ZM153.857 70.8659C153.857 59.4325 150.28 55.1582 145.381 55.1582C140.482 55.1582 136.827 59.4325 136.827 70.8659C136.827 82.2994 140.404 86.5792 145.381 86.5792C150.359 86.5792 153.857 82.3161 153.857 70.8659Z" fill="#70B8F3"/>
<path d="M225.951 87.6841H217.86V98.102H202.85V87.6841H174.096V77.6401L198.52 43.6523H214.439L192.276 75.4583H203.318V66.2179H217.86V75.4751H225.951V87.6841Z" fill="#70B8F3"/>
<path d="M127.665 30.2323C127.665 27.0127 130.193 24.6523 133.619 24.6523C137.045 24.6523 139.578 27.0071 139.578 30.2323C139.578 33.4576 137.05 35.8123 133.619 35.8123C130.187 35.8123 127.665 33.4464 127.665 30.2323ZM136.515 30.2323C136.532 29.8417 136.47 29.4516 136.332 29.0857C136.194 28.7197 135.984 28.3854 135.714 28.1029C135.443 27.8204 135.119 27.5956 134.759 27.442C134.399 27.2884 134.012 27.2092 133.621 27.2092C133.23 27.2092 132.843 27.2884 132.484 27.442C132.124 27.5956 131.8 27.8204 131.529 28.1029C131.259 28.3854 131.049 28.7197 130.911 29.0857C130.773 29.4516 130.711 29.8417 130.728 30.2323C130.711 30.623 130.773 31.013 130.911 31.379C131.049 31.745 131.259 32.0793 131.529 32.3618C131.8 32.6443 132.124 32.8691 132.484 33.0227C132.843 33.1763 133.23 33.2555 133.621 33.2555C134.012 33.2555 134.399 33.1763 134.759 33.0227C135.119 32.8691 135.443 32.6443 135.714 32.3618C135.984 32.0793 136.194 31.745 136.332 31.379C136.47 31.013 136.532 30.623 136.515 30.2323Z" fill="#263238"/>
<path d="M140.51 31.4264C140.51 28.9265 142.485 27.1521 145.197 27.1521C147.909 27.1521 149.879 28.9265 149.879 31.4264C149.879 33.9262 147.937 35.723 145.197 35.723C142.457 35.723 140.51 33.9318 140.51 31.4264ZM146.938 31.4264C146.938 30.1709 146.19 29.4622 145.197 29.4622C144.204 29.4622 143.451 30.1709 143.451 31.4264C143.451 32.6819 144.215 33.4129 145.197 33.4129C146.179 33.4129 146.938 32.693 146.938 31.4264Z" fill="#263238"/>
<path d="M160.52 31.4375C160.52 34.0713 158.701 35.723 156.446 35.723C156.022 35.744 155.598 35.6776 155.201 35.5279C154.804 35.3781 154.441 35.1482 154.136 34.8525V38.5576H151.218V27.2916H154.008V28.1174C154.316 27.781 154.697 27.5191 155.121 27.3519C155.546 27.1846 156.003 27.1163 156.458 27.1521C158.701 27.1521 160.52 28.8038 160.52 31.4375ZM157.579 31.4375C157.579 30.182 156.815 29.4622 155.838 29.4622C154.862 29.4622 154.092 30.182 154.092 31.4375C154.092 32.693 154.856 33.4128 155.838 33.4128C156.82 33.4128 157.579 32.693 157.579 31.4375Z" fill="#263238"/>
<path d="M161.212 34.8693L162.082 32.8773C162.964 33.3799 163.963 33.6434 164.978 33.6417C165.955 33.6417 166.278 33.4297 166.278 33.0837C166.278 31.9677 161.379 33.2344 161.379 29.9143C161.379 28.3519 162.819 27.1578 165.419 27.1578C166.551 27.1346 167.672 27.3753 168.694 27.8609L167.824 29.8362C167.094 29.4304 166.271 29.219 165.436 29.2224C164.454 29.2224 164.102 29.5014 164.102 29.7804C164.102 30.9243 168.985 29.6855 168.985 32.9777C168.985 34.5066 167.578 35.7008 164.883 35.7008C163.609 35.7343 162.347 35.4484 161.212 34.8693Z" fill="#263238"/>
<path d="M169.877 34.1159C169.92 33.6844 170.121 33.284 170.443 32.9928C170.764 32.7015 171.182 32.5402 171.616 32.5402C172.049 32.5402 172.467 32.7015 172.789 32.9928C173.11 33.284 173.311 33.6844 173.354 34.1159C173.329 34.5599 173.135 34.9774 172.811 35.2828C172.488 35.5882 172.06 35.7584 171.616 35.7584C171.171 35.7584 170.743 35.5882 170.42 35.2828C170.097 34.9774 169.903 34.5599 169.877 34.1159ZM169.877 24.8699H173.337L172.751 31.6831H170.441L169.877 24.8699Z" fill="#263238"/>
<path d="M76.167 213.909H69.2812V246.982H76.167V213.909Z" fill="#E0E0E0"/>
<path d="M48.094 209.652C48.2056 209.652 69.298 216.264 69.298 216.264H76.1781L100.334 209.652H48.094Z" fill="#E0E0E0"/>
<path d="M28.8486 98.727C25.7963 99.4134 23.0677 102.231 23.5253 107.856C23.5253 107.856 21.0924 108.313 21.243 112.727C21.3937 117.141 20.9417 144.533 26.4157 159.432C30.9188 171.68 38.6917 197.878 41.3366 206.823C41.598 207.708 42.1387 208.484 42.878 209.036C43.6172 209.589 44.5152 209.887 45.4379 209.886H104.988C106.037 209.882 107.074 209.668 108.038 209.254C109.002 208.841 109.873 208.238 110.599 207.481C111.325 206.723 111.891 205.828 112.263 204.847C112.636 203.867 112.807 202.821 112.766 201.773C112.675 199.754 111.805 197.849 110.339 196.457C108.873 195.066 106.925 194.297 104.904 194.312L61.4804 194.764C61.4804 194.764 58.8188 180.424 56.079 180.256C56.079 180.256 57.2954 171.278 52.731 168.695C52.731 168.695 53.6405 157.613 48.7748 156.614C48.7748 156.614 49.5336 147.34 45.4268 145.694C45.4268 145.694 47.709 137.352 43.4514 133.094C43.4514 133.094 44.6679 123.357 43.4514 116.053C42.235 108.749 41.7886 95.8422 28.8486 98.727Z" fill="#455A64"/>
<path d="M108.04 202.677C108.04 202.677 107.939 202.677 107.739 202.677H106.857L103.436 202.705L90.6861 202.744L47.056 202.794H46.9556L46.9221 202.699L40.7841 184.899C37.2185 174.47 33.8426 164.526 30.8685 155.453C30.1263 153.182 29.4121 150.989 28.7425 148.802C28.3956 147.74 28.1087 146.66 27.8832 145.566C27.7682 145.031 27.6825 144.491 27.6265 143.947C27.5651 143.389 27.4702 142.876 27.4368 142.346C27.0517 138.111 26.9625 134.149 26.8788 130.539C26.7839 123.318 26.8788 117.47 26.9792 113.436C27.035 111.422 27.0796 109.859 27.1075 108.788L27.1578 107.577C27.1578 107.304 27.1857 107.17 27.1857 107.17C27.1857 107.17 27.1857 107.309 27.1857 107.577C27.1857 107.845 27.1857 108.263 27.1857 108.788C27.1857 109.859 27.141 111.427 27.1075 113.436C27.0517 117.476 26.9792 123.318 27.1075 130.539C27.1857 134.143 27.2861 138.1 27.6655 142.324C27.7046 142.882 27.7939 143.378 27.8553 143.914C27.9127 144.452 28.0003 144.987 28.1175 145.515C28.3546 146.611 28.6546 147.691 29.0159 148.752C29.6855 150.911 30.4053 153.121 31.153 155.392C34.1383 164.46 37.5254 174.398 41.0854 184.827C43.2058 190.965 45.2593 196.98 47.2234 202.632L47.0895 202.537L90.7195 202.588L103.47 202.627H106.89H107.772C107.939 202.666 108.04 202.677 108.04 202.677Z" fill="#263238"/>
<path d="M55.002 194.831C54.8329 195.012 54.6459 195.174 54.444 195.317C54.0702 195.612 53.5401 196.059 52.9039 196.617C51.2436 198.08 49.6989 199.67 48.2837 201.371C46.8698 203.073 45.583 204.876 44.4335 206.767C43.9927 207.492 43.6467 208.089 43.4179 208.508C43.3092 208.731 43.1784 208.942 43.0273 209.138C43.1004 208.902 43.1976 208.674 43.3175 208.458C43.5184 208.022 43.8364 207.409 44.2549 206.666C45.3603 204.73 46.6337 202.895 48.0605 201.181C49.4821 199.467 51.0586 197.886 52.77 196.461C53.4285 195.903 53.9809 195.495 54.3715 195.227C54.5669 195.073 54.7783 194.94 55.002 194.831Z" fill="#263238"/>
<path d="M61.4804 194.742C61.4804 194.742 61.3353 194.742 61.0508 194.742L59.8008 194.776L55.002 194.854H54.9407V194.792L54.8402 194.201C54.78 194.01 54.7073 193.824 54.6226 193.643C54.4256 193.252 54.083 192.953 53.6684 192.811C52.6966 192.602 51.6816 192.763 50.8226 193.263L50.6217 193.358L50.6943 193.152C51.3677 191.183 51.4645 189.063 50.9733 187.042C50.42 184.656 49.0891 182.522 47.19 180.976L47.1175 180.92L47.151 180.837C47.7502 179.134 47.8314 177.292 47.3845 175.543C46.9376 173.794 45.9826 172.217 44.64 171.01L44.5674 170.955L44.6009 170.865C45.3262 168.514 45.2846 165.993 44.4821 163.666C43.6796 161.34 42.1578 159.329 40.1369 157.925L40.07 157.881V157.803C40.1148 156.263 40.0663 154.722 39.9249 153.188C39.7919 151.619 39.5022 150.068 39.06 148.556C38.6024 147.095 37.9105 145.633 36.6885 144.784L36.5992 144.723L36.6327 144.623C37.2799 142.38 37.5348 140.043 37.386 137.715C37.2979 136.609 37.0614 135.52 36.6829 134.478C36.2938 133.475 35.7267 132.551 35.0089 131.75L34.9419 131.671L34.9922 131.588C36.2159 129.645 36.8872 127.405 36.934 125.109C36.943 123.036 36.2684 121.018 35.0145 119.367V119.334V119.295C35.083 116.539 34.5279 113.804 33.3907 111.293C32.9032 110.276 32.203 109.376 31.3373 108.654C30.5988 108.059 29.7342 107.641 28.8095 107.432C28.0657 107.272 27.3028 107.219 26.544 107.276L25.6345 107.376L24.8868 107.527C24.4404 107.61 24.1112 107.733 23.888 107.783C23.6648 107.834 23.542 107.867 23.542 107.867C23.9774 107.71 24.4207 107.576 24.87 107.465L25.6178 107.298L26.5385 107.181C27.3054 107.113 28.078 107.158 28.8318 107.315C29.7819 107.514 30.6723 107.932 31.4321 108.537C32.3222 109.266 33.0437 110.18 33.5469 111.215C34.7111 113.748 35.2835 116.513 35.2209 119.301V119.234C36.5129 120.92 37.2113 122.985 37.2074 125.109C37.167 127.455 36.4879 129.745 35.2433 131.733V131.571C35.9829 132.39 36.5705 133.335 36.9786 134.361C37.3723 135.439 37.6164 136.565 37.704 137.709C37.8638 140.075 37.6089 142.45 36.9507 144.729L36.828 144.522C38.1504 145.443 38.8479 146.961 39.3167 148.428C39.7715 149.956 40.0669 151.527 40.1983 153.115C40.3408 154.662 40.3873 156.216 40.3378 157.769L40.2764 157.641C42.3519 159.078 43.9152 161.139 44.7391 163.525C45.5629 165.912 45.6044 168.498 44.8576 170.91L44.8185 170.759C46.2013 172.007 47.1808 173.638 47.632 175.445C48.0832 177.252 47.9857 179.153 47.3519 180.904L47.3128 180.764C49.2516 182.344 50.6035 184.529 51.1518 186.969C51.6454 189.031 51.535 191.191 50.8338 193.191L50.711 193.079C51.1864 192.845 51.6913 192.676 52.212 192.577C52.7037 192.468 53.2153 192.489 53.6963 192.638C53.9294 192.723 54.1427 192.854 54.3231 193.024C54.5036 193.194 54.6473 193.399 54.7454 193.626C54.8344 193.825 54.909 194.03 54.9686 194.24L55.069 194.854L55.002 194.792H59.8008H61.0508L61.4804 194.742Z" fill="#263238"/>
<g opacity="0.3">
<path d="M53.5122 168.516L33.5972 171.083C33.8969 171.612 34.3145 172.065 34.8178 172.407C35.321 172.748 35.8963 172.969 36.4988 173.053C37.703 173.204 38.923 173.18 40.1202 172.98C45.2764 172.42 50.4663 172.234 55.6493 172.422C55.0686 171.052 54.3527 169.744 53.5122 168.516Z" fill="black"/>
</g>
<path d="M43.6691 132.017C42.2966 132.197 40.9128 132.277 39.5288 132.257C38.1471 132.331 36.762 132.313 35.3828 132.202C36.7554 132.022 38.1391 131.942 39.5232 131.962C40.9048 131.888 42.2899 131.906 43.6691 132.017Z" fill="#263238"/>
<path d="M43.4849 260.028C43.4849 260.028 46.671 250.308 51.0625 247.953C58.1156 244.175 74.3813 242.373 74.3813 242.373L76.1613 246.971C76.1613 246.971 54.4719 247.825 51.0513 252.199C49.1009 254.707 47.2831 257.314 45.6053 260.011L43.4849 260.028Z" fill="#E0E0E0"/>
<path d="M46.2637 265.19C48.8061 265.19 50.8672 263.129 50.8672 260.586C50.8672 258.044 48.8061 255.983 46.2637 255.983C43.7212 255.983 41.6602 258.044 41.6602 260.586C41.6602 263.129 43.7212 265.19 46.2637 265.19Z" fill="#263238"/>
<path d="M102.27 259.855C102.27 259.855 99.084 250.135 94.6926 247.78C87.6395 244.002 71.3793 242.2 71.3793 242.2L69.5938 246.798C69.5938 246.798 91.2832 247.652 94.7038 252.032C96.655 254.539 98.4728 257.146 100.15 259.844L102.27 259.855Z" fill="#E0E0E0"/>
<path d="M100.646 265.19C103.189 265.19 105.25 263.129 105.25 260.586C105.25 258.044 103.189 255.983 100.646 255.983C98.104 255.983 96.043 258.044 96.043 260.586C96.043 263.129 98.104 265.19 100.646 265.19Z" fill="#263238"/>
<path d="M70.3472 244.851L71.3571 257.361L74.2029 257.925V244.851" fill="#E0E0E0"/>
<path d="M72.7185 265.19C75.2609 265.19 77.322 263.129 77.322 260.586C77.322 258.044 75.2609 255.983 72.7185 255.983C70.1761 255.983 68.115 258.044 68.115 260.586C68.115 263.129 70.1761 265.19 72.7185 265.19Z" fill="#263238"/>
<path d="M38.502 146.888C39.6078 146.513 40.7425 146.23 41.8946 146.04C43.0285 145.759 44.1838 145.572 45.3486 145.482C44.243 145.858 43.1083 146.141 41.956 146.33C40.8219 146.61 39.6666 146.797 38.502 146.888Z" fill="#263238"/>
<path d="M48.3674 156.625C48.0036 156.797 47.6191 156.921 47.2235 156.993C46.5037 157.178 45.5049 157.39 44.3889 157.551C43.2729 157.713 42.2573 157.83 41.5207 157.875C41.1226 157.928 40.7192 157.928 40.321 157.875C40.321 157.791 42.129 157.618 44.3442 157.267C46.5595 156.915 48.3451 156.547 48.3674 156.625Z" fill="#263238"/>
<path d="M56.5924 180.742C56.1595 180.862 55.7136 180.93 55.2644 180.943C54.4386 181.026 53.2947 181.099 52.028 181.138C50.7613 181.177 49.6174 181.138 48.786 181.138C48.3379 181.149 47.8901 181.106 47.4524 181.01C47.8951 180.939 48.3437 180.913 48.7916 180.932L52.0224 180.859L55.2477 180.747C55.6946 180.701 56.1451 180.699 56.5924 180.742Z" fill="#263238"/>
<path d="M58.9082 189.48C58.9082 189.57 57.0556 189.971 54.8961 190.892C52.7367 191.813 51.1408 192.862 51.0906 192.789C51.3854 192.487 51.724 192.231 52.095 192.03C52.9514 191.489 53.851 191.018 54.7845 190.624C55.7159 190.227 56.679 189.91 57.6638 189.676C58.0682 189.556 58.4866 189.49 58.9082 189.48Z" fill="#263238"/>
<path d="M96.1379 209.992C96.1379 210.07 85.162 210.115 71.625 210.082C58.0879 210.048 47.1064 209.97 47.1064 209.886C47.1064 209.803 58.0823 209.764 71.625 209.791C85.1676 209.819 96.1379 209.909 96.1379 209.992Z" fill="#263238"/>
<path d="M75.8212 216.504C74.7359 216.651 73.6396 216.699 72.5457 216.649C71.4499 216.7 70.3517 216.651 69.2646 216.504C70.352 216.361 71.4499 216.312 72.5457 216.359C73.6396 216.312 74.7356 216.361 75.8212 216.504Z" fill="#263238"/>
<path d="M76.1334 243.165C75.1264 243.733 73.9958 244.045 72.8404 244.075C71.685 244.105 70.5397 243.852 69.5044 243.338C70.5992 243.617 71.7228 243.767 72.8524 243.785C73.9663 243.705 75.0672 243.497 76.1334 243.165Z" fill="#263238"/>
<path d="M143.919 139.796C143.919 139.796 141.297 135.773 139.779 134.4C138.607 133.345 132.921 131.253 130.365 130.343C129.546 130.054 128.684 129.903 127.815 129.897C124.467 129.863 115.618 129.897 111.109 130.7C105.49 131.727 142.77 161.044 142.77 161.044L173.823 161.117L175.854 153.45L155.124 149.17L143.685 140.097" fill="#E0E0E0"/>
<g opacity="0.3">
<path d="M119.691 131.761C119.691 131.761 121.744 131.861 124.607 132.319C127.469 132.776 130.611 132.921 132.185 134.316C133.239 135.248 139.69 135.432 139.69 135.432L130.762 135.103L119.691 131.761Z" fill="black"/>
</g>
<path d="M116.745 131.024C116.933 131.022 117.12 131.044 117.303 131.091C117.665 131.158 118.195 131.264 118.837 131.426C120.126 131.744 121.889 132.235 123.826 132.815L125.963 133.479H125.929C127.385 133.544 128.831 133.748 130.248 134.088C130.366 134.306 130.456 134.538 130.516 134.779C130.367 134.582 130.24 134.368 130.137 134.143L130.17 134.177C128.75 133.938 127.317 133.787 125.879 133.725H125.846L123.703 133.078L118.748 131.61L117.241 131.18C117.07 131.149 116.903 131.097 116.745 131.024Z" fill="#263238"/>
<path d="M197.867 160.827C197.911 160.593 197.253 157.92 197.186 157.652C197.119 157.384 195.077 154.304 195.077 154.304L193.961 153.964C193.961 153.964 188.771 152.73 187.722 152.803L186.991 152.881C186.991 152.881 185.63 152.981 185.094 153.076C184.559 153.171 181.238 154.337 181.238 154.337C180.425 154.51 179.591 154.572 178.761 154.522C177.616 154.336 176.482 154.09 175.363 153.785L174.035 161.095L176.546 161.017C177.329 161.295 178.139 161.495 178.962 161.614C179.866 161.675 182.427 161.954 182.427 161.954C182.427 161.954 186.383 163.628 187.376 161.296C188.37 158.963 184.553 158.723 184.553 158.723L185.736 157.886L188.766 157.574L189.553 157.825L190.418 159.164C190.418 159.164 190.183 162.121 192.092 161.921L192.594 161.865L192.862 158.829L191.958 155.76L193.955 158.79C193.955 158.79 194.128 161.413 194.993 161.753C195.06 161.783 195.132 161.797 195.205 161.792C196.254 161.759 196.461 161.463 196.461 161.463L196.678 160.933C196.678 160.933 197.716 161.625 197.867 160.827Z" fill="#FFBF9D"/>
<path d="M186.523 152.892C186.838 152.846 187.16 152.859 187.471 152.931C188.238 153.035 188.988 153.235 189.703 153.528C190.433 153.809 191.08 154.27 191.584 154.867C191.806 155.107 191.95 155.409 191.997 155.732C191.946 155.732 191.807 155.414 191.439 155.001C190.918 154.473 190.29 154.062 189.597 153.796C187.957 153.143 186.506 152.998 186.523 152.892Z" fill="#FF9A6C"/>
<path d="M188.476 156.084C188.554 156.084 188.61 156.402 188.649 156.781C188.688 157.161 188.699 157.484 188.621 157.507C188.543 157.529 188.403 157.217 188.358 156.815C188.314 156.413 188.392 156.078 188.476 156.084Z" fill="#FF9A6C"/>
<path d="M186.523 156.184C186.584 156.128 187.137 156.742 188.018 157.166C188.9 157.59 189.692 157.724 189.692 157.791C189.063 157.881 188.423 157.751 187.879 157.423C187.295 157.182 186.815 156.743 186.523 156.184Z" fill="#FF9A6C"/>
<path d="M180.195 156.458C180.475 156.482 180.744 156.578 180.976 156.737C181.57 157.063 182.08 157.524 182.466 158.082C182.585 158.26 182.694 158.447 182.79 158.64L182.639 158.561C183.365 158.416 184.118 158.48 184.809 158.746C184.1 158.735 183.39 158.767 182.684 158.84H182.583L182.533 158.751C182.441 158.572 182.339 158.399 182.226 158.232C181.667 157.517 180.978 156.915 180.195 156.458Z" fill="#FF9A6C"/>
<path d="M194.072 153.936C194.369 154.172 194.623 154.457 194.826 154.778C195.359 155.521 195.791 156.331 196.109 157.189C196.43 158.046 196.631 158.944 196.706 159.856C196.77 160.225 196.77 160.603 196.706 160.972C196.534 159.718 196.251 158.481 195.858 157.278C195.363 156.113 194.765 154.995 194.072 153.936Z" fill="#FF9A6C"/>
<path d="M144.645 241.491L144.087 256.591C144.087 256.591 159.225 262.26 159.393 265.05L130.075 264.989L130.014 241.419L144.645 241.491Z" fill="#455A64"/>
<path d="M135.036 255.302C134.754 255.386 134.514 255.572 134.361 255.824C134.209 256.075 134.155 256.375 134.21 256.663C134.283 256.949 134.464 257.196 134.714 257.352C134.965 257.508 135.266 257.561 135.555 257.5C135.854 257.409 136.109 257.211 136.27 256.943C136.43 256.675 136.486 256.356 136.425 256.05C136.316 255.761 136.099 255.526 135.821 255.393C135.542 255.26 135.223 255.239 134.93 255.335" fill="#E0E0E0"/>
<path d="M130.075 264.983L130.165 262.606L158.238 263.555C158.238 263.555 159.538 264.113 159.393 265.044L130.075 264.983Z" fill="#263238"/>
<path d="M144.55 256.44C144.55 256.585 143.825 256.647 143.122 257.104C142.418 257.562 142.039 258.164 141.905 258.109C141.771 258.053 141.989 257.227 142.854 256.686C143.719 256.145 144.578 256.312 144.55 256.44Z" fill="white"/>
<path d="M147.619 257.718C147.652 257.858 147.033 258.098 146.542 258.706C146.051 259.314 145.917 259.95 145.772 259.945C145.627 259.939 145.538 259.124 146.163 258.388C146.788 257.651 147.619 257.584 147.619 257.718Z" fill="white"/>
<path d="M149.36 261.401C149.226 261.434 149.031 260.72 149.399 259.933C149.767 259.146 150.437 258.817 150.515 258.962C150.593 259.107 150.158 259.52 149.868 260.145C149.577 260.77 149.499 261.39 149.36 261.401Z" fill="white"/>
<path d="M144.299 252.986C144.237 253.115 143.579 252.919 142.77 252.986C141.961 253.053 141.33 253.293 141.258 253.17C141.185 253.048 141.788 252.54 142.742 252.49C143.696 252.439 144.366 252.875 144.299 252.986Z" fill="white"/>
<path d="M121.147 239.94L111.661 251.658C111.661 251.658 120.377 265.273 118.854 267.617L95.418 249.984L109.485 231.085L121.147 239.94Z" fill="#455A64"/>
<path d="M105.161 245.197C104.883 245.097 104.579 245.103 104.305 245.213C104.032 245.323 103.808 245.53 103.676 245.794C103.564 246.064 103.56 246.367 103.663 246.641C103.767 246.915 103.971 247.138 104.234 247.267C104.528 247.373 104.851 247.366 105.14 247.249C105.43 247.131 105.665 246.911 105.802 246.631C105.889 246.334 105.857 246.015 105.713 245.742C105.57 245.468 105.326 245.26 105.032 245.163" fill="#E0E0E0"/>
<path d="M95.418 249.984L96.9078 248.137L118.809 265.725C118.809 265.725 119.512 266.964 118.843 267.611L95.418 249.984Z" fill="#263238"/>
<path d="M112.108 251.831C112.018 251.943 111.405 251.563 110.568 251.507C109.731 251.452 109.067 251.708 108.994 251.58C108.922 251.452 109.591 250.927 110.607 251.022C111.622 251.117 112.214 251.742 112.108 251.831Z" fill="white"/>
<path d="M113.798 254.694C113.743 254.828 113.101 254.649 112.348 254.839C111.594 255.029 111.098 255.458 110.986 255.369C110.875 255.28 111.293 254.577 112.23 254.353C113.168 254.13 113.882 254.582 113.798 254.694Z" fill="white"/>
<path d="M112.984 258.683C112.861 258.633 113.129 257.941 113.899 257.534C114.669 257.126 115.383 257.283 115.361 257.417C115.339 257.551 114.753 257.629 114.133 257.975C113.514 258.321 113.107 258.761 112.984 258.683Z" fill="white"/>
<path d="M113.977 248.913C113.854 248.98 113.447 248.427 112.766 247.987C112.085 247.546 111.427 247.367 111.444 247.228C111.46 247.088 112.247 247.038 113.045 247.574C113.843 248.109 114.1 248.868 113.977 248.913Z" fill="white"/>
<path d="M143.133 135.745C145.974 134.988 148.875 134.478 151.804 134.221C154.748 133.97 157.708 134.453 160.419 135.628C160.821 135.812 163.511 137.363 163.427 137.798C163.371 138.111 160.832 137.09 160.548 137.24C157.802 138.552 154.622 138.713 151.62 138.222C148.708 137.719 145.862 136.893 143.133 135.762" fill="#263238"/>
<path d="M127.961 134.629L154.332 136.364C161.697 136.727 167.623 141.308 167.06 148.64L166.97 149.315C166.525 152.597 164.862 155.591 162.31 157.702C159.758 159.813 156.506 160.887 153.199 160.71C146.815 160.358 139.768 159.895 136.392 159.393C129.389 158.377 129.255 151.218 129.255 151.218C129.255 151.218 128.63 151.14 126.566 150.95L119.87 146.123L127.961 134.629Z" fill="#FFBF9D"/>
<path d="M129.255 151.218C129.699 147.981 131.065 144.94 133.189 142.458C133.189 142.458 127.609 143.942 127.302 151.017L129.255 151.218Z" fill="#FF9A6C"/>
<path d="M148.233 154.365C148.378 154.477 147.909 155.308 148.048 156.385C148.188 157.462 148.83 158.182 148.712 158.316C148.595 158.45 148.411 158.288 148.115 157.975C147.733 157.549 147.492 157.015 147.423 156.446C147.349 155.884 147.457 155.314 147.73 154.817C147.942 154.454 148.166 154.315 148.233 154.365Z" fill="#263238"/>
<path d="M149.014 144.734C149.142 144.862 148.567 145.621 148.551 146.709C148.534 147.798 149.07 148.601 148.93 148.713C148.874 148.774 148.64 148.64 148.372 148.289C148.055 147.813 147.892 147.253 147.903 146.682C147.917 146.113 148.113 145.563 148.461 145.114C148.718 144.784 148.986 144.673 149.014 144.734Z" fill="#263238"/>
<path d="M142.686 150.967C142.785 151.559 142.811 152.16 142.764 152.758C142.764 153.037 142.764 153.316 142.954 153.378C143.236 153.441 143.53 153.415 143.797 153.305L146.001 152.775C149.137 152.05 151.698 151.564 151.726 151.692C151.754 151.821 149.237 152.507 146.101 153.233L143.869 153.729C143.509 153.861 143.113 153.861 142.753 153.729C142.661 153.676 142.583 153.603 142.524 153.515C142.465 153.427 142.427 153.326 142.413 153.221C142.393 153.064 142.393 152.905 142.413 152.747C142.427 152.144 142.519 151.546 142.686 150.967Z" fill="#263238"/>
<path d="M154.806 149.031C154.555 148.847 154.984 147.842 155.185 146.57C155.386 145.298 155.33 144.215 155.632 144.126C155.771 144.087 155.994 144.338 156.156 144.812C156.342 145.442 156.382 146.107 156.273 146.755C156.164 147.402 155.908 148.017 155.526 148.551C155.219 148.953 154.929 149.115 154.806 149.031Z" fill="#263238"/>
<path d="M153.45 159.298C153.232 159.041 153.595 158.182 153.735 157.139C153.874 156.095 153.802 155.169 154.086 154.996C154.22 154.918 154.449 155.091 154.644 155.509C154.868 156.082 154.934 156.705 154.834 157.312C154.76 157.923 154.518 158.502 154.136 158.986C153.841 159.32 153.573 159.41 153.45 159.298Z" fill="#263238"/>
<path d="M149.064 136.236C149.131 136.124 151.14 131.61 146.33 131.113C141.52 130.617 142.011 135.577 142.145 135.577C142.279 135.577 149.064 136.236 149.064 136.236Z" fill="#FFBF9D"/>
<path d="M144.12 134.294C144.12 134.294 144.07 134.205 144.02 134.054C143.958 133.846 143.978 133.623 144.076 133.429C144.316 132.938 145.164 132.592 146.034 132.659C146.448 132.689 146.851 132.811 147.212 133.016C147.353 133.081 147.477 133.177 147.574 133.298C147.671 133.42 147.738 133.562 147.77 133.714C147.784 133.814 147.764 133.915 147.712 134.002C147.66 134.088 147.58 134.154 147.485 134.188C147.345 134.238 147.251 134.188 147.239 134.222C147.228 134.255 147.312 134.333 147.513 134.316C147.636 134.3 147.75 134.243 147.837 134.155C147.949 134.032 148.01 133.869 148.004 133.703C147.986 133.502 147.916 133.309 147.802 133.143C147.688 132.976 147.532 132.843 147.351 132.754C146.957 132.503 146.506 132.355 146.04 132.324C145.063 132.252 144.103 132.654 143.836 133.329C143.784 133.454 143.761 133.589 143.769 133.724C143.777 133.86 143.815 133.991 143.88 134.11C144.009 134.272 144.115 134.311 144.12 134.294Z" fill="#FF9A6C"/>
<path d="M161.469 158.366C161.826 159.186 164.571 157.083 165.626 155.252C167.21 152.462 168.416 148.132 167.93 145.392C167.322 142.089 165.977 139.254 163.204 137.38C160.368 135.542 157.094 134.492 153.718 134.338C152.697 134.202 151.659 134.341 150.71 134.74C149.594 135.298 148.791 136.543 147.323 136.347C147.059 136.303 146.788 136.313 146.528 136.375C146.267 136.438 146.021 136.551 145.805 136.71C144.784 137.502 145.566 138.663 146.403 139.243C148.188 140.476 150.431 140.811 152.585 141.107C154.104 141.4 155.661 141.444 157.194 141.235C158.02 141.074 158.812 140.767 159.644 140.677C160.057 140.592 160.483 140.598 160.894 140.695C161.304 140.791 161.689 140.976 162.021 141.235C162.152 141.368 162.271 141.512 162.378 141.665C162.9 142.392 163.22 143.245 163.305 144.136C163.389 145.027 163.235 145.925 162.858 146.737C161.642 149.36 159.772 153.857 160.576 155.157C161.736 157.021 162.562 157.518 162.562 157.518L161.469 158.366Z" fill="#263238"/>
<path d="M149.148 133.887C149.058 133.317 148.809 132.784 148.43 132.348C148.051 131.913 147.557 131.594 147.005 131.426C147.005 131.387 147.223 131.364 147.563 131.454C147.996 131.574 148.384 131.818 148.679 132.157C148.975 132.491 149.169 132.904 149.237 133.345C149.237 133.68 149.187 133.887 149.148 133.887Z" fill="white"/>
<path d="M140.326 148.467C140.218 148.214 140.021 148.01 139.771 147.893C139.522 147.777 139.239 147.757 138.976 147.837L139.115 147.775C138.87 147.742 138.62 147.794 138.409 147.923C138.197 148.052 138.037 148.25 137.954 148.484C137.883 148.721 137.883 148.974 137.954 149.211C138.026 149.448 138.166 149.659 138.356 149.817C138.569 149.99 138.83 150.091 139.103 150.108C139.376 150.125 139.647 150.057 139.88 149.912C140.105 149.757 140.272 149.529 140.353 149.267C140.434 149.005 140.425 148.723 140.326 148.467Z" fill="#FF9A6C"/>
<path d="M140.058 149.712C140.219 149.521 140.308 149.28 140.309 149.031C140.331 148.771 140.278 148.509 140.158 148.278C139.94 148.051 139.641 147.919 139.327 147.909C139.013 147.861 138.691 147.928 138.423 148.099C138.315 148.167 138.222 148.256 138.15 148.362C138.078 148.468 138.028 148.587 138.005 148.713C137.983 148.959 138.035 149.206 138.155 149.421C138.155 149.421 138.066 149.421 137.971 149.288C137.846 149.114 137.785 148.903 137.798 148.69C137.813 148.53 137.863 148.374 137.944 148.234C138.025 148.095 138.135 147.974 138.267 147.881C138.59 147.652 138.991 147.558 139.383 147.619C139.579 147.627 139.771 147.677 139.946 147.766C140.121 147.854 140.276 147.979 140.398 148.132C140.545 148.414 140.593 148.736 140.532 149.048C140.514 149.256 140.428 149.452 140.287 149.606C140.136 149.717 140.058 149.728 140.058 149.712Z" fill="#263238"/>
<g opacity="0.1">
<path d="M167.367 144.104C166.601 141.63 165.107 139.444 163.081 137.831C161.054 136.219 158.589 135.254 156.006 135.064L154.064 134.975C153.726 134.929 153.383 134.962 153.059 135.07C152.899 135.127 152.762 135.237 152.671 135.382C152.58 135.527 152.54 135.698 152.557 135.868C152.641 136.247 153.059 136.426 153.433 136.526C155.665 137.123 158.009 137.011 160.168 137.77C162.234 138.497 163.951 139.976 164.974 141.912C165.998 143.848 166.255 146.099 165.693 148.216C165.581 148.531 165.532 148.865 165.547 149.198C165.557 149.366 165.623 149.525 165.735 149.65C165.846 149.776 165.996 149.86 166.161 149.89C166.316 149.878 166.465 149.828 166.596 149.746C166.727 149.663 166.837 149.55 166.915 149.416C168.025 147.937 167.913 145.867 167.367 144.104Z" fill="white"/>
</g>
<path d="M147.837 148.824C147.837 148.858 147.585 148.863 147.234 148.702C146.77 148.483 146.402 148.103 146.197 147.633C145.992 147.163 145.964 146.635 146.118 146.146C146.241 145.778 146.414 145.588 146.442 145.621C146.47 145.655 146.38 145.85 146.319 146.179C146.232 146.625 146.282 147.086 146.464 147.501C146.645 147.917 146.949 148.268 147.334 148.506C147.63 148.713 147.87 148.78 147.837 148.824Z" fill="#FF9A6C"/>
<path d="M146.447 157.992C146.208 157.531 146.127 157.004 146.218 156.492C146.309 155.981 146.566 155.514 146.949 155.163C147.022 155.219 146.637 155.76 146.503 156.547C146.369 157.334 146.531 157.97 146.447 157.992Z" fill="#FF9A6C"/>
<path d="M95.418 176.501C95.7528 176.378 119.412 177.533 127.09 178.208C134.768 178.884 148.076 182.505 148.735 191.545C149.293 198.799 149.165 249.353 149.165 249.353H128.519L128.027 195.925L95.9592 187.834L95.418 176.501Z" fill="#263238"/>
<g opacity="0.3">
<path d="M112.375 179.905C112.375 179.905 123.87 181.981 133.049 184.586C142.228 187.192 146.28 192.767 147.619 196.087C148.958 199.407 149.594 204.368 146.776 209.021C144.996 211.967 136.074 222.335 136.074 222.335C136.074 222.335 134.232 192.583 134.143 192.131C134.054 191.679 112.375 179.905 112.375 179.905Z" fill="black"/>
</g>
<path d="M146.609 199.468C145.638 193.732 139.143 189.72 131.18 186.735C123.335 183.783 102.806 176.49 102.806 176.49L97.8898 175.279H95.6913L94.9659 173.103C94.9659 173.103 81.0159 169.068 60.8665 176.501L60.1802 177.059C60.1802 177.059 59.572 191.757 62.4122 194.915C62.4122 194.915 94.5083 194.463 96.1935 194.603C97.8787 194.742 121.415 205.422 121.415 205.422L101.266 236.33L117.928 247.97C117.928 247.97 127.972 233.651 134.11 225.092C142.876 212.805 147.758 206.242 146.609 199.468Z" fill="#263238"/>
<path d="M146.609 199.468C146.609 199.468 146.659 199.814 146.743 200.49C146.828 201.489 146.791 202.495 146.631 203.486C146.351 205.09 145.857 206.65 145.164 208.123C144.233 210.124 143.161 212.056 141.955 213.904C139.288 218.106 135.672 222.971 131.66 228.708L118.023 248.037L117.956 248.132L117.861 248.065L101.193 236.436L101.093 236.363L101.16 236.257C107.326 226.799 114.128 216.348 121.298 205.344L121.354 205.551C116.89 203.527 112.31 201.481 107.616 199.413C105.272 198.391 102.912 197.365 100.518 196.366C99.3184 195.88 98.1187 195.367 96.8911 194.943C96.7434 194.889 96.5924 194.844 96.4391 194.809C96.2902 194.758 96.1331 194.735 95.9759 194.742C95.6579 194.742 95.3287 194.742 95.005 194.742H93.0353C82.517 194.798 72.2609 194.943 62.4178 195.071H62.3509L62.3062 195.027C61.8144 194.396 61.4505 193.676 61.2349 192.906C60.9982 192.163 60.8118 191.404 60.6769 190.635C60.4093 189.123 60.2231 187.597 60.1189 186.065C59.9236 183.024 59.9068 180.033 60.0017 177.087V177.026L60.0519 176.987L60.7382 176.429C66.4307 174.326 72.3603 172.931 78.3934 172.277C81.2172 171.974 84.0596 171.881 86.8973 171.998C89.6244 172.048 92.3393 172.377 94.9994 172.98H95.0608V173.041C95.3119 173.806 95.5463 174.52 95.7806 175.223L95.669 175.145H97.901L102.823 176.362L122.777 183.588L130.979 186.562C133.277 187.409 135.514 188.412 137.675 189.564C141.581 191.64 144.182 194.078 145.337 196.126C145.597 196.568 145.828 197.027 146.029 197.499C146.164 197.846 146.282 198.199 146.38 198.559C146.514 199.145 146.57 199.44 146.57 199.44C146.57 199.44 146.492 199.145 146.352 198.564C146.285 198.274 146.129 197.934 145.984 197.521C145.911 197.309 145.783 197.102 145.677 196.874C145.563 196.626 145.431 196.387 145.281 196.159C144.115 194.134 141.514 191.729 137.614 189.67C135.452 188.531 133.215 187.541 130.918 186.707L122.76 183.783L102.795 176.596L97.8787 175.385H95.6467V175.307L94.8599 173.136L94.9436 173.214C92.3291 172.604 89.6594 172.26 86.9754 172.188C84.1505 172.075 81.3211 172.172 78.5105 172.478C72.4997 173.135 66.5926 174.529 60.9224 176.629H60.9614L60.2751 177.187L60.3253 177.087C60.2305 180.016 60.2528 183.013 60.4481 186.015C60.543 187.537 60.718 189.053 60.9726 190.557C61.1136 191.312 61.2999 192.057 61.5306 192.789C61.7366 193.521 62.0814 194.207 62.5462 194.809L62.4401 194.759C72.2888 194.631 82.5281 194.48 93.0632 194.424H95.0329C95.3621 194.424 95.6914 194.424 96.0206 194.424C96.1911 194.423 96.3607 194.449 96.5228 194.502C96.6899 194.538 96.8541 194.586 97.0138 194.647C98.2582 195.077 99.4523 195.585 100.658 196.076C103.051 197.075 105.417 198.101 107.755 199.128C112.435 201.181 117.016 203.227 121.499 205.266L121.65 205.333L121.56 205.472L101.405 236.374L101.372 236.196L118.023 247.847H117.861L131.537 228.54C135.56 222.815 139.193 217.938 141.871 213.781C143.073 211.958 144.145 210.052 145.08 208.078C145.777 206.616 146.278 205.068 146.57 203.475C146.734 202.489 146.782 201.487 146.715 200.49C146.637 199.82 146.609 199.468 146.609 199.468Z" fill="#455A64"/>
<path d="M131.415 201.656C130.888 201.779 130.355 201.874 129.819 201.94C127.262 202.406 124.824 203.374 122.643 204.786C121.806 205.344 121.315 205.701 121.281 205.668C121.646 205.263 122.065 204.91 122.526 204.619C123.598 203.856 124.76 203.228 125.985 202.749C127.21 202.269 128.487 201.937 129.791 201.762C130.326 201.661 130.871 201.626 131.415 201.656Z" fill="#455A64"/>
<path d="M127.793 150.866V152.635L123.48 153.037L123.234 152.133L124.395 149.438L127.793 150.866Z" fill="#70B8F3"/>
<path d="M124.423 152.262L118.854 163.411L120.087 183.42L117.291 187.784L114.351 182.751L114.859 163.712L123.53 151.441L124.423 152.262Z" fill="#70B8F3"/>
<path d="M126.108 133.658C126.108 133.658 118.251 130.678 110.657 130.182C103.063 129.685 93.6715 134.78 89.1852 136.772C84.6989 138.764 67.546 155.744 63.8353 161.391C61.7093 164.638 58.8747 171.993 58.8747 171.993C58.3948 174.559 60.186 177.059 60.186 177.059L94.7206 177.316H101.199L103.939 171.462C103.939 171.462 109.167 171.089 110.663 168.226C112.158 165.363 117.638 161.128 117.638 161.128L123.876 150.805L127.983 151.676L130.26 134.138L126.108 133.658Z" fill="#E0E0E0"/>
<path d="M100.507 141.509C100.478 141.715 100.426 141.917 100.351 142.111C100.222 142.558 100.061 143.093 99.8653 143.73C99.3511 145.509 98.9302 147.314 98.6042 149.137C98.2871 150.963 98.0692 152.805 97.9513 154.655C97.9179 155.314 97.8844 155.877 97.8621 156.329C97.8637 156.537 97.8432 156.745 97.8007 156.949C97.7552 156.745 97.7365 156.537 97.7449 156.329C97.7449 155.933 97.7449 155.353 97.7449 154.655C97.7966 152.784 97.983 150.919 98.3029 149.075C98.6267 147.24 99.0779 145.43 99.6532 143.657C99.8764 142.976 100.077 142.435 100.211 142.067C100.288 141.87 100.387 141.683 100.507 141.509Z" fill="#263238"/>
<path d="M115.645 210.316C115.645 210.316 118.011 213.072 118.742 214.071C119.401 214.964 120.054 218.234 120.305 221.426C120.323 221.615 120.293 221.806 120.218 221.982C120.144 222.157 120.027 222.311 119.878 222.43C119.729 222.549 119.553 222.629 119.365 222.663C119.178 222.698 118.985 222.684 118.804 222.625C118.646 222.565 118.506 222.464 118.4 222.333C118.293 222.202 118.223 222.045 118.196 221.878C117.688 219.567 117.554 218.585 117.554 218.585C117.487 217.469 117.37 217.626 117.336 218.379C117.303 219.132 117.894 223.3 117.894 223.3C117.894 223.3 119.49 228.986 119.06 229.623C118.969 229.749 118.85 229.853 118.712 229.928C118.575 230.002 118.422 230.044 118.266 230.051C118.11 230.058 117.954 230.029 117.811 229.968C117.667 229.906 117.539 229.813 117.437 229.695C117.219 229.399 115.422 224.673 115.422 224.673L114.948 222.084C114.948 222.084 115.874 230.264 115.355 230.906C115.278 231.023 115.175 231.12 115.053 231.189C114.932 231.259 114.795 231.298 114.655 231.305C114.515 231.311 114.376 231.285 114.248 231.227C114.121 231.169 114.009 231.082 113.921 230.973C113.559 230.649 113.19 227.033 113.19 227.033L112.348 222.207L112.498 231.408C112.498 231.408 112.403 232.279 111.717 232.312C111.031 232.346 110.601 231.336 110.601 231.336L109.613 221.85C109.613 221.85 109.932 227.123 109.574 227.402C109.1 227.77 108.67 227.647 108.514 227.24C108.196 226.42 107.733 221.66 107.733 221.66L107.298 212.631L106.98 209.646L114.881 206.817L115.645 210.316Z" fill="#FFBF9D"/>
<g opacity="0.3">
<path d="M98.526 153.93C96.0712 161.53 94.3411 169.345 93.3589 177.271C93.4555 180.141 93.784 182.998 94.341 185.814C95.2505 190.328 102.655 209.903 102.655 209.903L107.727 210.344L103.453 175.569L107.727 159.315L98.526 153.93Z" fill="black"/>
</g>
<path d="M121.265 139.104C124.741 140.175 125.394 147.223 124.646 149.232C122.252 155.677 114.602 161.731 114.714 161.379L109.742 181.155L116.789 207.939L105.395 212.018C105.395 212.018 94.9995 184.52 94.7931 180.212C94.5866 175.904 97.6835 164.677 98.1411 157.964C98.4368 153.651 100.624 144.902 105.953 139.751" fill="#E0E0E0"/>
<path d="M105.959 139.712C105.959 139.712 105.875 139.813 105.702 140.002C105.529 140.192 105.261 140.465 104.932 140.845C103.994 141.964 103.157 143.165 102.432 144.433C101.299 146.457 100.382 148.594 99.6979 150.811C99.2573 152.193 98.9051 153.602 98.6433 155.029C98.5093 155.788 98.3866 156.569 98.3141 157.378C98.2415 158.188 98.1913 159.052 98.0741 159.884C97.6723 163.299 96.9246 166.998 96.1713 170.982C95.8031 172.969 95.4125 175.034 95.1335 177.171C94.9743 178.249 94.9238 179.341 94.9828 180.429L95.1 181.244L95.2897 182.059C95.4069 182.617 95.5631 183.175 95.7193 183.733C96.3276 185.931 97.053 188.163 97.8118 190.429C98.5707 192.694 99.3743 195.021 100.206 197.381C101.88 202.097 103.654 206.973 105.529 211.962L105.345 211.878L110.64 209.981L116.739 207.799L116.65 207.972C114.145 198.447 111.773 189.419 109.614 181.188V181.121C111.461 173.823 113.14 167.171 114.608 161.351L114.814 161.407C114.819 161.392 114.82 161.376 114.817 161.361C114.814 161.345 114.807 161.331 114.797 161.319C114.787 161.307 114.774 161.297 114.76 161.291C114.745 161.285 114.729 161.283 114.714 161.284H114.747L114.825 161.24L114.982 161.134L115.294 160.899L115.897 160.414C116.287 160.079 116.667 159.744 117.013 159.404C117.749 158.729 118.441 158.037 119.088 157.345C120.313 156.049 121.433 154.657 122.436 153.182C123.325 151.907 124.047 150.523 124.585 149.064C124.861 147.789 124.895 146.474 124.685 145.186C124.373 142.848 123.603 141.107 122.766 140.164C122.341 139.694 121.814 139.328 121.226 139.093C121.226 139.093 121.382 139.149 121.678 139.271C121.862 139.349 122.035 139.452 122.191 139.578C122.421 139.736 122.629 139.924 122.81 140.136C123.675 141.051 124.484 142.803 124.802 145.158C124.892 145.779 124.941 146.406 124.947 147.033C124.967 147.728 124.892 148.423 124.724 149.098C124.192 150.574 123.47 151.976 122.576 153.266C121.573 154.753 120.454 156.158 119.228 157.468C118.575 158.165 117.883 158.863 117.147 159.543C116.778 159.889 116.399 160.23 116.031 160.565C115.835 160.726 115.634 160.894 115.428 161.056L115.11 161.296L114.942 161.407L114.853 161.463H114.797H114.747C114.727 161.465 114.708 161.463 114.689 161.456C114.671 161.449 114.654 161.437 114.641 161.423C114.628 161.408 114.618 161.39 114.613 161.371C114.609 161.352 114.609 161.332 114.613 161.312L114.825 161.368L109.876 181.149V181.082L116.935 207.866L116.968 207.995L116.845 208.039L110.746 210.221L105.445 212.118L105.311 212.168L105.261 212.035C103.386 207.04 101.612 202.158 99.9434 197.443C99.1176 195.082 98.3085 192.761 97.5552 190.485C96.8019 188.208 96.082 185.965 95.4682 183.755C95.312 183.197 95.1614 182.639 95.0442 182.081C94.9772 181.802 94.9158 181.523 94.8545 181.255C94.7931 180.987 94.7708 180.697 94.7317 180.407C94.6729 179.303 94.7271 178.196 94.8935 177.104C95.1781 174.95 95.5687 172.891 95.9481 170.899C96.7126 166.915 97.4715 163.226 97.8844 159.817C98.0016 158.969 98.0462 158.143 98.1299 157.323C98.2136 156.502 98.3364 155.716 98.4759 154.957C98.7441 153.525 99.1039 152.113 99.5528 150.727C100.248 148.504 101.183 146.364 102.343 144.344C103.076 143.072 103.93 141.874 104.893 140.767C105.574 140.058 105.959 139.712 105.959 139.712Z" fill="#263238"/>
<path d="M124.434 143.68C124.377 143.186 124.377 142.688 124.434 142.195C124.488 141.003 124.604 139.815 124.78 138.635C124.955 137.455 125.194 136.285 125.494 135.131C125.591 134.643 125.746 134.169 125.957 133.719C125.91 134.211 125.822 134.698 125.695 135.176C125.511 136.068 125.277 137.307 125.07 138.68C124.864 140.053 124.73 141.302 124.641 142.212C124.616 142.706 124.547 143.198 124.434 143.68Z" fill="#263238"/>
<g opacity="0.3">
<path d="M125.695 134.132C125.578 134.082 125.455 134.199 125.377 134.305C124.648 135.151 124.065 136.113 123.653 137.151C123.033 139.003 123.692 141.057 124.255 142.954C124.78 144.764 124.97 146.656 124.813 148.534L124.674 149.187C125.274 148.012 125.444 146.663 125.154 145.376C124.861 144.101 124.633 142.812 124.473 141.514C124.345 139.121 125.31 136.822 125.79 134.478C125.818 134.366 125.823 134.182 125.695 134.132Z" fill="black"/>
</g>
<path d="M86.7634 186.562H83.209V211.995H86.7634V186.562Z" fill="#E0E0E0"/>
<path d="M32.3919 169.945C32.7094 170.697 33.2907 171.307 34.0264 171.66C34.7622 172.014 35.6017 172.086 36.3872 171.864C44.7175 169.57 53.5009 169.48 61.8766 171.602C73.6337 174.52 77.9247 180.854 79.5206 184.838C79.9121 185.791 80.5797 186.607 81.4378 187.178C82.2958 187.75 83.3051 188.052 84.3361 188.046H84.816C85.3119 188.043 85.8008 187.929 86.2475 187.713C86.6941 187.498 87.0872 187.186 87.3985 186.8C87.7098 186.414 87.9315 185.963 88.0474 185.481C88.1634 184.999 88.1708 184.497 88.0692 184.012C86.8527 178.488 79.5039 168.89 66.3685 165.341C50.5604 161.067 39.5845 163.913 34.4788 165.503C34.04 165.643 33.6348 165.872 33.2886 166.176C32.9424 166.48 32.6626 166.852 32.4667 167.269C32.2709 167.686 32.1631 168.138 32.1502 168.599C32.1374 169.059 32.2196 169.517 32.3919 169.945Z" fill="#455A64"/>
<path d="M32.392 169.945C32.392 169.945 32.3418 169.839 32.2637 169.621C32.1291 169.193 32.082 168.742 32.1251 168.295C32.1683 167.849 32.3008 167.415 32.5148 167.021C32.885 166.346 33.4762 165.82 34.1888 165.531C38.7415 164.025 43.4858 163.176 48.2782 163.009C51.583 162.891 54.8917 163.064 58.166 163.528C59.0477 163.667 59.946 163.795 60.85 163.952L63.6009 164.51L66.3909 165.202C67.3172 165.503 68.2826 165.76 69.22 166.1C70.1574 166.44 71.1172 166.797 72.0435 167.249C72.5066 167.473 72.9865 167.662 73.444 167.913L74.8279 168.656C76.6938 169.716 78.4588 170.945 80.101 172.327C81.7996 173.764 83.3392 175.378 84.6933 177.143L85.2067 177.818L85.681 178.532C85.8317 178.767 85.9991 179.001 86.1441 179.246L86.5682 179.994C87.1462 180.998 87.6121 182.063 87.9576 183.169C88.0302 183.454 88.1139 183.727 88.1864 184.017C88.2432 184.311 88.2639 184.611 88.2478 184.91C88.1945 185.808 87.7946 186.649 87.1324 187.257C86.4702 187.865 85.5976 188.192 84.6989 188.169C83.5481 188.232 82.4058 187.938 81.429 187.326C80.4692 186.718 79.7314 185.815 79.3254 184.754C78.9226 183.762 78.4255 182.811 77.8411 181.914C77.5677 181.456 77.2384 181.043 76.9315 180.619C76.6246 180.195 76.2843 179.793 75.9216 179.419C74.5407 177.919 72.9597 176.616 71.2232 175.547C69.5688 174.534 67.8218 173.68 66.0059 172.997C64.2845 172.367 62.5228 171.852 60.7328 171.457C57.5267 170.718 54.2562 170.294 50.9678 170.19C46.2016 170.029 41.4375 170.568 36.8281 171.792C36.445 171.918 36.0476 171.997 35.6451 172.026C35.1884 172.046 34.7325 171.972 34.3054 171.809C33.8784 171.645 33.4892 171.397 33.162 171.077C32.835 170.765 32.5815 170.384 32.4199 169.961C32.6154 170.368 32.8818 170.736 33.2067 171.049C33.6013 171.414 34.0779 171.678 34.5961 171.819C34.9314 171.904 35.2772 171.94 35.6228 171.925C36.0176 171.89 36.407 171.81 36.7835 171.686C41.4062 170.417 46.1936 169.853 50.9846 170.012C54.2927 170.093 57.5845 170.504 60.8109 171.239C62.6117 171.633 64.3844 172.146 66.1175 172.774C67.9533 173.458 69.7192 174.318 71.3906 175.34C73.1498 176.417 74.7515 177.731 76.1504 179.246C76.5186 179.62 76.8311 180.05 77.1771 180.457C77.523 180.865 77.8188 181.311 78.0978 181.774C78.6959 182.683 79.2024 183.65 79.61 184.659C79.9969 185.665 80.6973 186.52 81.6076 187.097C82.5385 187.678 83.6259 187.957 84.7212 187.895C85.5467 187.919 86.3487 187.619 86.9571 187.061C87.5655 186.502 87.9324 185.729 87.9799 184.905C87.9947 184.63 87.976 184.354 87.9242 184.084C87.8572 183.811 87.7735 183.526 87.701 183.264C87.3616 182.178 86.9051 181.132 86.3394 180.145L85.9321 179.397C85.787 179.157 85.6252 178.923 85.4689 178.688L84.9835 178.002L84.4757 177.332C83.1335 175.585 81.609 173.986 79.928 172.562C78.2998 171.19 76.5497 169.971 74.6995 168.918L73.3325 168.176C72.8805 167.925 72.4006 167.74 71.943 167.517C71.0223 167.065 70.0737 166.73 69.153 166.373C68.2323 166.016 67.267 165.771 66.363 165.475L63.573 164.777L60.8333 164.219C59.9293 164.058 59.0365 163.929 58.1604 163.784C54.8998 163.314 51.6046 163.128 48.3117 163.226C43.5383 163.375 38.8091 164.19 34.2613 165.648C33.5661 165.918 32.9877 166.424 32.6264 167.076C32.3557 167.549 32.2079 168.083 32.1967 168.628C32.1833 169.075 32.2494 169.521 32.392 169.945Z" fill="#263238"/>
<path d="M38.223 168.6C38.223 169.133 38.065 169.654 37.7688 170.097C37.4727 170.54 37.0518 170.886 36.5593 171.09C36.0668 171.294 35.5249 171.347 35.0021 171.243C34.4793 171.139 33.9991 170.882 33.6222 170.505C33.2452 170.129 32.9885 169.648 32.8846 169.125C32.7806 168.603 32.8339 168.061 33.0379 167.568C33.2419 167.076 33.5874 166.655 34.0306 166.359C34.4738 166.063 34.9949 165.905 35.5279 165.905C35.882 165.904 36.2328 165.973 36.5602 166.108C36.8875 166.243 37.1849 166.442 37.4353 166.692C37.6857 166.943 37.8842 167.24 38.0194 167.567C38.1546 167.895 38.2238 168.246 38.223 168.6Z" fill="white"/>
<path d="M198.09 150.576H210.801L209.808 157.568C209.808 157.568 208.982 161.005 207.018 161.005H201.511C200.834 160.59 200.247 160.042 199.787 159.395C199.327 158.748 199.002 158.014 198.832 157.239L198.09 150.576Z" fill="#455A64"/>
<path d="M198.09 150.576C198.109 150.65 198.122 150.724 198.129 150.799C198.129 150.956 198.179 151.162 198.218 151.419C198.291 151.977 198.397 152.764 198.531 153.746C198.665 154.728 198.821 155.944 199 157.311C199.173 158.059 199.495 158.763 199.946 159.384C200.398 160.004 200.97 160.527 201.628 160.921H201.578H205.98C206.371 160.921 206.767 160.921 207.152 160.921C207.533 160.9 207.894 160.746 208.173 160.486C208.756 159.926 209.195 159.233 209.451 158.466C209.564 158.172 209.66 157.872 209.741 157.568C210.082 155.096 210.405 152.747 210.701 150.576L210.801 150.693L201.678 150.643L199.05 150.615H198.341H198.09C198.166 150.606 198.243 150.606 198.319 150.615H199.005L201.611 150.587L210.801 150.537H210.913V150.649C210.617 152.819 210.299 155.174 209.97 157.64C209.891 157.955 209.792 158.264 209.674 158.567C209.402 159.368 208.941 160.091 208.329 160.676C208.014 160.966 207.608 161.136 207.18 161.156C206.778 161.156 206.388 161.156 205.997 161.156H201.594H201.566C200.887 160.745 200.298 160.2 199.836 159.554C199.374 158.909 199.047 158.176 198.877 157.401C198.693 156 198.57 154.778 198.453 153.774C198.336 152.769 198.257 152.005 198.202 151.447L198.135 150.838C198.109 150.753 198.094 150.665 198.09 150.576Z" fill="#263238"/>
<path d="M209.808 154.181L209.998 154.136C209.881 154.136 210.031 154.136 210.054 154.136C210.191 154.128 210.329 154.128 210.467 154.136C210.333 154.136 210.467 154.136 210.517 154.136L210.734 154.192L210.913 154.248C210.997 154.276 210.913 154.248 210.879 154.248L210.997 154.304C211.118 154.37 211.235 154.442 211.348 154.521C211.421 154.572 211.348 154.521 211.32 154.521L211.393 154.583C211.448 154.632 211.5 154.684 211.549 154.739C211.588 154.784 211.666 154.89 211.594 154.784C211.638 154.845 211.677 154.906 211.716 154.968C211.756 155.029 211.778 155.085 211.806 155.141C211.834 155.197 211.806 155.141 211.806 155.107C211.824 155.147 211.839 155.188 211.85 155.23C211.876 155.301 211.897 155.374 211.912 155.448C211.912 155.476 211.951 155.66 211.94 155.57C211.929 155.481 211.94 155.665 211.94 155.693C211.945 155.769 211.945 155.846 211.94 155.922C211.94 155.967 211.94 156.011 211.94 156.056C211.94 156.101 211.94 156.173 211.94 156.056C211.933 156.097 211.923 156.138 211.912 156.179C211.901 156.243 211.884 156.307 211.862 156.368C211.862 156.419 211.778 156.592 211.862 156.458C211.802 156.587 211.733 156.712 211.655 156.831L211.599 156.91C211.599 156.91 211.677 156.82 211.599 156.882C211.521 156.943 211.482 157.004 211.421 157.066C211.359 157.127 211.259 157.194 211.326 157.15C211.393 157.105 211.242 157.2 211.22 157.211L211.052 157.306L210.969 157.35C211.013 157.35 211.064 157.3 210.969 157.35C210.924 157.35 210.679 157.429 210.534 157.468C210.388 157.507 210.573 157.468 210.584 157.468H210.455H210.02H209.897L209.652 157.389C209.758 157.434 209.568 157.345 209.568 157.345C209.481 157.294 209.385 157.261 209.286 157.247C209.186 157.233 209.084 157.239 208.987 157.264C208.89 157.29 208.798 157.334 208.718 157.395C208.638 157.455 208.57 157.531 208.519 157.618C208.468 157.705 208.435 157.801 208.421 157.901C208.407 158.001 208.413 158.102 208.439 158.199C208.464 158.297 208.508 158.388 208.569 158.469C208.63 158.549 208.706 158.616 208.793 158.667C209.526 159.049 210.375 159.14 211.173 158.923C211.97 158.705 212.656 158.196 213.095 157.495C213.508 156.762 213.635 155.901 213.452 155.079C213.359 154.68 213.188 154.302 212.948 153.969C212.709 153.636 212.406 153.353 212.057 153.138C211.672 152.896 211.242 152.736 210.792 152.668C210.343 152.599 209.885 152.625 209.445 152.741C209.249 152.795 209.083 152.925 208.982 153.102C208.882 153.279 208.856 153.488 208.91 153.684C208.964 153.88 209.093 154.047 209.27 154.147C209.447 154.248 209.657 154.274 209.853 154.22L209.808 154.181Z" fill="#455A64"/>
<path d="M209.808 154.181C209.728 154.219 209.639 154.235 209.551 154.226C209.419 154.219 209.291 154.18 209.178 154.112C209.065 154.044 208.971 153.949 208.904 153.835C208.849 153.743 208.813 153.641 208.797 153.535C208.782 153.428 208.788 153.32 208.815 153.216C208.842 153.112 208.89 153.015 208.955 152.93C209.02 152.844 209.101 152.773 209.194 152.719C209.428 152.612 209.68 152.548 209.936 152.529C210.22 152.493 210.507 152.493 210.79 152.529C211.441 152.627 212.048 152.914 212.537 153.355C213.106 153.861 213.471 154.558 213.563 155.314C213.676 156.15 213.478 156.998 213.005 157.696C212.745 158.061 212.413 158.368 212.029 158.599C211.645 158.829 211.217 158.978 210.773 159.036C210.376 159.092 209.972 159.08 209.579 159.002C209.39 158.958 209.203 158.902 209.021 158.835L208.753 158.712C208.655 158.668 208.568 158.603 208.497 158.522C208.365 158.359 208.293 158.155 208.293 157.945C208.293 157.735 208.365 157.531 208.497 157.367C208.635 157.215 208.82 157.114 209.023 157.082C209.226 157.05 209.434 157.087 209.613 157.189L209.468 157.278C209.469 157.253 209.478 157.23 209.494 157.212C209.511 157.193 209.533 157.181 209.557 157.177C209.613 157.177 209.618 157.177 209.613 157.177H209.652C209.652 157.116 209.73 157.334 209.607 157.356H209.546H209.501V157.328C209.445 157.105 209.657 157.166 209.596 157.161H209.629L209.707 157.189C209.812 157.222 209.918 157.248 210.026 157.267C210.026 157.267 210.026 157.267 210.081 157.295C210.137 157.323 210.115 157.295 210.109 157.39C210.104 157.484 210.031 157.468 210.026 157.468H209.975H209.931H209.892C209.892 157.468 209.836 157.44 209.864 157.345C209.892 157.25 209.936 157.3 209.947 157.295H210.199C210.304 157.3 210.411 157.3 210.517 157.295V157.484H210.483H210.433C210.408 157.484 210.384 157.474 210.366 157.456C210.355 157.441 210.348 157.423 210.348 157.403C210.348 157.384 210.355 157.366 210.366 157.35C210.366 157.311 210.366 157.323 210.366 157.317L210.411 157.289H210.5L210.662 157.244L210.829 157.2H210.902C210.863 157.161 210.902 157.39 210.957 157.362H210.996H210.963L210.874 157.194L211.091 157.077L211.192 157.016C211.212 157.01 211.233 157.01 211.253 157.016C211.272 157.022 211.289 157.031 211.303 157.044C211.318 157.062 211.327 157.084 211.327 157.108C211.327 157.131 211.318 157.154 211.303 157.172H211.27C211.252 157.179 211.232 157.179 211.214 157.172C211.198 157.169 211.184 157.162 211.171 157.153C211.158 157.143 211.148 157.13 211.142 157.116C211.108 157.066 211.175 156.993 211.142 157.01C211.206 156.964 211.266 156.912 211.32 156.854L211.398 156.77C211.398 156.77 211.493 156.77 211.515 156.832C211.538 156.893 211.515 156.876 211.515 156.887L211.482 156.926L211.337 156.82C211.437 156.681 211.51 156.53 211.594 156.391L211.75 156.463V156.491C211.75 156.491 211.75 156.491 211.683 156.491C211.672 156.49 211.661 156.488 211.651 156.483C211.641 156.478 211.632 156.471 211.625 156.463C211.618 156.454 211.612 156.445 211.609 156.434C211.605 156.424 211.604 156.413 211.605 156.402V156.34C211.62 156.306 211.633 156.271 211.644 156.234C211.644 156.162 211.683 156.089 211.7 156.017V155.961C211.7 155.961 211.7 155.961 211.733 155.911C211.745 155.904 211.758 155.9 211.772 155.9C211.786 155.9 211.799 155.904 211.811 155.911H211.845C211.851 155.933 211.851 155.956 211.845 155.978V156.034C211.9 156.095 211.61 156.067 211.688 156.034V155.983C211.686 155.967 211.686 155.95 211.688 155.933C211.688 155.861 211.688 155.788 211.688 155.721C211.694 155.652 211.694 155.583 211.688 155.515V155.453C211.69 155.44 211.694 155.427 211.701 155.416C211.707 155.404 211.717 155.394 211.727 155.386C211.739 155.378 211.752 155.374 211.767 155.374C211.781 155.374 211.794 155.378 211.806 155.386C211.812 155.388 211.818 155.392 211.823 155.397C211.828 155.402 211.831 155.408 211.833 155.414C211.833 155.442 211.833 155.442 211.833 155.442V155.476C211.836 155.487 211.836 155.498 211.833 155.509C211.833 155.509 211.833 155.509 211.789 155.537C211.772 155.542 211.754 155.54 211.737 155.533C211.721 155.526 211.708 155.514 211.7 155.498L211.672 155.375C211.644 155.248 211.609 155.124 211.566 155.001L211.7 154.951V154.979C211.701 154.987 211.701 154.996 211.699 155.005C211.697 155.013 211.693 155.021 211.688 155.028C211.683 155.035 211.676 155.04 211.668 155.044C211.661 155.048 211.652 155.051 211.644 155.051C211.588 155.051 211.588 155.051 211.582 155.051C211.582 155.051 211.582 155.007 211.543 154.985L211.488 154.867L211.354 154.661L211.465 154.588V154.616C211.471 154.626 211.473 154.636 211.473 154.647C211.473 154.658 211.471 154.668 211.465 154.678C211.459 154.687 211.451 154.694 211.441 154.7C211.431 154.705 211.42 154.708 211.409 154.708C211.398 154.708 211.387 154.705 211.378 154.7C211.368 154.694 211.36 154.687 211.354 154.678L211.315 154.627C211.29 154.595 211.262 154.565 211.231 154.538L211.069 154.382L211.147 154.293H211.181C211.047 154.477 211.125 154.337 211.097 154.376L211.024 154.332L210.885 154.242C210.804 154.187 210.718 154.138 210.628 154.097L210.673 154.002H210.717H210.751C210.751 154.002 210.779 154.069 210.751 154.081H210.723H210.924L210.835 154.047L210.667 153.997L210.511 153.958H210.438C210.472 153.958 210.372 153.997 210.438 153.88H210.5V153.958H210.132H209.992C209.992 153.958 209.992 153.958 209.992 153.924H210.076C210.076 153.924 210.076 153.924 210.076 153.952H210.031C209.961 153.968 209.89 153.978 209.819 153.98C209.884 153.948 209.954 153.925 210.026 153.913H210.053H209.992H210.5V153.991H210.438C210.505 153.869 210.399 153.924 210.438 153.913H210.528L210.695 153.947L210.868 153.997L210.957 154.025C210.924 154.159 210.924 154.108 210.918 154.114H210.863L210.907 154.019C211 154.061 211.089 154.109 211.175 154.164L211.32 154.248L211.398 154.293L211.37 154.337L211.331 154.304L211.409 154.214C211.47 154.263 211.528 154.316 211.582 154.371C211.582 154.404 211.644 154.427 211.677 154.466L211.716 154.516C211.716 154.516 211.688 154.516 211.677 154.516V154.488L211.789 154.415C211.833 154.482 211.884 154.549 211.928 154.627L211.99 154.745C211.99 154.745 212.029 154.778 211.99 154.806L211.951 154.839C211.936 154.835 211.921 154.835 211.906 154.839H211.878V154.8L212.012 154.75C212.062 154.879 212.103 155.012 212.135 155.146V155.197V155.236C212.135 155.236 212.135 155.236 212.09 155.236C212.045 155.236 212.09 155.236 212.062 155.236C212.056 155.233 212.049 155.232 212.043 155.232C212.036 155.232 212.029 155.233 212.023 155.236H211.99H212.034H212.062C212.062 155.236 212.09 155.236 212.096 155.236H212.04V155.275C212.04 155.342 212.04 155.425 212.04 155.498C212.048 155.572 212.048 155.647 212.04 155.721C212.043 155.741 212.043 155.762 212.04 155.782C212.04 155.782 212.012 155.782 211.973 155.782H211.878V155.732C211.878 155.732 211.934 155.732 211.923 155.732C212.046 155.732 211.995 155.732 212.006 155.732V155.788C212.006 155.861 211.967 155.944 211.945 156.022C211.936 156.063 211.923 156.102 211.906 156.14V156.19C211.688 156.101 211.766 156.123 211.761 156.112V156.084L211.917 156.156C211.828 156.307 211.755 156.469 211.649 156.619L211.504 156.513L211.543 156.469H211.577C211.577 156.469 211.616 156.469 211.627 156.508V156.536C211.627 156.536 211.66 156.58 211.655 156.569L211.571 156.659C211.514 156.719 211.452 156.774 211.387 156.826C211.348 156.792 211.348 156.765 211.337 156.77C211.326 156.776 211.337 156.77 211.337 156.742L211.309 156.692C211.309 156.692 211.337 156.725 211.309 156.731C211.281 156.737 211.309 156.781 211.309 156.781C211.308 156.793 211.311 156.805 211.317 156.815C211.323 156.825 211.332 156.832 211.342 156.837H211.315L211.209 156.904L210.985 157.027L210.896 156.859H210.935H211.002C211.086 156.859 211.102 157.066 211.058 157.021H211.03L210.941 157.055L210.773 157.099L210.6 157.144H210.517C210.517 157.144 210.517 157.189 210.483 157.06C210.483 157.06 210.483 156.949 210.483 156.96H210.561V157.15C210.448 157.158 210.334 157.158 210.221 157.15C210.163 157.155 210.105 157.155 210.048 157.15H209.986V157.055C209.986 157.055 209.986 156.999 209.986 156.971H210.048C210.048 156.971 210.048 157.016 210.048 157.021C210.048 157.027 210.048 157.021 210.048 157.055C210.048 157.055 210.048 157.055 210.048 157.094C210.053 157.11 210.053 157.128 210.048 157.144C209.933 157.122 209.819 157.094 209.707 157.06L209.624 157.032H209.574V156.999C209.575 156.98 209.575 156.962 209.574 156.943C209.646 156.798 209.607 156.865 209.618 156.848H209.652C209.652 156.848 209.652 156.915 209.624 156.926L209.579 157.004H209.54C209.56 157.01 209.581 157.01 209.601 157.004C209.617 157.001 209.632 156.994 209.644 156.985C209.657 156.975 209.667 156.963 209.674 156.949V156.921C209.674 156.921 209.674 156.921 209.596 156.921L209.529 157.016C209.393 156.943 209.237 156.916 209.085 156.94C208.933 156.964 208.793 157.038 208.686 157.15C208.589 157.275 208.536 157.429 208.536 157.588C208.536 157.746 208.589 157.9 208.686 158.026C208.816 158.137 208.965 158.222 209.127 158.277C209.299 158.341 209.477 158.392 209.657 158.427C210.024 158.505 210.402 158.518 210.773 158.466C211.191 158.415 211.593 158.277 211.954 158.062C212.315 157.847 212.627 157.559 212.871 157.217C213.327 156.567 213.526 155.772 213.429 154.985C213.349 154.272 213.011 153.614 212.481 153.132C212.015 152.703 211.432 152.422 210.807 152.323C210.303 152.229 209.782 152.271 209.3 152.446C209.214 152.497 209.138 152.565 209.078 152.645C209.017 152.725 208.973 152.817 208.949 152.914C208.909 153.082 208.938 153.258 209.027 153.405C209.083 153.51 209.162 153.599 209.259 153.667C209.356 153.735 209.468 153.779 209.585 153.796C209.64 153.935 209.715 154.064 209.808 154.181Z" fill="#263238"/>
<path d="M206.666 148.104C206.814 147.966 206.946 147.812 207.063 147.647C207.206 147.416 207.301 147.159 207.343 146.89C207.385 146.622 207.373 146.348 207.308 146.084C207.212 145.723 207.003 145.403 206.711 145.169C206.404 144.901 206.014 144.689 205.651 144.371C205.465 144.205 205.31 144.006 205.193 143.785C205.067 143.547 205.032 143.272 205.093 143.01C205.163 142.743 205.306 142.502 205.506 142.312C205.69 142.117 205.896 141.949 206.064 141.754C206.253 141.587 206.402 141.379 206.499 141.146C206.571 140.915 206.571 140.668 206.499 140.437C206.349 139.984 206.097 139.572 205.762 139.232C205.447 138.908 205.191 138.53 205.009 138.116C204.872 137.744 204.83 137.343 204.886 136.95C204.967 136.382 205.241 135.86 205.662 135.471C205.776 135.37 205.902 135.282 206.036 135.209L206.181 135.147C206.016 135.263 205.858 135.388 205.707 135.521C205.321 135.913 205.076 136.421 205.009 136.967C204.96 137.344 205.006 137.727 205.143 138.083C205.328 138.474 205.579 138.831 205.885 139.137C206.241 139.492 206.509 139.926 206.666 140.404C206.75 140.667 206.75 140.95 206.666 141.213C206.563 141.473 206.4 141.706 206.192 141.894C205.813 142.273 205.361 142.586 205.249 143.054C205.219 143.282 205.25 143.513 205.338 143.725C205.426 143.936 205.569 144.121 205.751 144.26C206.086 144.561 206.477 144.779 206.795 145.063C206.952 145.198 207.088 145.356 207.197 145.532C207.296 145.694 207.369 145.871 207.414 146.056C207.481 146.334 207.488 146.623 207.436 146.904C207.383 147.185 207.271 147.451 207.107 147.686C206.997 147.859 206.845 148.003 206.666 148.104Z" fill="#263238"/>
<path d="M204.228 148.104C204.372 147.964 204.503 147.811 204.619 147.647C204.764 147.417 204.861 147.16 204.904 146.891C204.946 146.622 204.932 146.348 204.864 146.084C204.773 145.721 204.563 145.399 204.267 145.169C203.96 144.901 203.57 144.689 203.213 144.371C203.025 144.206 202.869 144.008 202.755 143.785C202.627 143.548 202.589 143.273 202.649 143.01C202.724 142.745 202.866 142.505 203.062 142.312C203.252 142.117 203.452 141.949 203.62 141.754C203.805 141.585 203.952 141.377 204.05 141.146C204.127 140.916 204.127 140.667 204.05 140.437C203.9 139.984 203.648 139.572 203.313 139.232C202.997 138.907 202.74 138.529 202.554 138.116C202.417 137.744 202.374 137.343 202.431 136.95C202.512 136.381 202.788 135.858 203.213 135.471C203.325 135.367 203.451 135.279 203.586 135.209C203.631 135.181 203.68 135.16 203.731 135.147C203.566 135.263 203.408 135.388 203.257 135.521C202.871 135.914 202.625 136.421 202.554 136.967C202.505 137.344 202.553 137.729 202.694 138.083C202.878 138.474 203.129 138.831 203.436 139.137C203.79 139.494 204.057 139.927 204.217 140.404C204.3 140.667 204.3 140.95 204.217 141.213C204.111 141.472 203.949 141.705 203.743 141.894C203.363 142.273 202.906 142.586 202.794 143.054C202.765 143.282 202.796 143.512 202.884 143.724C202.973 143.935 203.115 144.12 203.296 144.26C203.631 144.561 204.027 144.779 204.34 145.063C204.499 145.197 204.636 145.356 204.747 145.532C204.842 145.697 204.915 145.873 204.965 146.056C205.029 146.334 205.035 146.623 204.982 146.903C204.929 147.184 204.819 147.45 204.658 147.686C204.549 147.857 204.402 148 204.228 148.104Z" fill="#263238"/>
<path d="M222.144 114.561L220.912 115.593L236.523 134.23L237.755 133.198L222.144 114.561Z" fill="#263238"/>
<path d="M223.963 111.946L222.731 112.978L238.343 131.615L239.575 130.583L223.963 111.946Z" fill="#263238"/>
<path d="M238.599 133.919L237.24 133.061L221.636 157.782L222.995 158.64L238.599 133.919Z" fill="#263238"/>
<path d="M242.118 134.602L240.76 133.745L225.46 157.984L226.818 158.842L242.118 134.602Z" fill="#263238"/>
<path d="M238.679 130.817L236.229 134.132C235.93 134.536 235.789 135.035 235.833 135.536C235.877 136.037 236.104 136.504 236.469 136.849C236.777 137.139 237.167 137.326 237.585 137.387C238.003 137.448 238.43 137.379 238.807 137.19L242.105 135.516C242.393 135.374 242.644 135.167 242.838 134.912C243.031 134.656 243.163 134.358 243.221 134.043L243.255 133.842C243.32 133.475 243.284 133.098 243.152 132.75C243.019 132.402 242.794 132.097 242.501 131.867L240.827 130.533C240.67 130.404 240.488 130.309 240.293 130.253C240.098 130.198 239.893 130.183 239.691 130.209C239.49 130.236 239.296 130.304 239.122 130.408C238.948 130.513 238.797 130.652 238.679 130.817Z" fill="#263238"/>
<path d="M238.679 130.817C238.679 130.817 238.707 130.739 238.807 130.628C238.96 130.458 239.152 130.328 239.365 130.248C239.702 130.123 240.072 130.123 240.409 130.248C240.614 130.322 240.803 130.434 240.967 130.577L241.525 131.013L242.15 131.493C242.389 131.659 242.613 131.845 242.819 132.051C243.044 132.298 243.209 132.594 243.301 132.915C243.393 133.236 243.409 133.574 243.35 133.903C243.313 134.272 243.185 134.625 242.977 134.932C242.77 135.239 242.489 135.49 242.161 135.661L240.163 136.671L239.153 137.184C238.822 137.382 238.454 137.51 238.071 137.558C237.719 137.59 237.364 137.537 237.037 137.402C236.71 137.268 236.421 137.056 236.194 136.785C235.967 136.514 235.809 136.192 235.733 135.846C235.658 135.501 235.667 135.143 235.761 134.802C235.845 134.513 235.985 134.243 236.174 134.009L236.648 133.384L238.099 131.498C238.268 131.263 238.455 131.041 238.657 130.834C238.523 131.092 238.366 131.336 238.188 131.565L236.81 133.507C236.461 133.909 236.184 134.368 235.99 134.863C235.916 135.15 235.909 135.449 235.968 135.739C236.027 136.029 236.15 136.302 236.33 136.537C236.53 136.793 236.791 136.995 237.089 137.124C237.388 137.252 237.714 137.304 238.037 137.273C238.385 137.227 238.72 137.11 239.019 136.928L240.029 136.414L242.021 135.404C242.291 135.252 242.524 135.042 242.705 134.791C242.885 134.539 243.009 134.251 243.067 133.947C243.126 133.643 243.117 133.33 243.043 133.03C242.968 132.729 242.829 132.448 242.635 132.207C242.44 132.005 242.229 131.818 242.005 131.649C241.793 131.476 241.592 131.308 241.391 131.152L240.833 130.7C240.682 130.563 240.508 130.454 240.32 130.377C240.008 130.271 239.671 130.271 239.36 130.377C239.107 130.479 238.876 130.629 238.679 130.817Z" fill="#455A64"/>
<path d="M213.876 161.117C213.876 161.117 215.784 157.066 223.278 157.077H226.726C226.726 157.077 233.462 158.528 234.271 161.128L213.876 161.117Z" fill="#263238"/>
<path d="M218.524 110.908L220.075 117.046C220.092 117.112 220.126 117.172 220.175 117.22C220.224 117.268 220.285 117.301 220.351 117.316C220.418 117.331 220.487 117.327 220.552 117.305C220.617 117.283 220.674 117.244 220.717 117.191L225.343 112.454C225.385 112.404 225.414 112.344 225.425 112.279C225.437 112.215 225.431 112.148 225.408 112.087C225.385 112.025 225.346 111.971 225.296 111.93C225.245 111.888 225.184 111.861 225.12 111.851L218.937 110.484C218.88 110.475 218.821 110.48 218.766 110.498C218.711 110.516 218.661 110.548 218.621 110.589C218.58 110.631 218.551 110.681 218.534 110.737C218.517 110.792 218.514 110.851 218.524 110.908Z" fill="#263238"/>
<path d="M218.524 110.908C218.524 110.908 218.485 110.863 218.491 110.757C218.498 110.676 218.531 110.6 218.584 110.538C218.637 110.476 218.707 110.432 218.786 110.411C218.897 110.389 219.011 110.389 219.121 110.411L219.495 110.484L220.41 110.668L222.837 111.176L224.299 111.488L225.086 111.656C225.176 111.666 225.262 111.697 225.337 111.748C225.412 111.798 225.473 111.866 225.516 111.946C225.56 112.035 225.577 112.136 225.565 112.235C225.554 112.334 225.513 112.428 225.449 112.504L223.39 114.619L220.817 117.241C220.761 117.308 220.688 117.359 220.606 117.39C220.523 117.42 220.435 117.429 220.348 117.415C220.262 117.401 220.18 117.365 220.112 117.31C220.044 117.255 219.991 117.183 219.958 117.102C219.886 116.828 219.835 116.611 219.774 116.376C219.662 115.913 219.556 115.467 219.45 115.048C219.255 114.223 219.076 113.492 218.926 112.861C218.775 112.231 218.691 111.806 218.602 111.427C218.551 111.257 218.523 111.08 218.518 110.903C218.591 111.064 218.649 111.232 218.691 111.405C218.797 111.779 218.931 112.247 219.088 112.816C219.244 113.386 219.456 114.172 219.673 114.993L220.025 116.31L220.209 117.007C220.225 117.044 220.249 117.077 220.281 117.102C220.313 117.127 220.35 117.143 220.39 117.149C220.43 117.155 220.471 117.151 220.508 117.137C220.546 117.123 220.579 117.099 220.605 117.068L223.167 114.435L225.231 112.325C225.261 112.289 225.279 112.245 225.283 112.199C225.288 112.153 225.279 112.106 225.258 112.065C225.237 112.023 225.204 111.989 225.164 111.966C225.123 111.943 225.077 111.932 225.03 111.935L224.249 111.756L222.787 111.421L220.371 110.863L219.461 110.64L219.093 110.551C219.001 110.514 218.902 110.499 218.803 110.506C218.739 110.519 218.679 110.55 218.632 110.596C218.584 110.641 218.551 110.699 218.535 110.763C218.518 110.852 218.535 110.908 218.524 110.908Z" fill="#455A64"/>
<path d="M213.949 128.407C217.012 124.306 218.747 120.132 218.457 115.863L212.704 110.322C207.124 108.464 199.452 114.317 199.452 114.317C199.452 114.317 201.354 124.64 213.949 128.407Z" fill="#263238"/>
<path d="M221.574 106.262L221.753 106.43C222.564 107.191 223.041 108.244 223.076 109.356C223.112 110.468 222.704 111.549 221.943 112.361L216.748 117.901L210.448 111.992L215.646 106.448C216.023 106.047 216.475 105.723 216.977 105.496C217.479 105.269 218.021 105.144 218.571 105.126C219.122 105.109 219.67 105.2 220.185 105.395C220.701 105.59 221.172 105.885 221.574 106.262Z" fill="#263238"/>
<path d="M218.066 115.668C217.652 115.682 217.238 115.613 216.85 115.467C215.895 115.17 215.014 114.674 214.266 114.01C213.513 113.348 212.909 112.534 212.492 111.622C212.301 111.256 212.184 110.856 212.146 110.445C212.351 110.798 212.537 111.161 212.704 111.533C213.154 112.387 213.755 113.153 214.478 113.793C215.205 114.429 216.038 114.931 216.939 115.277C217.62 115.534 218.072 115.617 218.066 115.668Z" fill="#455A64"/>
<path d="M240.671 132.804C240.671 132.906 240.641 133.007 240.583 133.092C240.526 133.177 240.445 133.244 240.351 133.283C240.256 133.323 240.151 133.333 240.051 133.313C239.95 133.293 239.858 133.243 239.785 133.171C239.712 133.098 239.663 133.006 239.643 132.905C239.623 132.804 239.633 132.7 239.673 132.605C239.712 132.51 239.778 132.429 239.864 132.372C239.949 132.315 240.049 132.285 240.152 132.285C240.22 132.285 240.288 132.298 240.351 132.324C240.414 132.35 240.471 132.389 240.519 132.437C240.567 132.485 240.605 132.542 240.631 132.605C240.658 132.668 240.671 132.736 240.671 132.804Z" fill="#455A64"/>
<path d="M221.453 114.836C221.453 114.939 221.423 115.039 221.366 115.125C221.309 115.21 221.228 115.276 221.133 115.316C221.038 115.355 220.934 115.365 220.833 115.345C220.733 115.325 220.64 115.276 220.568 115.203C220.495 115.131 220.446 115.038 220.425 114.938C220.405 114.837 220.416 114.733 220.455 114.638C220.494 114.543 220.561 114.462 220.646 114.405C220.731 114.348 220.832 114.317 220.934 114.317C221.072 114.317 221.204 114.372 221.301 114.469C221.399 114.567 221.453 114.699 221.453 114.836Z" fill="#455A64"/>
<path d="M223.423 112.822C223.423 112.925 223.393 113.025 223.336 113.11C223.279 113.196 223.198 113.262 223.103 113.301C223.008 113.341 222.904 113.351 222.803 113.331C222.702 113.311 222.61 113.261 222.537 113.189C222.465 113.116 222.415 113.024 222.395 112.923C222.375 112.822 222.385 112.718 222.425 112.623C222.464 112.529 222.531 112.447 222.616 112.39C222.701 112.333 222.802 112.303 222.904 112.303C222.972 112.303 223.04 112.316 223.103 112.342C223.166 112.369 223.223 112.407 223.271 112.455C223.319 112.503 223.358 112.56 223.384 112.623C223.41 112.686 223.423 112.754 223.423 112.822Z" fill="#455A64"/>
<path d="M238.567 134.69C238.567 134.792 238.537 134.893 238.48 134.978C238.423 135.063 238.342 135.13 238.247 135.169C238.152 135.209 238.048 135.219 237.947 135.199C237.847 135.179 237.754 135.129 237.682 135.057C237.609 134.984 237.56 134.892 237.54 134.791C237.519 134.69 237.53 134.586 237.569 134.491C237.608 134.396 237.675 134.315 237.76 134.258C237.846 134.201 237.946 134.171 238.048 134.171C238.186 134.171 238.318 134.226 238.415 134.323C238.513 134.42 238.567 134.552 238.567 134.69Z" fill="#455A64"/>
<path d="M217.994 170.168L217.838 260.201H133.87V169.922H128.485V260.201V265.206H133.87H217.838H223.222V260.201L223.379 170.168H217.994Z" fill="#E0E0E0"/>
<path d="M217.994 170.19H223.379H223.407C223.407 182.193 223.367 216.56 223.334 265.229V265.34H223.2H128.463H128.34V265.201C128.34 238.818 128.34 210.109 128.34 180.318V169.771H134.015V169.917C134.015 201.767 134.015 232.173 134.015 260.195L133.881 260.061L217.849 260.089L217.743 260.195C217.905 204.641 218.005 171.005 218.005 170.162C218.005 171.005 218.005 204.641 217.96 260.195V260.301H217.849L133.881 260.329H133.747V260.195C133.747 232.173 133.747 201.767 133.747 169.917L133.892 170.062H128.507L128.653 169.917V180.318C128.653 210.109 128.653 238.818 128.653 265.201L128.513 265.061L223.25 265.089L223.139 265.201C223.261 216.532 223.345 182.165 223.379 170.162L223.407 170.19H217.994Z" fill="#263238"/>
<path d="M239.594 161.117H117.928V170.826H239.594V161.117Z" fill="#AE7461"/>
<path d="M148.428 160.938L148.115 161.011C147.915 161.05 147.613 161.094 147.228 161.184C146.458 161.34 145.353 161.608 144.009 162.004C142.664 162.4 141.073 162.936 139.321 163.561C137.569 164.186 135.65 164.889 133.591 165.519C131.658 166.118 129.677 166.548 127.67 166.803C126.041 167.011 124.392 167.024 122.76 166.842C121.651 166.717 120.56 166.468 119.507 166.1C119.221 166.002 118.939 165.891 118.664 165.765C118.475 165.687 118.38 165.637 118.38 165.637C118.38 165.637 118.486 165.664 118.681 165.737C118.876 165.81 119.155 165.932 119.529 166.038C120.585 166.378 121.673 166.606 122.777 166.719C124.411 166.884 126.058 166.862 127.687 166.652C129.682 166.386 131.651 165.953 133.574 165.358C135.627 164.727 137.547 164.03 139.305 163.416C141.062 162.802 142.653 162.272 144.003 161.892C145.072 161.581 146.156 161.324 147.251 161.122C147.636 161.044 147.942 161.011 148.143 160.977C148.344 160.944 148.428 160.938 148.428 160.938Z" fill="#6F4439"/>
<path d="M210.483 169.905C210.439 169.864 210.398 169.819 210.361 169.771C210.25 169.635 210.133 169.505 210.009 169.381C209.535 168.894 208.991 168.481 208.396 168.153C207.454 167.639 206.428 167.295 205.366 167.138C203.958 166.942 202.528 166.977 201.131 167.244C199.433 167.574 197.756 168.004 196.109 168.533C194.22 169.155 192.269 169.567 190.289 169.76C189.211 169.837 188.128 169.764 187.07 169.543C185.971 169.3 184.901 168.941 183.878 168.471C181.785 167.55 179.765 166.301 177.533 165.397C173.041 163.589 168.293 163.449 164.169 163.979C160.496 164.507 156.898 165.468 153.45 166.842C150.493 167.958 148.166 169.074 146.553 169.777L144.695 170.619C144.271 170.815 144.042 170.91 144.042 170.91C144.042 170.91 144.26 170.792 144.678 170.592L146.52 169.715C148.127 168.968 150.454 167.88 153.405 166.73C156.855 165.337 160.459 164.365 164.141 163.834C168.282 163.276 173.069 163.427 177.589 165.246C179.821 166.161 181.858 167.411 183.934 168.326C184.946 168.792 186.004 169.15 187.092 169.392C188.135 169.613 189.204 169.686 190.267 169.609C192.235 169.419 194.177 169.017 196.059 168.41C197.706 167.886 199.383 167.461 201.081 167.138C202.491 166.875 203.936 166.847 205.355 167.054C206.425 167.222 207.456 167.577 208.402 168.103C208.996 168.44 209.536 168.866 210.003 169.364C210.177 169.532 210.337 169.713 210.483 169.905Z" fill="#6F4439"/>
<path d="M238.885 164.119C237.599 164.621 236.277 165.024 234.929 165.324C234.304 165.469 233.618 165.62 232.876 165.726C232.134 165.832 231.33 165.944 230.487 166.038C226.821 166.367 223.125 166.096 219.545 165.235C218.725 165.023 217.944 164.833 217.235 164.588C216.526 164.342 215.857 164.119 215.26 163.89C213.969 163.397 212.719 162.804 211.521 162.116C211.612 162.147 211.7 162.186 211.783 162.233L212.525 162.584C212.843 162.746 213.24 162.936 213.708 163.142C214.177 163.349 214.702 163.583 215.304 163.79C215.907 163.996 216.554 164.253 217.274 164.465C217.994 164.677 218.769 164.889 219.584 165.095C223.143 165.928 226.812 166.192 230.454 165.877C231.291 165.787 232.089 165.72 232.831 165.586C233.573 165.453 234.254 165.341 234.879 165.207C235.504 165.073 236.062 164.922 236.553 164.794C237.044 164.666 237.462 164.549 237.797 164.437L238.584 164.191C238.682 164.158 238.783 164.133 238.885 164.119Z" fill="#6F4439"/>
<path d="M169.208 158.673H131.872C131.176 158.673 130.611 159.237 130.611 159.934V160.006C130.611 160.703 131.176 161.268 131.872 161.268H169.208C169.904 161.268 170.469 160.703 170.469 160.006V159.934C170.469 159.237 169.904 158.673 169.208 158.673Z" fill="#455A64"/>
<path d="M179.832 126.666L170.502 160.202C170.405 160.549 170.174 160.843 169.861 161.02C169.547 161.198 169.176 161.245 168.828 161.15C168.482 161.053 168.187 160.822 168.01 160.508C167.832 160.195 167.785 159.824 167.88 159.476L177.215 125.913C177.312 125.565 177.542 125.27 177.856 125.092C178.17 124.914 178.541 124.868 178.889 124.964C179.063 125.013 179.226 125.096 179.368 125.208C179.51 125.32 179.629 125.46 179.716 125.618C179.804 125.776 179.859 125.95 179.879 126.13C179.899 126.31 179.883 126.492 179.832 126.666Z" fill="#455A64"/>
<path d="M172.238 129.261C172.182 129.322 169.571 126.878 166.407 123.814C163.243 120.751 160.726 118.234 160.782 118.156C160.838 118.078 163.444 120.533 166.608 123.602C169.772 126.671 172.294 129.205 172.238 129.261Z" fill="#263238"/>
<path d="M170.966 133.273C170.646 133.18 170.335 133.063 170.034 132.921L167.551 131.878C165.447 130.996 162.529 129.796 159.309 128.53C156.089 127.263 153.121 126.169 150.984 125.388L148.428 124.434C148.114 124.336 147.808 124.213 147.513 124.066C147.838 124.125 148.157 124.212 148.467 124.328C149.075 124.518 149.951 124.802 151.028 125.171C153.188 125.901 156.151 126.967 159.398 128.24C162.646 129.512 165.536 130.745 167.612 131.671C168.656 132.14 169.493 132.525 170.067 132.787C170.378 132.928 170.678 133.09 170.966 133.273Z" fill="#263238"/>
<path d="M170.452 137.268C169.691 137.385 168.918 137.402 168.153 137.318C167.384 137.334 166.615 137.254 165.865 137.078C167.396 136.948 168.937 137.012 170.452 137.268Z" fill="#263238"/>
<path d="M238.389 249.337C238.389 249.337 236.073 233.384 236.263 224.104C236.452 214.824 236.263 204.379 236.263 204.379H237.334C237.334 204.379 236.609 222.793 237.396 233.914C238.182 245.035 240.258 249.337 240.258 249.337H238.4" fill="#263238"/>
<path d="M245.302 186.428C245.135 185.864 244.796 185.366 244.331 185.005C243.651 184.575 242.763 184.754 242.005 185.005C238.774 186.149 235.911 192.17 234.605 195.339L238.891 209.791C246.636 202.627 247.975 193.202 245.302 186.428Z" fill="#455A64"/>
<path d="M244.08 185.591C244.066 185.655 244.043 185.717 244.013 185.775C243.963 185.914 243.891 186.093 243.807 186.305C243.617 186.757 243.355 187.421 243.037 188.241C242.406 189.882 241.603 192.147 240.883 194.759C240.163 197.37 239.672 199.731 239.371 201.455C239.215 202.32 239.103 203.023 239.03 203.508C238.991 203.737 238.963 203.921 238.936 204.066C238.928 204.131 238.913 204.195 238.891 204.256C238.885 204.191 238.885 204.126 238.891 204.061C238.891 203.91 238.924 203.726 238.947 203.503C239.002 203.012 239.097 202.303 239.237 201.432C239.605 199.177 240.099 196.943 240.716 194.742C241.336 192.529 242.081 190.353 242.948 188.225C243.277 187.404 243.556 186.751 243.768 186.305C243.863 186.099 243.941 185.926 244.008 185.792C244.021 185.721 244.045 185.653 244.08 185.591Z" fill="#263238"/>
<path d="M236.988 213.273C235.035 212.163 233.401 210.568 232.242 208.643C231.084 206.717 230.441 204.526 230.376 202.281C230.219 199.078 231.207 195.931 232.323 192.917C232.391 192.647 232.551 192.408 232.775 192.242C232.96 192.172 233.16 192.151 233.355 192.18C233.55 192.21 233.735 192.289 233.891 192.41C236.809 194.084 238.584 197.247 239.521 200.473C240.2 202.612 240.426 204.87 240.185 207.102C239.817 209.448 238.702 211.612 237.005 213.273" fill="#455A64"/>
<path d="M236.988 213.273C236.981 213.208 236.981 213.143 236.988 213.078V212.52C236.988 212.034 236.988 211.337 236.927 210.478C236.814 208.232 236.564 205.996 236.179 203.782C235.738 201.192 235.197 198.877 234.795 197.203L234.321 195.216L234.198 194.658C234.179 194.597 234.168 194.533 234.165 194.469C234.194 194.525 234.217 194.585 234.232 194.647C234.271 194.792 234.321 194.965 234.388 195.205C234.516 195.668 234.7 196.321 234.918 197.175C235.348 198.849 235.911 201.165 236.357 203.759C236.74 205.973 236.973 208.21 237.055 210.455C237.055 211.315 237.055 212.012 237.055 212.497C237.055 212.721 237.055 212.905 237.055 213.055C237.042 213.131 237.02 213.204 236.988 213.273Z" fill="#263238"/>
<g opacity="0.3">
<path d="M236.988 213.273C235.035 212.163 233.401 210.568 232.242 208.643C231.084 206.717 230.441 204.526 230.376 202.281C230.219 199.078 231.207 195.931 232.323 192.917C232.391 192.647 232.551 192.408 232.775 192.242C232.96 192.172 233.16 192.151 233.355 192.18C233.55 192.21 233.735 192.289 233.891 192.41C236.809 194.084 238.584 197.247 239.521 200.473C240.2 202.612 240.426 204.87 240.185 207.102C239.817 209.448 238.702 211.612 237.005 213.273" fill="black"/>
</g>
<path d="M241.525 237.708C245.481 238.578 248.734 241.368 252.556 242.73C255.078 243.628 257.935 243.946 259.95 245.71C259.47 244.488 258.32 243.673 257.204 242.981C254.06 241.004 250.702 239.391 247.194 238.171C245.403 237.552 243.45 237.055 241.614 237.546" fill="#455A64"/>
<path d="M235.8 241.207C230.845 241.123 225.627 236.904 220.7 236.653C225.856 234.979 233.25 236.346 235.8 241.207Z" fill="#455A64"/>
<path d="M237.736 229.338C240.289 228.495 243.013 228.303 245.659 228.78C248.292 229.262 250.879 229.964 253.393 230.878C253.137 229.159 251.747 227.871 250.436 226.727C249.481 225.833 248.442 225.033 247.333 224.338C246.218 223.642 244.927 223.278 243.612 223.289C242.822 223.338 242.05 223.547 241.343 223.903C240.636 224.259 240.009 224.754 239.499 225.359C238.498 226.452 237.879 227.841 237.736 229.316" fill="#455A64"/>
<path d="M227.569 223.847C224.45 221.186 219.724 221.442 215.622 221.537C222.212 224.676 228.427 228.549 234.148 233.082C234.315 230.181 231.509 227.212 227.569 223.847Z" fill="#455A64"/>
<g opacity="0.3">
<path d="M227.569 223.847C224.45 221.186 219.724 221.442 215.622 221.537C222.212 224.676 228.427 228.549 234.148 233.082C234.315 230.181 231.509 227.212 227.569 223.847Z" fill="black"/>
</g>
<path d="M239.142 220.17C240.664 219.115 242.267 218.182 243.935 217.38C245.581 216.638 247.11 215.449 248.695 214.59C250.754 213.474 252.534 211.928 254.42 210.55C256.306 209.172 258.382 207.922 260.692 207.559C258.79 207.218 256.834 207.331 254.984 207.888C253.142 208.442 251.348 209.14 249.616 209.975C247.183 211.091 244.705 212.207 242.719 213.976C240.732 215.745 238.93 217.508 239.142 220.17Z" fill="#455A64"/>
<path d="M252.461 241.207L252.305 241.134L251.876 240.911C251.502 240.716 250.966 240.42 250.291 240.08C249.956 239.907 249.588 239.722 249.175 239.522C248.762 239.321 248.343 239.131 247.886 238.93C246.901 238.489 245.88 238.134 244.834 237.87C243.798 237.582 242.708 237.553 241.659 237.786C241.199 237.886 240.748 238.02 240.308 238.188C239.931 238.341 239.569 238.528 239.226 238.746C238.724 239.057 238.264 239.432 237.859 239.862C237.568 240.169 237.429 240.353 237.418 240.347C237.44 240.295 237.47 240.246 237.507 240.202C237.599 240.066 237.699 239.935 237.808 239.812C238.2 239.356 238.653 238.956 239.153 238.623C239.507 238.395 239.88 238.198 240.269 238.037C240.713 237.861 241.17 237.719 241.636 237.613C242.711 237.363 243.831 237.386 244.895 237.68C245.951 237.947 246.98 238.309 247.97 238.763C248.427 238.969 248.857 239.17 249.253 239.371C249.649 239.572 250.023 239.756 250.369 239.929C251.039 240.286 251.569 240.598 251.931 240.816L252.344 241.067C252.417 241.168 252.467 241.201 252.461 241.207Z" fill="#263238"/>
<path d="M232.128 238.746C232.236 238.762 232.341 238.794 232.44 238.841C232.716 238.94 232.984 239.057 233.244 239.192C234.114 239.629 234.913 240.193 235.615 240.866C236.317 241.537 236.914 242.31 237.384 243.16C237.528 243.416 237.657 243.68 237.769 243.952C237.817 244.049 237.851 244.152 237.87 244.259C237.842 244.259 237.658 243.852 237.278 243.227C236.281 241.588 234.871 240.241 233.188 239.321C232.518 238.947 232.094 238.779 232.128 238.746Z" fill="#263238"/>
<path d="M221.141 223.596C221.214 223.609 221.285 223.629 221.353 223.658L221.95 223.87L222.887 224.216C223.25 224.355 223.646 224.556 224.098 224.774C226.423 225.85 228.592 227.233 230.549 228.886C231.619 229.803 232.624 230.793 233.556 231.849C234.316 232.711 235.029 233.613 235.694 234.55C236.252 235.353 236.687 236.023 236.982 236.48L237.317 237.038C237.363 237.096 237.401 237.16 237.429 237.228C237.376 237.176 237.33 237.118 237.289 237.055C237.206 236.944 237.077 236.771 236.921 236.542C236.609 236.09 236.168 235.426 235.587 234.645C235.007 233.863 234.287 232.971 233.434 231.977C232.498 230.934 231.495 229.954 230.432 229.042C228.486 227.389 226.34 225.988 224.042 224.874C223.602 224.673 223.211 224.467 222.848 224.316L221.922 223.942L221.364 223.697C221.286 223.672 221.211 223.638 221.141 223.596Z" fill="#263238"/>
<path d="M245.174 226.548C245.04 226.547 244.907 226.53 244.778 226.498L244.32 226.414C244.147 226.381 243.941 226.381 243.712 226.358C242.537 226.253 241.356 226.485 240.308 227.028C239.735 227.329 239.212 227.717 238.757 228.177C238.382 228.551 238.049 228.965 237.764 229.411C237.505 229.826 237.277 230.261 237.083 230.711C237.096 230.578 237.13 230.448 237.183 230.326C237.307 229.983 237.466 229.653 237.658 229.344C237.931 228.877 238.263 228.447 238.645 228.066C239.101 227.582 239.635 227.178 240.225 226.872C241.3 226.313 242.519 226.089 243.723 226.23C243.952 226.264 244.164 226.275 244.337 226.319L244.795 226.431C244.924 226.458 245.051 226.497 245.174 226.548Z" fill="#263238"/>
<path d="M250.151 211.08C250.096 211.129 250.034 211.168 249.967 211.197L249.409 211.499C248.924 211.756 248.232 212.141 247.395 212.615C246.558 213.089 245.57 213.731 244.521 214.479C243.377 215.28 242.306 216.18 241.318 217.168C240.808 217.665 240.367 218.228 240.007 218.842C239.683 219.461 239.371 220.064 239.086 220.644C238.574 221.665 238.116 222.712 237.714 223.78C237.445 224.501 237.219 225.237 237.038 225.984C236.989 226.263 236.926 226.538 236.849 226.81C236.844 226.738 236.844 226.665 236.849 226.593C236.849 226.448 236.882 226.241 236.949 225.973C237.106 225.216 237.313 224.471 237.568 223.741C237.957 222.662 238.408 221.605 238.919 220.577C239.203 220.019 239.51 219.389 239.834 218.764C240.199 218.128 240.647 217.545 241.168 217.029C242.162 216.033 243.245 215.131 244.404 214.333C245.464 213.586 246.463 212.978 247.311 212.486C248.159 211.995 248.862 211.638 249.353 211.398L249.911 211.125L250.151 211.08Z" fill="#263238"/>
<path d="M236.257 226.085C236.21 225.949 236.179 225.809 236.162 225.666C236.101 225.365 236.028 224.98 235.945 224.522C235.482 222.002 234.691 219.554 233.59 217.241L233.11 216.18C233.04 216.054 232.986 215.919 232.948 215.779C233.035 215.894 233.11 216.017 233.171 216.147C233.3 216.392 233.484 216.744 233.729 217.185C234.304 218.336 234.795 219.528 235.197 220.75C235.588 221.976 235.887 223.23 236.09 224.5C236.168 224.991 236.224 225.382 236.252 225.661C236.267 225.802 236.269 225.944 236.257 226.085Z" fill="#263238"/>
<path d="M235.9 214.83C235.744 212.953 235.194 211.13 234.287 209.479C233.066 207.206 231.362 205.229 229.294 203.686C227.226 202.144 224.845 201.073 222.318 200.551L233.4 217.062L234.834 220.014C235.73 218.443 236.104 216.627 235.9 214.83Z" fill="#455A64"/>
<path d="M254.537 243.601H223.328V249.13H254.537V243.601Z" fill="#70B8F3"/>
<path d="M225.661 248.031L229.846 265.195H249.035L252.205 248.031H225.661Z" fill="#70B8F3"/>
<path d="M254.52 249.136C254.52 249.197 247.478 249.247 238.802 249.247C230.125 249.247 223.077 249.197 223.077 249.136C223.077 249.074 230.114 249.024 238.802 249.024C247.49 249.024 254.52 249.074 254.52 249.136Z" fill="#263238"/>
</svg>
