<svg width="408" height="430" viewBox="0 0 408 430" fill="none" xmlns="http://www.w3.org/2000/svg">
<path d="M46.5119 402.213C45.4266 401.233 43.0113 398.128 44.8799 394.525C45.5572 393.201 47.0097 392.547 48.3234 391.945C49.6747 391.463 50.9486 390.767 52.1015 389.881C54.1497 388.041 54.7127 384.996 56.0754 382.545C57.634 379.733 60.5471 377.626 63.6234 377.772C67.1486 377.944 70.0861 380.971 71.4244 384.437C72.7626 387.903 72.8034 391.73 72.8279 395.471C72.8279 397.535 72.7545 399.866 71.3183 401.259C69.8822 402.652 67.989 402.557 66.1938 402.506L46.9362 401.878" fill="#F5F5F5"/>
<path d="M83.3301 346.391H32.6401L41.763 403.727C41.9517 404.922 42.4582 406.037 43.2237 406.941C43.9892 407.845 44.9823 408.502 46.0878 408.835L46.2673 408.887C46.4146 408.936 46.5645 408.976 46.7161 409.007C47.0548 409.081 47.3987 409.124 47.7443 409.136V409.188L47.9891 409.145H70.6168C71.0333 409.146 71.4487 409.102 71.8571 409.016C73.1741 408.801 74.3879 408.137 75.3133 407.126C76.2386 406.115 76.8245 404.812 76.9816 403.417L81.3798 363.909L81.5757 362.335L83.3219 346.683L83.3301 346.391ZM73.7747 382.967H68.5441L69.099 366.36H75.1211L73.7747 382.967ZM75.627 366.36H80.6046L78.7523 383.001H74.2561L75.627 366.36ZM60.7758 401.448L60.4576 387H67.9403L67.4915 401.457L60.7758 401.448ZM52.6811 387H59.9517L60.2699 401.457H53.7419L52.6811 387ZM53.2441 401.457H47.1486C46.5693 397.552 45.8104 392.478 44.9944 387H52.1752L53.2441 401.457ZM52.4281 383.01L51.1633 366.36H59.5029L59.8701 383.001L52.4281 383.01ZM60.4086 383.01L60.0088 366.36H68.5931L68.0709 383.001L60.4086 383.01ZM59.9598 362.37L59.5681 346.924H69.2051L68.7237 362.335L59.9598 362.37ZM59.4539 362.37H50.8614L49.7272 346.924H59.0785L59.4539 362.37ZM50.4045 362.37H41.3142C40.996 360.237 40.6859 358.224 40.4166 356.41C39.4701 350.183 39.1192 347.81 38.9233 346.95H49.2213L50.4045 362.37ZM50.6982 366.36L51.9222 383.001H44.3987C44.1457 381.281 43.8928 379.604 43.6398 377.893C43.0523 373.962 42.4648 370.041 41.9099 366.36H50.6982ZM43.9336 383.001H39.0376L36.3529 366.36H41.404C42.1792 371.468 43.0278 377.196 43.8928 382.967L43.9336 383.001ZM44.5293 386.991C45.2718 391.997 46.0062 396.924 46.6753 401.448H41.9425L39.6414 387L44.5293 386.991ZM68.0301 401.448L68.4462 387H73.4401L72.2651 401.457L68.0301 401.448ZM69.2622 362.37L69.7518 346.958H76.7041L75.4557 362.37H69.2622ZM38.4419 346.924C38.6377 348.033 39.568 354.105 40.8001 362.335H35.7165L33.2685 346.924H38.4419ZM76.7041 401.414H72.7873L73.9542 387H78.3361L76.7041 401.414ZM81.0534 362.335H75.9453L77.1937 346.924H82.7589L81.0534 362.335Z" fill="#E0E0E0"/>
<path d="M123.322 38.6054H41.6406V163.383H123.322V38.6054Z" fill="#E0E0E0"/>
<path d="M119.234 38.6054H37.5522V163.383H119.234V38.6054Z" fill="#F5F5F5"/>
<path d="M109.083 52.116H47.6953V149.864H109.083V52.116Z" fill="white"/>
<path d="M109.083 149.864C109.083 149.864 109.083 149.7 109.083 149.382C109.083 149.064 109.083 148.599 109.083 147.997C109.083 146.768 109.083 144.97 109.083 142.64C109.083 137.953 109.083 131.124 109.026 122.507C109.026 105.307 108.969 80.8572 108.928 52.116L109.132 52.331H47.7525L47.981 52.0988C47.981 88.9756 47.981 122.971 47.932 149.846L47.7525 149.657L92.4366 149.76L104.783 149.803H108.047C108.773 149.803 109.165 149.803 109.165 149.803C109.165 149.803 108.806 149.803 108.079 149.803H104.872L92.5672 149.846L47.777 149.95H47.6056V149.76C47.6056 122.885 47.6056 88.8896 47.5566 52.0128V51.7806H47.7851H109.165H109.369V51.9956C109.328 80.797 109.295 105.255 109.271 122.516C109.271 131.116 109.222 137.927 109.214 142.605C109.214 144.919 109.214 146.699 109.214 147.92C109.214 148.513 109.214 148.969 109.214 149.279C109.214 149.588 109.083 149.864 109.083 149.864Z" fill="#E0E0E0"/>
<path d="M119.462 38.6054C119.032 39.3875 118.544 40.1323 118.002 40.8328C117.055 42.1658 115.709 43.989 114.175 45.9928C112.641 47.9966 111.196 49.6994 110.136 50.9378C109.592 51.6344 108.991 52.2791 108.34 52.8642C108.801 52.1048 109.322 51.3884 109.899 50.7228C110.992 49.321 112.347 47.5924 113.832 45.6918L117.757 40.6608C118.268 39.925 118.839 39.2373 119.462 38.6054Z" fill="#E0E0E0"/>
<path d="M109.393 149.545C112.445 154.66 116.037 159.395 120.099 163.658L109.393 149.545Z" fill="white"/>
<path d="M120.099 163.658C119.421 163.133 118.797 162.533 118.239 161.869C116.798 160.348 115.436 158.747 114.159 157.07C112.887 155.4 111.7 153.66 110.601 151.859C110.109 151.136 109.69 150.361 109.353 149.545C109.904 150.217 110.408 150.93 110.862 151.678C111.76 153.011 113.025 154.826 114.502 156.778C115.978 158.73 117.39 160.424 118.426 161.646C119.029 162.274 119.588 162.946 120.099 163.658Z" fill="#E0E0E0"/>
<path d="M37.5361 163.28L48.2339 149.365L37.5361 163.28Z" fill="white"/>
<path d="M48.234 149.365C46.6326 151.829 44.9055 154.201 43.0605 156.468C41.3335 158.839 39.4895 161.113 37.5362 163.28C37.4465 163.202 39.7639 160.02 42.7178 156.176C44.4465 153.809 46.2876 151.536 48.234 149.365Z" fill="#E0E0E0"/>
<path d="M37.5361 38.6054C39.376 40.6844 41.1084 42.8663 42.7259 45.1414C44.4587 47.3255 46.0768 49.6079 47.5729 51.9784C45.7469 49.8977 44.0307 47.7129 42.4321 45.4338C40.6829 43.2537 39.0485 40.9741 37.5361 38.6054Z" fill="#E0E0E0"/>
<path d="M89.9559 71.9648H69.4009V133.472H89.9559V71.9648Z" fill="#E0E0E0"/>
<path d="M371.174 30.2462H294.07V114.956H371.174V30.2462Z" fill="#E0E0E0"/>
<path d="M365.951 30.2462H288.848V114.956H365.951V30.2462Z" fill="#FAFAFA"/>
<path d="M365.976 114.982H288.864V30.2204H365.976V114.982ZM288.864 114.93H365.919V30.272H288.864V114.93Z" fill="#E0E0E0"/>
<path d="M355.588 41.6326H299.211V103.57H355.588V41.6326Z" fill="white"/>
<path d="M299.211 103.983C298.813 104.61 298.347 105.187 297.824 105.703C296.918 106.7 295.653 108.059 294.242 109.53C292.83 111 291.516 112.316 290.553 113.245C290.065 113.787 289.517 114.266 288.921 114.672C289.322 114.046 289.787 113.47 290.309 112.952C291.206 111.955 292.479 110.596 293.899 109.117C295.319 107.638 296.633 106.322 297.587 105.393C298.073 104.856 298.618 104.382 299.211 103.983Z" fill="#E0E0E0"/>
<path d="M355.588 103.828C356.186 104.245 356.734 104.736 357.22 105.29C358.175 106.244 359.456 107.577 360.852 109.074C362.247 110.57 363.495 111.938 364.385 112.952C364.899 113.467 365.354 114.045 365.739 114.672C365.144 114.253 364.596 113.762 364.107 113.21C363.161 112.264 361.872 110.923 360.468 109.426C359.065 107.93 357.824 106.545 356.935 105.539C356.425 105.025 355.973 104.451 355.588 103.828Z" fill="#E0E0E0"/>
<path d="M355.434 41.796C355.834 41.1679 356.303 40.5907 356.829 40.076C357.727 39.0698 358.991 37.7196 360.411 36.249C361.831 34.7784 363.128 33.4626 364.091 32.5338C364.579 31.9878 365.127 31.5056 365.723 31.0976C365.328 31.7277 364.863 32.3052 364.336 32.8176C363.439 33.8152 362.166 35.174 360.746 36.6532C359.326 38.1324 358.02 39.4396 357.057 40.377C356.572 40.9167 356.027 41.3931 355.434 41.796Z" fill="#E0E0E0"/>
<path d="M299.056 41.9508C298.46 41.5285 297.912 41.035 297.424 40.4802C296.477 39.5342 295.188 38.2012 293.793 36.7048C292.397 35.2084 291.149 33.8324 290.268 32.8262C289.749 32.3125 289.292 31.735 288.905 31.1062C289.503 31.5225 290.051 32.0134 290.537 32.5682C291.483 33.5142 292.773 34.8472 294.176 36.3522C295.58 37.8572 296.82 39.2246 297.709 40.2394C298.225 40.7481 298.677 41.3231 299.056 41.9508Z" fill="#E0E0E0"/>
<path d="M355.434 103.57C355.434 103.57 355.434 103.458 355.434 103.269C355.434 103.08 355.434 102.77 355.434 102.409C355.434 101.635 355.434 100.517 355.434 99.0634C355.434 96.1308 355.434 91.8652 355.376 86.4472C355.376 75.594 355.311 60.1398 355.262 41.6412L355.483 41.8648H299.268L299.521 41.6068C299.521 64.3366 299.521 85.6044 299.48 103.527L299.268 103.295L339.979 103.415L351.403 103.475H354.43H355.246C355.335 103.468 355.425 103.468 355.515 103.475H355.27H354.511H351.525L340.142 103.535L299.293 103.647H299.081V103.424C299.081 85.484 299.081 64.2162 299.081 41.5036V41.366H299.334H355.548H355.768V41.5982C355.719 60.157 355.678 75.6628 355.654 86.5504C355.654 91.9426 355.654 96.1996 355.597 99.115C355.597 100.548 355.597 101.649 355.597 102.417C355.597 102.779 355.597 103.054 355.597 103.277C355.552 103.38 355.497 103.478 355.434 103.57Z" fill="#E0E0E0"/>
<path d="M336.804 62.6854H317.995V82.5084H336.804V62.6854Z" fill="#EBEBEB"/>
<path d="M248.366 381.995V407.889H284.295H323.928V381.995H248.366Z" fill="#F5F5F5"/>
<path d="M245.192 374.754V381.995H326.563V374.754H284.295H245.192Z" fill="#E0E0E0"/>
<path d="M285.877 407.889H323.928V381.995H326.563V374.754H284.294V381.324L285.877 407.889Z" fill="#E0E0E0"/>
<path d="M274.258 386.166H258.933V390.062H274.258V386.166Z" fill="#E0E0E0"/>
<path d="M276.632 394.938H256.958V403.168H276.632V394.938Z" fill="white"/>
<path d="M259.986 348.893V374.788H295.922H335.547V348.893H259.986Z" fill="#F5F5F5"/>
<path d="M257.179 341.652V348.893H338.558V341.652H296.281H257.179Z" fill="#EBEBEB"/>
<path d="M297.505 374.788H335.915V348.893H338.191V341.652H295.922V348.223L297.505 374.788Z" fill="#EBEBEB"/>
<path d="M285.878 353.064H270.553V356.96H285.878V353.064Z" fill="#E0E0E0"/>
<path d="M288.26 361.836H268.586V370.067H288.26V361.836Z" fill="white"/>
<path d="M393.483 408.741C393.483 408.861 307.909 408.964 202.376 408.964C96.8427 408.964 11.2524 408.861 11.2524 408.741C11.2524 408.62 96.8101 408.5 202.368 408.5C307.926 408.5 393.483 408.612 393.483 408.741Z" fill="#263238"/>
<path d="M200.524 192.975V193.835H197.26V193.156L199.137 190.817H197.309V189.957H200.483V190.636L198.607 192.975H200.524Z" fill="#263238"/>
<path d="M194.543 189.2V191.23H186.864V189.639L191.254 184.169H186.978V182.139H194.412V183.73L190.006 189.2H194.543Z" fill="#263238"/>
<path d="M183.543 184.547V188.632H168.039V185.433L176.893 174.399H168.268V170.28H183.249V173.479L174.404 184.513L183.543 184.547Z" fill="#263238"/>
<path d="M179.52 135.14H167.68V151.197H145.73V135.14H103.632V119.66L139.34 67.2778H162.662L130.242 116.298H146.399V102.056H167.664V116.324H179.52V135.14Z" fill="#70B8F3"/>
<path d="M184.049 109.22C184.049 81.5366 198.835 65.5922 219.194 65.5922C239.553 65.5922 254.225 81.5624 254.225 109.22C254.225 136.878 239.439 152.848 219.194 152.848C198.949 152.848 184.049 136.938 184.049 109.22ZM231.589 109.22C231.589 91.5986 226.358 85.011 219.194 85.011C212.029 85.011 206.685 91.5986 206.685 109.22C206.685 126.841 211.915 133.438 219.194 133.438C226.473 133.438 231.589 126.867 231.589 109.22Z" fill="#70B8F3"/>
<path d="M337.008 135.14H325.176V151.197H303.226V135.14H261.12V119.66L296.836 67.2778H320.15L287.738 116.298H303.887V102.056H325.152V116.324H337.008V135.14Z" fill="#70B8F3"/>
<g opacity="0.3">
<path d="M179.52 135.14H167.68V151.197H145.73V135.14H103.632V119.66L139.34 67.2778H162.662L130.242 116.298H146.399V102.056H167.664V116.324H179.52V135.14Z" fill="black"/>
<path d="M184.049 109.22C184.049 81.5366 198.835 65.5922 219.194 65.5922C239.554 65.5922 254.225 81.5624 254.225 109.22C254.225 136.878 239.439 152.848 219.194 152.848C198.949 152.848 184.049 136.938 184.049 109.22ZM231.589 109.22C231.589 91.5986 226.359 85.011 219.194 85.011C212.03 85.011 206.685 91.5986 206.685 109.22C206.685 126.841 211.916 133.438 219.194 133.438C226.473 133.438 231.589 126.867 231.589 109.22Z" fill="black"/>
<path d="M337.008 135.14H325.176V151.197H303.226V135.14H261.12V119.66L296.836 67.2778H320.15L287.738 116.298H303.887V102.056H325.152V116.324H337.008V135.14Z" fill="black"/>
</g>
<path d="M172.919 135.14H161.087V151.197H139.136V135.14H97.0552V119.66L132.771 67.2778H156.085L123.673 116.298H139.822V102.056H161.087V116.324H172.919V135.14Z" fill="#70B8F3"/>
<path d="M177.456 109.22C177.456 81.5366 192.241 65.5922 212.601 65.5922C232.96 65.5922 247.632 81.5624 247.632 109.22C247.632 136.878 232.846 152.848 212.601 152.848C192.356 152.848 177.456 136.938 177.456 109.22ZM224.996 109.22C224.996 91.5986 219.765 85.011 212.601 85.011C205.436 85.011 200.091 91.5986 200.091 109.22C200.091 126.841 205.322 133.438 212.601 133.438C219.879 133.438 224.996 126.867 224.996 109.22Z" fill="#70B8F3"/>
<path d="M330.423 135.14H318.591V151.197H296.641V135.14H254.592V119.66L290.309 67.2778H313.589L281.178 116.298H297.326V102.056H318.591V116.324H330.423V135.14Z" fill="#70B8F3"/>
<path d="M186.693 46.5948C186.693 41.6326 190.389 37.9948 195.4 37.9948C200.41 37.9948 204.114 41.624 204.114 46.5948C204.114 51.5656 200.418 55.1948 195.4 55.1948C190.381 55.1948 186.693 51.5484 186.693 46.5948ZM199.635 46.5948C199.66 45.9928 199.569 45.3916 199.368 44.8275C199.166 44.2635 198.859 43.7482 198.463 43.3129C198.068 42.8775 197.593 42.531 197.067 42.2943C196.541 42.0576 195.975 41.9355 195.404 41.9355C194.832 41.9355 194.266 42.0576 193.74 42.2943C193.214 42.531 192.739 42.8775 192.344 43.3129C191.949 43.7482 191.641 44.2635 191.44 44.8275C191.238 45.3916 191.148 45.9928 191.173 46.5948C191.148 47.1969 191.238 47.798 191.44 48.3621C191.641 48.9261 191.949 49.4414 192.344 49.8768C192.739 50.3121 193.214 50.6586 193.74 50.8953C194.266 51.1321 194.832 51.2541 195.404 51.2541C195.975 51.2541 196.541 51.1321 197.067 50.8953C197.593 50.6586 198.068 50.3121 198.463 49.8768C198.859 49.4414 199.166 48.9261 199.368 48.3621C199.569 47.798 199.66 47.1969 199.635 46.5948Z" fill="#263238"/>
<path d="M205.477 48.4352C205.477 44.5824 208.366 41.8476 212.331 41.8476C216.297 41.8476 219.178 44.5824 219.178 48.4352C219.178 52.288 216.338 55.0572 212.331 55.0572C208.325 55.0572 205.477 52.2966 205.477 48.4352ZM214.877 48.4352C214.877 46.5002 213.784 45.408 212.331 45.408C210.879 45.408 209.777 46.5002 209.777 48.4352C209.777 50.3702 210.895 51.4968 212.331 51.4968C213.768 51.4968 214.877 50.3874 214.877 48.4352Z" fill="#263238"/>
<path d="M234.739 48.4524C234.739 52.5116 232.079 55.0572 228.782 55.0572C228.162 55.0896 227.542 54.9873 226.961 54.7565C226.38 54.5257 225.85 54.1714 225.404 53.7156V59.426H221.136V42.0626H225.216V43.3354C225.667 42.8168 226.224 42.4133 226.844 42.1555C227.465 41.8977 228.133 41.7924 228.798 41.8476C232.079 41.8476 234.739 44.3932 234.739 48.4524ZM230.439 48.4524C230.439 46.5174 229.321 45.408 227.893 45.408C226.465 45.408 225.339 46.5174 225.339 48.4524C225.339 50.3874 226.457 51.4968 227.893 51.4968C229.329 51.4968 230.439 50.3874 230.439 48.4524Z" fill="#263238"/>
<path d="M235.751 53.7414L237.024 50.6712C238.314 51.4459 239.774 51.852 241.259 51.8494C242.687 51.8494 243.16 51.5226 243.16 50.9894C243.16 49.2694 235.996 51.2216 235.996 46.1046C235.996 43.6966 238.101 41.8562 241.904 41.8562C243.558 41.8205 245.198 42.1915 246.694 42.9398L245.421 45.9842C244.353 45.3588 243.15 45.0331 241.928 45.0382C240.492 45.0382 239.978 45.4682 239.978 45.8982C239.978 47.6612 247.118 45.752 247.118 50.826C247.118 53.1824 245.062 55.0228 241.12 55.0228C239.257 55.0745 237.411 54.634 235.751 53.7414Z" fill="#263238"/>
<path d="M248.423 52.5804C248.485 51.9153 248.78 51.2982 249.25 50.8493C249.72 50.4004 250.331 50.1518 250.965 50.1518C251.599 50.1518 252.211 50.4004 252.681 50.8493C253.15 51.2982 253.445 51.9153 253.507 52.5804C253.47 53.2646 253.186 53.9081 252.714 54.3788C252.241 54.8495 251.615 55.1118 250.965 55.1118C250.315 55.1118 249.689 54.8495 249.217 54.3788C248.744 53.9081 248.46 53.2646 248.423 52.5804ZM248.423 38.3302H253.483L252.626 48.8308H249.248L248.423 38.3302Z" fill="#263238"/>
<path d="M111.384 329.681H101.314V380.653H111.384V329.681Z" fill="#E0E0E0"/>
<path d="M70.3311 323.119C70.4943 323.119 101.339 333.31 101.339 333.31H111.4L146.725 323.119H70.3311Z" fill="#E0E0E0"/>
<path d="M42.1871 152.16C37.7236 153.218 33.7333 157.561 34.4024 166.229C34.4024 166.229 30.8447 166.935 31.065 173.737C31.2853 180.54 30.6244 222.757 38.6293 245.719C45.2144 264.596 56.5813 304.973 60.4492 318.759C60.8314 320.123 61.6221 321.32 62.7032 322.171C63.7842 323.022 65.0975 323.481 66.4468 323.48H153.53C155.064 323.475 156.581 323.143 157.991 322.506C159.401 321.87 160.675 320.94 161.736 319.773C162.798 318.606 163.625 317.226 164.17 315.714C164.714 314.203 164.965 312.591 164.905 310.976C164.772 307.864 163.5 304.928 161.356 302.784C159.212 300.64 156.363 299.455 153.408 299.478L89.9068 300.174C89.9068 300.174 86.0144 278.072 82.0079 277.814C82.0079 277.814 83.7868 263.977 77.1119 259.995C77.1119 259.995 78.442 242.916 71.3264 241.376C71.3264 241.376 72.4362 227.083 66.4304 224.546C66.4304 224.546 69.7679 211.689 63.5418 205.127C63.5418 205.127 65.3207 190.12 63.5418 178.863C61.7629 167.605 61.1101 147.714 42.1871 152.16Z" fill="#455A64"/>
<path d="M157.994 312.369C157.994 312.369 157.847 312.369 157.553 312.369H156.264L151.262 312.412L132.616 312.472L68.8133 312.55H68.6665L68.6175 312.404L59.6415 284.97C54.4272 268.896 49.4904 253.571 45.1412 239.587C44.0559 236.087 43.0114 232.707 42.0322 229.336C41.525 227.7 41.1054 226.034 40.7756 224.348C40.6074 223.525 40.4821 222.692 40.4002 221.854C40.3104 220.994 40.1717 220.203 40.1228 219.386C39.5597 212.859 39.4292 206.753 39.3068 201.188C39.168 190.06 39.3068 181.047 39.4536 174.829C39.5352 171.725 39.6005 169.317 39.6413 167.666L39.7148 165.799C39.7148 165.378 39.7556 165.172 39.7556 165.172C39.7556 165.172 39.7556 165.387 39.7556 165.799C39.7556 166.212 39.7556 166.857 39.7556 167.666C39.7556 169.317 39.6903 171.733 39.6413 174.829C39.5597 181.056 39.4537 190.06 39.6413 201.188C39.7556 206.744 39.9025 212.841 40.4573 219.352C40.5145 220.212 40.645 220.977 40.7348 221.803C40.8188 222.632 40.9469 223.456 41.1183 224.271C41.465 225.959 41.9037 227.624 42.432 229.259C43.4113 232.587 44.4639 235.993 45.5573 239.493C49.9229 253.468 54.876 268.784 60.0821 284.858C63.1829 294.318 66.1858 303.589 69.0581 312.3L68.8623 312.154L132.665 312.232L151.311 312.292H156.313H157.602C157.847 312.352 157.994 312.369 157.994 312.369Z" fill="#263238"/>
<path d="M80.4332 300.278C80.1859 300.555 79.9125 300.806 79.6172 301.026C79.0705 301.482 78.2953 302.17 77.3651 303.03C74.937 305.285 72.6781 307.734 70.6086 310.357C68.541 312.98 66.6591 315.759 64.9782 318.673C64.3336 319.791 63.8276 320.711 63.4931 321.356C63.3341 321.7 63.1427 322.025 62.9219 322.328C63.0287 321.964 63.1709 321.612 63.3462 321.279C63.64 320.608 64.1051 319.662 64.7171 318.518C66.3334 315.534 68.1957 312.705 70.2822 310.064C72.361 307.421 74.6664 304.986 77.1692 302.789C78.1321 301.929 78.94 301.301 79.5112 300.888C79.7969 300.65 80.106 300.446 80.4332 300.278Z" fill="#263238"/>
<path d="M89.9066 300.14C89.9066 300.14 89.6944 300.14 89.2783 300.14L87.4504 300.192L80.4328 300.312H80.3431V300.217L80.1962 299.306C80.1081 299.012 80.0018 298.725 79.878 298.446C79.5899 297.843 79.0889 297.383 78.4826 297.164C77.0615 296.841 75.5772 297.09 74.321 297.861L74.0272 298.007L74.1333 297.689C75.1181 294.655 75.2597 291.388 74.5413 288.272C73.7322 284.595 71.7859 281.307 69.0088 278.924L68.9028 278.838L68.9517 278.709C69.828 276.085 69.9468 273.245 69.2933 270.55C68.6397 267.855 67.2431 265.424 65.2797 263.564L65.1736 263.478L65.2226 263.341C66.2833 259.716 66.2224 255.831 65.0488 252.245C63.8753 248.66 61.6499 245.561 58.6946 243.397L58.5967 243.328V243.208C58.6622 240.835 58.5914 238.46 58.3845 236.096C58.1901 233.678 57.7664 231.287 57.1197 228.958C56.4506 226.705 55.4388 224.451 53.6517 223.144L53.5212 223.05L53.5701 222.895C54.5167 219.439 54.8894 215.837 54.6717 212.248C54.543 210.544 54.1971 208.867 53.6436 207.26C53.0746 205.714 52.2453 204.29 51.1956 203.055L51.0976 202.934L51.1711 202.805C52.9607 199.811 53.9424 196.359 54.0108 192.821C54.024 189.626 53.0374 186.515 51.2037 183.971V183.92V183.859C51.304 179.613 50.4922 175.397 48.8292 171.527C48.1163 169.96 47.0922 168.573 45.8263 167.459C44.7464 166.543 43.482 165.899 42.1298 165.576C41.0421 165.329 39.9264 165.248 38.8168 165.335L37.4868 165.49L36.3933 165.722C35.7405 165.851 35.2591 166.04 34.9327 166.118C34.6063 166.195 34.4268 166.247 34.4268 166.247C35.0635 166.005 35.7118 165.798 36.3688 165.627L37.4623 165.369L38.8087 165.189C39.9302 165.085 41.0601 165.154 42.1624 165.395C43.5518 165.702 44.8539 166.347 45.965 167.279C47.2666 168.403 48.3217 169.811 49.0576 171.407C50.7601 175.311 51.5972 179.572 51.5056 183.868V183.765C53.395 186.363 54.4163 189.547 54.4106 192.821C54.3515 196.435 53.3585 199.965 51.5383 203.029V202.779C52.6199 204.042 53.4792 205.499 54.076 207.079C54.6518 208.74 55.0087 210.476 55.1368 212.239C55.3705 215.886 54.9977 219.547 54.0352 223.058L53.8557 222.74C55.7896 224.159 56.8096 226.498 57.4951 228.76C58.1602 231.115 58.5922 233.536 58.7844 235.984C58.9927 238.368 59.0608 240.763 58.9884 243.156L58.8986 242.959C61.9338 245.173 64.2198 248.351 65.4246 252.028C66.6294 255.706 66.6901 259.693 65.598 263.409L65.5408 263.177C67.5629 265.1 68.9953 267.614 69.6552 270.399C70.315 273.184 70.1724 276.113 69.2455 278.812L69.1884 278.597C72.0236 281.032 74.0006 284.4 74.8024 288.16C75.5243 291.337 75.3628 294.666 74.3373 297.749L74.1578 297.577C74.853 297.216 75.5914 296.956 76.3528 296.803C77.0719 296.635 77.82 296.668 78.5234 296.898C78.8642 297.028 79.1762 297.23 79.44 297.491C79.7039 297.753 79.914 298.069 80.0575 298.42C80.1878 298.727 80.2968 299.043 80.3839 299.366L80.5308 300.312L80.4328 300.217H87.4504H89.2783L89.9066 300.14Z" fill="#263238"/>
<g opacity="0.3">
<path d="M78.2544 259.72L49.1313 263.676C49.5696 264.492 50.1804 265.19 50.9163 265.716C51.6522 266.243 52.4934 266.584 53.3746 266.712C55.1356 266.945 56.9196 266.908 58.6704 266.6C66.2106 265.737 73.8001 265.45 81.3797 265.74C80.5305 263.629 79.4835 261.612 78.2544 259.72Z" fill="black"/>
</g>
<path d="M63.8603 203.467C61.8531 203.744 59.8296 203.868 57.8056 203.837C55.785 203.951 53.7596 203.922 51.7427 203.751C53.7498 203.474 55.7733 203.351 57.7974 203.381C59.8179 203.267 61.8434 203.296 63.8603 203.467Z" fill="#263238"/>
<path d="M63.5908 400.76C63.5908 400.76 68.2502 385.779 74.6721 382.15C84.9863 376.327 108.773 373.55 108.773 373.55L111.376 380.636C111.376 380.636 79.6579 381.952 74.6558 388.694C71.8036 392.558 69.1452 396.577 66.6916 400.734L63.5908 400.76Z" fill="#E0E0E0"/>
<path d="M67.6544 408.715C71.3723 408.715 74.3864 405.538 74.3864 401.62C74.3864 397.702 71.3723 394.525 67.6544 394.525C63.9364 394.525 60.9224 397.702 60.9224 401.62C60.9224 405.538 63.9364 408.715 67.6544 408.715Z" fill="#263238"/>
<path d="M149.556 400.493C149.556 400.493 144.897 385.512 138.475 381.883C128.161 376.061 104.383 373.283 104.383 373.283L101.771 380.369C101.771 380.369 133.489 381.685 138.491 388.436C141.345 392.3 144.003 396.318 146.456 400.476L149.556 400.493Z" fill="#E0E0E0"/>
<path d="M147.182 408.715C150.9 408.715 153.914 405.538 153.914 401.62C153.914 397.702 150.9 394.525 147.182 394.525C143.464 394.525 140.45 397.702 140.45 401.62C140.45 405.538 143.464 408.715 147.182 408.715Z" fill="#263238"/>
<path d="M102.873 377.368L104.35 396.649L108.512 397.518V377.368" fill="#E0E0E0"/>
<path d="M106.341 408.715C110.059 408.715 113.073 405.538 113.073 401.62C113.073 397.702 110.059 394.525 106.341 394.525C102.623 394.525 99.6089 397.702 99.6089 401.62C99.6089 405.538 102.623 408.715 106.341 408.715Z" fill="#263238"/>
<path d="M56.3037 226.386C57.9209 225.809 59.5802 225.372 61.265 225.079C62.9232 224.646 64.6127 224.358 66.316 224.219C64.6992 224.798 63.0398 225.235 61.3548 225.526C59.6963 225.959 58.0069 226.246 56.3037 226.386Z" fill="#263238"/>
<path d="M70.7306 241.393C70.1986 241.658 69.6363 241.849 69.0578 241.961C68.0051 242.245 66.5445 242.572 64.9125 242.821C63.2805 243.07 61.7954 243.251 60.7183 243.32C60.1361 243.402 59.5461 243.402 58.9639 243.32C58.9639 243.191 61.6077 242.924 64.8472 242.382C68.0867 241.841 70.6979 241.273 70.7306 241.393Z" fill="#263238"/>
<path d="M82.7587 278.563C82.1256 278.748 81.4735 278.852 80.8166 278.872C79.6089 279.001 77.9361 279.113 76.0838 279.173C74.2315 279.233 72.5587 279.173 71.3428 279.173C70.6875 279.191 70.0327 279.124 69.3926 278.975C70.04 278.867 70.696 278.826 71.351 278.855L76.0756 278.743L80.7921 278.571C81.4457 278.499 82.1045 278.496 82.7587 278.563Z" fill="#263238"/>
<path d="M86.1451 292.03C86.1451 292.168 83.4359 292.787 80.278 294.206C77.1201 295.625 74.7863 297.242 74.7129 297.13C75.144 296.665 75.6391 296.27 76.1817 295.96C77.4341 295.126 78.7496 294.401 80.1148 293.793C81.4767 293.182 82.8853 292.693 84.3254 292.331C84.9167 292.147 85.5286 292.046 86.1451 292.03Z" fill="#263238"/>
<path d="M140.589 323.644C140.589 323.764 124.538 323.833 104.742 323.781C84.9456 323.73 68.8867 323.609 68.8867 323.48C68.8867 323.351 84.9374 323.291 104.742 323.334C124.546 323.377 140.589 323.515 140.589 323.644Z" fill="#263238"/>
<path d="M110.878 333.68C109.291 333.906 107.688 333.981 106.088 333.904C104.486 333.981 102.88 333.906 101.29 333.68C102.88 333.459 104.486 333.384 106.088 333.456C107.688 333.384 109.291 333.459 110.878 333.68Z" fill="#263238"/>
<path d="M111.335 374.771C109.862 375.645 108.209 376.126 106.519 376.173C104.829 376.219 103.155 375.829 101.641 375.037C103.242 375.467 104.885 375.698 106.537 375.725C108.166 375.603 109.776 375.283 111.335 374.771Z" fill="#263238"/>
<path d="M210.463 215.456C210.463 215.456 206.627 209.255 204.408 207.14C202.694 205.514 194.379 202.289 190.642 200.887C189.444 200.441 188.184 200.209 186.913 200.199C182.017 200.148 169.075 200.199 162.482 201.438C154.265 203.02 208.782 248.205 208.782 248.205L254.192 248.316L257.162 236.5L226.848 229.904L210.12 215.92" fill="#E0E0E0"/>
<g opacity="0.3">
<path d="M175.032 203.072C175.032 203.072 178.035 203.227 182.221 203.932C186.407 204.637 191.001 204.861 193.302 207.011C194.844 208.447 204.277 208.731 204.277 208.731L191.221 208.223L175.032 203.072Z" fill="black"/>
</g>
<path d="M170.724 201.937C170.999 201.933 171.273 201.967 171.54 202.04C172.07 202.143 172.845 202.306 173.784 202.556C175.669 203.046 178.247 203.803 181.079 204.697L184.204 205.721H184.155C186.284 205.82 188.399 206.134 190.471 206.658C190.643 206.995 190.775 207.353 190.863 207.724C190.644 207.42 190.458 207.091 190.308 206.744L190.357 206.796C188.281 206.428 186.185 206.195 184.082 206.099H184.033L180.899 205.101L173.653 202.84L171.45 202.177C171.199 202.129 170.955 202.048 170.724 201.937Z" fill="#263238"/>
<path d="M289.353 247.869C289.419 247.508 288.456 243.389 288.358 242.976C288.26 242.563 285.273 237.816 285.273 237.816L283.641 237.291C283.641 237.291 276.053 235.391 274.518 235.502L273.449 235.623C273.449 235.623 271.458 235.778 270.675 235.924C269.892 236.07 265.036 237.867 265.036 237.867C263.846 238.133 262.628 238.228 261.413 238.151C259.739 237.865 258.08 237.486 256.444 237.016L254.502 248.282L258.174 248.162C259.32 248.59 260.504 248.898 261.707 249.082C263.029 249.176 266.775 249.606 266.775 249.606C266.775 249.606 272.56 252.186 274.012 248.592C275.465 244.997 269.884 244.627 269.884 244.627L271.613 243.337L276.044 242.855L277.195 243.242L278.46 245.306C278.46 245.306 278.117 249.864 280.908 249.555L281.642 249.469L282.034 244.79L280.712 240.06L283.633 244.73C283.633 244.73 283.886 248.772 285.151 249.297C285.248 249.343 285.355 249.364 285.461 249.357C286.995 249.305 287.297 248.85 287.297 248.85L287.615 248.033C287.615 248.033 289.133 249.099 289.353 247.869Z" fill="#FFBF9D"/>
<path d="M272.764 235.64C273.226 235.569 273.697 235.589 274.152 235.7C275.272 235.86 276.369 236.169 277.416 236.62C278.483 237.053 279.429 237.763 280.165 238.684C280.491 239.054 280.701 239.519 280.769 240.017C280.696 240.017 280.492 239.527 279.953 238.891C279.191 238.077 278.273 237.443 277.261 237.033C274.861 236.027 272.74 235.803 272.764 235.64Z" fill="#FF9A6C"/>
<path d="M275.62 240.559C275.734 240.559 275.816 241.049 275.873 241.634C275.93 242.219 275.946 242.718 275.832 242.752C275.718 242.787 275.514 242.305 275.449 241.686C275.383 241.067 275.498 240.551 275.62 240.559Z" fill="#FF9A6C"/>
<path d="M272.764 240.714C272.854 240.628 273.662 241.574 274.951 242.228C276.24 242.881 277.399 243.088 277.399 243.191C276.479 243.329 275.543 243.129 274.747 242.623C273.894 242.252 273.192 241.576 272.764 240.714Z" fill="#FF9A6C"/>
<path d="M263.511 241.135C263.92 241.173 264.314 241.321 264.653 241.565C265.522 242.069 266.268 242.778 266.832 243.638C267.007 243.914 267.165 244.201 267.305 244.498L267.085 244.378C268.147 244.153 269.248 244.252 270.259 244.661C269.221 244.645 268.183 244.694 267.15 244.808H267.003L266.93 244.67C266.796 244.394 266.646 244.127 266.481 243.87C265.664 242.769 264.656 241.841 263.511 241.135Z" fill="#FF9A6C"/>
<path d="M283.805 237.248C284.238 237.613 284.61 238.052 284.906 238.547C285.687 239.691 286.318 240.941 286.783 242.262C287.252 243.584 287.546 244.967 287.656 246.373C287.75 246.942 287.75 247.524 287.656 248.093C287.405 246.16 286.99 244.254 286.416 242.4C285.692 240.604 284.818 238.88 283.805 237.248Z" fill="#FF9A6C"/>
<path d="M211.523 372.191L210.707 395.462C210.707 395.462 232.846 404.2 233.09 408.5L190.218 408.405L190.128 372.079L211.523 372.191Z" fill="#455A64"/>
<path d="M197.472 393.476C197.06 393.606 196.708 393.893 196.485 394.28C196.262 394.668 196.184 395.129 196.264 395.574C196.371 396.015 196.635 396.396 197.001 396.636C197.368 396.876 197.808 396.958 198.231 396.864C198.668 396.724 199.041 396.418 199.276 396.005C199.511 395.591 199.592 395.101 199.504 394.628C199.344 394.183 199.027 393.821 198.62 393.616C198.212 393.411 197.746 393.379 197.317 393.527" fill="#E0E0E0"/>
<path d="M190.218 408.397L190.348 404.733L231.401 406.195C231.401 406.195 233.303 407.055 233.09 408.491L190.218 408.397Z" fill="#263238"/>
<path d="M211.384 395.23C211.384 395.454 210.324 395.548 209.296 396.254C208.267 396.959 207.712 397.888 207.517 397.802C207.321 397.716 207.639 396.443 208.904 395.609C210.169 394.774 211.425 395.032 211.384 395.23Z" fill="white"/>
<path d="M215.873 397.2C215.922 397.415 215.016 397.784 214.298 398.722C213.58 399.659 213.384 400.64 213.172 400.631C212.96 400.622 212.829 399.367 213.743 398.232C214.657 397.096 215.873 396.993 215.873 397.2Z" fill="white"/>
<path d="M218.419 402.876C218.223 402.927 217.937 401.826 218.476 400.614C219.014 399.401 219.994 398.894 220.108 399.117C220.222 399.341 219.586 399.977 219.161 400.941C218.737 401.904 218.623 402.858 218.419 402.876Z" fill="white"/>
<path d="M211.017 389.907C210.928 390.105 209.965 389.804 208.782 389.907C207.598 390.01 206.676 390.38 206.57 390.191C206.464 390.001 207.345 389.219 208.741 389.141C210.136 389.064 211.115 389.735 211.017 389.907Z" fill="white"/>
<path d="M177.161 369.8L163.289 387.86C163.289 387.86 176.035 408.844 173.808 412.456L139.536 385.28L160.107 356.152L177.161 369.8Z" fill="#455A64"/>
<path d="M153.783 377.901C153.377 377.748 152.932 377.757 152.532 377.927C152.132 378.097 151.805 378.415 151.613 378.821C151.449 379.238 151.442 379.705 151.594 380.127C151.745 380.549 152.044 380.894 152.429 381.092C152.859 381.255 153.33 381.245 153.753 381.064C154.177 380.883 154.522 380.544 154.722 380.111C154.848 379.654 154.802 379.163 154.592 378.741C154.382 378.319 154.025 378 153.596 377.85" fill="#E0E0E0"/>
<path d="M139.536 385.28L141.714 382.433L173.742 409.541C173.742 409.541 174.771 411.45 173.791 412.447L139.536 385.28Z" fill="#263238"/>
<path d="M163.942 388.127C163.812 388.299 162.914 387.714 161.69 387.628C160.466 387.542 159.495 387.937 159.389 387.74C159.283 387.542 160.262 386.733 161.747 386.88C163.233 387.026 164.098 387.989 163.942 388.127Z" fill="white"/>
<path d="M166.415 392.538C166.333 392.745 165.395 392.47 164.293 392.762C163.192 393.054 162.465 393.717 162.302 393.579C162.139 393.441 162.751 392.358 164.122 392.014C165.493 391.67 166.537 392.366 166.415 392.538Z" fill="white"/>
<path d="M165.223 398.687C165.044 398.61 165.436 397.544 166.562 396.916C167.688 396.288 168.732 396.529 168.7 396.735C168.667 396.942 167.81 397.062 166.904 397.595C165.999 398.128 165.403 398.808 165.223 398.687Z" fill="white"/>
<path d="M166.676 383.629C166.497 383.732 165.901 382.881 164.906 382.201C163.91 381.522 162.947 381.247 162.972 381.032C162.996 380.817 164.147 380.739 165.314 381.565C166.48 382.39 166.856 383.56 166.676 383.629Z" fill="white"/>
<path d="M209.312 209.212C213.467 208.045 217.709 207.26 221.993 206.864C226.298 206.477 230.627 207.222 234.592 209.032C235.179 209.315 239.112 211.706 238.99 212.377C238.908 212.859 235.196 211.285 234.779 211.517C230.765 213.538 226.113 213.787 221.723 213.031C217.466 212.254 213.303 210.982 209.312 209.238" fill="#263238"/>
<path d="M187.125 207.492L225.689 210.167C236.46 210.726 245.126 217.786 244.302 229.087L244.172 230.127C243.521 235.185 241.088 239.799 237.356 243.053C233.625 246.307 228.869 247.962 224.033 247.689C214.698 247.147 204.392 246.433 199.455 245.659C189.214 244.094 189.018 233.06 189.018 233.06C189.018 233.06 188.104 232.94 185.085 232.647L175.293 225.208L187.125 207.492Z" fill="#FFBF9D"/>
<path d="M189.018 233.06C189.668 228.071 191.665 223.384 194.771 219.558C194.771 219.558 186.611 221.846 186.162 232.75L189.018 233.06Z" fill="#FF9A6C"/>
<path d="M216.77 237.91C216.982 238.082 216.297 239.364 216.501 241.024C216.705 242.683 217.643 243.793 217.472 243.999C217.301 244.206 217.031 243.956 216.599 243.475C216.04 242.817 215.687 241.994 215.587 241.118C215.479 240.252 215.636 239.372 216.036 238.607C216.346 238.048 216.672 237.833 216.77 237.91Z" fill="#263238"/>
<path d="M217.913 223.067C218.1 223.265 217.26 224.434 217.236 226.111C217.211 227.788 217.994 229.027 217.79 229.199C217.709 229.293 217.366 229.087 216.974 228.545C216.511 227.813 216.272 226.948 216.289 226.068C216.309 225.191 216.595 224.344 217.105 223.652C217.48 223.144 217.872 222.972 217.913 223.067Z" fill="#263238"/>
<path d="M208.659 232.673C208.803 233.585 208.842 234.512 208.773 235.434C208.773 235.864 208.773 236.294 209.051 236.388C209.463 236.486 209.893 236.447 210.283 236.276L213.506 235.459C218.092 234.341 221.838 233.593 221.878 233.791C221.919 233.989 218.239 235.047 213.653 236.165L210.389 236.93C209.862 237.134 209.284 237.134 208.757 236.93C208.623 236.848 208.508 236.735 208.422 236.6C208.335 236.464 208.28 236.309 208.259 236.147C208.231 235.905 208.231 235.659 208.259 235.416C208.281 234.488 208.415 233.566 208.659 232.673Z" fill="#263238"/>
<path d="M226.383 229.689C226.015 229.405 226.644 227.857 226.937 225.896C227.231 223.935 227.15 222.267 227.59 222.129C227.794 222.069 228.121 222.456 228.357 223.187C228.63 224.158 228.688 225.182 228.528 226.181C228.368 227.179 227.995 228.126 227.435 228.949C226.986 229.568 226.562 229.818 226.383 229.689Z" fill="#263238"/>
<path d="M224.4 245.513C224.082 245.117 224.612 243.793 224.816 242.185C225.02 240.576 224.914 239.149 225.33 238.882C225.526 238.762 225.861 239.028 226.146 239.673C226.474 240.556 226.57 241.516 226.424 242.451C226.315 243.394 225.963 244.287 225.404 245.031C224.971 245.547 224.58 245.685 224.4 245.513Z" fill="#263238"/>
<path d="M217.986 209.969C218.084 209.797 221.022 202.84 213.988 202.074C206.954 201.309 207.672 208.954 207.868 208.954C208.064 208.954 217.986 209.969 217.986 209.969Z" fill="#FFBF9D"/>
<path d="M210.756 206.976C210.756 206.976 210.683 206.839 210.61 206.606C210.519 206.286 210.548 205.942 210.691 205.643C211.042 204.886 212.282 204.353 213.555 204.456C214.161 204.503 214.749 204.691 215.277 205.007C215.484 205.106 215.665 205.255 215.807 205.442C215.949 205.628 216.047 205.848 216.093 206.082C216.115 206.236 216.085 206.393 216.009 206.526C215.933 206.659 215.816 206.761 215.677 206.813C215.473 206.89 215.334 206.813 215.318 206.864C215.302 206.916 215.424 207.036 215.718 207.011C215.897 206.985 216.064 206.897 216.191 206.761C216.356 206.572 216.444 206.322 216.436 206.065C216.41 205.755 216.308 205.458 216.141 205.202C215.973 204.945 215.746 204.739 215.481 204.603C214.905 204.216 214.245 203.988 213.563 203.94C212.135 203.829 210.732 204.448 210.34 205.488C210.265 205.681 210.232 205.89 210.243 206.098C210.254 206.307 210.31 206.51 210.406 206.692C210.593 206.942 210.748 207.002 210.756 206.976Z" fill="#FF9A6C"/>
<path d="M236.126 244.077C236.648 245.341 240.663 242.099 242.205 239.278C244.522 234.978 246.285 228.304 245.575 224.082C244.686 218.99 242.719 214.622 238.664 211.732C234.516 208.9 229.728 207.282 224.792 207.045C223.299 206.835 221.781 207.049 220.393 207.664C218.761 208.524 217.586 210.442 215.44 210.141C215.054 210.073 214.658 210.088 214.277 210.184C213.896 210.28 213.537 210.456 213.221 210.7C211.727 211.921 212.87 213.71 214.094 214.604C216.705 216.505 219.985 217.021 223.135 217.477C225.357 217.929 227.633 217.996 229.875 217.675C231.083 217.425 232.242 216.952 233.458 216.815C234.061 216.684 234.685 216.693 235.285 216.841C235.886 216.99 236.448 217.274 236.934 217.675C237.125 217.879 237.3 218.101 237.456 218.337C238.22 219.457 238.687 220.772 238.811 222.145C238.934 223.519 238.709 224.903 238.158 226.154C236.379 230.196 233.645 237.128 234.82 239.132C236.518 242.004 237.725 242.769 237.725 242.769L236.126 244.077Z" fill="#263238"/>
<path d="M218.109 206.348C217.977 205.47 217.613 204.649 217.059 203.978C216.504 203.307 215.782 202.814 214.975 202.556C214.975 202.496 215.293 202.461 215.791 202.599C216.424 202.784 216.992 203.161 217.423 203.682C217.856 204.198 218.14 204.834 218.239 205.514C218.239 206.03 218.166 206.348 218.109 206.348Z" fill="white"/>
<path d="M205.207 228.82C205.05 228.43 204.761 228.115 204.397 227.936C204.032 227.757 203.618 227.725 203.233 227.848L203.437 227.754C203.078 227.702 202.713 227.783 202.404 227.982C202.095 228.181 201.86 228.486 201.739 228.846C201.635 229.212 201.635 229.601 201.74 229.967C201.844 230.332 202.048 230.657 202.327 230.901C202.638 231.167 203.019 231.323 203.419 231.349C203.818 231.376 204.215 231.27 204.555 231.048C204.885 230.807 205.129 230.457 205.247 230.053C205.366 229.649 205.352 229.215 205.207 228.82Z" fill="#FF9A6C"/>
<path d="M204.816 230.738C205.052 230.445 205.182 230.073 205.183 229.689C205.215 229.288 205.138 228.885 204.963 228.528C204.643 228.179 204.207 227.976 203.747 227.96C203.287 227.885 202.818 227.989 202.425 228.253C202.267 228.357 202.131 228.495 202.025 228.658C201.92 228.821 201.848 229.005 201.813 229.199C201.782 229.578 201.858 229.958 202.033 230.291C202.033 230.291 201.903 230.291 201.764 230.084C201.582 229.818 201.492 229.493 201.511 229.164C201.533 228.916 201.606 228.677 201.724 228.461C201.842 228.246 202.004 228.06 202.197 227.917C202.67 227.564 203.255 227.419 203.829 227.513C204.116 227.525 204.397 227.602 204.653 227.739C204.909 227.875 205.134 228.068 205.314 228.304C205.529 228.737 205.598 229.235 205.51 229.715C205.483 230.035 205.357 230.337 205.151 230.575C204.93 230.747 204.816 230.764 204.816 230.738Z" fill="#263238"/>
<g opacity="0.1">
<path d="M244.751 222.095C243.631 218.282 241.447 214.913 238.483 212.428C235.52 209.943 231.914 208.456 228.137 208.163L225.297 208.025C224.804 207.955 224.301 208.005 223.829 208.172C223.593 208.261 223.393 208.43 223.26 208.653C223.127 208.876 223.069 209.139 223.094 209.401C223.217 209.986 223.829 210.261 224.375 210.416C227.639 211.336 231.067 211.164 234.225 212.334C237.246 213.454 239.755 215.734 241.253 218.718C242.75 221.702 243.125 225.171 242.303 228.433C242.14 228.919 242.068 229.433 242.091 229.947C242.105 230.205 242.202 230.45 242.364 230.644C242.527 230.837 242.747 230.967 242.988 231.013C243.214 230.994 243.433 230.918 243.624 230.79C243.816 230.663 243.976 230.489 244.09 230.282C245.714 228.003 245.551 224.813 244.751 222.095Z" fill="white"/>
</g>
<path d="M216.191 229.371C216.191 229.422 215.824 229.431 215.31 229.181C214.632 228.844 214.093 228.259 213.793 227.535C213.493 226.81 213.452 225.996 213.678 225.243C213.857 224.675 214.11 224.383 214.151 224.434C214.192 224.486 214.061 224.787 213.971 225.294C213.844 225.98 213.918 226.691 214.183 227.332C214.448 227.972 214.893 228.513 215.457 228.881C215.889 229.199 216.24 229.302 216.191 229.371Z" fill="#FF9A6C"/>
<path d="M214.159 243.5C213.809 242.79 213.691 241.977 213.824 241.189C213.957 240.401 214.333 239.681 214.893 239.14C214.999 239.226 214.436 240.06 214.241 241.273C214.045 242.486 214.281 243.466 214.159 243.5Z" fill="#FF9A6C"/>
<path d="M139.536 272.027C140.025 271.837 174.624 273.618 185.852 274.658C197.08 275.699 216.542 281.28 217.504 295.212C218.32 306.392 218.133 384.308 218.133 384.308H187.941L187.223 301.963L140.327 289.493L139.536 272.027Z" fill="#263238"/>
<g opacity="0.3">
<path d="M164.334 277.273C164.334 277.273 181.144 280.472 194.567 284.488C207.99 288.504 213.914 297.096 215.873 302.213C217.831 307.33 218.761 314.975 214.64 322.147C212.037 326.688 198.99 342.667 198.99 342.667C198.99 342.667 196.297 296.812 196.166 296.115C196.036 295.419 164.334 277.273 164.334 277.273Z" fill="black"/>
</g>
<path d="M214.396 307.424C212.976 298.583 203.477 292.4 191.833 287.799C180.36 283.25 150.34 272.009 150.34 272.009L143.151 270.143H139.936L138.875 266.789C138.875 266.789 118.475 260.571 89.009 272.027L88.0053 272.887C88.0053 272.887 87.1158 295.539 91.2693 300.407C91.2693 300.407 138.206 299.71 140.67 299.925C143.134 300.14 177.553 316.6 177.553 316.6L148.087 364.236L172.453 382.175C172.453 382.175 187.141 360.108 196.117 346.915C208.936 327.978 216.076 317.865 214.396 307.424Z" fill="#263238"/>
<path d="M214.396 307.424C214.396 307.424 214.469 307.957 214.591 308.998C214.716 310.539 214.661 312.09 214.428 313.616C214.018 316.089 213.296 318.492 212.282 320.763C210.921 323.846 209.353 326.824 207.59 329.672C203.69 336.148 198.402 343.647 192.535 352.488L172.592 382.279L172.494 382.425L172.355 382.322L147.981 364.399L147.834 364.287L147.932 364.124C156.949 349.547 166.896 333.439 177.382 316.48L177.463 316.798C170.935 313.679 164.239 310.526 157.373 307.338C153.946 305.764 150.495 304.182 146.994 302.643C145.24 301.894 143.485 301.103 141.69 300.45C141.474 300.366 141.253 300.297 141.029 300.243C140.811 300.165 140.582 300.13 140.352 300.14C139.887 300.14 139.405 300.14 138.932 300.14H136.051C120.67 300.226 105.672 300.45 91.2775 300.647H91.1795L91.1143 300.579C90.3951 299.607 89.8629 298.497 89.5475 297.311C89.2014 296.165 88.9288 294.995 88.7315 293.81C88.3403 291.48 88.0679 289.129 87.9155 286.767C87.6299 282.08 87.6055 277.47 87.7442 272.93V272.835L87.8176 272.775L88.8213 271.915C97.1457 268.674 105.817 266.525 114.64 265.516C118.769 265.05 122.926 264.906 127.075 265.086C131.063 265.163 135.034 265.671 138.924 266.6H139.013V266.695C139.381 267.873 139.723 268.974 140.066 270.057L139.903 269.937H143.167L150.364 271.812L179.544 282.949L191.539 287.532C194.899 288.838 198.171 290.384 201.331 292.159C207.043 295.358 210.846 299.117 212.535 302.273C212.915 302.954 213.253 303.661 213.547 304.388C213.746 304.923 213.917 305.469 214.061 306.022C214.257 306.925 214.338 307.381 214.338 307.381C214.338 307.381 214.224 306.925 214.02 306.031C213.922 305.584 213.694 305.059 213.482 304.423C213.376 304.096 213.188 303.778 213.033 303.425C212.866 303.043 212.673 302.675 212.453 302.324C210.748 299.203 206.945 295.496 201.242 292.323C198.08 290.568 194.808 289.042 191.45 287.756L179.52 283.25L150.323 272.173L143.134 270.307H139.87V270.186L138.72 266.841L138.842 266.961C135.019 266.02 131.115 265.49 127.19 265.379C123.059 265.204 118.921 265.354 114.811 265.826C106.021 266.839 97.3825 268.988 89.0906 272.224H89.1477L88.144 273.084L88.2175 272.93C88.0787 277.445 88.1114 282.063 88.397 286.69C88.5357 289.036 88.7917 291.372 89.164 293.69C89.3702 294.853 89.6427 296.002 89.98 297.13C90.2813 298.258 90.7855 299.315 91.4651 300.243L91.3101 300.166C105.712 299.968 120.686 299.736 136.092 299.65H138.973C139.454 299.65 139.936 299.65 140.417 299.65C140.666 299.648 140.914 299.688 141.151 299.77C141.396 299.825 141.636 299.9 141.869 299.994C143.689 300.656 145.435 301.439 147.198 302.195C150.699 303.735 154.158 305.317 157.577 306.9C164.421 310.064 171.12 313.218 177.676 316.36L177.896 316.463L177.765 316.678L148.291 364.305L148.242 364.029L172.592 381.986H172.355L192.355 352.23C198.239 343.407 203.551 335.89 207.468 329.483C209.225 326.673 210.793 323.736 212.16 320.694C213.179 318.44 213.911 316.055 214.338 313.599C214.578 312.079 214.649 310.535 214.551 308.998C214.436 307.966 214.396 307.424 214.396 307.424Z" fill="#455A64"/>
<path d="M192.176 310.795C191.406 310.986 190.627 311.132 189.842 311.234C186.104 311.952 182.538 313.443 179.348 315.62C178.124 316.48 177.406 317.03 177.357 316.979C177.891 316.355 178.504 315.811 179.177 315.362C180.745 314.187 182.444 313.219 184.236 312.481C186.027 311.74 187.895 311.229 189.801 310.959C190.584 310.804 191.381 310.749 192.176 310.795Z" fill="#455A64"/>
<path d="M186.88 232.518V235.244L180.572 235.864L180.213 234.47L181.911 230.317L186.88 232.518Z" fill="#70B8F3"/>
<path d="M181.951 234.668L173.808 251.851L175.611 282.691L171.523 289.416L167.223 281.659L167.965 252.315L180.646 233.404L181.951 234.668Z" fill="#70B8F3"/>
<path d="M184.416 205.996C184.416 205.996 172.927 201.403 161.821 200.638C150.715 199.873 136.982 207.724 130.421 210.795C123.86 213.865 98.7767 240.035 93.3503 248.738C90.2413 253.743 86.096 265.078 86.096 265.078C85.3943 269.034 88.0136 272.887 88.0136 272.887L138.516 273.282H147.99L151.996 264.261C151.996 264.261 159.642 263.685 161.829 259.273C164.016 254.861 172.029 248.334 172.029 248.334L181.152 232.424L187.158 233.765L190.487 206.735L184.416 205.996Z" fill="#E0E0E0"/>
<path d="M146.978 218.096C146.935 218.414 146.859 218.726 146.749 219.025C146.561 219.713 146.325 220.538 146.039 221.519C145.287 224.261 144.672 227.043 144.195 229.852C143.731 232.667 143.413 235.506 143.24 238.358C143.191 239.372 143.142 240.241 143.11 240.938C143.112 241.258 143.082 241.578 143.02 241.892C142.954 241.579 142.926 241.258 142.938 240.938C142.938 240.327 142.938 239.433 142.938 238.358C143.014 235.474 143.287 232.6 143.754 229.758C144.228 226.929 144.888 224.139 145.729 221.407C146.056 220.358 146.349 219.524 146.545 218.956C146.657 218.653 146.802 218.364 146.978 218.096Z" fill="#263238"/>
<path d="M169.116 324.143C169.116 324.143 172.576 328.391 173.645 329.93C174.608 331.306 175.562 336.346 175.929 341.265C175.955 341.558 175.912 341.852 175.803 342.123C175.694 342.393 175.523 342.631 175.305 342.814C175.088 342.997 174.83 343.121 174.556 343.173C174.282 343.226 173.999 343.205 173.734 343.114C173.503 343.021 173.3 342.866 173.143 342.663C172.987 342.461 172.884 342.219 172.845 341.962C172.102 338.401 171.907 336.888 171.907 336.888C171.809 335.168 171.637 335.409 171.588 336.57C171.539 337.731 172.404 344.155 172.404 344.155C172.404 344.155 174.738 352.918 174.11 353.899C173.976 354.094 173.802 354.254 173.601 354.369C173.399 354.483 173.176 354.548 172.948 354.559C172.72 354.569 172.492 354.526 172.282 354.431C172.072 354.336 171.885 354.192 171.735 354.01C171.417 353.555 168.789 346.27 168.789 346.27L168.096 342.28C168.096 342.28 169.45 354.888 168.692 355.877C168.579 356.057 168.428 356.207 168.25 356.314C168.072 356.42 167.872 356.481 167.668 356.491C167.463 356.501 167.259 356.46 167.073 356.371C166.886 356.283 166.722 356.148 166.594 355.98C166.064 355.481 165.525 349.908 165.525 349.908L164.293 342.469L164.514 356.651C164.514 356.651 164.375 357.992 163.371 358.044C162.368 358.095 161.739 356.539 161.739 356.539L160.295 341.919C160.295 341.919 160.76 350.046 160.238 350.476C159.544 351.043 158.916 350.854 158.687 350.226C158.222 348.962 157.545 341.626 157.545 341.626L156.908 327.712L156.443 323.111L167.998 318.75L169.116 324.143Z" fill="#FFBF9D"/>
<g opacity="0.3">
<path d="M144.081 237.24C140.491 248.953 137.961 260.998 136.525 273.213C136.666 277.636 137.147 282.039 137.961 286.38C139.291 293.337 150.119 323.506 150.119 323.506L157.537 324.186L151.286 270.59L157.537 245.539L144.081 237.24Z" fill="black"/>
</g>
<path d="M177.333 214.389C182.417 216.041 183.371 226.902 182.278 229.998C178.777 239.931 167.59 249.262 167.753 248.721L160.482 279.199L170.789 320.479L154.126 326.766C154.126 326.766 138.924 284.385 138.622 277.746C138.32 271.106 142.849 253.803 143.518 243.457C143.95 236.81 147.149 223.325 154.942 215.387" fill="#E0E0E0"/>
<path d="M154.95 215.327C154.95 215.327 154.828 215.482 154.575 215.774C154.322 216.066 153.93 216.488 153.449 217.073C152.076 218.798 150.853 220.648 149.793 222.602C148.135 225.721 146.795 229.016 145.794 232.432C145.15 234.563 144.635 236.734 144.252 238.934C144.056 240.103 143.877 241.307 143.771 242.554C143.665 243.801 143.591 245.134 143.42 246.416C142.832 251.679 141.739 257.381 140.637 263.521C140.099 266.583 139.528 269.765 139.12 273.059C138.887 274.721 138.813 276.403 138.899 278.081L139.071 279.337L139.348 280.592C139.519 281.452 139.748 282.312 139.976 283.172C140.866 286.561 141.927 290.001 143.036 293.492C144.146 296.984 145.321 300.57 146.537 304.208C148.985 311.475 151.58 318.991 154.322 326.68L154.052 326.551L161.796 323.627L170.715 320.264L170.585 320.531C166.921 305.85 163.453 291.936 160.295 279.251V279.147C162.996 267.899 165.452 257.647 167.598 248.678L167.9 248.764C167.907 248.74 167.908 248.716 167.904 248.692C167.899 248.668 167.89 248.646 167.875 248.627C167.86 248.608 167.842 248.594 167.82 248.585C167.799 248.575 167.776 248.572 167.753 248.574H167.802L167.916 248.506L168.145 248.342L168.602 247.981L169.483 247.233C170.054 246.717 170.609 246.201 171.115 245.676C172.192 244.636 173.204 243.569 174.15 242.503C175.942 240.505 177.579 238.36 179.046 236.087C180.346 234.121 181.402 231.988 182.188 229.74C182.592 227.775 182.642 225.748 182.335 223.763C181.878 220.16 180.752 217.477 179.528 216.023C178.907 215.299 178.136 214.734 177.276 214.372C177.276 214.372 177.504 214.458 177.937 214.647C178.207 214.766 178.46 214.926 178.687 215.12C179.024 215.364 179.329 215.653 179.593 215.98C180.858 217.391 182.041 220.091 182.506 223.72C182.638 224.678 182.709 225.643 182.718 226.61C182.748 227.681 182.638 228.752 182.392 229.792C181.614 232.068 180.558 234.228 179.25 236.216C177.785 238.509 176.147 240.674 174.354 242.692C173.4 243.767 172.388 244.842 171.311 245.891C170.772 246.424 170.217 246.949 169.679 247.465C169.393 247.714 169.099 247.972 168.798 248.222L168.332 248.592L168.088 248.764L167.957 248.85H167.875H167.802C167.773 248.853 167.744 248.849 167.717 248.839C167.69 248.828 167.666 248.81 167.647 248.787C167.627 248.765 167.614 248.737 167.607 248.708C167.6 248.678 167.599 248.647 167.606 248.617L167.916 248.703L160.678 279.19V279.087L171.001 320.367L171.05 320.565L170.87 320.634L161.951 323.996L154.199 326.92L154.003 326.998L153.93 326.791C151.188 319.094 148.593 311.569 146.154 304.302C144.946 300.665 143.763 297.087 142.661 293.578C141.559 290.069 140.507 286.612 139.609 283.207C139.381 282.347 139.16 281.487 138.989 280.627C138.891 280.197 138.801 279.767 138.712 279.354C138.622 278.941 138.589 278.494 138.532 278.047C138.446 276.345 138.525 274.64 138.769 272.955C139.185 269.636 139.756 266.462 140.311 263.392C141.429 257.252 142.539 251.567 143.142 246.313C143.314 245.005 143.379 243.733 143.502 242.468C143.624 241.204 143.803 239.992 144.007 238.822C144.4 236.616 144.926 234.438 145.582 232.303C146.599 228.877 147.967 225.578 149.662 222.465C150.734 220.505 151.983 218.659 153.391 216.952C154.387 215.86 154.95 215.327 154.95 215.327Z" fill="#263238"/>
<path d="M181.968 221.441C181.884 220.681 181.884 219.914 181.968 219.154C182.047 217.317 182.216 215.486 182.474 213.667C182.73 211.848 183.079 210.046 183.518 208.266C183.659 207.515 183.887 206.784 184.195 206.09C184.126 206.848 183.997 207.599 183.812 208.335C183.543 209.711 183.2 211.62 182.898 213.736C182.596 215.851 182.4 217.778 182.27 219.18C182.234 219.942 182.133 220.699 181.968 221.441Z" fill="#263238"/>
<g opacity="0.3">
<path d="M183.812 206.727C183.641 206.649 183.461 206.83 183.347 206.993C182.281 208.298 181.429 209.78 180.826 211.379C179.92 214.235 180.883 217.399 181.707 220.323C182.475 223.114 182.751 226.028 182.523 228.923L182.319 229.93C183.196 228.118 183.444 226.04 183.021 224.056C182.592 222.091 182.26 220.105 182.025 218.105C181.837 214.415 183.249 210.872 183.951 207.26C183.992 207.088 184 206.804 183.812 206.727Z" fill="black"/>
</g>
<path d="M126.88 287.532H121.682V326.731H126.88V287.532Z" fill="#E0E0E0"/>
<path d="M47.3685 261.922C47.8328 263.081 48.6828 264.021 49.7588 264.566C50.8347 265.11 52.0624 265.222 53.2111 264.88C65.393 261.344 78.2376 261.205 90.486 264.476C107.679 268.974 113.954 278.735 116.288 284.875C116.86 286.345 117.837 287.601 119.091 288.482C120.346 289.363 121.822 289.829 123.33 289.82H124.032C124.757 289.815 125.472 289.639 126.125 289.307C126.778 288.975 127.353 288.494 127.808 287.899C128.264 287.304 128.588 286.61 128.757 285.867C128.927 285.124 128.938 284.35 128.789 283.602C127.01 275.088 116.263 260.296 97.0548 254.827C73.9375 248.239 57.8868 252.625 50.4204 255.076C49.7787 255.292 49.1861 255.645 48.6798 256.113C48.1735 256.581 47.7644 257.155 47.4779 257.797C47.1915 258.44 47.0339 259.138 47.0151 259.847C46.9963 260.557 47.1166 261.263 47.3685 261.922Z" fill="#455A64"/>
<path d="M47.3685 261.922C47.3685 261.922 47.2951 261.758 47.1808 261.423C46.984 260.763 46.9152 260.068 46.9782 259.38C47.0413 258.691 47.2351 258.023 47.548 257.415C48.0895 256.376 48.954 255.565 49.996 255.119C56.6539 252.798 63.5917 251.489 70.6 251.232C75.4328 251.05 80.2714 251.318 85.0595 252.032C86.3488 252.247 87.6626 252.444 88.9845 252.685L93.0074 253.545L97.0874 254.612C98.4419 255.076 99.8536 255.472 101.225 255.996C102.595 256.521 103.999 257.071 105.353 257.768C106.031 258.112 106.732 258.404 107.402 258.791L109.425 259.935C112.154 261.57 114.735 263.464 117.137 265.594C119.62 267.808 121.872 270.296 123.852 273.016L124.603 274.056L125.297 275.157C125.517 275.518 125.762 275.879 125.974 276.258L126.594 277.41C127.439 278.958 128.12 280.599 128.626 282.304C128.732 282.742 128.854 283.164 128.96 283.611C129.043 284.064 129.074 284.526 129.05 284.987C128.972 286.37 128.387 287.667 127.419 288.604C126.451 289.541 125.175 290.045 123.86 290.009C122.177 290.107 120.507 289.654 119.079 288.711C117.675 287.773 116.596 286.382 116.002 284.746C115.413 283.217 114.686 281.751 113.832 280.369C113.432 279.663 112.95 279.027 112.502 278.373C112.053 277.72 111.555 277.101 111.025 276.524C109.005 274.212 106.693 272.204 104.154 270.556C101.735 268.994 99.1799 267.678 96.5243 266.626C94.007 265.655 91.4308 264.862 88.8131 264.252C84.1246 263.114 79.342 262.46 74.5331 262.3C67.5632 262.051 60.5963 262.883 53.8557 264.768C53.2955 264.964 52.7144 265.085 52.1258 265.129C51.4579 265.16 50.7911 265.046 50.1666 264.794C49.5421 264.543 48.9731 264.159 48.4946 263.667C48.0164 263.186 47.6457 262.598 47.4093 261.947C47.6952 262.574 48.0848 263.142 48.5599 263.624C49.137 264.186 49.8339 264.593 50.5917 264.811C51.082 264.942 51.5878 264.997 52.0931 264.975C52.6705 264.92 53.2399 264.796 53.7904 264.605C60.5506 262.65 67.5516 261.781 74.5576 262.025C79.3954 262.15 84.2092 262.784 88.9274 263.917C91.5607 264.524 94.1531 265.314 96.6875 266.282C99.3722 267.337 101.954 268.662 104.399 270.238C106.971 271.897 109.314 273.922 111.359 276.258C111.898 276.834 112.355 277.496 112.861 278.124C113.367 278.752 113.799 279.44 114.207 280.154C115.082 281.555 115.822 283.044 116.418 284.6C116.984 286.151 118.008 287.468 119.34 288.358C120.701 289.253 122.291 289.682 123.893 289.588C125.1 289.624 126.273 289.162 127.163 288.301C128.052 287.441 128.589 286.249 128.658 284.978C128.68 284.555 128.653 284.13 128.577 283.714C128.479 283.293 128.357 282.854 128.25 282.45C127.754 280.776 127.087 279.164 126.259 277.642L125.664 276.49C125.452 276.12 125.215 275.759 124.986 275.398L124.277 274.34L123.534 273.308C121.571 270.615 119.342 268.15 116.884 265.955C114.503 263.842 111.943 261.962 109.238 260.339L107.238 259.195C106.577 258.808 105.876 258.525 105.207 258.181C103.86 257.484 102.473 256.968 101.127 256.418C99.7802 255.867 98.3685 255.489 97.0466 255.033L92.9666 253.958L88.96 253.098C87.6381 252.849 86.3325 252.651 85.0514 252.427C80.2831 251.703 75.4643 251.415 70.649 251.567C63.6685 251.796 56.7526 253.053 50.1021 255.3C49.0855 255.716 48.2396 256.495 47.7112 257.501C47.3154 258.23 47.0994 259.052 47.0829 259.892C47.0633 260.581 47.16 261.268 47.3685 261.922Z" fill="#263238"/>
<path d="M55.8957 259.849C55.8957 260.671 55.6646 261.474 55.2315 262.157C54.7984 262.84 54.1829 263.372 53.4627 263.687C52.7426 264.001 51.9501 264.083 51.1856 263.923C50.421 263.763 49.7188 263.367 49.1676 262.786C48.6164 262.205 48.241 261.465 48.0889 260.659C47.9368 259.854 48.0149 259.018 48.3132 258.259C48.6115 257.5 49.1167 256.852 49.7648 256.395C50.4129 255.939 51.175 255.695 51.9545 255.695C52.4723 255.694 52.9853 255.801 53.464 256.009C53.9427 256.217 54.3776 256.523 54.7438 256.909C55.11 257.295 55.4002 257.754 55.5979 258.258C55.7956 258.763 55.8968 259.303 55.8957 259.849Z" fill="white"/>
<path d="M289.68 232.071H308.269L306.816 242.847C306.816 242.847 305.608 248.144 302.736 248.144H294.682C293.692 247.505 292.835 246.661 292.162 245.663C291.489 244.666 291.014 243.535 290.765 242.339L289.68 232.071Z" fill="#455A64"/>
<path d="M289.68 232.071C289.707 232.184 289.726 232.299 289.737 232.415C289.737 232.656 289.811 232.974 289.868 233.37C289.974 234.23 290.129 235.442 290.325 236.956C290.521 238.469 290.749 240.344 291.01 242.451C291.264 243.603 291.735 244.689 292.395 245.645C293.055 246.601 293.891 247.407 294.854 248.015H294.78H301.218C301.79 248.015 302.369 248.015 302.932 248.015C303.489 247.982 304.017 247.745 304.425 247.345C305.278 246.482 305.92 245.413 306.294 244.231C306.459 243.778 306.6 243.316 306.718 242.847C307.216 239.037 307.689 235.416 308.122 232.071L308.269 232.252L294.927 232.174L291.084 232.131H290.047H289.68C289.791 232.117 289.904 232.117 290.015 232.131H291.018L294.829 232.088L308.269 232.011H308.432V232.183C307.999 235.528 307.534 239.157 307.053 242.959C306.937 243.444 306.793 243.92 306.62 244.386C306.222 245.621 305.548 246.736 304.654 247.637C304.193 248.084 303.598 248.346 302.973 248.377C302.385 248.377 301.814 248.377 301.243 248.377H294.805H294.764C293.77 247.743 292.909 246.903 292.233 245.908C291.557 244.914 291.08 243.784 290.831 242.589C290.561 240.43 290.382 238.547 290.211 236.999C290.039 235.451 289.925 234.273 289.843 233.413L289.745 232.475C289.708 232.344 289.687 232.208 289.68 232.071Z" fill="#263238"/>
<path d="M306.816 237.627L307.094 237.558C306.922 237.558 307.143 237.558 307.175 237.558C307.376 237.545 307.578 237.545 307.779 237.558C307.583 237.558 307.779 237.558 307.853 237.558L308.171 237.644L308.432 237.73C308.554 237.773 308.432 237.73 308.383 237.73L308.554 237.816C308.732 237.917 308.903 238.029 309.068 238.151C309.175 238.229 309.068 238.151 309.028 238.151L309.134 238.246C309.214 238.322 309.29 238.402 309.362 238.487C309.419 238.555 309.534 238.719 309.428 238.555C309.493 238.65 309.55 238.745 309.607 238.839C309.664 238.934 309.697 239.02 309.738 239.106C309.778 239.192 309.738 239.106 309.738 239.054C309.764 239.115 309.786 239.179 309.803 239.243C309.84 239.353 309.87 239.465 309.893 239.579C309.893 239.622 309.95 239.906 309.933 239.768C309.917 239.63 309.933 239.914 309.933 239.957C309.942 240.075 309.942 240.192 309.933 240.31C309.933 240.379 309.933 240.447 309.933 240.516C309.933 240.585 309.933 240.697 309.933 240.516C309.923 240.58 309.91 240.643 309.893 240.705C309.877 240.805 309.852 240.903 309.819 240.998C309.819 241.075 309.697 241.342 309.819 241.135C309.732 241.335 309.631 241.527 309.517 241.712L309.436 241.832C309.436 241.832 309.55 241.694 309.436 241.789C309.321 241.884 309.264 241.978 309.175 242.073C309.085 242.167 308.938 242.271 309.036 242.202C309.134 242.133 308.913 242.279 308.881 242.296L308.636 242.443L308.514 242.511C308.579 242.511 308.652 242.434 308.514 242.511C308.448 242.511 308.089 242.632 307.877 242.692C307.665 242.752 307.934 242.692 307.951 242.692H307.763H307.126H306.947L306.588 242.572C306.743 242.64 306.465 242.503 306.465 242.503C306.338 242.424 306.198 242.373 306.052 242.352C305.906 242.33 305.758 242.34 305.616 242.379C305.473 242.418 305.339 242.486 305.222 242.58C305.105 242.673 305.006 242.79 304.931 242.924C304.857 243.058 304.808 243.206 304.788 243.36C304.768 243.513 304.776 243.67 304.814 243.82C304.851 243.97 304.916 244.111 305.004 244.235C305.093 244.358 305.204 244.463 305.331 244.541C306.403 245.129 307.646 245.269 308.812 244.934C309.978 244.6 310.981 243.814 311.623 242.735C312.227 241.604 312.413 240.278 312.145 239.011C312.009 238.395 311.758 237.814 311.408 237.3C311.058 236.787 310.615 236.351 310.105 236.018C309.542 235.646 308.913 235.399 308.256 235.294C307.599 235.189 306.928 235.228 306.286 235.408C305.999 235.491 305.756 235.691 305.609 235.964C305.462 236.236 305.424 236.559 305.503 236.861C305.582 237.163 305.771 237.42 306.03 237.575C306.288 237.73 306.595 237.77 306.882 237.687L306.816 237.627Z" fill="#455A64"/>
<path d="M306.816 237.627C306.699 237.686 306.569 237.709 306.441 237.695C306.248 237.685 306.061 237.625 305.895 237.52C305.73 237.415 305.592 237.268 305.494 237.093C305.414 236.951 305.361 236.794 305.338 236.63C305.316 236.467 305.325 236.3 305.365 236.14C305.404 235.98 305.473 235.83 305.568 235.698C305.663 235.566 305.782 235.456 305.918 235.373C306.261 235.209 306.628 235.11 307.004 235.081C307.418 235.026 307.838 235.026 308.252 235.081C309.204 235.232 310.092 235.674 310.806 236.354C311.639 237.133 312.173 238.207 312.308 239.372C312.473 240.661 312.183 241.968 311.492 243.045C311.111 243.607 310.625 244.08 310.064 244.435C309.502 244.79 308.877 245.019 308.228 245.109C307.647 245.195 307.057 245.178 306.481 245.057C306.205 244.989 305.932 244.903 305.665 244.799L305.274 244.61C305.13 244.542 305.002 244.442 304.898 244.317C304.706 244.065 304.601 243.751 304.601 243.427C304.601 243.103 304.706 242.789 304.898 242.537C305.1 242.303 305.372 242.148 305.669 242.098C305.965 242.048 306.269 242.106 306.53 242.262L306.318 242.4C306.32 242.362 306.333 242.326 306.357 242.298C306.381 242.269 306.413 242.251 306.449 242.245C306.53 242.245 306.539 242.245 306.53 242.245H306.588C306.588 242.15 306.702 242.486 306.522 242.52H306.432H306.367V242.477C306.286 242.133 306.596 242.228 306.506 242.219H306.555L306.669 242.262C306.821 242.313 306.977 242.353 307.134 242.382C307.134 242.382 307.134 242.382 307.216 242.425C307.297 242.468 307.265 242.425 307.257 242.572C307.248 242.718 307.142 242.692 307.134 242.692H307.061H306.996H306.938C306.938 242.692 306.857 242.649 306.898 242.503C306.938 242.357 307.004 242.434 307.02 242.425H307.387C307.542 242.434 307.697 242.434 307.852 242.425V242.718H307.803H307.73C307.693 242.718 307.658 242.702 307.632 242.675C307.615 242.651 307.606 242.623 307.606 242.593C307.606 242.564 307.615 242.535 307.632 242.511C307.632 242.451 307.632 242.468 307.632 242.46L307.697 242.417H307.828L308.064 242.348L308.309 242.279H308.415C308.358 242.219 308.415 242.572 308.497 242.529H308.554H308.505L308.375 242.271L308.693 242.09L308.84 241.995C308.869 241.987 308.9 241.987 308.929 241.995C308.956 242.004 308.981 242.019 309.003 242.038C309.025 242.066 309.037 242.101 309.037 242.137C309.037 242.173 309.025 242.208 309.003 242.236H308.954C308.928 242.247 308.899 242.247 308.872 242.236C308.849 242.232 308.828 242.222 308.809 242.207C308.791 242.192 308.776 242.172 308.766 242.15C308.717 242.073 308.815 241.961 308.766 241.987C308.861 241.916 308.948 241.835 309.027 241.746L309.142 241.617C309.142 241.617 309.28 241.617 309.313 241.712C309.346 241.806 309.313 241.78 309.313 241.798L309.264 241.858L309.052 241.694C309.199 241.479 309.305 241.247 309.427 241.032L309.656 241.144V241.187C309.656 241.187 309.656 241.187 309.558 241.187C309.542 241.186 309.526 241.181 309.512 241.174C309.497 241.166 309.484 241.156 309.474 241.143C309.463 241.13 309.455 241.116 309.45 241.099C309.444 241.083 309.442 241.066 309.444 241.049V240.955C309.466 240.902 309.485 240.847 309.501 240.791C309.501 240.68 309.558 240.568 309.582 240.456V240.37C309.582 240.37 309.582 240.37 309.631 240.293C309.649 240.282 309.668 240.276 309.688 240.276C309.708 240.276 309.728 240.282 309.745 240.293H309.794C309.803 240.326 309.803 240.362 309.794 240.396V240.482C309.876 240.576 309.452 240.533 309.566 240.482V240.404C309.562 240.379 309.562 240.353 309.566 240.327C309.566 240.215 309.566 240.103 309.566 240C309.574 239.894 309.574 239.788 309.566 239.682V239.587C309.568 239.567 309.574 239.547 309.584 239.529C309.594 239.512 309.607 239.496 309.623 239.484C309.64 239.472 309.66 239.465 309.68 239.465C309.701 239.465 309.721 239.472 309.737 239.484C309.747 239.488 309.755 239.493 309.762 239.501C309.769 239.508 309.775 239.517 309.778 239.527C309.778 239.57 309.778 239.57 309.778 239.57V239.622C309.782 239.639 309.782 239.656 309.778 239.673C309.778 239.673 309.778 239.673 309.713 239.716C309.688 239.723 309.661 239.721 309.638 239.71C309.614 239.699 309.594 239.68 309.582 239.656L309.541 239.467C309.501 239.272 309.449 239.079 309.386 238.891L309.582 238.813V238.856C309.585 238.869 309.584 238.883 309.581 238.896C309.578 238.909 309.573 238.921 309.565 238.932C309.557 238.942 309.548 238.951 309.537 238.957C309.525 238.963 309.513 238.967 309.501 238.968C309.419 238.968 309.419 238.968 309.411 238.968C309.411 238.968 309.411 238.899 309.354 238.865L309.272 238.684L309.076 238.366L309.24 238.254V238.297C309.247 238.312 309.252 238.328 309.252 238.345C309.252 238.361 309.247 238.378 309.24 238.392C309.231 238.406 309.218 238.418 309.204 238.426C309.19 238.434 309.174 238.438 309.158 238.438C309.142 238.438 309.126 238.434 309.112 238.426C309.097 238.418 309.085 238.406 309.076 238.392L309.019 238.315C308.983 238.265 308.942 238.219 308.897 238.177L308.66 237.936L308.774 237.799H308.823C308.628 238.082 308.742 237.867 308.701 237.928L308.595 237.859L308.391 237.721C308.272 237.635 308.147 237.56 308.016 237.498L308.081 237.351H308.146H308.195C308.195 237.351 308.236 237.455 308.195 237.472H308.154H308.448L308.317 237.42L308.073 237.343L307.844 237.283H307.738C307.787 237.283 307.64 237.343 307.738 237.162H307.828V237.283H307.289H307.085C307.085 237.283 307.085 237.283 307.085 237.231H307.208C307.208 237.231 307.208 237.231 307.208 237.274H307.142C307.041 237.299 306.937 237.313 306.832 237.317C306.928 237.267 307.029 237.232 307.134 237.214H307.175H307.085H307.828V237.334H307.738C307.836 237.145 307.681 237.231 307.738 237.214H307.869L308.113 237.265L308.366 237.343L308.497 237.386C308.448 237.592 308.448 237.515 308.44 237.523H308.358L308.424 237.377C308.559 237.442 308.69 237.516 308.815 237.601L309.027 237.73L309.142 237.799L309.101 237.867L309.044 237.816L309.158 237.678C309.246 237.754 309.331 237.834 309.411 237.919C309.411 237.971 309.501 238.005 309.55 238.065L309.607 238.143C309.607 238.143 309.566 238.143 309.55 238.143V238.1L309.713 237.988C309.778 238.091 309.852 238.194 309.917 238.315L310.007 238.495C310.007 238.495 310.064 238.547 310.007 238.59L309.949 238.641C309.928 238.634 309.905 238.634 309.884 238.641H309.843V238.581L310.039 238.504C310.112 238.703 310.172 238.907 310.219 239.114V239.192V239.252C310.219 239.252 310.219 239.252 310.153 239.252C310.088 239.252 310.153 239.252 310.113 239.252C310.104 239.248 310.094 239.246 310.084 239.246C310.074 239.246 310.065 239.248 310.056 239.252H310.007H310.072H310.113C310.113 239.252 310.153 239.252 310.162 239.252H310.08V239.312C310.08 239.415 310.08 239.544 310.08 239.656C310.092 239.771 310.092 239.886 310.08 240C310.084 240.032 310.084 240.063 310.08 240.095C310.08 240.095 310.039 240.095 309.982 240.095H309.843V240.017C309.843 240.017 309.925 240.017 309.909 240.017C310.088 240.017 310.015 240.017 310.031 240.017V240.103C310.031 240.215 309.974 240.344 309.941 240.465C309.929 240.527 309.909 240.587 309.884 240.645V240.723C309.566 240.585 309.68 240.619 309.672 240.602V240.559L309.9 240.671C309.77 240.903 309.664 241.153 309.509 241.385L309.297 241.221L309.354 241.153H309.403C309.403 241.153 309.46 241.153 309.476 241.213V241.256C309.476 241.256 309.525 241.325 309.517 241.307L309.395 241.445C309.311 241.538 309.221 241.624 309.125 241.703C309.068 241.651 309.068 241.608 309.052 241.617C309.036 241.626 309.052 241.617 309.052 241.574L309.011 241.497C309.011 241.497 309.052 241.548 309.011 241.557C308.97 241.565 309.011 241.634 309.011 241.634C309.01 241.652 309.014 241.67 309.022 241.686C309.031 241.701 309.044 241.713 309.06 241.72H309.019L308.864 241.823L308.538 242.013L308.407 241.755H308.464H308.562C308.685 241.755 308.709 242.073 308.644 242.004H308.603L308.472 242.056L308.228 242.124L307.975 242.193H307.852C307.852 242.193 307.852 242.262 307.803 242.064C307.803 242.064 307.803 241.892 307.803 241.909H307.918V242.202C307.752 242.215 307.586 242.215 307.42 242.202C307.336 242.21 307.251 242.21 307.167 242.202H307.077V242.056C307.077 242.056 307.077 241.97 307.077 241.927H307.167C307.167 241.927 307.167 241.995 307.167 242.004C307.167 242.013 307.167 242.004 307.167 242.056C307.167 242.056 307.167 242.056 307.167 242.116C307.174 242.141 307.174 242.168 307.167 242.193C306.999 242.159 306.833 242.116 306.669 242.064L306.547 242.021H306.473V241.97C306.475 241.941 306.475 241.912 306.473 241.884C306.579 241.66 306.522 241.763 306.539 241.737H306.588C306.588 241.737 306.588 241.841 306.547 241.858L306.481 241.978H306.424C306.454 241.987 306.485 241.987 306.514 241.978C306.537 241.973 306.558 241.963 306.576 241.948C306.595 241.933 306.61 241.914 306.62 241.892V241.849C306.62 241.849 306.62 241.849 306.506 241.849L306.408 241.995C306.21 241.883 305.981 241.842 305.759 241.879C305.536 241.916 305.331 242.03 305.176 242.202C305.034 242.395 304.956 242.632 304.956 242.877C304.956 243.121 305.034 243.359 305.176 243.552C305.365 243.723 305.584 243.855 305.82 243.939C306.072 244.038 306.332 244.116 306.596 244.171C307.132 244.29 307.684 244.311 308.228 244.231C308.838 244.152 309.426 243.94 309.954 243.608C310.482 243.277 310.939 242.833 311.296 242.305C311.962 241.304 312.253 240.079 312.112 238.865C311.994 237.767 311.501 236.752 310.725 236.01C310.043 235.349 309.191 234.915 308.277 234.763C307.539 234.618 306.779 234.683 306.073 234.952C305.947 235.031 305.836 235.135 305.748 235.259C305.66 235.383 305.596 235.524 305.559 235.674C305.502 235.933 305.543 236.204 305.674 236.431C305.755 236.592 305.872 236.73 306.013 236.835C306.155 236.94 306.318 237.007 306.49 237.033C306.57 237.247 306.68 237.447 306.816 237.627Z" fill="#263238"/>
<path d="M302.222 228.261C302.437 228.048 302.631 227.811 302.801 227.556C303.011 227.2 303.15 226.804 303.212 226.39C303.273 225.977 303.256 225.554 303.16 225.148C303.019 224.592 302.714 224.098 302.287 223.738C301.838 223.325 301.267 222.998 300.737 222.508C300.464 222.251 300.238 221.945 300.068 221.605C299.884 221.238 299.831 220.813 299.921 220.409C300.024 219.999 300.233 219.627 300.525 219.334C300.794 219.033 301.096 218.775 301.341 218.474C301.617 218.217 301.835 217.896 301.977 217.537C302.083 217.181 302.083 216.8 301.977 216.445C301.758 215.747 301.389 215.111 300.9 214.587C300.438 214.088 300.065 213.505 299.798 212.867C299.597 212.293 299.536 211.675 299.619 211.07C299.737 210.195 300.138 209.391 300.753 208.791C300.921 208.635 301.104 208.499 301.3 208.387L301.512 208.292C301.271 208.47 301.039 208.663 300.818 208.868C300.254 209.472 299.896 210.255 299.798 211.096C299.727 211.677 299.794 212.268 299.994 212.816C300.264 213.419 300.632 213.969 301.08 214.441C301.601 214.988 301.992 215.657 302.222 216.393C302.344 216.799 302.344 217.234 302.222 217.64C302.07 218.041 301.833 218.4 301.528 218.689C300.974 219.274 300.313 219.756 300.149 220.478C300.105 220.829 300.15 221.185 300.279 221.511C300.408 221.837 300.617 222.122 300.884 222.336C301.373 222.8 301.945 223.136 302.41 223.574C302.64 223.781 302.838 224.025 302.997 224.297C303.142 224.547 303.25 224.82 303.315 225.105C303.413 225.533 303.424 225.978 303.347 226.411C303.269 226.844 303.106 227.255 302.867 227.616C302.705 227.883 302.484 228.105 302.222 228.261Z" fill="#263238"/>
<path d="M298.656 228.261C298.867 228.046 299.058 227.81 299.227 227.556C299.44 227.202 299.582 226.805 299.644 226.391C299.706 225.977 299.686 225.554 299.586 225.148C299.453 224.588 299.146 224.092 298.713 223.738C298.264 223.325 297.693 222.998 297.171 222.508C296.896 222.254 296.669 221.947 296.502 221.605C296.315 221.239 296.26 220.815 296.347 220.409C296.456 220.002 296.664 219.631 296.951 219.334C297.228 219.033 297.522 218.775 297.767 218.474C298.038 218.214 298.252 217.894 298.395 217.537C298.508 217.183 298.508 216.799 298.395 216.445C298.176 215.747 297.807 215.111 297.318 214.587C296.856 214.086 296.481 213.504 296.208 212.867C296.007 212.293 295.945 211.675 296.029 211.07C296.146 210.193 296.55 209.387 297.171 208.791C297.335 208.631 297.519 208.495 297.718 208.387C297.783 208.343 297.855 208.311 297.93 208.292C297.689 208.47 297.457 208.663 297.236 208.868C296.672 209.473 296.311 210.255 296.208 211.096C296.136 211.678 296.206 212.27 296.412 212.816C296.682 213.419 297.049 213.969 297.497 214.441C298.016 214.991 298.406 215.659 298.64 216.393C298.762 216.799 298.762 217.234 298.64 217.64C298.485 218.04 298.248 218.398 297.946 218.689C297.391 219.274 296.722 219.756 296.559 220.478C296.517 220.828 296.562 221.184 296.691 221.51C296.82 221.836 297.028 222.121 297.293 222.336C297.783 222.8 298.362 223.136 298.819 223.574C299.052 223.781 299.253 224.025 299.415 224.297C299.553 224.551 299.66 224.822 299.733 225.105C299.827 225.534 299.836 225.978 299.759 226.41C299.681 226.842 299.52 227.253 299.284 227.616C299.125 227.879 298.91 228.1 298.656 228.261Z" fill="#263238"/>
<path d="M324.855 176.563L323.054 178.153L345.883 206.878L347.685 205.288L324.855 176.563Z" fill="#263238"/>
<path d="M327.516 172.533L325.715 174.123L348.544 202.848L350.346 201.258L327.516 172.533Z" fill="#263238"/>
<path d="M348.919 206.399L346.932 205.077L324.114 243.177L326.101 244.499L348.919 206.399Z" fill="#263238"/>
<path d="M354.066 207.452L352.079 206.13L329.704 243.488L331.692 244.81L354.066 207.452Z" fill="#263238"/>
<path d="M349.036 201.618L345.454 206.727C345.016 207.349 344.809 208.119 344.874 208.891C344.939 209.663 345.27 210.383 345.805 210.915C346.255 211.361 346.825 211.65 347.436 211.744C348.047 211.838 348.671 211.731 349.224 211.44L354.046 208.86C354.467 208.641 354.834 208.322 355.118 207.928C355.401 207.534 355.593 207.076 355.678 206.589L355.727 206.28C355.823 205.715 355.771 205.133 355.577 204.597C355.383 204.06 355.054 203.59 354.626 203.235L352.178 201.18C351.948 200.981 351.682 200.835 351.396 200.749C351.11 200.663 350.811 200.64 350.517 200.681C350.222 200.722 349.939 200.827 349.684 200.988C349.429 201.149 349.209 201.364 349.036 201.618Z" fill="#263238"/>
<path d="M349.036 201.618C349.036 201.618 349.077 201.498 349.224 201.326C349.447 201.065 349.727 200.864 350.04 200.741C350.532 200.548 351.073 200.548 351.565 200.741C351.865 200.855 352.142 201.027 352.381 201.249L353.197 201.919L354.111 202.659C354.461 202.915 354.789 203.203 355.091 203.519C355.419 203.9 355.66 204.356 355.794 204.851C355.929 205.346 355.953 205.867 355.866 206.374C355.812 206.942 355.625 207.487 355.322 207.96C355.018 208.433 354.608 208.819 354.128 209.083L351.206 210.64L349.729 211.431C349.245 211.736 348.706 211.933 348.146 212.007C347.632 212.057 347.113 211.975 346.635 211.767C346.157 211.56 345.733 211.233 345.401 210.816C345.069 210.398 344.838 209.902 344.728 209.369C344.618 208.837 344.631 208.284 344.768 207.759C344.891 207.314 345.096 206.899 345.372 206.538L346.066 205.574L348.187 202.668C348.435 202.306 348.708 201.964 349.003 201.644C348.808 202.041 348.578 202.418 348.318 202.771L346.302 205.764C345.793 206.383 345.387 207.09 345.103 207.853C344.995 208.295 344.984 208.757 345.071 209.204C345.157 209.65 345.338 210.071 345.6 210.433C345.893 210.828 346.275 211.139 346.711 211.338C347.148 211.536 347.624 211.615 348.097 211.569C348.606 211.498 349.095 211.316 349.534 211.035L351.011 210.244L353.924 208.688C354.318 208.452 354.659 208.13 354.923 207.742C355.187 207.355 355.368 206.911 355.453 206.442C355.538 205.974 355.526 205.491 355.417 205.028C355.308 204.565 355.105 204.132 354.821 203.76C354.536 203.448 354.227 203.161 353.899 202.9C353.589 202.633 353.295 202.375 353.002 202.134L352.186 201.438C351.965 201.226 351.711 201.058 351.435 200.939C350.98 200.776 350.486 200.776 350.031 200.939C349.662 201.097 349.324 201.328 349.036 201.618Z" fill="#455A64"/>
<path d="M312.765 248.316C312.765 248.316 315.555 242.073 326.514 242.09H331.557C331.557 242.09 341.406 244.326 342.589 248.334L312.765 248.316Z" fill="#263238"/>
<path d="M319.562 170.934L321.83 180.394C321.855 180.496 321.905 180.589 321.976 180.662C322.048 180.736 322.137 180.787 322.234 180.81C322.332 180.833 322.433 180.828 322.528 180.793C322.622 180.759 322.705 180.698 322.769 180.617L329.534 173.316C329.596 173.239 329.637 173.146 329.654 173.047C329.671 172.947 329.662 172.845 329.629 172.751C329.595 172.656 329.539 172.572 329.465 172.509C329.391 172.445 329.302 172.403 329.207 172.387L320.166 170.28C320.082 170.266 319.996 170.274 319.916 170.302C319.836 170.33 319.763 170.378 319.704 170.442C319.644 170.506 319.601 170.584 319.576 170.67C319.551 170.755 319.547 170.846 319.562 170.934Z" fill="#263238"/>
<path d="M319.562 170.934C319.562 170.934 319.505 170.865 319.513 170.701C319.524 170.576 319.572 170.458 319.649 170.363C319.727 170.267 319.83 170.199 319.945 170.168C320.107 170.134 320.274 170.134 320.435 170.168L320.982 170.28L322.32 170.564L325.87 171.346L328.008 171.828L329.158 172.086C329.289 172.101 329.415 172.15 329.525 172.228C329.634 172.306 329.724 172.411 329.786 172.533C329.851 172.671 329.876 172.826 329.859 172.979C329.842 173.131 329.782 173.275 329.689 173.393L326.677 176.653L322.916 180.695C322.833 180.798 322.726 180.877 322.606 180.923C322.486 180.97 322.356 180.983 322.23 180.962C322.103 180.94 321.984 180.884 321.884 180.8C321.784 180.715 321.707 180.605 321.659 180.48C321.553 180.058 321.48 179.723 321.39 179.362C321.227 178.648 321.072 177.96 320.917 177.315C320.631 176.042 320.37 174.915 320.149 173.944C319.929 172.972 319.807 172.318 319.676 171.733C319.602 171.471 319.56 171.199 319.554 170.925C319.66 171.174 319.745 171.433 319.807 171.699C319.962 172.275 320.158 172.998 320.386 173.875C320.615 174.752 320.925 175.965 321.243 177.229L321.757 179.258L322.026 180.333C322.049 180.391 322.085 180.441 322.131 180.48C322.178 180.518 322.232 180.543 322.291 180.553C322.349 180.562 322.409 180.556 322.464 180.534C322.519 180.512 322.568 180.476 322.606 180.428L326.351 176.369L329.37 173.118C329.413 173.062 329.44 172.995 329.447 172.923C329.454 172.852 329.441 172.78 329.41 172.716C329.379 172.652 329.331 172.599 329.271 172.564C329.212 172.528 329.144 172.512 329.077 172.516L327.934 172.241L325.796 171.725L322.263 170.865L320.933 170.521L320.394 170.383C320.26 170.327 320.115 170.303 319.97 170.314C319.876 170.334 319.789 170.382 319.72 170.452C319.65 170.522 319.601 170.612 319.578 170.71C319.554 170.848 319.578 170.934 319.562 170.934Z" fill="#455A64"/>
<path d="M312.871 197.903C317.351 191.582 319.889 185.149 319.464 178.57L311.051 170.031C302.891 167.167 291.671 176.188 291.671 176.188C291.671 176.188 294.454 192.098 312.871 197.903Z" fill="#263238"/>
<path d="M324.022 163.773L324.283 164.032C325.471 165.205 326.167 166.827 326.219 168.542C326.271 170.256 325.675 171.922 324.562 173.173L316.965 181.711L307.751 172.605L315.354 164.06C315.904 163.441 316.566 162.943 317.3 162.593C318.034 162.243 318.826 162.05 319.631 162.023C320.436 161.996 321.238 162.137 321.992 162.437C322.745 162.738 323.435 163.192 324.022 163.773Z" fill="#263238"/>
<path d="M318.893 178.269C318.287 178.291 317.682 178.186 317.114 177.96C315.718 177.503 314.43 176.738 313.336 175.715C312.235 174.695 311.351 173.44 310.741 172.034C310.463 171.47 310.291 170.853 310.235 170.22C310.535 170.764 310.807 171.323 311.051 171.897C311.709 173.214 312.588 174.394 313.646 175.38C314.709 176.36 315.927 177.134 317.245 177.667C318.24 178.063 318.901 178.192 318.893 178.269Z" fill="#455A64"/>
<path d="M351.949 204.68C351.949 204.838 351.904 204.993 351.821 205.124C351.738 205.256 351.619 205.358 351.48 205.419C351.342 205.479 351.189 205.495 351.042 205.464C350.895 205.434 350.76 205.357 350.653 205.246C350.547 205.134 350.475 204.991 350.446 204.836C350.416 204.681 350.431 204.52 350.489 204.374C350.546 204.228 350.644 204.103 350.768 204.015C350.893 203.927 351.04 203.88 351.19 203.88C351.29 203.88 351.388 203.901 351.48 203.941C351.573 203.981 351.656 204.04 351.727 204.114C351.797 204.189 351.853 204.277 351.891 204.374C351.929 204.471 351.949 204.575 351.949 204.68Z" fill="#455A64"/>
<path d="M323.846 176.988C323.846 177.146 323.801 177.301 323.718 177.432C323.635 177.564 323.516 177.666 323.377 177.727C323.239 177.787 323.086 177.803 322.939 177.772C322.792 177.742 322.657 177.665 322.55 177.554C322.444 177.442 322.372 177.299 322.343 177.144C322.313 176.989 322.328 176.828 322.386 176.682C322.443 176.536 322.541 176.411 322.665 176.323C322.79 176.235 322.937 176.188 323.087 176.188C323.288 176.188 323.481 176.273 323.624 176.422C323.766 176.572 323.846 176.776 323.846 176.988Z" fill="#455A64"/>
<path d="M326.727 173.883C326.727 174.042 326.682 174.196 326.599 174.328C326.515 174.459 326.397 174.562 326.258 174.622C326.12 174.683 325.967 174.699 325.82 174.668C325.673 174.637 325.537 174.561 325.431 174.449C325.325 174.337 325.253 174.195 325.224 174.039C325.194 173.884 325.209 173.723 325.267 173.577C325.324 173.431 325.421 173.306 325.546 173.218C325.671 173.131 325.818 173.084 325.968 173.084C326.068 173.084 326.166 173.104 326.258 173.145C326.35 173.185 326.434 173.244 326.504 173.318C326.575 173.392 326.631 173.48 326.669 173.577C326.707 173.674 326.727 173.778 326.727 173.883Z" fill="#455A64"/>
<path d="M348.873 207.587C348.873 207.745 348.828 207.9 348.745 208.031C348.661 208.163 348.543 208.265 348.404 208.326C348.266 208.386 348.113 208.402 347.966 208.371C347.819 208.34 347.683 208.264 347.577 208.152C347.471 208.04 347.399 207.898 347.37 207.743C347.34 207.588 347.355 207.427 347.413 207.281C347.47 207.135 347.567 207.01 347.692 206.922C347.817 206.834 347.964 206.787 348.114 206.787C348.315 206.787 348.508 206.871 348.65 207.021C348.793 207.171 348.873 207.375 348.873 207.587Z" fill="#455A64"/>
<path d="M318.787 262.266L318.559 401.027H195.767V261.887H187.893V401.027V408.741H195.767H318.559H326.433V401.027L326.662 262.266H318.787Z" fill="#E0E0E0"/>
<path d="M318.787 262.3H326.661H326.702C326.702 280.799 326.645 333.766 326.596 408.775V408.947H326.4H187.86H187.68V408.732C187.68 368.071 187.68 323.824 187.68 277.909V261.655H195.979V261.879C195.979 310.967 195.979 357.829 195.979 401.018L195.783 400.812L318.575 400.855L318.42 401.018C318.656 315.396 318.803 263.556 318.803 262.257C318.803 263.556 318.803 315.396 318.738 401.018V401.181H318.575L195.783 401.224H195.587V401.018C195.587 357.829 195.587 310.967 195.587 261.879L195.799 262.102H187.925L188.137 261.879V277.909C188.137 323.824 188.137 368.071 188.137 408.732L187.933 408.517L326.474 408.56L326.31 408.732C326.49 333.723 326.612 280.756 326.661 262.257L326.702 262.3H318.787Z" fill="#263238"/>
<path d="M350.374 248.316H172.454V263.28H350.374V248.316Z" fill="#AE7461"/>
<path d="M217.056 248.041L216.599 248.153C216.306 248.213 215.865 248.282 215.302 248.42C214.176 248.66 212.56 249.073 210.594 249.684C208.627 250.294 206.301 251.12 203.739 252.083C201.177 253.046 198.37 254.13 195.359 255.102C192.533 256.025 189.636 256.687 186.701 257.08C184.318 257.4 181.908 257.42 179.52 257.14C177.899 256.947 176.303 256.564 174.763 255.996C174.344 255.846 173.933 255.674 173.531 255.48C173.253 255.36 173.115 255.282 173.115 255.282C173.115 255.282 173.27 255.325 173.555 255.437C173.841 255.549 174.249 255.738 174.796 255.902C176.34 256.425 177.931 256.777 179.545 256.951C181.934 257.206 184.344 257.171 186.726 256.848C189.643 256.438 192.523 255.77 195.334 254.852C198.337 253.881 201.144 252.806 203.715 251.86C206.285 250.914 208.611 250.097 210.585 249.512C212.149 249.032 213.734 248.636 215.335 248.325C215.898 248.205 216.346 248.153 216.64 248.101C216.934 248.05 217.056 248.041 217.056 248.041Z" fill="#6F4439"/>
<path d="M307.804 261.861C307.739 261.797 307.679 261.728 307.624 261.655C307.463 261.445 307.291 261.244 307.11 261.053C306.417 260.303 305.622 259.666 304.752 259.161C303.374 258.369 301.874 257.839 300.321 257.596C298.262 257.294 296.17 257.349 294.128 257.759C291.644 258.268 289.192 258.931 286.784 259.746C284.021 260.705 281.167 261.34 278.273 261.638C276.696 261.756 275.111 261.643 273.564 261.302C271.957 260.929 270.392 260.375 268.897 259.651C265.837 258.232 262.883 256.306 259.619 254.913C253.05 252.126 246.106 251.911 240.076 252.728C234.704 253.542 229.442 255.023 224.4 257.14C220.076 258.86 216.673 260.58 214.315 261.664L211.597 262.962C210.977 263.263 210.643 263.409 210.643 263.409C210.643 263.409 210.961 263.229 211.573 262.919L214.266 261.569C216.616 260.417 220.018 258.74 224.335 256.968C229.379 254.821 234.651 253.323 240.035 252.505C246.09 251.645 253.091 251.877 259.7 254.68C262.964 256.091 265.943 258.017 268.978 259.428C270.458 260.146 272.007 260.697 273.597 261.07C275.122 261.411 276.685 261.524 278.24 261.406C281.118 261.113 283.958 260.493 286.71 259.557C289.119 258.75 291.571 258.095 294.054 257.596C296.117 257.191 298.229 257.148 300.305 257.467C301.868 257.726 303.377 258.273 304.76 259.084C305.629 259.604 306.418 260.259 307.102 261.027C307.356 261.286 307.59 261.565 307.804 261.861Z" fill="#6F4439"/>
<path d="M349.338 252.943C347.457 253.718 345.523 254.339 343.552 254.801C342.639 255.024 341.635 255.257 340.55 255.42C339.464 255.583 338.289 255.755 337.057 255.902C331.695 256.409 326.29 255.99 321.055 254.663C319.856 254.336 318.713 254.044 317.677 253.666C316.641 253.287 315.662 252.943 314.788 252.591C312.901 251.831 311.073 250.916 309.321 249.856C309.454 249.904 309.582 249.964 309.705 250.036L310.79 250.578C311.255 250.828 311.835 251.12 312.52 251.438C313.205 251.756 313.972 252.118 314.854 252.436C315.735 252.754 316.682 253.15 317.734 253.476C318.787 253.803 319.921 254.13 321.112 254.448C326.317 255.732 331.683 256.138 337.008 255.652C338.232 255.515 339.399 255.411 340.484 255.205C341.57 254.999 342.565 254.827 343.479 254.62C344.393 254.414 345.209 254.182 345.927 253.984C346.645 253.786 347.257 253.605 347.747 253.433L348.897 253.055C349.04 253.003 349.188 252.965 349.338 252.943Z" fill="#6F4439"/>
<path d="M247.444 244.55H192.846C191.827 244.55 191.001 245.42 191.001 246.493V246.605C191.001 247.678 191.827 248.549 192.846 248.549H247.444C248.463 248.549 249.288 247.678 249.288 246.605V246.493C249.288 245.42 248.463 244.55 247.444 244.55Z" fill="#455A64"/>
<path d="M262.981 195.22L249.337 246.906C249.194 247.441 248.857 247.894 248.399 248.168C247.94 248.442 247.398 248.513 246.889 248.368C246.382 248.217 245.952 247.862 245.692 247.379C245.432 246.896 245.364 246.324 245.502 245.788L259.154 194.059C259.295 193.523 259.632 193.068 260.091 192.794C260.55 192.52 261.093 192.449 261.602 192.597C261.857 192.672 262.095 192.8 262.302 192.973C262.51 193.146 262.683 193.361 262.811 193.605C262.94 193.849 263.021 194.117 263.05 194.394C263.079 194.672 263.055 194.952 262.981 195.22Z" fill="#455A64"/>
<path d="M251.875 199.219C251.793 199.314 247.974 195.547 243.348 190.825C238.721 186.104 235.041 182.225 235.122 182.105C235.204 181.985 239.015 185.769 243.641 190.499C248.268 195.229 251.957 199.133 251.875 199.219Z" fill="#263238"/>
<path d="M250.014 205.402C249.547 205.26 249.092 205.079 248.652 204.861L245.02 203.252C241.944 201.894 237.676 200.045 232.968 198.092C228.26 196.14 223.919 194.455 220.793 193.251L217.056 191.78C216.596 191.629 216.149 191.439 215.718 191.212C216.193 191.303 216.66 191.439 217.113 191.617C218.003 191.909 219.284 192.348 220.859 192.915C224.017 194.042 228.349 195.684 233.099 197.645C237.848 199.606 242.075 201.507 245.11 202.934C246.636 203.657 247.86 204.25 248.701 204.654C249.154 204.871 249.593 205.121 250.014 205.402Z" fill="#263238"/>
<path d="M249.264 211.56C248.151 211.741 247.021 211.767 245.902 211.637C244.776 211.663 243.652 211.538 242.556 211.268C244.795 211.067 247.048 211.165 249.264 211.56Z" fill="#263238"/>
<path d="M348.611 384.282C348.611 384.282 345.225 359.695 345.502 345.393C345.78 331.091 345.502 314.992 345.502 314.992H347.069C347.069 314.992 346.008 343.372 347.159 360.512C348.31 377.652 351.345 384.282 351.345 384.282H348.628" fill="#263238"/>
<path d="M358.722 287.326C358.477 286.457 357.981 285.69 357.302 285.133C356.306 284.471 355.009 284.746 353.899 285.133C349.175 286.896 344.989 296.175 343.079 301.06L349.346 323.334C360.672 312.292 362.63 297.766 358.722 287.326Z" fill="#455A64"/>
<path d="M356.935 286.036C356.914 286.135 356.881 286.23 356.837 286.32C356.764 286.535 356.658 286.81 356.535 287.137C356.258 287.833 355.874 288.857 355.409 290.121C354.487 292.649 353.312 296.141 352.259 300.166C351.207 304.191 350.489 307.828 350.048 310.486C349.819 311.819 349.656 312.902 349.55 313.651C349.493 314.003 349.452 314.287 349.411 314.511C349.401 314.61 349.379 314.709 349.346 314.803C349.337 314.703 349.337 314.602 349.346 314.502C349.346 314.27 349.395 313.986 349.428 313.642C349.509 312.885 349.648 311.793 349.852 310.451C350.391 306.975 351.113 303.532 352.014 300.14C352.922 296.729 354.011 293.376 355.278 290.095C355.76 288.831 356.168 287.825 356.478 287.137C356.617 286.819 356.731 286.552 356.829 286.346C356.848 286.237 356.884 286.132 356.935 286.036Z" fill="#263238"/>
<path d="M346.564 328.701C343.707 326.989 341.317 324.532 339.624 321.564C337.93 318.597 336.99 315.22 336.894 311.759C336.666 306.822 338.11 301.972 339.742 297.328C339.841 296.911 340.074 296.543 340.403 296.287C340.673 296.18 340.965 296.147 341.251 296.192C341.536 296.237 341.806 296.359 342.035 296.545C346.303 299.125 348.897 304.001 350.268 308.972C351.261 312.27 351.592 315.749 351.239 319.189C350.701 322.805 349.069 326.14 346.588 328.701" fill="#455A64"/>
<path d="M346.564 328.701C346.553 328.601 346.553 328.5 346.564 328.4V327.54C346.564 326.791 346.564 325.716 346.474 324.392C346.308 320.932 345.943 317.485 345.38 314.072C344.736 310.082 343.944 306.513 343.357 303.933L342.663 300.871L342.484 300.011C342.456 299.916 342.44 299.818 342.435 299.719C342.478 299.806 342.511 299.898 342.532 299.994C342.59 300.217 342.663 300.484 342.761 300.854C342.949 301.568 343.218 302.574 343.536 303.89C344.164 306.47 344.989 310.039 345.641 314.038C346.2 317.45 346.541 320.897 346.661 324.358C346.661 325.682 346.661 326.757 346.661 327.505C346.661 327.849 346.661 328.133 346.661 328.365C346.643 328.481 346.61 328.594 346.564 328.701Z" fill="#263238"/>
<g opacity="0.3">
<path d="M346.564 328.701C343.707 326.989 341.317 324.532 339.624 321.564C337.93 318.597 336.99 315.22 336.894 311.759C336.666 306.822 338.11 301.972 339.742 297.328C339.841 296.911 340.074 296.543 340.403 296.287C340.673 296.18 340.965 296.147 341.251 296.192C341.536 296.237 341.806 296.359 342.035 296.545C346.303 299.125 348.897 304.001 350.268 308.972C351.261 312.27 351.592 315.749 351.239 319.189C350.701 322.805 349.069 326.14 346.588 328.701" fill="black"/>
</g>
<path d="M353.198 366.36C358.983 367.702 363.74 372.002 369.33 374.1C373.018 375.485 377.196 375.975 380.142 378.692C379.44 376.809 377.759 375.553 376.127 374.487C371.529 371.44 366.618 368.953 361.488 367.074C358.869 366.119 356.013 365.354 353.328 366.111" fill="#455A64"/>
<path d="M344.826 371.752C337.58 371.623 329.95 365.122 322.745 364.735C330.284 362.155 341.096 364.262 344.826 371.752Z" fill="#455A64"/>
<path d="M347.657 353.46C351.391 352.161 355.374 351.865 359.244 352.6C363.093 353.343 366.876 354.425 370.554 355.834C370.178 353.185 368.147 351.198 366.229 349.435C364.833 348.057 363.313 346.825 361.692 345.754C360.061 344.681 358.172 344.12 356.249 344.138C355.094 344.213 353.966 344.535 352.932 345.084C351.898 345.632 350.981 346.396 350.235 347.328C348.771 349.012 347.866 351.152 347.657 353.426" fill="#455A64"/>
<path d="M332.789 344.998C328.228 340.895 321.316 341.291 315.319 341.437C324.956 346.275 334.044 352.244 342.41 359.231C342.655 354.759 338.55 350.183 332.789 344.998Z" fill="#455A64"/>
<g opacity="0.3">
<path d="M332.789 344.998C328.228 340.895 321.316 341.291 315.319 341.437C324.956 346.275 334.044 352.244 342.41 359.231C342.655 354.759 338.55 350.183 332.789 344.998Z" fill="black"/>
</g>
<path d="M349.713 339.33C351.939 337.705 354.283 336.267 356.723 335.03C359.13 333.886 361.366 332.055 363.683 330.73C366.694 329.01 369.297 326.628 372.055 324.504C374.814 322.38 377.849 320.453 381.227 319.894C378.446 319.369 375.585 319.542 372.88 320.402C370.187 321.255 367.562 322.331 365.03 323.618C361.472 325.338 357.849 327.058 354.944 329.784C352.039 332.51 349.403 335.228 349.713 339.33Z" fill="#455A64"/>
<path d="M369.191 371.752L368.963 371.64L368.334 371.296C367.788 370.995 367.004 370.54 366.017 370.015C365.527 369.748 364.989 369.465 364.385 369.155C363.781 368.845 363.169 368.553 362.5 368.243C361.06 367.563 359.566 367.017 358.037 366.609C356.522 366.166 354.928 366.121 353.393 366.48C352.721 366.635 352.061 366.841 351.419 367.1C350.868 367.335 350.338 367.623 349.836 367.96C349.102 368.44 348.43 369.018 347.837 369.68C347.412 370.153 347.208 370.436 347.192 370.428C347.224 370.347 347.268 370.271 347.322 370.204C347.457 369.994 347.604 369.793 347.763 369.602C348.336 368.9 348.998 368.283 349.73 367.77C350.247 367.418 350.793 367.116 351.362 366.867C352.011 366.596 352.68 366.378 353.361 366.214C354.933 365.828 356.571 365.864 358.126 366.317C359.67 366.728 361.175 367.286 362.622 367.985C363.292 368.304 363.92 368.613 364.499 368.923C365.079 369.232 365.625 369.516 366.131 369.783C367.11 370.333 367.886 370.815 368.416 371.15L369.02 371.537C369.126 371.692 369.199 371.744 369.191 371.752Z" fill="#263238"/>
<path d="M339.456 367.96C339.615 367.984 339.769 368.034 339.913 368.106C340.316 368.259 340.709 368.44 341.088 368.648C342.36 369.32 343.529 370.19 344.556 371.228C345.583 372.261 346.455 373.453 347.143 374.762C347.354 375.157 347.542 375.565 347.706 375.983C347.777 376.133 347.826 376.292 347.853 376.456C347.812 376.456 347.543 375.829 346.988 374.865C345.53 372.34 343.467 370.264 341.007 368.845C340.028 368.269 339.407 368.011 339.456 367.96Z" fill="#263238"/>
<path d="M323.389 344.611C323.495 344.63 323.599 344.662 323.699 344.705L324.572 345.032L325.943 345.565C326.474 345.78 327.053 346.09 327.714 346.425C331.113 348.084 334.286 350.215 337.147 352.763C338.712 354.176 340.181 355.702 341.545 357.33C342.655 358.659 343.699 360.048 344.67 361.492C345.486 362.731 346.123 363.763 346.555 364.468L347.045 365.328C347.112 365.417 347.167 365.516 347.208 365.62C347.131 365.539 347.063 365.45 347.004 365.354C346.882 365.182 346.694 364.915 346.466 364.563C346.009 363.866 345.364 362.843 344.515 361.639C343.667 360.435 342.614 359.059 341.366 357.528C339.998 355.92 338.531 354.409 336.976 353.004C334.131 350.456 330.992 348.297 327.632 346.58C326.988 346.27 326.417 345.952 325.886 345.72L324.532 345.144L323.716 344.765C323.602 344.727 323.492 344.675 323.389 344.611Z" fill="#263238"/>
<path d="M358.534 349.16C358.339 349.159 358.144 349.133 357.955 349.083L357.286 348.954C357.033 348.902 356.731 348.902 356.396 348.868C354.678 348.705 352.951 349.063 351.419 349.9C350.581 350.364 349.815 350.961 349.15 351.671C348.602 352.247 348.115 352.885 347.698 353.572C347.319 354.213 346.986 354.882 346.702 355.576C346.721 355.371 346.771 355.171 346.849 354.982C347.029 354.453 347.262 353.946 347.543 353.469C347.942 352.749 348.427 352.087 348.987 351.499C349.653 350.753 350.434 350.131 351.296 349.659C352.869 348.797 354.652 348.453 356.413 348.67C356.747 348.721 357.057 348.739 357.31 348.807L357.979 348.979C358.169 349.021 358.355 349.082 358.534 349.16Z" fill="#263238"/>
<path d="M365.813 325.321C365.732 325.395 365.642 325.456 365.544 325.501L364.728 325.966C364.018 326.361 363.006 326.955 361.782 327.686C360.558 328.417 359.113 329.406 357.579 330.558C355.907 331.794 354.34 333.181 352.896 334.703C352.15 335.469 351.505 336.337 350.978 337.283C350.505 338.238 350.048 339.167 349.632 340.061C348.883 341.634 348.213 343.248 347.624 344.894C347.231 346.005 346.901 347.139 346.637 348.291C346.565 348.72 346.472 349.145 346.359 349.564C346.352 349.453 346.352 349.34 346.359 349.229C346.359 349.005 346.408 348.687 346.506 348.274C346.735 347.108 347.038 345.958 347.412 344.834C347.981 343.17 348.64 341.542 349.387 339.958C349.803 339.098 350.252 338.126 350.725 337.163C351.258 336.183 351.914 335.284 352.675 334.488C354.129 332.955 355.714 331.564 357.408 330.335C358.958 329.182 360.419 328.245 361.659 327.488C362.9 326.731 363.928 326.181 364.646 325.811L365.462 325.39L365.813 325.321Z" fill="#263238"/>
<path d="M345.495 348.446C345.426 348.237 345.38 348.021 345.356 347.801C345.266 347.337 345.16 346.743 345.038 346.038C344.361 342.154 343.204 338.381 341.594 334.815L340.892 333.181C340.79 332.986 340.71 332.778 340.656 332.562C340.782 332.739 340.892 332.929 340.982 333.13C341.17 333.508 341.439 334.05 341.798 334.729C342.639 336.504 343.356 338.341 343.944 340.225C344.516 342.114 344.953 344.046 345.25 346.004C345.364 346.761 345.446 347.363 345.486 347.793C345.509 348.01 345.512 348.229 345.495 348.446Z" fill="#263238"/>
<path d="M344.972 331.1C344.744 328.207 343.94 325.397 342.614 322.853C340.828 319.35 338.336 316.302 335.312 313.925C332.287 311.548 328.805 309.898 325.111 309.093L341.317 334.54L343.414 339.089C344.724 336.668 345.27 333.87 344.972 331.1Z" fill="#455A64"/>
<path d="M372.227 375.442H326.588V383.964H372.227V375.442Z" fill="#70B8F3"/>
<path d="M329.999 382.27L336.119 408.724H364.181L368.816 382.27H329.999Z" fill="#70B8F3"/>
<path d="M372.202 383.973C372.202 384.067 361.904 384.145 349.216 384.145C336.527 384.145 326.221 384.067 326.221 383.973C326.221 383.878 336.51 383.801 349.216 383.801C361.921 383.801 372.202 383.878 372.202 383.973Z" fill="#263238"/>
</svg>
