<svg width="231" height="287" viewBox="0 0 231 287" fill="none" xmlns="http://www.w3.org/2000/svg">
<path d="M62.539 229.312L16.6425 251.523C15.8058 251.932 14.8601 252.085 13.9314 251.962C13.0026 251.838 12.1348 251.444 11.4432 250.831C10.7517 250.218 10.2692 249.416 10.06 248.532C9.85081 247.647 9.9248 246.722 10.2721 245.879L28.8735 200.224C29.1469 199.554 29.5829 198.958 30.1447 198.486C30.7065 198.014 31.3775 197.68 32.1009 197.512C32.8244 197.344 33.579 197.347 34.3009 197.521C35.0228 197.695 35.6907 198.035 36.2482 198.512L63.5283 221.985C64.0904 222.47 64.5217 223.08 64.7845 223.762C65.0474 224.445 65.1338 225.179 65.0362 225.902C64.9387 226.624 64.6602 227.312 64.2249 227.907C63.7897 228.501 63.2109 228.983 62.539 229.312Z" fill="url(#paint0_linear_348_1044)"/>
<path d="M98.9322 243.921C118.335 243.76 137.253 238.032 153.292 227.462C169.331 216.893 181.77 201.957 189.038 184.543C196.305 167.13 198.073 148.021 194.118 129.635C190.163 111.249 180.663 94.4111 166.819 81.2517C152.975 68.0922 135.41 59.2024 116.346 55.7067C97.2815 52.211 77.5742 54.2666 59.7169 61.6134C41.8597 68.9602 26.6548 81.2681 16.0258 96.9801C5.39685 112.692 -0.178748 131.102 0.00436998 149.882C0.249745 175.047 10.8077 199.087 29.3579 216.721C47.9081 234.354 72.9327 244.138 98.9322 243.921ZM97.3284 80.0854C111.409 79.9454 125.215 83.8504 137.002 91.3064C148.789 98.7624 158.027 109.434 163.546 121.972C169.066 134.511 170.619 148.351 168.01 161.744C165.401 175.137 158.747 187.48 148.89 197.212C139.032 206.944 126.414 213.627 112.631 216.417C98.848 219.207 84.52 217.978 71.4592 212.885C58.3984 207.792 47.1915 199.064 39.2563 187.806C31.3211 176.547 27.0139 163.264 26.8798 149.635C26.7039 131.374 34.0248 113.791 47.2341 100.75C60.4435 87.7094 78.4609 80.2769 97.3284 80.0854Z" fill="url(#paint1_linear_348_1044)"/>
<path d="M62.7031 161.662C69.1932 161.662 74.4545 156.57 74.4545 150.288C74.4545 144.006 69.1932 138.914 62.7031 138.914C56.2129 138.914 50.9517 144.006 50.9517 150.288C50.9517 156.57 56.2129 161.662 62.7031 161.662Z" fill="url(#paint2_linear_348_1044)"/>
<path d="M100.626 161.662C107.116 161.662 112.378 156.57 112.378 150.288C112.378 144.006 107.116 138.914 100.626 138.914C94.1361 138.914 88.8748 144.006 88.8748 150.288C88.8748 156.57 94.1361 161.662 100.626 161.662Z" fill="url(#paint3_linear_348_1044)"/>
<path d="M138.564 161.662C145.054 161.662 150.315 156.57 150.315 150.288C150.315 144.006 145.054 138.914 138.564 138.914C132.074 138.914 126.812 144.006 126.812 150.288C126.812 156.57 132.074 161.662 138.564 161.662Z" fill="url(#paint4_radial_348_1044)"/>
<path d="M206.674 157.499C216.2 146.981 223.208 134.556 227.194 121.112C231.181 107.668 232.049 93.5378 229.736 79.7313C227.423 65.9248 221.987 52.7836 213.815 41.2477C205.644 29.7118 194.939 20.0662 182.468 13.001C169.996 5.93568 156.065 1.62531 141.672 0.378132C127.279 -0.869042 112.779 0.977809 99.2087 5.78658C85.6387 10.5954 73.3344 18.2472 63.1758 28.1948C53.0172 38.1424 45.2554 50.14 40.4456 63.3293C41.15 62.8796 41.9445 62.4153 42.589 61.9801C54.2357 55.0331 67.166 50.3424 80.6612 48.1687C91.92 36.3959 107.07 28.7938 123.499 26.673C139.927 24.5521 156.606 28.0454 170.659 36.5507C184.712 45.0559 195.259 58.0401 200.482 73.265C205.705 88.4898 205.276 105.001 199.27 119.953V120.098C205.519 140.655 204.942 162.592 197.621 182.815C196.946 184.672 196.122 186.5 195.388 188.299L214.289 197.439C215.125 197.848 216.071 198.001 217 197.877C217.929 197.754 218.796 197.359 219.488 196.747C220.18 196.134 220.662 195.332 220.871 194.448C221.08 193.563 221.006 192.638 220.659 191.795L206.674 157.499Z" fill="url(#paint5_linear_348_1044)"/>
<path d="M196.796 147.756C196.653 132.632 192.779 117.759 185.496 104.377C178.212 90.9954 167.731 79.4919 154.924 70.825C142.117 62.1581 127.355 56.5787 111.87 54.5517C96.3836 52.5247 80.6214 54.1088 65.8961 59.1719C67.8297 59.0704 121.011 56.7201 155.83 107.512C164.916 119.172 169.854 133.369 169.905 147.974C169.905 241.244 73.2557 240.983 54.3545 233.294C69.3782 240.661 86.1091 244.16 102.935 243.453C119.762 242.746 136.116 237.857 150.424 229.257C164.731 220.657 176.509 208.635 184.623 194.35C192.737 180.065 196.914 163.999 196.751 147.698L196.796 147.756Z" fill="url(#paint6_radial_348_1044)"/>
<path d="M60.8598 268.526H54.6843V263.26H73.6605V268.526H67.3651V286.719H60.8598V268.526Z" fill="#DED914"/>
<path d="M80.8694 282.641L79.8501 286.718H74.7988L80.075 269.12H86.5652L91.9913 286.718H86.7301L85.576 282.641H80.8694ZM84.9015 279.16L84.0621 275.997C83.7773 274.996 83.4325 273.56 83.1627 272.53C82.8929 273.56 82.6231 275.01 82.3533 276.011L81.5739 279.16H84.9015Z" fill="#DED914"/>
<path d="M94.3152 269.12H99.1866V282.772H106.187V286.718H94.3152V269.12Z" fill="#DED914"/>
<path d="M108.569 269.12H113.381V276.592H113.456C113.815 275.939 114.22 275.286 114.61 274.662L118.117 269.12H124.113L118.327 276.621L124.323 286.776H118.672L114.85 279.638L113.351 281.452V286.776H108.539L108.569 269.12Z" fill="#DED914"/>
<path d="M126.556 263.26H133.046V281.467H142.385V286.733H126.556V263.26Z" fill="#DED914"/>
<path d="M149.864 269.12V286.718H144.993V269.12H149.864Z" fill="#DED914"/>
<path d="M153.282 286.718V269.12H159.023L161.916 274.517C162.992 276.515 163.943 278.574 164.764 280.683C164.501 278.225 164.381 275.755 164.404 273.284V269.12H168.901V286.718H163.774L160.687 280.915C159.682 279.044 158.498 276.679 157.689 274.561H157.584C157.704 276.925 157.779 279.58 157.779 282.438V286.791L153.282 286.718Z" fill="#DED914"/>
<path d="M187.996 285.906C185.963 286.531 183.848 286.868 181.716 286.907C178.942 287.126 176.193 286.271 174.071 284.528C173.208 283.7 172.531 282.708 172.085 281.614C171.638 280.52 171.432 279.349 171.478 278.173C171.478 272.051 176.2 268.946 182.105 268.946C183.905 268.888 185.699 269.179 187.381 269.802L186.392 273.574C185.026 273.025 183.554 272.768 182.075 272.82C179.078 272.82 176.589 274.343 176.589 277.927C176.533 278.607 176.627 279.291 176.866 279.933C177.104 280.576 177.481 281.162 177.972 281.652C178.463 282.142 179.056 282.525 179.712 282.776C180.368 283.026 181.071 283.139 181.776 283.106C182.28 283.121 182.783 283.072 183.274 282.961V279.929H180.861V276.273H187.996V285.906Z" fill="#DED914"/>
<defs>
<linearGradient id="paint0_linear_348_1044" x1="4.98098" y1="261.33" x2="48.1644" y2="208.741" gradientUnits="userSpaceOnUse">
<stop offset="0.15" stop-color="#70C5C6"/>
<stop offset="0.88" stop-color="#4F8AF0"/>
</linearGradient>
<linearGradient id="paint1_linear_348_1044" x1="98.9032" y1="248.471" x2="97.1713" y2="58.6156" gradientUnits="userSpaceOnUse">
<stop stop-color="#70C5C6"/>
<stop offset="1" stop-color="#4F8AF0"/>
</linearGradient>
<linearGradient id="paint2_linear_348_1044" x1="62.808" y1="162.17" x2="62.6114" y2="139.421" gradientUnits="userSpaceOnUse">
<stop stop-color="#70C5C6"/>
<stop offset="1" stop-color="#4F8AF0"/>
</linearGradient>
<linearGradient id="paint3_linear_348_1044" x1="100.746" y1="162.17" x2="100.535" y2="139.421" gradientUnits="userSpaceOnUse">
<stop stop-color="#70C5C6"/>
<stop offset="1" stop-color="#4F8AF0"/>
</linearGradient>
<radialGradient id="paint4_radial_348_1044" cx="0" cy="0" r="1" gradientUnits="userSpaceOnUse" gradientTransform="translate(138.564 150.288) scale(11.7514 11.3741)">
<stop offset="0.34" stop-color="#E5E155"/>
<stop offset="0.5" stop-color="#E5E254" stop-opacity="0.92"/>
<stop offset="0.96" stop-color="#DDF246" stop-opacity="0.8"/>
</radialGradient>
<linearGradient id="paint5_linear_348_1044" x1="40.7453" y1="-118.714" x2="200.872" y2="217.409" gradientUnits="userSpaceOnUse">
<stop stop-color="#70C5C6"/>
<stop offset="1" stop-color="#4F8AF0"/>
</linearGradient>
<radialGradient id="paint6_radial_348_1044" cx="0" cy="0" r="1" gradientUnits="userSpaceOnUse" gradientTransform="translate(125.568 148.656) scale(85.7225 82.9697)">
<stop offset="0.34" stop-color="#E5E155"/>
<stop offset="0.5" stop-color="#E5E254" stop-opacity="0.92"/>
<stop offset="0.96" stop-color="#DDF246" stop-opacity="0.8"/>
</radialGradient>
</defs>
</svg>
