<svg width="42" height="47" viewBox="0 0 42 47" fill="none" xmlns="http://www.w3.org/2000/svg">
<path d="M11.3079 42.7678L3.03043 46.9065C2.35417 47.2581 1.59676 46.5548 1.86727 45.8515L5.22152 37.3306C5.43792 36.7896 6.11419 36.6273 6.54699 37.006L11.4702 41.3882C11.93 41.7669 11.8218 42.4973 11.3079 42.7678Z" fill="url(#paint0_linear_218_1251)"/>
<path d="M17.881 45.4728C27.6462 45.3917 35.5179 37.3847 35.4097 27.5925C35.3285 17.8273 27.3216 9.95558 17.5293 10.0638C7.7641 10.172 -0.0805274 18.1789 0.000623984 27.9441C0.0817753 37.7093 8.08871 45.581 17.881 45.4728ZM17.5834 14.9329C24.6706 14.8788 30.4865 20.5594 30.5406 27.6466C30.5947 34.7338 24.9141 40.5496 17.8269 40.6037C10.7397 40.6578 4.92381 34.9772 4.8697 27.89C4.78855 20.8028 10.4962 14.987 17.5834 14.9329Z" fill="url(#paint1_linear_218_1251)"/>
<path d="M35.4095 27.6195C35.3284 17.8543 27.3215 9.98262 17.5292 10.0908C15.5004 10.1179 13.5798 10.4695 11.7675 11.1187C12.1191 11.0917 21.722 10.6589 27.9977 20.1265C29.5667 22.2365 30.5405 24.8333 30.5405 27.6736C30.5405 45.0671 13.0929 45.013 9.68457 43.5793C12.1462 44.8236 14.9053 45.5269 17.8538 45.4999C27.6461 45.3917 35.4907 37.3847 35.4095 27.6195Z" fill="url(#paint2_radial_218_1251)"/>
<path d="M11.3345 30.1352C12.4998 30.1352 13.4445 29.1905 13.4445 28.0252C13.4445 26.8599 12.4998 25.9153 11.3345 25.9153C10.1693 25.9153 9.22461 26.8599 9.22461 28.0252C9.22461 29.1905 10.1693 30.1352 11.3345 30.1352Z" fill="url(#paint3_linear_218_1251)"/>
<path d="M18.1783 30.1352C19.3436 30.1352 20.2882 29.1905 20.2882 28.0252C20.2882 26.8599 19.3436 25.9153 18.1783 25.9153C17.013 25.9153 16.0684 26.8599 16.0684 28.0252C16.0684 29.1905 17.013 30.1352 18.1783 30.1352Z" fill="url(#paint4_linear_218_1251)"/>
<path d="M25.0225 30.1352C26.1878 30.1352 27.1325 29.1905 27.1325 28.0252C27.1325 26.8599 26.1878 25.9153 25.0225 25.9153C23.8572 25.9153 22.9126 26.8599 22.9126 28.0252C22.9126 29.1905 23.8572 30.1352 25.0225 30.1352Z" fill="url(#paint5_radial_218_1251)"/>
<path d="M28.3222 32.191C28.3222 32.2181 28.2951 32.2451 28.2681 32.3263C28.2951 32.2992 28.3222 32.2451 28.3222 32.191Z" fill="url(#paint6_linear_218_1251)"/>
<path d="M37.3031 29.3778C40.0082 26.294 41.6583 22.2906 41.6853 17.8813C41.7935 8.08907 33.9489 0.0821346 24.1837 0.000983279C16.3932 -0.0801681 9.76579 4.87006 7.3042 11.795C7.43945 11.7138 7.54765 11.6327 7.68291 11.5515C9.76579 10.2531 12.1192 9.38749 14.5537 8.98173C16.9342 6.41194 20.3425 4.81596 24.1025 4.87006C31.1897 4.92417 36.8974 10.74 36.8162 17.8272C36.7892 19.4232 36.4916 20.9651 35.9506 22.3717V22.3988C37.0597 26.1858 36.9785 30.3786 35.6531 34.1116C35.5178 34.4633 35.3826 34.7879 35.2473 35.1395L38.6557 36.8437C39.3319 37.1954 40.0893 36.492 39.8188 35.7887L37.3031 29.3778Z" fill="url(#paint7_linear_218_1251)"/>
<defs>
<linearGradient id="paint0_linear_218_1251" x1="0.914062" y1="48.723" x2="9.0131" y2="39.1777" gradientUnits="userSpaceOnUse">
<stop offset="0.1457" stop-color="#70C5C6"/>
<stop offset="0.8752" stop-color="#4F8AF0"/>
</linearGradient>
<linearGradient id="paint1_linear_218_1251" x1="17.8764" y1="46.2761" x2="17.5436" y2="10.874" gradientUnits="userSpaceOnUse">
<stop stop-color="#70C5C6"/>
<stop offset="1" stop-color="#4F8AF0"/>
</linearGradient>
<radialGradient id="paint2_radial_218_1251" cx="0" cy="0" r="1" gradientUnits="userSpaceOnUse" gradientTransform="translate(22.5492 27.7767) scale(15.4694 15.4694)">
<stop offset="0.3417" stop-color="#E5E155"/>
<stop offset="0.4981" stop-color="#E5E254" stop-opacity="0.9242"/>
<stop offset="0.9637" stop-color="#DDF246" stop-opacity="0.8"/>
</radialGradient>
<linearGradient id="paint3_linear_218_1251" x1="11.3512" y1="30.2353" x2="11.3112" y2="25.9931" gradientUnits="userSpaceOnUse">
<stop stop-color="#70C5C6"/>
<stop offset="1" stop-color="#4F8AF0"/>
</linearGradient>
<linearGradient id="paint4_linear_218_1251" x1="18.1968" y1="30.2353" x2="18.1568" y2="25.9931" gradientUnits="userSpaceOnUse">
<stop stop-color="#70C5C6"/>
<stop offset="1" stop-color="#4F8AF0"/>
</linearGradient>
<radialGradient id="paint5_radial_218_1251" cx="0" cy="0" r="1" gradientUnits="userSpaceOnUse" gradientTransform="translate(25.022 28.0186) scale(2.12119 2.12119)">
<stop offset="0.3417" stop-color="#E5E155"/>
<stop offset="0.4981" stop-color="#E5E254" stop-opacity="0.9242"/>
<stop offset="0.9637" stop-color="#DDF246" stop-opacity="0.8"/>
</radialGradient>
<linearGradient id="paint6_linear_218_1251" x1="28.2997" y1="32.1969" x2="28.2997" y2="32.3236" gradientUnits="userSpaceOnUse">
<stop stop-color="#70C5C6"/>
<stop offset="1" stop-color="#4F8AF0"/>
</linearGradient>
<linearGradient id="paint7_linear_218_1251" x1="7.36734" y1="-22.1366" x2="37.8354" y2="39.7635" gradientUnits="userSpaceOnUse">
<stop stop-color="#70C5C6"/>
<stop offset="1" stop-color="#4F8AF0"/>
</linearGradient>
</defs>
</svg>
