<svg width="115" height="143" viewBox="0 0 115 143" fill="none" xmlns="http://www.w3.org/2000/svg">
<path d="M31.2477 114.16L8.59747 125.121C8.18454 125.323 7.71787 125.399 7.25953 125.338C6.80118 125.277 6.37288 125.082 6.0316 124.78C5.69032 124.478 5.45222 124.082 5.34898 123.645C5.24574 123.209 5.28225 122.752 5.45366 122.336L14.6336 99.8049C14.7685 99.4744 14.9837 99.1802 15.2609 98.9473C15.5382 98.7143 15.8693 98.5494 16.2263 98.4665C16.5834 98.3837 16.9557 98.3852 17.312 98.4711C17.6683 98.557 17.9979 98.7248 18.273 98.9601L31.7359 110.544C32.0134 110.783 32.2262 111.085 32.3559 111.421C32.4856 111.758 32.5283 112.121 32.4801 112.477C32.432 112.834 32.2945 113.173 32.0797 113.467C31.8649 113.76 31.5793 113.998 31.2477 114.16Z" fill="url(#paint0_linear_62_573)"/>
<path d="M49.208 121.37C58.7834 121.29 68.1193 118.463 76.0347 113.247C83.95 108.031 90.0892 100.66 93.6756 92.0665C97.262 83.4729 98.1345 74.0427 96.1827 64.969C94.2309 55.8953 89.5425 47.5857 82.7106 41.0914C75.8787 34.5972 67.2103 30.21 57.8018 28.4848C48.3934 26.7597 38.6677 27.7741 29.855 31.3998C21.0423 35.0255 13.5386 41.0995 8.29314 48.8535C3.04766 56.6075 0.296064 65.6931 0.386434 74.961C0.507528 87.3798 5.71793 99.244 14.8726 107.946C24.0272 116.648 36.3771 121.477 49.208 121.37ZM48.4165 40.5159C55.3652 40.4468 62.1789 42.3739 67.9958 46.0535C73.8127 49.7331 78.3715 54.9998 81.0954 61.1874C83.8193 67.3751 84.586 74.2056 83.2985 80.815C82.0109 87.4245 78.7271 93.5158 73.8623 98.3186C68.9974 103.121 62.7702 106.42 55.9683 107.797C49.1664 109.173 42.0955 108.567 35.6499 106.053C29.2043 103.54 23.6736 99.2327 19.7575 93.6765C15.8414 88.1204 13.7158 81.5649 13.6496 74.8393C13.5629 65.827 17.1758 57.1498 23.6946 50.7141C30.2135 44.2784 39.1053 40.6104 48.4165 40.5159Z" fill="url(#paint1_linear_62_573)"/>
<path d="M31.3287 80.7744C34.5316 80.7744 37.1281 78.2613 37.1281 75.1613C37.1281 72.0612 34.5316 69.5481 31.3287 69.5481C28.1258 69.5481 25.5293 72.0612 25.5293 75.1613C25.5293 78.2613 28.1258 80.7744 31.3287 80.7744Z" fill="url(#paint2_linear_62_573)"/>
<path d="M50.0441 80.7744C53.247 80.7744 55.8435 78.2613 55.8435 75.1613C55.8435 72.0612 53.247 69.5481 50.0441 69.5481C46.8411 69.5481 44.2446 72.0612 44.2446 75.1613C44.2446 78.2613 46.8411 80.7744 50.0441 80.7744Z" fill="url(#paint3_linear_62_573)"/>
<path d="M68.7663 80.7744C71.9692 80.7744 74.5657 78.2613 74.5657 75.1613C74.5657 72.0612 71.9692 69.5481 68.7663 69.5481C65.5634 69.5481 62.9669 72.0612 62.9669 75.1613C62.9669 78.2613 65.5634 80.7744 68.7663 80.7744Z" fill="url(#paint4_radial_62_573)"/>
<path d="M102.379 78.7199C107.08 73.5295 110.538 67.3976 112.506 60.7629C114.474 54.1282 114.902 47.1547 113.76 40.3411C112.619 33.5275 109.936 27.0422 105.903 21.3492C101.871 15.6561 96.588 10.896 90.4331 7.40922C84.2783 3.92246 77.4034 1.79526 70.3002 1.17977C63.197 0.564286 56.0411 1.47572 49.3442 3.84888C42.6474 6.22204 36.5751 9.99829 31.5618 14.9075C26.5484 19.8167 22.7179 25.7376 20.3442 32.2466C20.6919 32.0247 21.0839 31.7955 21.402 31.5808C27.1498 28.1524 33.531 25.8375 40.1909 24.7648C45.7472 18.9548 53.2237 15.2031 61.3315 14.1564C69.4392 13.1098 77.6702 14.8338 84.6056 19.0312C91.5409 23.2286 96.7459 29.6364 99.3234 37.1499C101.901 44.6635 101.689 52.812 98.725 60.1907V60.2623C101.809 70.4074 101.524 81.2334 97.9113 91.2135C97.5784 92.13 97.1716 93.0321 96.8091 93.9199L106.137 98.4305C106.55 98.6324 107.017 98.708 107.475 98.647C107.933 98.586 108.362 98.3913 108.703 98.089C109.044 97.7867 109.282 97.3909 109.385 96.9544C109.489 96.5179 109.452 96.0613 109.281 95.6454L102.379 78.7199Z" fill="url(#paint5_linear_62_573)"/>
<path d="M97.5041 73.9117C97.434 66.4477 95.5221 59.108 91.9277 52.504C88.3333 45.9 83.1604 40.2229 76.8401 35.9457C70.5198 31.6686 63.235 28.9151 55.5926 27.9148C47.9502 26.9144 40.1714 27.6962 32.9044 30.1949C33.8586 30.1447 60.1039 28.9849 77.2876 54.0508C81.7715 59.8056 84.2085 66.8114 84.2336 74.0191C84.2336 120.049 36.5364 119.92 27.2085 116.125C34.6228 119.761 42.8796 121.488 51.1835 121.139C59.4874 120.79 67.5586 118.377 74.6194 114.133C81.6802 109.889 87.4928 103.956 91.4971 96.9062C95.5014 89.8565 97.5626 81.9275 97.4819 73.8831L97.5041 73.9117Z" fill="url(#paint6_radial_62_573)"/>
<path d="M30.4191 133.513H27.3715V130.914H36.7363V133.513H33.6295V142.491H30.4191V133.513Z" fill="#DED914"/>
<path d="M40.2941 140.478L39.7911 142.49H37.2983L39.9021 133.806H43.1051L45.7829 142.49H43.1865L42.6169 140.478H40.2941ZM42.284 138.76L41.8698 137.199C41.7292 136.705 41.5591 135.997 41.4259 135.488C41.2928 135.997 41.1596 136.712 41.0265 137.207L40.6418 138.76H42.284Z" fill="#DED914"/>
<path d="M46.9296 133.806H49.3337V140.543H52.7882V142.49H46.9296V133.806Z" fill="#DED914"/>
<path d="M53.9642 133.806H56.3387V137.493H56.3757C56.5532 137.171 56.753 136.849 56.9453 136.541L58.6762 133.806H61.6351L58.7798 137.507L61.7387 142.519H58.9499L57.0637 138.996L56.3239 139.891V142.519H53.9494L53.9642 133.806Z" fill="#DED914"/>
<path d="M62.8406 130.914H66.0436V139.899H70.6521V142.498H62.8406V130.914Z" fill="#DED914"/>
<path d="M74.3436 133.806V142.49H71.9395V133.806H74.3436Z" fill="#DED914"/>
<path d="M76.0301 142.49V133.806H78.8633L80.2909 136.469C80.8219 137.455 81.2912 138.471 81.6964 139.512C81.5669 138.299 81.5077 137.08 81.5188 135.86V133.806H83.738V142.49H81.2082L79.6843 139.626C79.1887 138.703 78.6044 137.536 78.2049 136.491H78.1531C78.2123 137.658 78.2493 138.968 78.2493 140.378V142.526L76.0301 142.49Z" fill="#DED914"/>
<path d="M93.1619 142.09C92.1588 142.398 91.1148 142.564 90.0624 142.584C88.6938 142.692 87.3368 142.269 86.2899 141.409C85.8637 141.001 85.5299 140.511 85.3096 139.972C85.0893 139.432 84.9873 138.853 85.0102 138.273C85.0102 135.252 87.3403 133.72 90.2548 133.72C91.1431 133.691 92.0285 133.835 92.8586 134.142L92.3704 136.004C91.6962 135.733 90.9695 135.606 90.24 135.632C88.7605 135.632 87.5326 136.383 87.5326 138.152C87.5049 138.488 87.5514 138.825 87.6691 139.142C87.7867 139.459 87.9729 139.748 88.2151 139.99C88.4573 140.232 88.7499 140.421 89.0736 140.545C89.3973 140.669 89.7444 140.724 90.092 140.708C90.3408 140.715 90.5894 140.691 90.8318 140.636V139.14H89.6408V137.336H93.1619V142.09Z" fill="#DED914"/>
<defs>
<linearGradient id="paint0_linear_62_573" x1="2.84245" y1="129.961" x2="24.1537" y2="104.009" gradientUnits="userSpaceOnUse">
<stop offset="0.15" stop-color="#70C5C6"/>
<stop offset="0.88" stop-color="#4F8AF0"/>
</linearGradient>
<linearGradient id="paint1_linear_62_573" x1="49.1937" y1="123.615" x2="48.339" y2="29.9204" gradientUnits="userSpaceOnUse">
<stop stop-color="#70C5C6"/>
<stop offset="1" stop-color="#4F8AF0"/>
</linearGradient>
<linearGradient id="paint2_linear_62_573" x1="31.3805" y1="81.025" x2="31.2835" y2="69.7986" gradientUnits="userSpaceOnUse">
<stop stop-color="#70C5C6"/>
<stop offset="1" stop-color="#4F8AF0"/>
</linearGradient>
<linearGradient id="paint3_linear_62_573" x1="50.1032" y1="81.025" x2="49.9993" y2="69.7986" gradientUnits="userSpaceOnUse">
<stop stop-color="#70C5C6"/>
<stop offset="1" stop-color="#4F8AF0"/>
</linearGradient>
<radialGradient id="paint4_radial_62_573" cx="0" cy="0" r="1" gradientUnits="userSpaceOnUse" gradientTransform="translate(68.7663 75.1613) scale(5.79941 5.61317)">
<stop offset="0.34" stop-color="#E5E155"/>
<stop offset="0.5" stop-color="#E5E254" stop-opacity="0.92"/>
<stop offset="0.96" stop-color="#DDF246" stop-opacity="0.8"/>
</radialGradient>
<linearGradient id="paint5_linear_62_573" x1="20.4922" y1="-57.5928" x2="99.5157" y2="108.286" gradientUnits="userSpaceOnUse">
<stop stop-color="#70C5C6"/>
<stop offset="1" stop-color="#4F8AF0"/>
</linearGradient>
<radialGradient id="paint6_radial_62_573" cx="0" cy="0" r="1" gradientUnits="userSpaceOnUse" gradientTransform="translate(62.3526 74.3556) scale(42.3046 40.9461)">
<stop offset="0.34" stop-color="#E5E155"/>
<stop offset="0.5" stop-color="#E5E254" stop-opacity="0.92"/>
<stop offset="0.96" stop-color="#DDF246" stop-opacity="0.8"/>
</radialGradient>
</defs>
</svg>
