<svg width="348" height="462" viewBox="0 0 348 462" fill="none" xmlns="http://www.w3.org/2000/svg">
<path d="M94.2145 345.456L25.0718 378.918C23.8113 379.534 22.3867 379.765 20.9875 379.578C19.5884 379.392 18.2809 378.798 17.2391 377.875C16.1973 376.952 15.4705 375.744 15.1553 374.412C14.8402 373.079 14.9517 371.685 15.4749 370.416L43.4978 301.636C43.9096 300.627 44.5665 299.729 45.4128 299.018C46.2591 298.306 47.27 297.803 48.3598 297.55C49.4497 297.297 50.5865 297.302 51.674 297.564C52.7615 297.826 53.7678 298.338 54.6076 299.057L95.7049 334.419C96.5518 335.149 97.2015 336.068 97.5974 337.096C97.9934 338.125 98.1235 339.231 97.9766 340.319C97.8297 341.408 97.4101 342.445 96.7544 343.34C96.0987 344.235 95.2267 344.962 94.2145 345.456Z" fill="url(#paint0_linear_85_935)"/>
<path d="M149.041 367.465C178.271 367.222 206.77 358.593 230.932 342.671C255.095 326.748 273.836 304.247 284.784 278.013C295.732 251.78 298.395 222.993 292.437 195.294C286.479 167.596 272.167 142.23 251.312 122.405C230.456 102.581 203.995 89.1881 175.274 83.9219C146.554 78.6557 116.865 81.7524 89.9631 92.8202C63.0613 103.888 40.1553 122.43 24.1428 146.1C8.1303 169.77 -0.269282 197.505 0.00658333 225.796C0.376239 263.706 16.2817 299.923 44.2274 326.488C72.1731 353.053 109.873 367.792 149.041 367.465ZM146.624 120.648C167.836 120.437 188.636 126.32 206.393 137.553C224.15 148.785 238.066 164.862 246.381 183.751C254.696 202.639 257.036 223.49 253.106 243.667C249.176 263.843 239.151 282.437 224.301 297.098C209.45 311.759 190.441 321.828 169.677 326.031C148.914 330.234 127.329 328.382 107.653 320.709C87.9767 313.037 71.0937 299.889 59.1393 282.928C47.1849 265.967 40.6963 245.955 40.4942 225.425C40.2293 197.914 51.2581 171.426 71.1579 151.78C91.0576 132.134 118.201 120.937 146.624 120.648Z" fill="url(#paint1_linear_85_935)"/>
<path d="M94.4617 243.542C104.239 243.542 112.165 235.871 112.165 226.407C112.165 216.944 104.239 209.272 94.4617 209.272C84.6844 209.272 76.7583 216.944 76.7583 226.407C76.7583 235.871 84.6844 243.542 94.4617 243.542Z" fill="url(#paint2_linear_85_935)"/>
<path d="M151.593 243.542C161.37 243.542 169.296 235.871 169.296 226.407C169.296 216.944 161.37 209.272 151.593 209.272C141.816 209.272 133.889 216.944 133.889 226.407C133.889 235.871 141.816 243.542 151.593 243.542Z" fill="url(#paint3_linear_85_935)"/>
<path d="M208.745 243.542C218.522 243.542 226.448 235.871 226.448 226.407C226.448 216.944 218.522 209.272 208.745 209.272C198.967 209.272 191.041 216.944 191.041 226.407C191.041 235.871 198.967 243.542 208.745 243.542Z" fill="url(#paint4_radial_85_935)"/>
<path d="M311.353 237.271C325.704 221.426 336.26 202.708 342.266 182.455C348.272 162.202 349.58 140.914 346.095 120.115C342.611 99.3152 334.421 79.5181 322.111 62.1393C309.8 44.7606 293.674 30.2296 274.886 19.5858C256.097 8.94206 235.111 2.44851 213.427 0.569653C191.744 -1.3092 169.9 1.47306 149.457 8.71744C129.014 15.9618 110.477 27.4893 95.1734 42.4753C79.8696 57.4613 68.1764 75.5355 60.9304 95.4051C61.9917 94.7276 63.1885 94.0282 64.1595 93.3725C81.7052 82.9069 101.185 75.8404 121.515 72.5658C138.476 54.8302 161.299 43.3777 186.049 40.1826C210.799 36.9876 235.925 42.2502 257.096 55.0633C278.267 67.8764 294.156 87.437 302.024 110.373C309.892 133.309 309.246 158.184 300.198 180.708V180.927C309.612 211.896 308.743 244.944 297.714 275.409C296.698 278.207 295.456 280.961 294.349 283.671L322.824 297.44C324.084 298.056 325.509 298.287 326.908 298.101C328.307 297.914 329.615 297.32 330.656 296.397C331.698 295.474 332.425 294.266 332.74 292.934C333.055 291.601 332.944 290.208 332.421 288.938L311.353 237.271Z" fill="url(#paint5_linear_85_935)"/>
<path d="M296.471 222.593C296.257 199.808 290.42 177.403 279.448 157.243C268.475 137.084 252.685 119.754 233.391 106.697C214.098 93.6405 191.86 85.2353 168.53 82.1816C145.201 79.128 121.455 81.5143 99.2716 89.1419C102.185 88.9889 182.302 85.4483 234.757 161.965C248.445 179.532 255.884 200.919 255.961 222.921C255.961 363.432 110.359 363.038 81.8843 351.455C104.517 362.554 129.722 367.826 155.071 366.76C180.42 365.695 205.058 358.33 226.612 345.373C248.166 332.417 265.91 314.307 278.133 292.787C290.357 271.267 296.649 247.062 296.403 222.506L296.471 222.593Z" fill="url(#paint6_radial_85_935)"/>
<path d="M19.7037 414.392H4V401H52.2547V414.392H36.246V460.654H19.7037V414.392Z" fill="#DED914"/>
<path d="M70.5866 450.286L67.9947 460.652H55.1497L68.5665 415.902H85.0706L98.8686 460.652H85.4899L82.555 450.286H70.5866ZM80.8397 441.431L78.7053 433.389C77.9811 430.844 77.1044 427.191 76.4183 424.572C75.7322 427.191 75.0461 430.88 74.3601 433.426L72.378 441.431H80.8397Z" fill="#DED914"/>
<path d="M104.777 415.902H117.165V450.618H134.965V460.652H104.777V415.902Z" fill="#DED914"/>
<path d="M141.025 415.902H153.26V434.902H153.451C154.366 433.241 155.395 431.581 156.386 429.995L165.305 415.902H180.551L165.838 434.975L181.085 460.8H166.715L156.996 442.649L153.184 447.26V460.8H140.949L141.025 415.902Z" fill="#DED914"/>
<path d="M186.763 401H203.268V447.299H227.014V460.691H186.763V401Z" fill="#DED914"/>
<path d="M246.035 415.902V460.652H233.647V415.902H246.035Z" fill="#DED914"/>
<path d="M254.725 460.652V415.902H269.323L276.68 429.626C279.416 434.708 281.834 439.943 283.922 445.305C283.255 439.055 282.949 432.773 283.007 426.49V415.902H294.442V460.652H281.406L273.554 445.895C271 441.136 267.989 435.123 265.931 429.737H265.664C265.969 435.75 266.16 442.501 266.16 449.769V460.837L254.725 460.652Z" fill="#DED914"/>
<path d="M343 458.587C337.831 460.176 332.452 461.034 327.029 461.132C319.977 461.69 312.985 459.514 307.59 455.082C305.394 452.978 303.674 450.455 302.539 447.673C301.404 444.892 300.879 441.912 300.996 438.923C300.996 423.355 313.003 415.46 328.02 415.46C332.598 415.311 337.16 416.052 341.437 417.637L338.922 427.229C335.448 425.832 331.703 425.178 327.944 425.31C320.321 425.31 313.994 429.184 313.994 438.296C313.851 440.026 314.091 441.766 314.697 443.399C315.303 445.032 316.262 446.522 317.51 447.768C318.758 449.014 320.266 449.989 321.934 450.627C323.602 451.264 325.391 451.551 327.182 451.467C328.464 451.504 329.745 451.38 330.993 451.098V443.387H324.857V434.09H343V458.587Z" fill="#DED914"/>
<defs>
<linearGradient id="paint0_linear_85_935" x1="7.50383" y1="393.692" x2="72.5593" y2="314.468" gradientUnits="userSpaceOnUse">
<stop offset="0.15" stop-color="#70C5C6"/>
<stop offset="0.88" stop-color="#4F8AF0"/>
</linearGradient>
<linearGradient id="paint1_linear_85_935" x1="148.997" y1="374.319" x2="146.388" y2="88.3041" gradientUnits="userSpaceOnUse">
<stop stop-color="#70C5C6"/>
<stop offset="1" stop-color="#4F8AF0"/>
</linearGradient>
<linearGradient id="paint2_linear_85_935" x1="94.6198" y1="244.307" x2="94.3236" y2="210.037" gradientUnits="userSpaceOnUse">
<stop stop-color="#70C5C6"/>
<stop offset="1" stop-color="#4F8AF0"/>
</linearGradient>
<linearGradient id="paint3_linear_85_935" x1="151.773" y1="244.307" x2="151.456" y2="210.037" gradientUnits="userSpaceOnUse">
<stop stop-color="#70C5C6"/>
<stop offset="1" stop-color="#4F8AF0"/>
</linearGradient>
<radialGradient id="paint4_radial_85_935" cx="0" cy="0" r="1" gradientUnits="userSpaceOnUse" gradientTransform="translate(208.745 226.407) scale(17.7034 17.1349)">
<stop offset="0.34" stop-color="#E5E155"/>
<stop offset="0.5" stop-color="#E5E254" stop-opacity="0.92"/>
<stop offset="0.96" stop-color="#DDF246" stop-opacity="0.8"/>
</radialGradient>
<linearGradient id="paint5_linear_85_935" x1="61.382" y1="-178.841" x2="302.611" y2="327.525" gradientUnits="userSpaceOnUse">
<stop stop-color="#70C5C6"/>
<stop offset="1" stop-color="#4F8AF0"/>
</linearGradient>
<radialGradient id="paint6_radial_85_935" cx="0" cy="0" r="1" gradientUnits="userSpaceOnUse" gradientTransform="translate(189.166 223.948) scale(129.14 124.993)">
<stop offset="0.34" stop-color="#E5E155"/>
<stop offset="0.5" stop-color="#E5E254" stop-opacity="0.92"/>
<stop offset="0.96" stop-color="#DDF246" stop-opacity="0.8"/>
</radialGradient>
</defs>
</svg>
