<svg width="92" height="115" viewBox="0 0 92 115" fill="none" xmlns="http://www.w3.org/2000/svg">
<g id="Logo">
<g id="OBJECTS">
<path id="Vector" d="M24.9073 91.3276L6.62815 100.174C6.29491 100.337 5.9183 100.398 5.54841 100.348C5.17852 100.299 4.83287 100.142 4.55745 99.8981C4.28203 99.6541 4.08988 99.3347 4.00657 98.9824C3.92325 98.6301 3.95272 98.2617 4.09104 97.926L11.4994 79.7427C11.6083 79.476 11.7819 79.2386 12.0057 79.0506C12.2294 78.8626 12.4967 78.7295 12.7848 78.6626C13.0729 78.5958 13.3734 78.597 13.6609 78.6664C13.9484 78.7357 14.2145 78.871 14.4365 79.0609L25.3013 88.4097C25.5252 88.6026 25.6969 88.8456 25.8016 89.1175C25.9063 89.3893 25.9407 89.6818 25.9019 89.9695C25.863 90.2572 25.7521 90.5313 25.5788 90.768C25.4054 91.0047 25.1749 91.1968 24.9073 91.3276Z" fill="url(#paint0_linear_218_632)"/>
<path id="Vector_2" d="M39.4016 97.1461C47.1291 97.0818 54.6634 94.8006 61.0512 90.5911C67.439 86.3817 72.3935 80.4331 75.2877 73.4978C78.182 66.5626 78.8861 58.9523 77.311 51.6296C75.7359 44.307 71.9523 37.601 66.4388 32.36C60.9253 27.119 53.9297 23.5785 46.337 22.1862C38.7442 20.794 30.8954 21.6127 23.7834 24.5387C16.6714 27.4647 10.6158 32.3665 6.38259 38.6241C2.14939 44.8818 -0.0711896 52.214 0.00174042 59.6933C0.0994656 69.7155 4.30435 79.2901 11.6923 86.313C19.0803 93.3359 29.0468 97.2323 39.4016 97.1461ZM38.7628 31.8955C44.3705 31.8398 49.8694 33.395 54.5637 36.3645C59.2581 39.334 62.937 43.5843 65.1353 48.5778C67.3335 53.5713 67.9522 59.0837 66.9132 64.4176C65.8742 69.7516 63.224 74.6674 59.298 78.5433C55.372 82.4192 50.3466 85.0811 44.8573 86.1922C39.3681 87.3033 33.6617 86.8137 28.4599 84.7853C23.2582 82.757 18.7949 79.281 15.6345 74.7971C12.4742 70.3132 10.7588 65.0228 10.7054 59.5951C10.6353 52.322 13.551 45.3194 18.8119 40.1257C24.0727 34.9319 31.2485 31.9718 38.7628 31.8955Z" fill="url(#paint1_linear_218_632)"/>
<path id="Vector_3" d="M24.9727 64.3849C27.5575 64.3849 29.6529 62.3568 29.6529 59.8549C29.6529 57.3531 27.5575 55.325 24.9727 55.325C22.3879 55.325 20.2925 57.3531 20.2925 59.8549C20.2925 62.3568 22.3879 64.3849 24.9727 64.3849Z" fill="url(#paint2_linear_218_632)"/>
<path id="Vector_4" d="M40.0763 64.3849C42.6612 64.3849 44.7566 62.3568 44.7566 59.8549C44.7566 57.3531 42.6612 55.325 40.0763 55.325C37.4915 55.325 35.3961 57.3531 35.3961 59.8549C35.3961 62.3568 37.4915 64.3849 40.0763 64.3849Z" fill="url(#paint3_linear_218_632)"/>
<path id="Vector_5" d="M55.1855 64.3849C57.7703 64.3849 59.8657 62.3568 59.8657 59.8549C59.8657 57.3531 57.7703 55.325 55.1855 55.325C52.6007 55.325 50.5052 57.3531 50.5052 59.8549C50.5052 62.3568 52.6007 64.3849 55.1855 64.3849Z" fill="url(#paint4_radial_218_632)"/>
<path id="Vector_6" d="M82.3117 62.7269C86.1057 58.5381 88.8964 53.5896 90.4842 48.2352C92.072 42.8809 92.4177 37.2532 91.4966 31.7545C90.5754 26.2558 88.4102 21.022 85.1558 16.4277C81.9013 11.8333 77.6381 7.99174 72.671 5.17787C67.704 2.364 62.1558 0.647308 56.4234 0.150598C50.691 -0.346112 44.916 0.38943 39.5115 2.30461C34.1071 4.2198 29.2066 7.26729 25.1608 11.2291C21.1149 15.1909 18.0236 19.9692 16.108 25.2221C16.3886 25.043 16.705 24.8581 16.9617 24.6847C21.6002 21.9179 26.75 20.0498 32.1247 19.1841C36.6087 14.4953 42.6423 11.4677 49.1854 10.623C55.7286 9.77834 62.3711 11.1696 67.9681 14.557C73.565 17.9443 77.7655 23.1156 79.8456 29.1791C81.9257 35.2427 81.7549 41.8187 79.3627 47.7735V47.8313C81.8514 56.0185 81.6217 64.7553 78.706 72.8094C78.4374 73.549 78.1091 74.277 77.8166 74.9935L85.3443 78.6336C85.6776 78.7966 86.0542 78.8576 86.4241 78.8083C86.794 78.7591 87.1396 78.602 87.415 78.358C87.6904 78.114 87.8826 77.7947 87.9659 77.4424C88.0492 77.0901 88.0198 76.7217 87.8814 76.386L82.3117 62.7269Z" fill="url(#paint5_linear_218_632)"/>
<path id="Vector_7" d="M78.3774 58.8466C78.3208 52.823 76.7778 46.8997 73.8771 41.5701C70.9763 36.2406 66.8018 31.6591 61.7012 28.2074C56.6006 24.7556 50.7216 22.5335 44.554 21.7262C38.3865 20.9189 32.1089 21.5498 26.2442 23.5663C27.0143 23.5259 48.1947 22.5898 62.0623 42.8185C65.6809 47.4626 67.6476 53.1165 67.6678 58.9333C67.6678 96.0798 29.1753 95.9758 21.6476 92.9135C27.631 95.8479 34.2944 97.2414 40.9958 96.9598C47.6972 96.6782 54.2108 94.731 59.909 91.3058C65.6072 87.8806 70.2981 83.0927 73.5296 77.4035C76.7612 71.7143 78.4245 65.3155 78.3595 58.8235L78.3774 58.8466Z" fill="url(#paint6_radial_218_632)"/>
</g>
<g id="TEXT">
<path id="Vector_8" d="M24.2387 106.945H21.7792V104.848H29.3368V106.945H26.8295V114.191H24.2387V106.945Z" fill="#DED914"/>
<path id="Vector_9" d="M32.2079 112.567L31.8019 114.191H29.7902L31.8915 107.182H34.4764L36.6374 114.191H34.542L34.0824 112.567H32.2079ZM33.8137 111.18L33.4794 109.921C33.366 109.522 33.2287 108.95 33.1212 108.54C33.0138 108.95 32.9063 109.528 32.7989 109.927L32.4885 111.18H33.8137Z" fill="#DED914"/>
<path id="Vector_10" d="M37.5629 107.182H39.503V112.619H42.2908V114.191H37.5629V107.182Z" fill="#DED914"/>
<path id="Vector_11" d="M43.2398 107.182H45.1561V110.158H45.186C45.3292 109.898 45.4904 109.638 45.6456 109.389L47.0425 107.182H49.4304L47.1261 110.169L49.514 114.214H47.2634L45.7411 111.371L45.1442 112.093V114.214H43.2279L43.2398 107.182Z" fill="#DED914"/>
<path id="Vector_12" d="M50.4033 104.848H52.9882V112.099H56.7073V114.197H50.4033V104.848Z" fill="#DED914"/>
<path id="Vector_13" d="M59.6865 107.182V114.191H57.7463V107.182H59.6865Z" fill="#DED914"/>
<path id="Vector_14" d="M61.0476 114.191V107.182H63.334L64.4861 109.332C64.9146 110.127 65.2934 110.947 65.6204 111.787C65.5159 110.808 65.4681 109.824 65.4771 108.84V107.182H67.268V114.191H65.2264L63.9966 111.88C63.5967 111.134 63.1251 110.192 62.8027 109.349H62.7609C62.8087 110.291 62.8385 111.348 62.8385 112.486V114.22L61.0476 114.191Z" fill="#DED914"/>
<path id="Vector_15" d="M74.8731 113.867C74.0636 114.116 73.2211 114.251 72.3718 114.266C71.2673 114.353 70.1722 114.013 69.3273 113.318C68.9834 112.989 68.714 112.594 68.5362 112.158C68.3584 111.722 68.2761 111.256 68.2945 110.788C68.2945 108.349 70.175 107.113 72.527 107.113C73.244 107.09 73.9584 107.206 74.6283 107.454L74.2343 108.956C73.6903 108.737 73.1038 108.635 72.5151 108.656C71.3212 108.656 70.3302 109.262 70.3302 110.689C70.3078 110.96 70.3453 111.233 70.4403 111.489C70.5353 111.745 70.6855 111.978 70.881 112.173C71.0764 112.368 71.3126 112.521 71.5738 112.621C71.835 112.721 72.1152 112.765 72.3957 112.752C72.5964 112.758 72.7971 112.739 72.9927 112.694V111.487H72.0315V110.031H74.8731V113.867Z" fill="#DED914"/>
</g>
</g>
<defs>
<linearGradient id="paint0_linear_218_632" x1="1.98375" y1="104.08" x2="19.1823" y2="83.1351" gradientUnits="userSpaceOnUse">
<stop offset="0.15" stop-color="#70C5C6"/>
<stop offset="0.88" stop-color="#4F8AF0"/>
</linearGradient>
<linearGradient id="paint1_linear_218_632" x1="39.39" y1="98.9581" x2="38.7003" y2="23.3448" gradientUnits="userSpaceOnUse">
<stop stop-color="#70C5C6"/>
<stop offset="1" stop-color="#4F8AF0"/>
</linearGradient>
<linearGradient id="paint2_linear_218_632" x1="25.0145" y1="64.5871" x2="24.9362" y2="55.5272" gradientUnits="userSpaceOnUse">
<stop stop-color="#70C5C6"/>
<stop offset="1" stop-color="#4F8AF0"/>
</linearGradient>
<linearGradient id="paint3_linear_218_632" x1="40.1241" y1="64.5871" x2="40.0402" y2="55.5272" gradientUnits="userSpaceOnUse">
<stop stop-color="#70C5C6"/>
<stop offset="1" stop-color="#4F8AF0"/>
</linearGradient>
<radialGradient id="paint4_radial_218_632" cx="0" cy="0" r="1" gradientUnits="userSpaceOnUse" gradientTransform="translate(55.1855 59.8549) scale(4.68023 4.52993)">
<stop offset="0.34" stop-color="#E5E155"/>
<stop offset="0.5" stop-color="#E5E254" stop-opacity="0.92"/>
<stop offset="0.96" stop-color="#DDF246" stop-opacity="0.8"/>
</radialGradient>
<linearGradient id="paint5_linear_218_632" x1="16.2274" y1="-47.2799" x2="80.0008" y2="86.5872" gradientUnits="userSpaceOnUse">
<stop stop-color="#70C5C6"/>
<stop offset="1" stop-color="#4F8AF0"/>
</linearGradient>
<radialGradient id="paint6_radial_218_632" cx="0" cy="0" r="1" gradientUnits="userSpaceOnUse" gradientTransform="translate(50.0095 59.2048) scale(34.1406 33.0442)">
<stop offset="0.34" stop-color="#E5E155"/>
<stop offset="0.5" stop-color="#E5E254" stop-opacity="0.92"/>
<stop offset="0.96" stop-color="#DDF246" stop-opacity="0.8"/>
</radialGradient>
</defs>
</svg>
