<svg width="339" height="61" viewBox="0 0 339 61" fill="none" xmlns="http://www.w3.org/2000/svg">
<path d="M15.7037 13.3918H0V0H48.2547V13.3918H32.246V59.6541H15.7037V13.3918Z" fill="#DED914"/>
<path d="M66.5866 49.2855L63.9947 59.6521H51.1497L64.5665 14.9023H81.0706L94.8686 59.6521H81.4899L78.555 49.2855H66.5866ZM76.8397 40.4315L74.7053 32.389C73.9811 29.8435 73.1044 26.1912 72.4183 23.5719C71.7322 26.1912 71.0461 29.8804 70.3601 32.426L68.378 40.4315H76.8397Z" fill="#DED914"/>
<path d="M100.777 14.9023H113.165V49.6175H130.965V59.6521H100.777V14.9023Z" fill="#DED914"/>
<path d="M137.025 14.9023H149.26V33.9016H149.451C150.366 32.2415 151.395 30.5813 152.386 28.995L161.305 14.9023H176.551L161.838 33.9754L177.085 59.7997H162.715L152.996 41.6489L149.184 46.2604V59.7997H136.949L137.025 14.9023Z" fill="#DED914"/>
<path d="M182.763 0H199.268V46.2993H223.014V59.691H182.763V0Z" fill="#DED914"/>
<path d="M242.035 14.9023V59.6521H229.647V14.9023H242.035Z" fill="#DED914"/>
<path d="M250.725 59.6521V14.9023H265.323L272.68 28.6261C275.416 33.7076 277.834 38.9433 279.922 44.3051C279.255 38.0549 278.949 31.7735 279.007 25.4903V14.9023H290.442V59.6521H277.406L269.554 44.8954C267 40.1363 263.989 34.123 261.931 28.7368H261.664C261.969 34.7502 262.16 41.5013 262.16 48.769V59.8366L250.725 59.6521Z" fill="#DED914"/>
<path d="M339 57.5867C333.831 59.1763 328.452 60.0337 323.029 60.1322C315.977 60.69 308.985 58.5137 303.59 54.0819C301.394 51.9778 299.674 49.4549 298.539 46.6732C297.404 43.8916 296.879 40.9119 296.996 37.9233C296.996 22.3549 309.003 14.4601 324.02 14.4601C328.598 14.3114 333.16 15.0516 337.437 16.6367L334.922 26.2286C331.448 24.8323 327.703 24.178 323.944 24.3102C316.321 24.3102 309.994 28.1839 309.994 37.2961C309.851 39.0262 310.091 40.7659 310.697 42.3992C311.303 44.0325 312.262 45.5219 313.51 46.7682C314.758 48.0145 316.266 48.9889 317.934 49.6267C319.602 50.2644 321.391 50.5507 323.182 50.4666C324.464 50.504 325.745 50.38 326.993 50.0976V42.3872H320.857V33.0905H339V57.5867Z" fill="#DED914"/>
</svg>
